M48
; DRILL file {KiCad (6.0.1)} date Sat Jul 30 17:19:54 2022
; FORMAT={-:-/ absolute / metric / decimal}
; #@! TF.CreationDate,2022-07-30T17:19:54+08:00
; #@! TF.GenerationSoftware,Kicad,Pcbnew,(6.0.1)
; #@! TF.FileFunction,Plated,1,2,PTH
FMAT,2
METRIC
; #@! TA.AperFunction,Plated,PTH,ViaDrill
T1C0.400
; #@! TA.AperFunction,Plated,PTH,ComponentDrill
T2C1.000
; #@! TA.AperFunction,Plated,PTH,ComponentDrill
T3C1.500
; #@! TA.AperFunction,Plated,PTH,ComponentDrill
T4C3.200
%
G90
G05
T1
X105.41Y-121.285
X111.125Y-168.91
X111.76Y-140.97
X116.205Y-153.67
X118.745Y-136.525
X124.46Y-125.73
X127.635Y-170.815
X133.985Y-130.81
X135.89Y-112.395
X135.89Y-139.7
X142.24Y-112.395
X142.875Y-153.67
X143.28Y-141.835
X143.51Y-116.205
X157.48Y-167.64
X168.275Y-154.94
X171.45Y-130.175
X173.355Y-179.705
X191.135Y-118.745
X191.135Y-133.985
X193.675Y-154.94
X203.2Y-158.75
X212.725Y-180.975
X214.63Y-151.13
X215.9Y-116.205
X217.805Y-136.525
X217.805Y-140.97
X221.615Y-104.775
X225.519Y-117.677
X231.14Y-156.845
X235.585Y-144.145
X236.855Y-130.81
X248.285Y-184.15
X250.19Y-159.385
X253.365Y-190.5
X259.08Y-152.4
X266.065Y-137.795
X269.875Y-123.19
X282.575Y-157.48
X291.465Y-153.67
X327.66Y-118.745
X334.01Y-120.015
X338.409Y-150.969
T2
X53.34Y-118.115
X53.34Y-120.655
X53.34Y-123.195
X53.34Y-125.735
X53.34Y-128.275
X53.34Y-130.815
X53.34Y-133.355
X53.34Y-135.895
X53.34Y-138.435
X53.34Y-140.975
X156.21Y-104.14
X158.75Y-104.14
X161.29Y-104.14
X163.83Y-104.14
X166.37Y-104.14
X168.91Y-104.14
X171.45Y-104.14
X173.99Y-104.14
X176.53Y-104.14
X179.07Y-104.14
X229.87Y-104.14
X232.41Y-104.14
X234.95Y-104.14
X237.49Y-104.14
X240.03Y-104.14
X242.57Y-104.14
X245.11Y-104.14
X247.65Y-104.14
X250.19Y-104.14
X252.73Y-104.14
X357.4Y-118.115
X357.4Y-120.655
X357.4Y-123.195
X357.4Y-125.735
X357.4Y-128.275
X357.4Y-130.815
X357.4Y-133.355
X357.4Y-135.895
X357.4Y-138.435
X357.4Y-140.975
T3
X83.82Y-184.54
X85.09Y-205.74
X90.17Y-182.0
X91.44Y-123.19
X91.44Y-203.2
X97.79Y-120.65
X100.33Y-143.51
X104.14Y-164.15
X106.68Y-140.97
X110.49Y-161.61
X111.76Y-123.19
X115.57Y-184.54
X118.11Y-120.65
X120.65Y-143.51
X121.92Y-182.0
X124.46Y-164.15
X127.0Y-140.97
X130.81Y-161.61
X132.08Y-123.19
X135.89Y-184.54
X138.43Y-120.65
X140.97Y-143.51
X142.24Y-182.0
X144.78Y-164.15
X147.32Y-140.97
X151.13Y-161.61
X152.4Y-123.19
X156.21Y-184.54
X158.75Y-120.65
X161.29Y-143.51
X162.56Y-182.0
X165.1Y-164.15
X167.64Y-140.97
X171.45Y-161.61
X172.72Y-123.19
X176.53Y-184.54
X179.07Y-120.65
X181.61Y-143.51
X182.88Y-182.0
X185.42Y-164.15
X187.96Y-140.97
X191.77Y-161.61
X193.04Y-123.19
X196.85Y-184.54
X196.85Y-205.74
X199.39Y-120.65
X201.93Y-143.51
X203.2Y-182.0
X203.2Y-203.2
X205.74Y-164.15
X208.28Y-140.97
X212.09Y-161.61
X213.36Y-123.19
X217.17Y-184.54
X219.71Y-120.65
X222.25Y-143.51
X223.52Y-182.0
X226.06Y-164.15
X228.6Y-140.97
X232.41Y-161.61
X233.68Y-123.19
X237.49Y-184.54
X240.03Y-120.65
X242.57Y-143.51
X243.84Y-182.0
X246.38Y-164.15
X248.92Y-140.97
X252.73Y-161.61
X254.0Y-123.19
X257.81Y-184.54
X260.35Y-120.65
X262.89Y-143.51
X264.16Y-182.0
X266.7Y-164.15
X269.24Y-140.97
X271.78Y-205.74
X273.05Y-161.61
X274.32Y-123.19
X278.13Y-184.54
X278.13Y-203.2
X280.67Y-120.65
X283.21Y-143.51
X284.48Y-182.0
X287.02Y-164.15
X289.56Y-140.97
X292.1Y-205.74
X293.37Y-161.61
X294.64Y-123.19
X298.45Y-184.54
X298.45Y-203.2
X300.99Y-120.65
X304.8Y-182.0
X314.96Y-123.19
X320.04Y-164.15
X321.31Y-120.65
X326.39Y-161.61
X330.2Y-184.54
X336.55Y-182.0
T4
X48.815Y-98.345
X48.815Y-221.06
X362.03Y-98.345
X362.03Y-221.06
T0
M30
