%TF.GenerationSoftware,KiCad,Pcbnew,(6.0.1)*%
%TF.CreationDate,2022-07-30T17:19:38+08:00*%
%TF.ProjectId,CrVisionMech,43725669-7369-46f6-9e4d-6563682e6b69,rev?*%
%TF.SameCoordinates,Original*%
%TF.FileFunction,Soldermask,Bot*%
%TF.FilePolarity,Negative*%
%FSLAX46Y46*%
G04 Gerber Fmt 4.6, Leading zero omitted, Abs format (unit mm)*
G04 Created by KiCad (PCBNEW (6.0.1)) date 2022-07-30 17:19:38*
%MOMM*%
%LPD*%
G01*
G04 APERTURE LIST*
%ADD10C,1.700000*%
%ADD11C,4.000000*%
%ADD12C,2.200000*%
%ADD13C,5.600000*%
%ADD14R,1.700000X1.700000*%
%ADD15O,1.700000X1.700000*%
%ADD16C,3.050000*%
%ADD17R,0.600000X0.700000*%
G04 APERTURE END LIST*
D10*
X232410000Y-125730000D03*
X242570000Y-125730000D03*
D11*
X237490000Y-125730000D03*
D12*
X240030000Y-120650000D03*
X233680000Y-123190000D03*
D11*
X318770000Y-125730000D03*
D10*
X313690000Y-125730000D03*
X323850000Y-125730000D03*
D12*
X321310000Y-120650000D03*
X314960000Y-123190000D03*
D13*
X48815000Y-221060000D03*
D10*
X171450000Y-125730000D03*
D11*
X176530000Y-125730000D03*
D10*
X181610000Y-125730000D03*
D12*
X179070000Y-120650000D03*
X172720000Y-123190000D03*
D10*
X271780000Y-146050000D03*
D11*
X266700000Y-146050000D03*
D10*
X261620000Y-146050000D03*
D12*
X269240000Y-140970000D03*
X262890000Y-143510000D03*
D10*
X236220000Y-187080000D03*
X246380000Y-187080000D03*
D11*
X241300000Y-187080000D03*
D12*
X243840000Y-182000000D03*
X237490000Y-184540000D03*
D11*
X281940000Y-187080000D03*
D10*
X287020000Y-187080000D03*
X276860000Y-187080000D03*
D12*
X284480000Y-182000000D03*
X278130000Y-184540000D03*
D14*
X156210000Y-104140000D03*
D15*
X158750000Y-104140000D03*
X161290000Y-104140000D03*
X163830000Y-104140000D03*
X166370000Y-104140000D03*
X168910000Y-104140000D03*
X171450000Y-104140000D03*
X173990000Y-104140000D03*
X176530000Y-104140000D03*
X179070000Y-104140000D03*
D10*
X129540000Y-146050000D03*
D11*
X124460000Y-146050000D03*
D10*
X119380000Y-146050000D03*
D12*
X127000000Y-140970000D03*
X120650000Y-143510000D03*
D11*
X335750000Y-174930000D03*
D10*
X318770000Y-166690000D03*
X328930000Y-166690000D03*
D11*
X323850000Y-166690000D03*
D16*
X311950000Y-159690000D03*
X335750000Y-159690000D03*
D11*
X311950000Y-174930000D03*
D12*
X326390000Y-161610000D03*
X320040000Y-164150000D03*
D11*
X144780000Y-146050000D03*
D10*
X139700000Y-146050000D03*
X149860000Y-146050000D03*
D12*
X147320000Y-140970000D03*
X140970000Y-143510000D03*
D10*
X170180000Y-146050000D03*
D11*
X165100000Y-146050000D03*
D10*
X160020000Y-146050000D03*
D12*
X167640000Y-140970000D03*
X161290000Y-143510000D03*
D10*
X220980000Y-146050000D03*
X231140000Y-146050000D03*
D11*
X226060000Y-146050000D03*
D12*
X228600000Y-140970000D03*
X222250000Y-143510000D03*
D13*
X48815000Y-98345000D03*
D11*
X139700000Y-187080000D03*
D10*
X134620000Y-187080000D03*
X144780000Y-187080000D03*
D12*
X142240000Y-182000000D03*
X135890000Y-184540000D03*
D11*
X261620000Y-187080000D03*
D10*
X266700000Y-187080000D03*
X256540000Y-187080000D03*
D12*
X264160000Y-182000000D03*
X257810000Y-184540000D03*
D10*
X114300000Y-187080000D03*
D11*
X119380000Y-187080000D03*
D10*
X124460000Y-187080000D03*
D12*
X121920000Y-182000000D03*
X115570000Y-184540000D03*
D10*
X303530000Y-125730000D03*
X293370000Y-125730000D03*
D11*
X298450000Y-125730000D03*
D12*
X300990000Y-120650000D03*
X294640000Y-123190000D03*
D11*
X200660000Y-208280000D03*
D10*
X195580000Y-208280000D03*
D16*
X150660000Y-201280000D03*
D11*
X150660000Y-216520000D03*
D10*
X205740000Y-208280000D03*
D11*
X250660000Y-216520000D03*
D16*
X250660000Y-201280000D03*
D12*
X203200000Y-203200000D03*
X196850000Y-205740000D03*
D11*
X278130000Y-125730000D03*
D10*
X273050000Y-125730000D03*
X283210000Y-125730000D03*
D12*
X280670000Y-120650000D03*
X274320000Y-123190000D03*
D10*
X215900000Y-187080000D03*
D11*
X220980000Y-187080000D03*
D10*
X226060000Y-187080000D03*
D12*
X223520000Y-182000000D03*
X217170000Y-184540000D03*
D10*
X300990000Y-208280000D03*
D11*
X295910000Y-208280000D03*
D10*
X290830000Y-208280000D03*
D12*
X298450000Y-203200000D03*
X292100000Y-205740000D03*
D10*
X224790000Y-166690000D03*
D11*
X229870000Y-166690000D03*
D10*
X234950000Y-166690000D03*
D12*
X232410000Y-161610000D03*
X226060000Y-164150000D03*
D11*
X160020000Y-187080000D03*
D10*
X154940000Y-187080000D03*
X165100000Y-187080000D03*
D12*
X162560000Y-182000000D03*
X156210000Y-184540000D03*
D10*
X113030000Y-166690000D03*
D11*
X107950000Y-166690000D03*
D10*
X102870000Y-166690000D03*
D12*
X110490000Y-161610000D03*
X104140000Y-164150000D03*
D10*
X93980000Y-208280000D03*
D11*
X88900000Y-208280000D03*
D10*
X83820000Y-208280000D03*
D12*
X91440000Y-203200000D03*
X85090000Y-205740000D03*
D11*
X185420000Y-146050000D03*
D10*
X180340000Y-146050000D03*
X190500000Y-146050000D03*
D12*
X187960000Y-140970000D03*
X181610000Y-143510000D03*
D11*
X217170000Y-125730000D03*
D10*
X212090000Y-125730000D03*
X222250000Y-125730000D03*
D12*
X219710000Y-120650000D03*
X213360000Y-123190000D03*
D10*
X90170000Y-125730000D03*
X100330000Y-125730000D03*
D11*
X95250000Y-125730000D03*
D12*
X97790000Y-120650000D03*
X91440000Y-123190000D03*
D13*
X362030000Y-221060000D03*
D11*
X128270000Y-166690000D03*
D10*
X123190000Y-166690000D03*
X133350000Y-166690000D03*
D12*
X130810000Y-161610000D03*
X124460000Y-164150000D03*
D10*
X252730000Y-125730000D03*
X262890000Y-125730000D03*
D11*
X257810000Y-125730000D03*
D12*
X260350000Y-120650000D03*
X254000000Y-123190000D03*
D11*
X270510000Y-166690000D03*
D10*
X265430000Y-166690000D03*
X275590000Y-166690000D03*
D12*
X273050000Y-161610000D03*
X266700000Y-164150000D03*
D10*
X130810000Y-125730000D03*
X140970000Y-125730000D03*
D11*
X135890000Y-125730000D03*
D12*
X138430000Y-120650000D03*
X132080000Y-123190000D03*
D10*
X161290000Y-125730000D03*
D11*
X156210000Y-125730000D03*
D10*
X151130000Y-125730000D03*
D12*
X158750000Y-120650000D03*
X152400000Y-123190000D03*
D14*
X357400000Y-118115000D03*
D15*
X357400000Y-120655000D03*
X357400000Y-123195000D03*
X357400000Y-125735000D03*
X357400000Y-128275000D03*
X357400000Y-130815000D03*
X357400000Y-133355000D03*
X357400000Y-135895000D03*
X357400000Y-138435000D03*
X357400000Y-140975000D03*
D10*
X292100000Y-146050000D03*
D11*
X287020000Y-146050000D03*
D10*
X281940000Y-146050000D03*
D12*
X289560000Y-140970000D03*
X283210000Y-143510000D03*
D10*
X110490000Y-125730000D03*
D11*
X115570000Y-125730000D03*
D10*
X120650000Y-125730000D03*
D12*
X118110000Y-120650000D03*
X111760000Y-123190000D03*
D13*
X362030000Y-98345000D03*
D10*
X328930000Y-187080000D03*
D16*
X345910000Y-180080000D03*
D11*
X345910000Y-195320000D03*
D10*
X339090000Y-187080000D03*
D16*
X322110000Y-180080000D03*
D11*
X334010000Y-187080000D03*
X322110000Y-195320000D03*
D12*
X336550000Y-182000000D03*
X330200000Y-184540000D03*
D10*
X200660000Y-146050000D03*
X210820000Y-146050000D03*
D11*
X205740000Y-146050000D03*
D12*
X208280000Y-140970000D03*
X201930000Y-143510000D03*
D10*
X191770000Y-125730000D03*
X201930000Y-125730000D03*
D11*
X196850000Y-125730000D03*
D12*
X199390000Y-120650000D03*
X193040000Y-123190000D03*
D14*
X229870000Y-104140000D03*
D15*
X232410000Y-104140000D03*
X234950000Y-104140000D03*
X237490000Y-104140000D03*
X240030000Y-104140000D03*
X242570000Y-104140000D03*
X245110000Y-104140000D03*
X247650000Y-104140000D03*
X250190000Y-104140000D03*
X252730000Y-104140000D03*
D10*
X204470000Y-166690000D03*
D11*
X209550000Y-166690000D03*
D10*
X214630000Y-166690000D03*
D12*
X212090000Y-161610000D03*
X205740000Y-164150000D03*
D10*
X270510000Y-208280000D03*
X280670000Y-208280000D03*
D11*
X275590000Y-208280000D03*
D12*
X278130000Y-203200000D03*
X271780000Y-205740000D03*
D10*
X194310000Y-166690000D03*
D11*
X189230000Y-166690000D03*
D10*
X184150000Y-166690000D03*
D12*
X191770000Y-161610000D03*
X185420000Y-164150000D03*
D11*
X246380000Y-146050000D03*
D10*
X241300000Y-146050000D03*
X251460000Y-146050000D03*
D12*
X248920000Y-140970000D03*
X242570000Y-143510000D03*
D11*
X148590000Y-166690000D03*
D10*
X143510000Y-166690000D03*
X153670000Y-166690000D03*
D12*
X151130000Y-161610000D03*
X144780000Y-164150000D03*
D10*
X82550000Y-187080000D03*
D16*
X99530000Y-180080000D03*
D10*
X92710000Y-187080000D03*
D11*
X87630000Y-187080000D03*
D16*
X75730000Y-180080000D03*
D11*
X99530000Y-195320000D03*
X75730000Y-195320000D03*
D12*
X90170000Y-182000000D03*
X83820000Y-184540000D03*
D10*
X285750000Y-166690000D03*
D11*
X290830000Y-166690000D03*
D10*
X295910000Y-166690000D03*
D12*
X293370000Y-161610000D03*
X287020000Y-164150000D03*
D10*
X245110000Y-166690000D03*
D11*
X250190000Y-166690000D03*
D10*
X255270000Y-166690000D03*
D12*
X252730000Y-161610000D03*
X246380000Y-164150000D03*
D11*
X168910000Y-166690000D03*
D10*
X163830000Y-166690000D03*
X173990000Y-166690000D03*
D12*
X171450000Y-161610000D03*
X165100000Y-164150000D03*
D11*
X180340000Y-187080000D03*
D10*
X175260000Y-187080000D03*
X185420000Y-187080000D03*
D12*
X182880000Y-182000000D03*
X176530000Y-184540000D03*
D10*
X109220000Y-146050000D03*
X99060000Y-146050000D03*
D11*
X104140000Y-146050000D03*
D12*
X106680000Y-140970000D03*
X100330000Y-143510000D03*
D10*
X297180000Y-187080000D03*
X307340000Y-187080000D03*
D11*
X302260000Y-187080000D03*
D12*
X304800000Y-182000000D03*
X298450000Y-184540000D03*
D14*
X53340000Y-118115000D03*
D15*
X53340000Y-120655000D03*
X53340000Y-123195000D03*
X53340000Y-125735000D03*
X53340000Y-128275000D03*
X53340000Y-130815000D03*
X53340000Y-133355000D03*
X53340000Y-135895000D03*
X53340000Y-138435000D03*
X53340000Y-140975000D03*
D11*
X200660000Y-187080000D03*
D10*
X195580000Y-187080000D03*
X205740000Y-187080000D03*
D12*
X203200000Y-182000000D03*
X196850000Y-184540000D03*
D17*
X121702104Y-137795000D03*
X120302104Y-137795000D03*
X284862500Y-198755000D03*
X283462500Y-198755000D03*
X90870000Y-177165000D03*
X89470000Y-177165000D03*
X226292096Y-177165000D03*
X224892096Y-177165000D03*
X198519214Y-157480000D03*
X197119214Y-157480000D03*
X201590520Y-137795000D03*
X200190520Y-137795000D03*
X158458178Y-116205000D03*
X157058178Y-116205000D03*
X158948690Y-157480000D03*
X157548690Y-157480000D03*
X297445535Y-157480000D03*
X296045535Y-157480000D03*
X256471304Y-177165000D03*
X255071304Y-177165000D03*
X306770000Y-177165000D03*
X305370000Y-177165000D03*
X287552893Y-157480000D03*
X286152893Y-157480000D03*
X236351832Y-177165000D03*
X234951832Y-177165000D03*
X186053152Y-177165000D03*
X184653152Y-177165000D03*
X278195000Y-198755000D03*
X276795000Y-198755000D03*
X96650000Y-116205000D03*
X95250000Y-116205000D03*
X115635000Y-177165000D03*
X114235000Y-177165000D03*
X318835000Y-157480000D03*
X317435000Y-157480000D03*
X127554089Y-116205000D03*
X126154089Y-116205000D03*
X168841321Y-157480000D03*
X167441321Y-157480000D03*
X302677260Y-116205000D03*
X301277260Y-116205000D03*
X211576572Y-137795000D03*
X210176572Y-137795000D03*
X199663630Y-116205000D03*
X198263630Y-116205000D03*
X171632364Y-137795000D03*
X170232364Y-137795000D03*
X257875000Y-157480000D03*
X256475000Y-157480000D03*
X251170445Y-116205000D03*
X249770445Y-116205000D03*
X261506832Y-137795000D03*
X260106832Y-137795000D03*
X292375897Y-116205000D03*
X290975897Y-116205000D03*
X281478936Y-137795000D03*
X280078936Y-137795000D03*
X276590776Y-177165000D03*
X275190776Y-177165000D03*
X148156815Y-116205000D03*
X146756815Y-116205000D03*
X119378166Y-157480000D03*
X117978166Y-157480000D03*
X228197107Y-157480000D03*
X226797107Y-157480000D03*
X178733952Y-157480000D03*
X177333952Y-157480000D03*
X261471808Y-116205000D03*
X260071808Y-116205000D03*
X181618416Y-137795000D03*
X180218416Y-137795000D03*
X267767631Y-157480000D03*
X266367631Y-157480000D03*
X161646312Y-137795000D03*
X160246312Y-137795000D03*
X125694736Y-177165000D03*
X124294736Y-177165000D03*
X196112888Y-177165000D03*
X194712888Y-177165000D03*
X165933680Y-177165000D03*
X164533680Y-177165000D03*
X149056059Y-157480000D03*
X147656059Y-157480000D03*
X106951363Y-116205000D03*
X105551363Y-116205000D03*
X266531040Y-177165000D03*
X265131040Y-177165000D03*
X191604468Y-137795000D03*
X190204468Y-137795000D03*
X141674208Y-137795000D03*
X140274208Y-137795000D03*
X101730000Y-137795000D03*
X100330000Y-137795000D03*
X271773171Y-116205000D03*
X270373171Y-116205000D03*
X282074534Y-116205000D03*
X280674534Y-116205000D03*
X151660260Y-137795000D03*
X150260260Y-137795000D03*
X137855452Y-116205000D03*
X136455452Y-116205000D03*
X155873944Y-177165000D03*
X154473944Y-177165000D03*
X286650512Y-177165000D03*
X285250512Y-177165000D03*
X241534728Y-137795000D03*
X240134728Y-137795000D03*
X216232360Y-177165000D03*
X214832360Y-177165000D03*
X291465000Y-137795000D03*
X290065000Y-137795000D03*
X175993416Y-177165000D03*
X174593416Y-177165000D03*
X240869082Y-116205000D03*
X239469082Y-116205000D03*
X208411845Y-157480000D03*
X207011845Y-157480000D03*
X131688156Y-137795000D03*
X130288156Y-137795000D03*
X94680000Y-198755000D03*
X93280000Y-198755000D03*
X291530000Y-198755000D03*
X290130000Y-198755000D03*
X277660262Y-157480000D03*
X276260262Y-157480000D03*
X218304476Y-157480000D03*
X216904476Y-157480000D03*
X189362267Y-116205000D03*
X187962267Y-116205000D03*
X139163428Y-157480000D03*
X137763428Y-157480000D03*
X111716052Y-137795000D03*
X110316052Y-137795000D03*
X168759541Y-116205000D03*
X167359541Y-116205000D03*
X129270797Y-157480000D03*
X127870797Y-157480000D03*
X328995000Y-157480000D03*
X327595000Y-157480000D03*
X209964993Y-116205000D03*
X208564993Y-116205000D03*
X188626583Y-157480000D03*
X187226583Y-157480000D03*
X206172624Y-177165000D03*
X204772624Y-177165000D03*
X230567719Y-116205000D03*
X229167719Y-116205000D03*
X271492884Y-137795000D03*
X270092884Y-137795000D03*
X296710248Y-177165000D03*
X295310248Y-177165000D03*
X207075000Y-198755000D03*
X205675000Y-198755000D03*
X323280000Y-116205000D03*
X321880000Y-116205000D03*
X179060904Y-116205000D03*
X177660904Y-116205000D03*
X231548676Y-137795000D03*
X230148676Y-137795000D03*
X196280000Y-198755000D03*
X194880000Y-198755000D03*
X220266356Y-116205000D03*
X218866356Y-116205000D03*
X312978623Y-116205000D03*
X311578623Y-116205000D03*
X247982369Y-157480000D03*
X246582369Y-157480000D03*
X221562624Y-137795000D03*
X220162624Y-137795000D03*
X117252726Y-116205000D03*
X115852726Y-116205000D03*
X251520780Y-137795000D03*
X250120780Y-137795000D03*
X246411568Y-177165000D03*
X245011568Y-177165000D03*
X135754472Y-177165000D03*
X134354472Y-177165000D03*
X145814208Y-177165000D03*
X144414208Y-177165000D03*
X238089738Y-157480000D03*
X236689738Y-157480000D03*
X109485535Y-157480000D03*
X108085535Y-157480000D03*
M02*
