M48
; DRILL file {KiCad (6.0.1)} date Sat Jul 30 17:19:54 2022
; FORMAT={-:-/ absolute / metric / decimal}
; #@! TF.CreationDate,2022-07-30T17:19:54+08:00
; #@! TF.GenerationSoftware,Kicad,Pcbnew,(6.0.1)
; #@! TF.FileFunction,NonPlated,1,2,NPTH
FMAT,2
METRIC
; #@! TA.AperFunction,NonPlated,NPTH,ComponentDrill
T1C1.700
; #@! TA.AperFunction,NonPlated,NPTH,ComponentDrill
T2C3.050
; #@! TA.AperFunction,NonPlated,NPTH,ComponentDrill
T3C4.000
%
G90
G05
T1
X82.55Y-187.08
X83.82Y-208.28
X90.17Y-125.73
X92.71Y-187.08
X93.98Y-208.28
X99.06Y-146.05
X100.33Y-125.73
X102.87Y-166.69
X109.22Y-146.05
X110.49Y-125.73
X113.03Y-166.69
X114.3Y-187.08
X119.38Y-146.05
X120.65Y-125.73
X123.19Y-166.69
X124.46Y-187.08
X129.54Y-146.05
X130.81Y-125.73
X133.35Y-166.69
X134.62Y-187.08
X139.7Y-146.05
X140.97Y-125.73
X143.51Y-166.69
X144.78Y-187.08
X149.86Y-146.05
X151.13Y-125.73
X153.67Y-166.69
X154.94Y-187.08
X160.02Y-146.05
X161.29Y-125.73
X163.83Y-166.69
X165.1Y-187.08
X170.18Y-146.05
X171.45Y-125.73
X173.99Y-166.69
X175.26Y-187.08
X180.34Y-146.05
X181.61Y-125.73
X184.15Y-166.69
X185.42Y-187.08
X190.5Y-146.05
X191.77Y-125.73
X194.31Y-166.69
X195.58Y-187.08
X195.58Y-208.28
X200.66Y-146.05
X201.93Y-125.73
X204.47Y-166.69
X205.74Y-187.08
X205.74Y-208.28
X210.82Y-146.05
X212.09Y-125.73
X214.63Y-166.69
X215.9Y-187.08
X220.98Y-146.05
X222.25Y-125.73
X224.79Y-166.69
X226.06Y-187.08
X231.14Y-146.05
X232.41Y-125.73
X234.95Y-166.69
X236.22Y-187.08
X241.3Y-146.05
X242.57Y-125.73
X245.11Y-166.69
X246.38Y-187.08
X251.46Y-146.05
X252.73Y-125.73
X255.27Y-166.69
X256.54Y-187.08
X261.62Y-146.05
X262.89Y-125.73
X265.43Y-166.69
X266.7Y-187.08
X270.51Y-208.28
X271.78Y-146.05
X273.05Y-125.73
X275.59Y-166.69
X276.86Y-187.08
X280.67Y-208.28
X281.94Y-146.05
X283.21Y-125.73
X285.75Y-166.69
X287.02Y-187.08
X290.83Y-208.28
X292.1Y-146.05
X293.37Y-125.73
X295.91Y-166.69
X297.18Y-187.08
X300.99Y-208.28
X303.53Y-125.73
X307.34Y-187.08
X313.69Y-125.73
X318.77Y-166.69
X323.85Y-125.73
X328.93Y-166.69
X328.93Y-187.08
X339.09Y-187.08
T2
X75.73Y-180.08
X99.53Y-180.08
X150.66Y-201.28
X250.66Y-201.28
X311.95Y-159.69
X322.11Y-180.08
X335.75Y-159.69
X345.91Y-180.08
T3
X75.73Y-195.32
X87.63Y-187.08
X88.9Y-208.28
X95.25Y-125.73
X99.53Y-195.32
X104.14Y-146.05
X107.95Y-166.69
X115.57Y-125.73
X119.38Y-187.08
X124.46Y-146.05
X128.27Y-166.69
X135.89Y-125.73
X139.7Y-187.08
X144.78Y-146.05
X148.59Y-166.69
X150.66Y-216.52
X156.21Y-125.73
X160.02Y-187.08
X165.1Y-146.05
X168.91Y-166.69
X176.53Y-125.73
X180.34Y-187.08
X185.42Y-146.05
X189.23Y-166.69
X196.85Y-125.73
X200.66Y-187.08
X200.66Y-208.28
X205.74Y-146.05
X209.55Y-166.69
X217.17Y-125.73
X220.98Y-187.08
X226.06Y-146.05
X229.87Y-166.69
X237.49Y-125.73
X241.3Y-187.08
X246.38Y-146.05
X250.19Y-166.69
X250.66Y-216.52
X257.81Y-125.73
X261.62Y-187.08
X266.7Y-146.05
X270.51Y-166.69
X275.59Y-208.28
X278.13Y-125.73
X281.94Y-187.08
X287.02Y-146.05
X290.83Y-166.69
X295.91Y-208.28
X298.45Y-125.73
X302.26Y-187.08
X311.95Y-174.93
X318.77Y-125.73
X322.11Y-195.32
X323.85Y-166.69
X334.01Y-187.08
X335.75Y-174.93
X345.91Y-195.32
T0
M30
