%TF.GenerationSoftware,KiCad,Pcbnew,(6.0.1)*%
%TF.CreationDate,2022-07-30T17:19:38+08:00*%
%TF.ProjectId,CrVisionMech,43725669-7369-46f6-9e4d-6563682e6b69,rev?*%
%TF.SameCoordinates,Original*%
%TF.FileFunction,Legend,Top*%
%TF.FilePolarity,Positive*%
%FSLAX46Y46*%
G04 Gerber Fmt 4.6, Leading zero omitted, Abs format (unit mm)*
G04 Created by KiCad (PCBNEW (6.0.1)) date 2022-07-30 17:19:38*
%MOMM*%
%LPD*%
G01*
G04 APERTURE LIST*
%ADD10C,0.150000*%
%ADD11C,0.120000*%
%ADD12C,1.700000*%
%ADD13C,4.000000*%
%ADD14C,2.200000*%
%ADD15C,5.600000*%
%ADD16R,1.700000X1.700000*%
%ADD17O,1.700000X1.700000*%
%ADD18C,3.050000*%
G04 APERTURE END LIST*
D10*
X235680476Y-118260761D02*
X235823333Y-118308380D01*
X236061428Y-118308380D01*
X236156666Y-118260761D01*
X236204285Y-118213142D01*
X236251904Y-118117904D01*
X236251904Y-118022666D01*
X236204285Y-117927428D01*
X236156666Y-117879809D01*
X236061428Y-117832190D01*
X235870952Y-117784571D01*
X235775714Y-117736952D01*
X235728095Y-117689333D01*
X235680476Y-117594095D01*
X235680476Y-117498857D01*
X235728095Y-117403619D01*
X235775714Y-117356000D01*
X235870952Y-117308380D01*
X236109047Y-117308380D01*
X236251904Y-117356000D01*
X236585238Y-117308380D02*
X236823333Y-118308380D01*
X237013809Y-117594095D01*
X237204285Y-118308380D01*
X237442380Y-117308380D01*
X238251904Y-117641714D02*
X238251904Y-118308380D01*
X238013809Y-117260761D02*
X237775714Y-117975047D01*
X238394761Y-117975047D01*
X238680476Y-117308380D02*
X239347142Y-117308380D01*
X238918571Y-118308380D01*
X316960476Y-118260761D02*
X317103333Y-118308380D01*
X317341428Y-118308380D01*
X317436666Y-118260761D01*
X317484285Y-118213142D01*
X317531904Y-118117904D01*
X317531904Y-118022666D01*
X317484285Y-117927428D01*
X317436666Y-117879809D01*
X317341428Y-117832190D01*
X317150952Y-117784571D01*
X317055714Y-117736952D01*
X317008095Y-117689333D01*
X316960476Y-117594095D01*
X316960476Y-117498857D01*
X317008095Y-117403619D01*
X317055714Y-117356000D01*
X317150952Y-117308380D01*
X317389047Y-117308380D01*
X317531904Y-117356000D01*
X317865238Y-117308380D02*
X318103333Y-118308380D01*
X318293809Y-117594095D01*
X318484285Y-118308380D01*
X318722380Y-117308380D01*
X319531904Y-117641714D02*
X319531904Y-118308380D01*
X319293809Y-117260761D02*
X319055714Y-117975047D01*
X319674761Y-117975047D01*
X320484285Y-117641714D02*
X320484285Y-118308380D01*
X320246190Y-117260761D02*
X320008095Y-117975047D01*
X320627142Y-117975047D01*
X47481666Y-217712380D02*
X47481666Y-216712380D01*
X47815000Y-217426666D01*
X48148333Y-216712380D01*
X48148333Y-217712380D01*
X48624523Y-217712380D02*
X48624523Y-216712380D01*
X48624523Y-217188571D02*
X49195952Y-217188571D01*
X49195952Y-217712380D02*
X49195952Y-216712380D01*
X49576904Y-216712380D02*
X50195952Y-216712380D01*
X49862619Y-217093333D01*
X50005476Y-217093333D01*
X50100714Y-217140952D01*
X50148333Y-217188571D01*
X50195952Y-217283809D01*
X50195952Y-217521904D01*
X50148333Y-217617142D01*
X50100714Y-217664761D01*
X50005476Y-217712380D01*
X49719761Y-217712380D01*
X49624523Y-217664761D01*
X49576904Y-217617142D01*
X174720476Y-118260761D02*
X174863333Y-118308380D01*
X175101428Y-118308380D01*
X175196666Y-118260761D01*
X175244285Y-118213142D01*
X175291904Y-118117904D01*
X175291904Y-118022666D01*
X175244285Y-117927428D01*
X175196666Y-117879809D01*
X175101428Y-117832190D01*
X174910952Y-117784571D01*
X174815714Y-117736952D01*
X174768095Y-117689333D01*
X174720476Y-117594095D01*
X174720476Y-117498857D01*
X174768095Y-117403619D01*
X174815714Y-117356000D01*
X174910952Y-117308380D01*
X175149047Y-117308380D01*
X175291904Y-117356000D01*
X175625238Y-117308380D02*
X175863333Y-118308380D01*
X176053809Y-117594095D01*
X176244285Y-118308380D01*
X176482380Y-117308380D01*
X176815714Y-117403619D02*
X176863333Y-117356000D01*
X176958571Y-117308380D01*
X177196666Y-117308380D01*
X177291904Y-117356000D01*
X177339523Y-117403619D01*
X177387142Y-117498857D01*
X177387142Y-117594095D01*
X177339523Y-117736952D01*
X176768095Y-118308380D01*
X177387142Y-118308380D01*
X177720476Y-117308380D02*
X178339523Y-117308380D01*
X178006190Y-117689333D01*
X178149047Y-117689333D01*
X178244285Y-117736952D01*
X178291904Y-117784571D01*
X178339523Y-117879809D01*
X178339523Y-118117904D01*
X178291904Y-118213142D01*
X178244285Y-118260761D01*
X178149047Y-118308380D01*
X177863333Y-118308380D01*
X177768095Y-118260761D01*
X177720476Y-118213142D01*
X264890476Y-138580761D02*
X265033333Y-138628380D01*
X265271428Y-138628380D01*
X265366666Y-138580761D01*
X265414285Y-138533142D01*
X265461904Y-138437904D01*
X265461904Y-138342666D01*
X265414285Y-138247428D01*
X265366666Y-138199809D01*
X265271428Y-138152190D01*
X265080952Y-138104571D01*
X264985714Y-138056952D01*
X264938095Y-138009333D01*
X264890476Y-137914095D01*
X264890476Y-137818857D01*
X264938095Y-137723619D01*
X264985714Y-137676000D01*
X265080952Y-137628380D01*
X265319047Y-137628380D01*
X265461904Y-137676000D01*
X265795238Y-137628380D02*
X266033333Y-138628380D01*
X266223809Y-137914095D01*
X266414285Y-138628380D01*
X266652380Y-137628380D01*
X266938095Y-137628380D02*
X267557142Y-137628380D01*
X267223809Y-138009333D01*
X267366666Y-138009333D01*
X267461904Y-138056952D01*
X267509523Y-138104571D01*
X267557142Y-138199809D01*
X267557142Y-138437904D01*
X267509523Y-138533142D01*
X267461904Y-138580761D01*
X267366666Y-138628380D01*
X267080952Y-138628380D01*
X266985714Y-138580761D01*
X266938095Y-138533142D01*
X268033333Y-138628380D02*
X268223809Y-138628380D01*
X268319047Y-138580761D01*
X268366666Y-138533142D01*
X268461904Y-138390285D01*
X268509523Y-138199809D01*
X268509523Y-137818857D01*
X268461904Y-137723619D01*
X268414285Y-137676000D01*
X268319047Y-137628380D01*
X268128571Y-137628380D01*
X268033333Y-137676000D01*
X267985714Y-137723619D01*
X267938095Y-137818857D01*
X267938095Y-138056952D01*
X267985714Y-138152190D01*
X268033333Y-138199809D01*
X268128571Y-138247428D01*
X268319047Y-138247428D01*
X268414285Y-138199809D01*
X268461904Y-138152190D01*
X268509523Y-138056952D01*
X239490476Y-179610761D02*
X239633333Y-179658380D01*
X239871428Y-179658380D01*
X239966666Y-179610761D01*
X240014285Y-179563142D01*
X240061904Y-179467904D01*
X240061904Y-179372666D01*
X240014285Y-179277428D01*
X239966666Y-179229809D01*
X239871428Y-179182190D01*
X239680952Y-179134571D01*
X239585714Y-179086952D01*
X239538095Y-179039333D01*
X239490476Y-178944095D01*
X239490476Y-178848857D01*
X239538095Y-178753619D01*
X239585714Y-178706000D01*
X239680952Y-178658380D01*
X239919047Y-178658380D01*
X240061904Y-178706000D01*
X240395238Y-178658380D02*
X240633333Y-179658380D01*
X240823809Y-178944095D01*
X241014285Y-179658380D01*
X241252380Y-178658380D01*
X241585714Y-178753619D02*
X241633333Y-178706000D01*
X241728571Y-178658380D01*
X241966666Y-178658380D01*
X242061904Y-178706000D01*
X242109523Y-178753619D01*
X242157142Y-178848857D01*
X242157142Y-178944095D01*
X242109523Y-179086952D01*
X241538095Y-179658380D01*
X242157142Y-179658380D01*
X242633333Y-179658380D02*
X242823809Y-179658380D01*
X242919047Y-179610761D01*
X242966666Y-179563142D01*
X243061904Y-179420285D01*
X243109523Y-179229809D01*
X243109523Y-178848857D01*
X243061904Y-178753619D01*
X243014285Y-178706000D01*
X242919047Y-178658380D01*
X242728571Y-178658380D01*
X242633333Y-178706000D01*
X242585714Y-178753619D01*
X242538095Y-178848857D01*
X242538095Y-179086952D01*
X242585714Y-179182190D01*
X242633333Y-179229809D01*
X242728571Y-179277428D01*
X242919047Y-179277428D01*
X243014285Y-179229809D01*
X243061904Y-179182190D01*
X243109523Y-179086952D01*
X280130476Y-179610761D02*
X280273333Y-179658380D01*
X280511428Y-179658380D01*
X280606666Y-179610761D01*
X280654285Y-179563142D01*
X280701904Y-179467904D01*
X280701904Y-179372666D01*
X280654285Y-179277428D01*
X280606666Y-179229809D01*
X280511428Y-179182190D01*
X280320952Y-179134571D01*
X280225714Y-179086952D01*
X280178095Y-179039333D01*
X280130476Y-178944095D01*
X280130476Y-178848857D01*
X280178095Y-178753619D01*
X280225714Y-178706000D01*
X280320952Y-178658380D01*
X280559047Y-178658380D01*
X280701904Y-178706000D01*
X281035238Y-178658380D02*
X281273333Y-179658380D01*
X281463809Y-178944095D01*
X281654285Y-179658380D01*
X281892380Y-178658380D01*
X282225714Y-178753619D02*
X282273333Y-178706000D01*
X282368571Y-178658380D01*
X282606666Y-178658380D01*
X282701904Y-178706000D01*
X282749523Y-178753619D01*
X282797142Y-178848857D01*
X282797142Y-178944095D01*
X282749523Y-179086952D01*
X282178095Y-179658380D01*
X282797142Y-179658380D01*
X283130476Y-178658380D02*
X283797142Y-178658380D01*
X283368571Y-179658380D01*
X153332380Y-104473333D02*
X154046666Y-104473333D01*
X154189523Y-104520952D01*
X154284761Y-104616190D01*
X154332380Y-104759047D01*
X154332380Y-104854285D01*
X153427619Y-104044761D02*
X153380000Y-103997142D01*
X153332380Y-103901904D01*
X153332380Y-103663809D01*
X153380000Y-103568571D01*
X153427619Y-103520952D01*
X153522857Y-103473333D01*
X153618095Y-103473333D01*
X153760952Y-103520952D01*
X154332380Y-104092380D01*
X154332380Y-103473333D01*
X122650476Y-138580761D02*
X122793333Y-138628380D01*
X123031428Y-138628380D01*
X123126666Y-138580761D01*
X123174285Y-138533142D01*
X123221904Y-138437904D01*
X123221904Y-138342666D01*
X123174285Y-138247428D01*
X123126666Y-138199809D01*
X123031428Y-138152190D01*
X122840952Y-138104571D01*
X122745714Y-138056952D01*
X122698095Y-138009333D01*
X122650476Y-137914095D01*
X122650476Y-137818857D01*
X122698095Y-137723619D01*
X122745714Y-137676000D01*
X122840952Y-137628380D01*
X123079047Y-137628380D01*
X123221904Y-137676000D01*
X123555238Y-137628380D02*
X123793333Y-138628380D01*
X123983809Y-137914095D01*
X124174285Y-138628380D01*
X124412380Y-137628380D01*
X125317142Y-138628380D02*
X124745714Y-138628380D01*
X125031428Y-138628380D02*
X125031428Y-137628380D01*
X124936190Y-137771238D01*
X124840952Y-137866476D01*
X124745714Y-137914095D01*
X126221904Y-137628380D02*
X125745714Y-137628380D01*
X125698095Y-138104571D01*
X125745714Y-138056952D01*
X125840952Y-138009333D01*
X126079047Y-138009333D01*
X126174285Y-138056952D01*
X126221904Y-138104571D01*
X126269523Y-138199809D01*
X126269523Y-138437904D01*
X126221904Y-138533142D01*
X126174285Y-138580761D01*
X126079047Y-138628380D01*
X125840952Y-138628380D01*
X125745714Y-138580761D01*
X125698095Y-138533142D01*
X322040476Y-159220761D02*
X322183333Y-159268380D01*
X322421428Y-159268380D01*
X322516666Y-159220761D01*
X322564285Y-159173142D01*
X322611904Y-159077904D01*
X322611904Y-158982666D01*
X322564285Y-158887428D01*
X322516666Y-158839809D01*
X322421428Y-158792190D01*
X322230952Y-158744571D01*
X322135714Y-158696952D01*
X322088095Y-158649333D01*
X322040476Y-158554095D01*
X322040476Y-158458857D01*
X322088095Y-158363619D01*
X322135714Y-158316000D01*
X322230952Y-158268380D01*
X322469047Y-158268380D01*
X322611904Y-158316000D01*
X322945238Y-158268380D02*
X323183333Y-159268380D01*
X323373809Y-158554095D01*
X323564285Y-159268380D01*
X323802380Y-158268380D01*
X324088095Y-158268380D02*
X324707142Y-158268380D01*
X324373809Y-158649333D01*
X324516666Y-158649333D01*
X324611904Y-158696952D01*
X324659523Y-158744571D01*
X324707142Y-158839809D01*
X324707142Y-159077904D01*
X324659523Y-159173142D01*
X324611904Y-159220761D01*
X324516666Y-159268380D01*
X324230952Y-159268380D01*
X324135714Y-159220761D01*
X324088095Y-159173142D01*
X325040476Y-158268380D02*
X325707142Y-158268380D01*
X325278571Y-159268380D01*
X142970476Y-138580761D02*
X143113333Y-138628380D01*
X143351428Y-138628380D01*
X143446666Y-138580761D01*
X143494285Y-138533142D01*
X143541904Y-138437904D01*
X143541904Y-138342666D01*
X143494285Y-138247428D01*
X143446666Y-138199809D01*
X143351428Y-138152190D01*
X143160952Y-138104571D01*
X143065714Y-138056952D01*
X143018095Y-138009333D01*
X142970476Y-137914095D01*
X142970476Y-137818857D01*
X143018095Y-137723619D01*
X143065714Y-137676000D01*
X143160952Y-137628380D01*
X143399047Y-137628380D01*
X143541904Y-137676000D01*
X143875238Y-137628380D02*
X144113333Y-138628380D01*
X144303809Y-137914095D01*
X144494285Y-138628380D01*
X144732380Y-137628380D01*
X145637142Y-138628380D02*
X145065714Y-138628380D01*
X145351428Y-138628380D02*
X145351428Y-137628380D01*
X145256190Y-137771238D01*
X145160952Y-137866476D01*
X145065714Y-137914095D01*
X146494285Y-137628380D02*
X146303809Y-137628380D01*
X146208571Y-137676000D01*
X146160952Y-137723619D01*
X146065714Y-137866476D01*
X146018095Y-138056952D01*
X146018095Y-138437904D01*
X146065714Y-138533142D01*
X146113333Y-138580761D01*
X146208571Y-138628380D01*
X146399047Y-138628380D01*
X146494285Y-138580761D01*
X146541904Y-138533142D01*
X146589523Y-138437904D01*
X146589523Y-138199809D01*
X146541904Y-138104571D01*
X146494285Y-138056952D01*
X146399047Y-138009333D01*
X146208571Y-138009333D01*
X146113333Y-138056952D01*
X146065714Y-138104571D01*
X146018095Y-138199809D01*
X163290476Y-138580761D02*
X163433333Y-138628380D01*
X163671428Y-138628380D01*
X163766666Y-138580761D01*
X163814285Y-138533142D01*
X163861904Y-138437904D01*
X163861904Y-138342666D01*
X163814285Y-138247428D01*
X163766666Y-138199809D01*
X163671428Y-138152190D01*
X163480952Y-138104571D01*
X163385714Y-138056952D01*
X163338095Y-138009333D01*
X163290476Y-137914095D01*
X163290476Y-137818857D01*
X163338095Y-137723619D01*
X163385714Y-137676000D01*
X163480952Y-137628380D01*
X163719047Y-137628380D01*
X163861904Y-137676000D01*
X164195238Y-137628380D02*
X164433333Y-138628380D01*
X164623809Y-137914095D01*
X164814285Y-138628380D01*
X165052380Y-137628380D01*
X165957142Y-138628380D02*
X165385714Y-138628380D01*
X165671428Y-138628380D02*
X165671428Y-137628380D01*
X165576190Y-137771238D01*
X165480952Y-137866476D01*
X165385714Y-137914095D01*
X166290476Y-137628380D02*
X166957142Y-137628380D01*
X166528571Y-138628380D01*
X224250476Y-138580761D02*
X224393333Y-138628380D01*
X224631428Y-138628380D01*
X224726666Y-138580761D01*
X224774285Y-138533142D01*
X224821904Y-138437904D01*
X224821904Y-138342666D01*
X224774285Y-138247428D01*
X224726666Y-138199809D01*
X224631428Y-138152190D01*
X224440952Y-138104571D01*
X224345714Y-138056952D01*
X224298095Y-138009333D01*
X224250476Y-137914095D01*
X224250476Y-137818857D01*
X224298095Y-137723619D01*
X224345714Y-137676000D01*
X224440952Y-137628380D01*
X224679047Y-137628380D01*
X224821904Y-137676000D01*
X225155238Y-137628380D02*
X225393333Y-138628380D01*
X225583809Y-137914095D01*
X225774285Y-138628380D01*
X226012380Y-137628380D01*
X226821904Y-137961714D02*
X226821904Y-138628380D01*
X226583809Y-137580761D02*
X226345714Y-138295047D01*
X226964761Y-138295047D01*
X227869523Y-138628380D02*
X227298095Y-138628380D01*
X227583809Y-138628380D02*
X227583809Y-137628380D01*
X227488571Y-137771238D01*
X227393333Y-137866476D01*
X227298095Y-137914095D01*
X47481666Y-94997380D02*
X47481666Y-93997380D01*
X47815000Y-94711666D01*
X48148333Y-93997380D01*
X48148333Y-94997380D01*
X48624523Y-94997380D02*
X48624523Y-93997380D01*
X48624523Y-94473571D02*
X49195952Y-94473571D01*
X49195952Y-94997380D02*
X49195952Y-93997380D01*
X50195952Y-94997380D02*
X49624523Y-94997380D01*
X49910238Y-94997380D02*
X49910238Y-93997380D01*
X49815000Y-94140238D01*
X49719761Y-94235476D01*
X49624523Y-94283095D01*
X138366666Y-179610761D02*
X138509523Y-179658380D01*
X138747619Y-179658380D01*
X138842857Y-179610761D01*
X138890476Y-179563142D01*
X138938095Y-179467904D01*
X138938095Y-179372666D01*
X138890476Y-179277428D01*
X138842857Y-179229809D01*
X138747619Y-179182190D01*
X138557142Y-179134571D01*
X138461904Y-179086952D01*
X138414285Y-179039333D01*
X138366666Y-178944095D01*
X138366666Y-178848857D01*
X138414285Y-178753619D01*
X138461904Y-178706000D01*
X138557142Y-178658380D01*
X138795238Y-178658380D01*
X138938095Y-178706000D01*
X139271428Y-178658380D02*
X139509523Y-179658380D01*
X139700000Y-178944095D01*
X139890476Y-179658380D01*
X140128571Y-178658380D01*
X140414285Y-178658380D02*
X141033333Y-178658380D01*
X140700000Y-179039333D01*
X140842857Y-179039333D01*
X140938095Y-179086952D01*
X140985714Y-179134571D01*
X141033333Y-179229809D01*
X141033333Y-179467904D01*
X140985714Y-179563142D01*
X140938095Y-179610761D01*
X140842857Y-179658380D01*
X140557142Y-179658380D01*
X140461904Y-179610761D01*
X140414285Y-179563142D01*
X259810476Y-179610761D02*
X259953333Y-179658380D01*
X260191428Y-179658380D01*
X260286666Y-179610761D01*
X260334285Y-179563142D01*
X260381904Y-179467904D01*
X260381904Y-179372666D01*
X260334285Y-179277428D01*
X260286666Y-179229809D01*
X260191428Y-179182190D01*
X260000952Y-179134571D01*
X259905714Y-179086952D01*
X259858095Y-179039333D01*
X259810476Y-178944095D01*
X259810476Y-178848857D01*
X259858095Y-178753619D01*
X259905714Y-178706000D01*
X260000952Y-178658380D01*
X260239047Y-178658380D01*
X260381904Y-178706000D01*
X260715238Y-178658380D02*
X260953333Y-179658380D01*
X261143809Y-178944095D01*
X261334285Y-179658380D01*
X261572380Y-178658380D01*
X261905714Y-178753619D02*
X261953333Y-178706000D01*
X262048571Y-178658380D01*
X262286666Y-178658380D01*
X262381904Y-178706000D01*
X262429523Y-178753619D01*
X262477142Y-178848857D01*
X262477142Y-178944095D01*
X262429523Y-179086952D01*
X261858095Y-179658380D01*
X262477142Y-179658380D01*
X263048571Y-179086952D02*
X262953333Y-179039333D01*
X262905714Y-178991714D01*
X262858095Y-178896476D01*
X262858095Y-178848857D01*
X262905714Y-178753619D01*
X262953333Y-178706000D01*
X263048571Y-178658380D01*
X263239047Y-178658380D01*
X263334285Y-178706000D01*
X263381904Y-178753619D01*
X263429523Y-178848857D01*
X263429523Y-178896476D01*
X263381904Y-178991714D01*
X263334285Y-179039333D01*
X263239047Y-179086952D01*
X263048571Y-179086952D01*
X262953333Y-179134571D01*
X262905714Y-179182190D01*
X262858095Y-179277428D01*
X262858095Y-179467904D01*
X262905714Y-179563142D01*
X262953333Y-179610761D01*
X263048571Y-179658380D01*
X263239047Y-179658380D01*
X263334285Y-179610761D01*
X263381904Y-179563142D01*
X263429523Y-179467904D01*
X263429523Y-179277428D01*
X263381904Y-179182190D01*
X263334285Y-179134571D01*
X263239047Y-179086952D01*
X118046666Y-179610761D02*
X118189523Y-179658380D01*
X118427619Y-179658380D01*
X118522857Y-179610761D01*
X118570476Y-179563142D01*
X118618095Y-179467904D01*
X118618095Y-179372666D01*
X118570476Y-179277428D01*
X118522857Y-179229809D01*
X118427619Y-179182190D01*
X118237142Y-179134571D01*
X118141904Y-179086952D01*
X118094285Y-179039333D01*
X118046666Y-178944095D01*
X118046666Y-178848857D01*
X118094285Y-178753619D01*
X118141904Y-178706000D01*
X118237142Y-178658380D01*
X118475238Y-178658380D01*
X118618095Y-178706000D01*
X118951428Y-178658380D02*
X119189523Y-179658380D01*
X119380000Y-178944095D01*
X119570476Y-179658380D01*
X119808571Y-178658380D01*
X120141904Y-178753619D02*
X120189523Y-178706000D01*
X120284761Y-178658380D01*
X120522857Y-178658380D01*
X120618095Y-178706000D01*
X120665714Y-178753619D01*
X120713333Y-178848857D01*
X120713333Y-178944095D01*
X120665714Y-179086952D01*
X120094285Y-179658380D01*
X120713333Y-179658380D01*
X296640476Y-118260761D02*
X296783333Y-118308380D01*
X297021428Y-118308380D01*
X297116666Y-118260761D01*
X297164285Y-118213142D01*
X297211904Y-118117904D01*
X297211904Y-118022666D01*
X297164285Y-117927428D01*
X297116666Y-117879809D01*
X297021428Y-117832190D01*
X296830952Y-117784571D01*
X296735714Y-117736952D01*
X296688095Y-117689333D01*
X296640476Y-117594095D01*
X296640476Y-117498857D01*
X296688095Y-117403619D01*
X296735714Y-117356000D01*
X296830952Y-117308380D01*
X297069047Y-117308380D01*
X297211904Y-117356000D01*
X297545238Y-117308380D02*
X297783333Y-118308380D01*
X297973809Y-117594095D01*
X298164285Y-118308380D01*
X298402380Y-117308380D01*
X299211904Y-117641714D02*
X299211904Y-118308380D01*
X298973809Y-117260761D02*
X298735714Y-117975047D01*
X299354761Y-117975047D01*
X299640476Y-117308380D02*
X300259523Y-117308380D01*
X299926190Y-117689333D01*
X300069047Y-117689333D01*
X300164285Y-117736952D01*
X300211904Y-117784571D01*
X300259523Y-117879809D01*
X300259523Y-118117904D01*
X300211904Y-118213142D01*
X300164285Y-118260761D01*
X300069047Y-118308380D01*
X299783333Y-118308380D01*
X299688095Y-118260761D01*
X299640476Y-118213142D01*
X198850476Y-200810761D02*
X198993333Y-200858380D01*
X199231428Y-200858380D01*
X199326666Y-200810761D01*
X199374285Y-200763142D01*
X199421904Y-200667904D01*
X199421904Y-200572666D01*
X199374285Y-200477428D01*
X199326666Y-200429809D01*
X199231428Y-200382190D01*
X199040952Y-200334571D01*
X198945714Y-200286952D01*
X198898095Y-200239333D01*
X198850476Y-200144095D01*
X198850476Y-200048857D01*
X198898095Y-199953619D01*
X198945714Y-199906000D01*
X199040952Y-199858380D01*
X199279047Y-199858380D01*
X199421904Y-199906000D01*
X199755238Y-199858380D02*
X199993333Y-200858380D01*
X200183809Y-200144095D01*
X200374285Y-200858380D01*
X200612380Y-199858380D01*
X200945714Y-199953619D02*
X200993333Y-199906000D01*
X201088571Y-199858380D01*
X201326666Y-199858380D01*
X201421904Y-199906000D01*
X201469523Y-199953619D01*
X201517142Y-200048857D01*
X201517142Y-200144095D01*
X201469523Y-200286952D01*
X200898095Y-200858380D01*
X201517142Y-200858380D01*
X202421904Y-199858380D02*
X201945714Y-199858380D01*
X201898095Y-200334571D01*
X201945714Y-200286952D01*
X202040952Y-200239333D01*
X202279047Y-200239333D01*
X202374285Y-200286952D01*
X202421904Y-200334571D01*
X202469523Y-200429809D01*
X202469523Y-200667904D01*
X202421904Y-200763142D01*
X202374285Y-200810761D01*
X202279047Y-200858380D01*
X202040952Y-200858380D01*
X201945714Y-200810761D01*
X201898095Y-200763142D01*
X276320476Y-118260761D02*
X276463333Y-118308380D01*
X276701428Y-118308380D01*
X276796666Y-118260761D01*
X276844285Y-118213142D01*
X276891904Y-118117904D01*
X276891904Y-118022666D01*
X276844285Y-117927428D01*
X276796666Y-117879809D01*
X276701428Y-117832190D01*
X276510952Y-117784571D01*
X276415714Y-117736952D01*
X276368095Y-117689333D01*
X276320476Y-117594095D01*
X276320476Y-117498857D01*
X276368095Y-117403619D01*
X276415714Y-117356000D01*
X276510952Y-117308380D01*
X276749047Y-117308380D01*
X276891904Y-117356000D01*
X277225238Y-117308380D02*
X277463333Y-118308380D01*
X277653809Y-117594095D01*
X277844285Y-118308380D01*
X278082380Y-117308380D01*
X278891904Y-117641714D02*
X278891904Y-118308380D01*
X278653809Y-117260761D02*
X278415714Y-117975047D01*
X279034761Y-117975047D01*
X279891904Y-117308380D02*
X279415714Y-117308380D01*
X279368095Y-117784571D01*
X279415714Y-117736952D01*
X279510952Y-117689333D01*
X279749047Y-117689333D01*
X279844285Y-117736952D01*
X279891904Y-117784571D01*
X279939523Y-117879809D01*
X279939523Y-118117904D01*
X279891904Y-118213142D01*
X279844285Y-118260761D01*
X279749047Y-118308380D01*
X279510952Y-118308380D01*
X279415714Y-118260761D01*
X279368095Y-118213142D01*
X219170476Y-179610761D02*
X219313333Y-179658380D01*
X219551428Y-179658380D01*
X219646666Y-179610761D01*
X219694285Y-179563142D01*
X219741904Y-179467904D01*
X219741904Y-179372666D01*
X219694285Y-179277428D01*
X219646666Y-179229809D01*
X219551428Y-179182190D01*
X219360952Y-179134571D01*
X219265714Y-179086952D01*
X219218095Y-179039333D01*
X219170476Y-178944095D01*
X219170476Y-178848857D01*
X219218095Y-178753619D01*
X219265714Y-178706000D01*
X219360952Y-178658380D01*
X219599047Y-178658380D01*
X219741904Y-178706000D01*
X220075238Y-178658380D02*
X220313333Y-179658380D01*
X220503809Y-178944095D01*
X220694285Y-179658380D01*
X220932380Y-178658380D01*
X221218095Y-178658380D02*
X221837142Y-178658380D01*
X221503809Y-179039333D01*
X221646666Y-179039333D01*
X221741904Y-179086952D01*
X221789523Y-179134571D01*
X221837142Y-179229809D01*
X221837142Y-179467904D01*
X221789523Y-179563142D01*
X221741904Y-179610761D01*
X221646666Y-179658380D01*
X221360952Y-179658380D01*
X221265714Y-179610761D01*
X221218095Y-179563142D01*
X222456190Y-178658380D02*
X222551428Y-178658380D01*
X222646666Y-178706000D01*
X222694285Y-178753619D01*
X222741904Y-178848857D01*
X222789523Y-179039333D01*
X222789523Y-179277428D01*
X222741904Y-179467904D01*
X222694285Y-179563142D01*
X222646666Y-179610761D01*
X222551428Y-179658380D01*
X222456190Y-179658380D01*
X222360952Y-179610761D01*
X222313333Y-179563142D01*
X222265714Y-179467904D01*
X222218095Y-179277428D01*
X222218095Y-179039333D01*
X222265714Y-178848857D01*
X222313333Y-178753619D01*
X222360952Y-178706000D01*
X222456190Y-178658380D01*
X294100476Y-200810761D02*
X294243333Y-200858380D01*
X294481428Y-200858380D01*
X294576666Y-200810761D01*
X294624285Y-200763142D01*
X294671904Y-200667904D01*
X294671904Y-200572666D01*
X294624285Y-200477428D01*
X294576666Y-200429809D01*
X294481428Y-200382190D01*
X294290952Y-200334571D01*
X294195714Y-200286952D01*
X294148095Y-200239333D01*
X294100476Y-200144095D01*
X294100476Y-200048857D01*
X294148095Y-199953619D01*
X294195714Y-199906000D01*
X294290952Y-199858380D01*
X294529047Y-199858380D01*
X294671904Y-199906000D01*
X295005238Y-199858380D02*
X295243333Y-200858380D01*
X295433809Y-200144095D01*
X295624285Y-200858380D01*
X295862380Y-199858380D01*
X296148095Y-199858380D02*
X296767142Y-199858380D01*
X296433809Y-200239333D01*
X296576666Y-200239333D01*
X296671904Y-200286952D01*
X296719523Y-200334571D01*
X296767142Y-200429809D01*
X296767142Y-200667904D01*
X296719523Y-200763142D01*
X296671904Y-200810761D01*
X296576666Y-200858380D01*
X296290952Y-200858380D01*
X296195714Y-200810761D01*
X296148095Y-200763142D01*
X297719523Y-200858380D02*
X297148095Y-200858380D01*
X297433809Y-200858380D02*
X297433809Y-199858380D01*
X297338571Y-200001238D01*
X297243333Y-200096476D01*
X297148095Y-200144095D01*
X228060476Y-159220761D02*
X228203333Y-159268380D01*
X228441428Y-159268380D01*
X228536666Y-159220761D01*
X228584285Y-159173142D01*
X228631904Y-159077904D01*
X228631904Y-158982666D01*
X228584285Y-158887428D01*
X228536666Y-158839809D01*
X228441428Y-158792190D01*
X228250952Y-158744571D01*
X228155714Y-158696952D01*
X228108095Y-158649333D01*
X228060476Y-158554095D01*
X228060476Y-158458857D01*
X228108095Y-158363619D01*
X228155714Y-158316000D01*
X228250952Y-158268380D01*
X228489047Y-158268380D01*
X228631904Y-158316000D01*
X228965238Y-158268380D02*
X229203333Y-159268380D01*
X229393809Y-158554095D01*
X229584285Y-159268380D01*
X229822380Y-158268380D01*
X230108095Y-158268380D02*
X230727142Y-158268380D01*
X230393809Y-158649333D01*
X230536666Y-158649333D01*
X230631904Y-158696952D01*
X230679523Y-158744571D01*
X230727142Y-158839809D01*
X230727142Y-159077904D01*
X230679523Y-159173142D01*
X230631904Y-159220761D01*
X230536666Y-159268380D01*
X230250952Y-159268380D01*
X230155714Y-159220761D01*
X230108095Y-159173142D01*
X231631904Y-158268380D02*
X231155714Y-158268380D01*
X231108095Y-158744571D01*
X231155714Y-158696952D01*
X231250952Y-158649333D01*
X231489047Y-158649333D01*
X231584285Y-158696952D01*
X231631904Y-158744571D01*
X231679523Y-158839809D01*
X231679523Y-159077904D01*
X231631904Y-159173142D01*
X231584285Y-159220761D01*
X231489047Y-159268380D01*
X231250952Y-159268380D01*
X231155714Y-159220761D01*
X231108095Y-159173142D01*
X158686666Y-179610761D02*
X158829523Y-179658380D01*
X159067619Y-179658380D01*
X159162857Y-179610761D01*
X159210476Y-179563142D01*
X159258095Y-179467904D01*
X159258095Y-179372666D01*
X159210476Y-179277428D01*
X159162857Y-179229809D01*
X159067619Y-179182190D01*
X158877142Y-179134571D01*
X158781904Y-179086952D01*
X158734285Y-179039333D01*
X158686666Y-178944095D01*
X158686666Y-178848857D01*
X158734285Y-178753619D01*
X158781904Y-178706000D01*
X158877142Y-178658380D01*
X159115238Y-178658380D01*
X159258095Y-178706000D01*
X159591428Y-178658380D02*
X159829523Y-179658380D01*
X160020000Y-178944095D01*
X160210476Y-179658380D01*
X160448571Y-178658380D01*
X161258095Y-178991714D02*
X161258095Y-179658380D01*
X161020000Y-178610761D02*
X160781904Y-179325047D01*
X161400952Y-179325047D01*
X106616666Y-159220761D02*
X106759523Y-159268380D01*
X106997619Y-159268380D01*
X107092857Y-159220761D01*
X107140476Y-159173142D01*
X107188095Y-159077904D01*
X107188095Y-158982666D01*
X107140476Y-158887428D01*
X107092857Y-158839809D01*
X106997619Y-158792190D01*
X106807142Y-158744571D01*
X106711904Y-158696952D01*
X106664285Y-158649333D01*
X106616666Y-158554095D01*
X106616666Y-158458857D01*
X106664285Y-158363619D01*
X106711904Y-158316000D01*
X106807142Y-158268380D01*
X107045238Y-158268380D01*
X107188095Y-158316000D01*
X107521428Y-158268380D02*
X107759523Y-159268380D01*
X107950000Y-158554095D01*
X108140476Y-159268380D01*
X108378571Y-158268380D01*
X108902380Y-158696952D02*
X108807142Y-158649333D01*
X108759523Y-158601714D01*
X108711904Y-158506476D01*
X108711904Y-158458857D01*
X108759523Y-158363619D01*
X108807142Y-158316000D01*
X108902380Y-158268380D01*
X109092857Y-158268380D01*
X109188095Y-158316000D01*
X109235714Y-158363619D01*
X109283333Y-158458857D01*
X109283333Y-158506476D01*
X109235714Y-158601714D01*
X109188095Y-158649333D01*
X109092857Y-158696952D01*
X108902380Y-158696952D01*
X108807142Y-158744571D01*
X108759523Y-158792190D01*
X108711904Y-158887428D01*
X108711904Y-159077904D01*
X108759523Y-159173142D01*
X108807142Y-159220761D01*
X108902380Y-159268380D01*
X109092857Y-159268380D01*
X109188095Y-159220761D01*
X109235714Y-159173142D01*
X109283333Y-159077904D01*
X109283333Y-158887428D01*
X109235714Y-158792190D01*
X109188095Y-158744571D01*
X109092857Y-158696952D01*
X87090476Y-200810761D02*
X87233333Y-200858380D01*
X87471428Y-200858380D01*
X87566666Y-200810761D01*
X87614285Y-200763142D01*
X87661904Y-200667904D01*
X87661904Y-200572666D01*
X87614285Y-200477428D01*
X87566666Y-200429809D01*
X87471428Y-200382190D01*
X87280952Y-200334571D01*
X87185714Y-200286952D01*
X87138095Y-200239333D01*
X87090476Y-200144095D01*
X87090476Y-200048857D01*
X87138095Y-199953619D01*
X87185714Y-199906000D01*
X87280952Y-199858380D01*
X87519047Y-199858380D01*
X87661904Y-199906000D01*
X87995238Y-199858380D02*
X88233333Y-200858380D01*
X88423809Y-200144095D01*
X88614285Y-200858380D01*
X88852380Y-199858380D01*
X89757142Y-200858380D02*
X89185714Y-200858380D01*
X89471428Y-200858380D02*
X89471428Y-199858380D01*
X89376190Y-200001238D01*
X89280952Y-200096476D01*
X89185714Y-200144095D01*
X90090476Y-199858380D02*
X90709523Y-199858380D01*
X90376190Y-200239333D01*
X90519047Y-200239333D01*
X90614285Y-200286952D01*
X90661904Y-200334571D01*
X90709523Y-200429809D01*
X90709523Y-200667904D01*
X90661904Y-200763142D01*
X90614285Y-200810761D01*
X90519047Y-200858380D01*
X90233333Y-200858380D01*
X90138095Y-200810761D01*
X90090476Y-200763142D01*
X183610476Y-138580761D02*
X183753333Y-138628380D01*
X183991428Y-138628380D01*
X184086666Y-138580761D01*
X184134285Y-138533142D01*
X184181904Y-138437904D01*
X184181904Y-138342666D01*
X184134285Y-138247428D01*
X184086666Y-138199809D01*
X183991428Y-138152190D01*
X183800952Y-138104571D01*
X183705714Y-138056952D01*
X183658095Y-138009333D01*
X183610476Y-137914095D01*
X183610476Y-137818857D01*
X183658095Y-137723619D01*
X183705714Y-137676000D01*
X183800952Y-137628380D01*
X184039047Y-137628380D01*
X184181904Y-137676000D01*
X184515238Y-137628380D02*
X184753333Y-138628380D01*
X184943809Y-137914095D01*
X185134285Y-138628380D01*
X185372380Y-137628380D01*
X186277142Y-138628380D02*
X185705714Y-138628380D01*
X185991428Y-138628380D02*
X185991428Y-137628380D01*
X185896190Y-137771238D01*
X185800952Y-137866476D01*
X185705714Y-137914095D01*
X186848571Y-138056952D02*
X186753333Y-138009333D01*
X186705714Y-137961714D01*
X186658095Y-137866476D01*
X186658095Y-137818857D01*
X186705714Y-137723619D01*
X186753333Y-137676000D01*
X186848571Y-137628380D01*
X187039047Y-137628380D01*
X187134285Y-137676000D01*
X187181904Y-137723619D01*
X187229523Y-137818857D01*
X187229523Y-137866476D01*
X187181904Y-137961714D01*
X187134285Y-138009333D01*
X187039047Y-138056952D01*
X186848571Y-138056952D01*
X186753333Y-138104571D01*
X186705714Y-138152190D01*
X186658095Y-138247428D01*
X186658095Y-138437904D01*
X186705714Y-138533142D01*
X186753333Y-138580761D01*
X186848571Y-138628380D01*
X187039047Y-138628380D01*
X187134285Y-138580761D01*
X187181904Y-138533142D01*
X187229523Y-138437904D01*
X187229523Y-138247428D01*
X187181904Y-138152190D01*
X187134285Y-138104571D01*
X187039047Y-138056952D01*
X215360476Y-118260761D02*
X215503333Y-118308380D01*
X215741428Y-118308380D01*
X215836666Y-118260761D01*
X215884285Y-118213142D01*
X215931904Y-118117904D01*
X215931904Y-118022666D01*
X215884285Y-117927428D01*
X215836666Y-117879809D01*
X215741428Y-117832190D01*
X215550952Y-117784571D01*
X215455714Y-117736952D01*
X215408095Y-117689333D01*
X215360476Y-117594095D01*
X215360476Y-117498857D01*
X215408095Y-117403619D01*
X215455714Y-117356000D01*
X215550952Y-117308380D01*
X215789047Y-117308380D01*
X215931904Y-117356000D01*
X216265238Y-117308380D02*
X216503333Y-118308380D01*
X216693809Y-117594095D01*
X216884285Y-118308380D01*
X217122380Y-117308380D01*
X217931904Y-117641714D02*
X217931904Y-118308380D01*
X217693809Y-117260761D02*
X217455714Y-117975047D01*
X218074761Y-117975047D01*
X218598571Y-117736952D02*
X218503333Y-117689333D01*
X218455714Y-117641714D01*
X218408095Y-117546476D01*
X218408095Y-117498857D01*
X218455714Y-117403619D01*
X218503333Y-117356000D01*
X218598571Y-117308380D01*
X218789047Y-117308380D01*
X218884285Y-117356000D01*
X218931904Y-117403619D01*
X218979523Y-117498857D01*
X218979523Y-117546476D01*
X218931904Y-117641714D01*
X218884285Y-117689333D01*
X218789047Y-117736952D01*
X218598571Y-117736952D01*
X218503333Y-117784571D01*
X218455714Y-117832190D01*
X218408095Y-117927428D01*
X218408095Y-118117904D01*
X218455714Y-118213142D01*
X218503333Y-118260761D01*
X218598571Y-118308380D01*
X218789047Y-118308380D01*
X218884285Y-118260761D01*
X218931904Y-118213142D01*
X218979523Y-118117904D01*
X218979523Y-117927428D01*
X218931904Y-117832190D01*
X218884285Y-117784571D01*
X218789047Y-117736952D01*
X93440476Y-118260761D02*
X93583333Y-118308380D01*
X93821428Y-118308380D01*
X93916666Y-118260761D01*
X93964285Y-118213142D01*
X94011904Y-118117904D01*
X94011904Y-118022666D01*
X93964285Y-117927428D01*
X93916666Y-117879809D01*
X93821428Y-117832190D01*
X93630952Y-117784571D01*
X93535714Y-117736952D01*
X93488095Y-117689333D01*
X93440476Y-117594095D01*
X93440476Y-117498857D01*
X93488095Y-117403619D01*
X93535714Y-117356000D01*
X93630952Y-117308380D01*
X93869047Y-117308380D01*
X94011904Y-117356000D01*
X94345238Y-117308380D02*
X94583333Y-118308380D01*
X94773809Y-117594095D01*
X94964285Y-118308380D01*
X95202380Y-117308380D01*
X96107142Y-118308380D02*
X95535714Y-118308380D01*
X95821428Y-118308380D02*
X95821428Y-117308380D01*
X95726190Y-117451238D01*
X95630952Y-117546476D01*
X95535714Y-117594095D01*
X96583333Y-118308380D02*
X96773809Y-118308380D01*
X96869047Y-118260761D01*
X96916666Y-118213142D01*
X97011904Y-118070285D01*
X97059523Y-117879809D01*
X97059523Y-117498857D01*
X97011904Y-117403619D01*
X96964285Y-117356000D01*
X96869047Y-117308380D01*
X96678571Y-117308380D01*
X96583333Y-117356000D01*
X96535714Y-117403619D01*
X96488095Y-117498857D01*
X96488095Y-117736952D01*
X96535714Y-117832190D01*
X96583333Y-117879809D01*
X96678571Y-117927428D01*
X96869047Y-117927428D01*
X96964285Y-117879809D01*
X97011904Y-117832190D01*
X97059523Y-117736952D01*
X360696666Y-217712380D02*
X360696666Y-216712380D01*
X361030000Y-217426666D01*
X361363333Y-216712380D01*
X361363333Y-217712380D01*
X361839523Y-217712380D02*
X361839523Y-216712380D01*
X361839523Y-217188571D02*
X362410952Y-217188571D01*
X362410952Y-217712380D02*
X362410952Y-216712380D01*
X363315714Y-217045714D02*
X363315714Y-217712380D01*
X363077619Y-216664761D02*
X362839523Y-217379047D01*
X363458571Y-217379047D01*
X126936666Y-159220761D02*
X127079523Y-159268380D01*
X127317619Y-159268380D01*
X127412857Y-159220761D01*
X127460476Y-159173142D01*
X127508095Y-159077904D01*
X127508095Y-158982666D01*
X127460476Y-158887428D01*
X127412857Y-158839809D01*
X127317619Y-158792190D01*
X127127142Y-158744571D01*
X127031904Y-158696952D01*
X126984285Y-158649333D01*
X126936666Y-158554095D01*
X126936666Y-158458857D01*
X126984285Y-158363619D01*
X127031904Y-158316000D01*
X127127142Y-158268380D01*
X127365238Y-158268380D01*
X127508095Y-158316000D01*
X127841428Y-158268380D02*
X128079523Y-159268380D01*
X128270000Y-158554095D01*
X128460476Y-159268380D01*
X128698571Y-158268380D01*
X129127142Y-159268380D02*
X129317619Y-159268380D01*
X129412857Y-159220761D01*
X129460476Y-159173142D01*
X129555714Y-159030285D01*
X129603333Y-158839809D01*
X129603333Y-158458857D01*
X129555714Y-158363619D01*
X129508095Y-158316000D01*
X129412857Y-158268380D01*
X129222380Y-158268380D01*
X129127142Y-158316000D01*
X129079523Y-158363619D01*
X129031904Y-158458857D01*
X129031904Y-158696952D01*
X129079523Y-158792190D01*
X129127142Y-158839809D01*
X129222380Y-158887428D01*
X129412857Y-158887428D01*
X129508095Y-158839809D01*
X129555714Y-158792190D01*
X129603333Y-158696952D01*
X256000476Y-118260761D02*
X256143333Y-118308380D01*
X256381428Y-118308380D01*
X256476666Y-118260761D01*
X256524285Y-118213142D01*
X256571904Y-118117904D01*
X256571904Y-118022666D01*
X256524285Y-117927428D01*
X256476666Y-117879809D01*
X256381428Y-117832190D01*
X256190952Y-117784571D01*
X256095714Y-117736952D01*
X256048095Y-117689333D01*
X256000476Y-117594095D01*
X256000476Y-117498857D01*
X256048095Y-117403619D01*
X256095714Y-117356000D01*
X256190952Y-117308380D01*
X256429047Y-117308380D01*
X256571904Y-117356000D01*
X256905238Y-117308380D02*
X257143333Y-118308380D01*
X257333809Y-117594095D01*
X257524285Y-118308380D01*
X257762380Y-117308380D01*
X258571904Y-117641714D02*
X258571904Y-118308380D01*
X258333809Y-117260761D02*
X258095714Y-117975047D01*
X258714761Y-117975047D01*
X259524285Y-117308380D02*
X259333809Y-117308380D01*
X259238571Y-117356000D01*
X259190952Y-117403619D01*
X259095714Y-117546476D01*
X259048095Y-117736952D01*
X259048095Y-118117904D01*
X259095714Y-118213142D01*
X259143333Y-118260761D01*
X259238571Y-118308380D01*
X259429047Y-118308380D01*
X259524285Y-118260761D01*
X259571904Y-118213142D01*
X259619523Y-118117904D01*
X259619523Y-117879809D01*
X259571904Y-117784571D01*
X259524285Y-117736952D01*
X259429047Y-117689333D01*
X259238571Y-117689333D01*
X259143333Y-117736952D01*
X259095714Y-117784571D01*
X259048095Y-117879809D01*
X268700476Y-159220761D02*
X268843333Y-159268380D01*
X269081428Y-159268380D01*
X269176666Y-159220761D01*
X269224285Y-159173142D01*
X269271904Y-159077904D01*
X269271904Y-158982666D01*
X269224285Y-158887428D01*
X269176666Y-158839809D01*
X269081428Y-158792190D01*
X268890952Y-158744571D01*
X268795714Y-158696952D01*
X268748095Y-158649333D01*
X268700476Y-158554095D01*
X268700476Y-158458857D01*
X268748095Y-158363619D01*
X268795714Y-158316000D01*
X268890952Y-158268380D01*
X269129047Y-158268380D01*
X269271904Y-158316000D01*
X269605238Y-158268380D02*
X269843333Y-159268380D01*
X270033809Y-158554095D01*
X270224285Y-159268380D01*
X270462380Y-158268380D01*
X270748095Y-158268380D02*
X271367142Y-158268380D01*
X271033809Y-158649333D01*
X271176666Y-158649333D01*
X271271904Y-158696952D01*
X271319523Y-158744571D01*
X271367142Y-158839809D01*
X271367142Y-159077904D01*
X271319523Y-159173142D01*
X271271904Y-159220761D01*
X271176666Y-159268380D01*
X270890952Y-159268380D01*
X270795714Y-159220761D01*
X270748095Y-159173142D01*
X271700476Y-158268380D02*
X272319523Y-158268380D01*
X271986190Y-158649333D01*
X272129047Y-158649333D01*
X272224285Y-158696952D01*
X272271904Y-158744571D01*
X272319523Y-158839809D01*
X272319523Y-159077904D01*
X272271904Y-159173142D01*
X272224285Y-159220761D01*
X272129047Y-159268380D01*
X271843333Y-159268380D01*
X271748095Y-159220761D01*
X271700476Y-159173142D01*
X134080476Y-118260761D02*
X134223333Y-118308380D01*
X134461428Y-118308380D01*
X134556666Y-118260761D01*
X134604285Y-118213142D01*
X134651904Y-118117904D01*
X134651904Y-118022666D01*
X134604285Y-117927428D01*
X134556666Y-117879809D01*
X134461428Y-117832190D01*
X134270952Y-117784571D01*
X134175714Y-117736952D01*
X134128095Y-117689333D01*
X134080476Y-117594095D01*
X134080476Y-117498857D01*
X134128095Y-117403619D01*
X134175714Y-117356000D01*
X134270952Y-117308380D01*
X134509047Y-117308380D01*
X134651904Y-117356000D01*
X134985238Y-117308380D02*
X135223333Y-118308380D01*
X135413809Y-117594095D01*
X135604285Y-118308380D01*
X135842380Y-117308380D01*
X136175714Y-117403619D02*
X136223333Y-117356000D01*
X136318571Y-117308380D01*
X136556666Y-117308380D01*
X136651904Y-117356000D01*
X136699523Y-117403619D01*
X136747142Y-117498857D01*
X136747142Y-117594095D01*
X136699523Y-117736952D01*
X136128095Y-118308380D01*
X136747142Y-118308380D01*
X137699523Y-118308380D02*
X137128095Y-118308380D01*
X137413809Y-118308380D02*
X137413809Y-117308380D01*
X137318571Y-117451238D01*
X137223333Y-117546476D01*
X137128095Y-117594095D01*
X154400476Y-118260761D02*
X154543333Y-118308380D01*
X154781428Y-118308380D01*
X154876666Y-118260761D01*
X154924285Y-118213142D01*
X154971904Y-118117904D01*
X154971904Y-118022666D01*
X154924285Y-117927428D01*
X154876666Y-117879809D01*
X154781428Y-117832190D01*
X154590952Y-117784571D01*
X154495714Y-117736952D01*
X154448095Y-117689333D01*
X154400476Y-117594095D01*
X154400476Y-117498857D01*
X154448095Y-117403619D01*
X154495714Y-117356000D01*
X154590952Y-117308380D01*
X154829047Y-117308380D01*
X154971904Y-117356000D01*
X155305238Y-117308380D02*
X155543333Y-118308380D01*
X155733809Y-117594095D01*
X155924285Y-118308380D01*
X156162380Y-117308380D01*
X156495714Y-117403619D02*
X156543333Y-117356000D01*
X156638571Y-117308380D01*
X156876666Y-117308380D01*
X156971904Y-117356000D01*
X157019523Y-117403619D01*
X157067142Y-117498857D01*
X157067142Y-117594095D01*
X157019523Y-117736952D01*
X156448095Y-118308380D01*
X157067142Y-118308380D01*
X157448095Y-117403619D02*
X157495714Y-117356000D01*
X157590952Y-117308380D01*
X157829047Y-117308380D01*
X157924285Y-117356000D01*
X157971904Y-117403619D01*
X158019523Y-117498857D01*
X158019523Y-117594095D01*
X157971904Y-117736952D01*
X157400476Y-118308380D01*
X158019523Y-118308380D01*
X357066666Y-115237380D02*
X357066666Y-115951666D01*
X357019047Y-116094523D01*
X356923809Y-116189761D01*
X356780952Y-116237380D01*
X356685714Y-116237380D01*
X357447619Y-115237380D02*
X358066666Y-115237380D01*
X357733333Y-115618333D01*
X357876190Y-115618333D01*
X357971428Y-115665952D01*
X358019047Y-115713571D01*
X358066666Y-115808809D01*
X358066666Y-116046904D01*
X358019047Y-116142142D01*
X357971428Y-116189761D01*
X357876190Y-116237380D01*
X357590476Y-116237380D01*
X357495238Y-116189761D01*
X357447619Y-116142142D01*
X285210476Y-138580761D02*
X285353333Y-138628380D01*
X285591428Y-138628380D01*
X285686666Y-138580761D01*
X285734285Y-138533142D01*
X285781904Y-138437904D01*
X285781904Y-138342666D01*
X285734285Y-138247428D01*
X285686666Y-138199809D01*
X285591428Y-138152190D01*
X285400952Y-138104571D01*
X285305714Y-138056952D01*
X285258095Y-138009333D01*
X285210476Y-137914095D01*
X285210476Y-137818857D01*
X285258095Y-137723619D01*
X285305714Y-137676000D01*
X285400952Y-137628380D01*
X285639047Y-137628380D01*
X285781904Y-137676000D01*
X286115238Y-137628380D02*
X286353333Y-138628380D01*
X286543809Y-137914095D01*
X286734285Y-138628380D01*
X286972380Y-137628380D01*
X287258095Y-137628380D02*
X287877142Y-137628380D01*
X287543809Y-138009333D01*
X287686666Y-138009333D01*
X287781904Y-138056952D01*
X287829523Y-138104571D01*
X287877142Y-138199809D01*
X287877142Y-138437904D01*
X287829523Y-138533142D01*
X287781904Y-138580761D01*
X287686666Y-138628380D01*
X287400952Y-138628380D01*
X287305714Y-138580761D01*
X287258095Y-138533142D01*
X288448571Y-138056952D02*
X288353333Y-138009333D01*
X288305714Y-137961714D01*
X288258095Y-137866476D01*
X288258095Y-137818857D01*
X288305714Y-137723619D01*
X288353333Y-137676000D01*
X288448571Y-137628380D01*
X288639047Y-137628380D01*
X288734285Y-137676000D01*
X288781904Y-137723619D01*
X288829523Y-137818857D01*
X288829523Y-137866476D01*
X288781904Y-137961714D01*
X288734285Y-138009333D01*
X288639047Y-138056952D01*
X288448571Y-138056952D01*
X288353333Y-138104571D01*
X288305714Y-138152190D01*
X288258095Y-138247428D01*
X288258095Y-138437904D01*
X288305714Y-138533142D01*
X288353333Y-138580761D01*
X288448571Y-138628380D01*
X288639047Y-138628380D01*
X288734285Y-138580761D01*
X288781904Y-138533142D01*
X288829523Y-138437904D01*
X288829523Y-138247428D01*
X288781904Y-138152190D01*
X288734285Y-138104571D01*
X288639047Y-138056952D01*
X113760476Y-118260761D02*
X113903333Y-118308380D01*
X114141428Y-118308380D01*
X114236666Y-118260761D01*
X114284285Y-118213142D01*
X114331904Y-118117904D01*
X114331904Y-118022666D01*
X114284285Y-117927428D01*
X114236666Y-117879809D01*
X114141428Y-117832190D01*
X113950952Y-117784571D01*
X113855714Y-117736952D01*
X113808095Y-117689333D01*
X113760476Y-117594095D01*
X113760476Y-117498857D01*
X113808095Y-117403619D01*
X113855714Y-117356000D01*
X113950952Y-117308380D01*
X114189047Y-117308380D01*
X114331904Y-117356000D01*
X114665238Y-117308380D02*
X114903333Y-118308380D01*
X115093809Y-117594095D01*
X115284285Y-118308380D01*
X115522380Y-117308380D01*
X115855714Y-117403619D02*
X115903333Y-117356000D01*
X115998571Y-117308380D01*
X116236666Y-117308380D01*
X116331904Y-117356000D01*
X116379523Y-117403619D01*
X116427142Y-117498857D01*
X116427142Y-117594095D01*
X116379523Y-117736952D01*
X115808095Y-118308380D01*
X116427142Y-118308380D01*
X117046190Y-117308380D02*
X117141428Y-117308380D01*
X117236666Y-117356000D01*
X117284285Y-117403619D01*
X117331904Y-117498857D01*
X117379523Y-117689333D01*
X117379523Y-117927428D01*
X117331904Y-118117904D01*
X117284285Y-118213142D01*
X117236666Y-118260761D01*
X117141428Y-118308380D01*
X117046190Y-118308380D01*
X116950952Y-118260761D01*
X116903333Y-118213142D01*
X116855714Y-118117904D01*
X116808095Y-117927428D01*
X116808095Y-117689333D01*
X116855714Y-117498857D01*
X116903333Y-117403619D01*
X116950952Y-117356000D01*
X117046190Y-117308380D01*
X360696666Y-94997380D02*
X360696666Y-93997380D01*
X361030000Y-94711666D01*
X361363333Y-93997380D01*
X361363333Y-94997380D01*
X361839523Y-94997380D02*
X361839523Y-93997380D01*
X361839523Y-94473571D02*
X362410952Y-94473571D01*
X362410952Y-94997380D02*
X362410952Y-93997380D01*
X362839523Y-94092619D02*
X362887142Y-94045000D01*
X362982380Y-93997380D01*
X363220476Y-93997380D01*
X363315714Y-94045000D01*
X363363333Y-94092619D01*
X363410952Y-94187857D01*
X363410952Y-94283095D01*
X363363333Y-94425952D01*
X362791904Y-94997380D01*
X363410952Y-94997380D01*
X332200476Y-179610761D02*
X332343333Y-179658380D01*
X332581428Y-179658380D01*
X332676666Y-179610761D01*
X332724285Y-179563142D01*
X332771904Y-179467904D01*
X332771904Y-179372666D01*
X332724285Y-179277428D01*
X332676666Y-179229809D01*
X332581428Y-179182190D01*
X332390952Y-179134571D01*
X332295714Y-179086952D01*
X332248095Y-179039333D01*
X332200476Y-178944095D01*
X332200476Y-178848857D01*
X332248095Y-178753619D01*
X332295714Y-178706000D01*
X332390952Y-178658380D01*
X332629047Y-178658380D01*
X332771904Y-178706000D01*
X333105238Y-178658380D02*
X333343333Y-179658380D01*
X333533809Y-178944095D01*
X333724285Y-179658380D01*
X333962380Y-178658380D01*
X334486190Y-179086952D02*
X334390952Y-179039333D01*
X334343333Y-178991714D01*
X334295714Y-178896476D01*
X334295714Y-178848857D01*
X334343333Y-178753619D01*
X334390952Y-178706000D01*
X334486190Y-178658380D01*
X334676666Y-178658380D01*
X334771904Y-178706000D01*
X334819523Y-178753619D01*
X334867142Y-178848857D01*
X334867142Y-178896476D01*
X334819523Y-178991714D01*
X334771904Y-179039333D01*
X334676666Y-179086952D01*
X334486190Y-179086952D01*
X334390952Y-179134571D01*
X334343333Y-179182190D01*
X334295714Y-179277428D01*
X334295714Y-179467904D01*
X334343333Y-179563142D01*
X334390952Y-179610761D01*
X334486190Y-179658380D01*
X334676666Y-179658380D01*
X334771904Y-179610761D01*
X334819523Y-179563142D01*
X334867142Y-179467904D01*
X334867142Y-179277428D01*
X334819523Y-179182190D01*
X334771904Y-179134571D01*
X334676666Y-179086952D01*
X335200476Y-178658380D02*
X335867142Y-178658380D01*
X335438571Y-179658380D01*
X203930476Y-138580761D02*
X204073333Y-138628380D01*
X204311428Y-138628380D01*
X204406666Y-138580761D01*
X204454285Y-138533142D01*
X204501904Y-138437904D01*
X204501904Y-138342666D01*
X204454285Y-138247428D01*
X204406666Y-138199809D01*
X204311428Y-138152190D01*
X204120952Y-138104571D01*
X204025714Y-138056952D01*
X203978095Y-138009333D01*
X203930476Y-137914095D01*
X203930476Y-137818857D01*
X203978095Y-137723619D01*
X204025714Y-137676000D01*
X204120952Y-137628380D01*
X204359047Y-137628380D01*
X204501904Y-137676000D01*
X204835238Y-137628380D02*
X205073333Y-138628380D01*
X205263809Y-137914095D01*
X205454285Y-138628380D01*
X205692380Y-137628380D01*
X206501904Y-137961714D02*
X206501904Y-138628380D01*
X206263809Y-137580761D02*
X206025714Y-138295047D01*
X206644761Y-138295047D01*
X206978095Y-137723619D02*
X207025714Y-137676000D01*
X207120952Y-137628380D01*
X207359047Y-137628380D01*
X207454285Y-137676000D01*
X207501904Y-137723619D01*
X207549523Y-137818857D01*
X207549523Y-137914095D01*
X207501904Y-138056952D01*
X206930476Y-138628380D01*
X207549523Y-138628380D01*
X195040476Y-118260761D02*
X195183333Y-118308380D01*
X195421428Y-118308380D01*
X195516666Y-118260761D01*
X195564285Y-118213142D01*
X195611904Y-118117904D01*
X195611904Y-118022666D01*
X195564285Y-117927428D01*
X195516666Y-117879809D01*
X195421428Y-117832190D01*
X195230952Y-117784571D01*
X195135714Y-117736952D01*
X195088095Y-117689333D01*
X195040476Y-117594095D01*
X195040476Y-117498857D01*
X195088095Y-117403619D01*
X195135714Y-117356000D01*
X195230952Y-117308380D01*
X195469047Y-117308380D01*
X195611904Y-117356000D01*
X195945238Y-117308380D02*
X196183333Y-118308380D01*
X196373809Y-117594095D01*
X196564285Y-118308380D01*
X196802380Y-117308380D01*
X197135714Y-117403619D02*
X197183333Y-117356000D01*
X197278571Y-117308380D01*
X197516666Y-117308380D01*
X197611904Y-117356000D01*
X197659523Y-117403619D01*
X197707142Y-117498857D01*
X197707142Y-117594095D01*
X197659523Y-117736952D01*
X197088095Y-118308380D01*
X197707142Y-118308380D01*
X198564285Y-117641714D02*
X198564285Y-118308380D01*
X198326190Y-117260761D02*
X198088095Y-117975047D01*
X198707142Y-117975047D01*
X226992380Y-104473333D02*
X227706666Y-104473333D01*
X227849523Y-104520952D01*
X227944761Y-104616190D01*
X227992380Y-104759047D01*
X227992380Y-104854285D01*
X227325714Y-103568571D02*
X227992380Y-103568571D01*
X226944761Y-103806666D02*
X227659047Y-104044761D01*
X227659047Y-103425714D01*
X207740476Y-159220761D02*
X207883333Y-159268380D01*
X208121428Y-159268380D01*
X208216666Y-159220761D01*
X208264285Y-159173142D01*
X208311904Y-159077904D01*
X208311904Y-158982666D01*
X208264285Y-158887428D01*
X208216666Y-158839809D01*
X208121428Y-158792190D01*
X207930952Y-158744571D01*
X207835714Y-158696952D01*
X207788095Y-158649333D01*
X207740476Y-158554095D01*
X207740476Y-158458857D01*
X207788095Y-158363619D01*
X207835714Y-158316000D01*
X207930952Y-158268380D01*
X208169047Y-158268380D01*
X208311904Y-158316000D01*
X208645238Y-158268380D02*
X208883333Y-159268380D01*
X209073809Y-158554095D01*
X209264285Y-159268380D01*
X209502380Y-158268380D01*
X209788095Y-158268380D02*
X210407142Y-158268380D01*
X210073809Y-158649333D01*
X210216666Y-158649333D01*
X210311904Y-158696952D01*
X210359523Y-158744571D01*
X210407142Y-158839809D01*
X210407142Y-159077904D01*
X210359523Y-159173142D01*
X210311904Y-159220761D01*
X210216666Y-159268380D01*
X209930952Y-159268380D01*
X209835714Y-159220761D01*
X209788095Y-159173142D01*
X211264285Y-158268380D02*
X211073809Y-158268380D01*
X210978571Y-158316000D01*
X210930952Y-158363619D01*
X210835714Y-158506476D01*
X210788095Y-158696952D01*
X210788095Y-159077904D01*
X210835714Y-159173142D01*
X210883333Y-159220761D01*
X210978571Y-159268380D01*
X211169047Y-159268380D01*
X211264285Y-159220761D01*
X211311904Y-159173142D01*
X211359523Y-159077904D01*
X211359523Y-158839809D01*
X211311904Y-158744571D01*
X211264285Y-158696952D01*
X211169047Y-158649333D01*
X210978571Y-158649333D01*
X210883333Y-158696952D01*
X210835714Y-158744571D01*
X210788095Y-158839809D01*
X274256666Y-200810761D02*
X274399523Y-200858380D01*
X274637619Y-200858380D01*
X274732857Y-200810761D01*
X274780476Y-200763142D01*
X274828095Y-200667904D01*
X274828095Y-200572666D01*
X274780476Y-200477428D01*
X274732857Y-200429809D01*
X274637619Y-200382190D01*
X274447142Y-200334571D01*
X274351904Y-200286952D01*
X274304285Y-200239333D01*
X274256666Y-200144095D01*
X274256666Y-200048857D01*
X274304285Y-199953619D01*
X274351904Y-199906000D01*
X274447142Y-199858380D01*
X274685238Y-199858380D01*
X274828095Y-199906000D01*
X275161428Y-199858380D02*
X275399523Y-200858380D01*
X275590000Y-200144095D01*
X275780476Y-200858380D01*
X276018571Y-199858380D01*
X276304285Y-199858380D02*
X276970952Y-199858380D01*
X276542380Y-200858380D01*
X187420476Y-159220761D02*
X187563333Y-159268380D01*
X187801428Y-159268380D01*
X187896666Y-159220761D01*
X187944285Y-159173142D01*
X187991904Y-159077904D01*
X187991904Y-158982666D01*
X187944285Y-158887428D01*
X187896666Y-158839809D01*
X187801428Y-158792190D01*
X187610952Y-158744571D01*
X187515714Y-158696952D01*
X187468095Y-158649333D01*
X187420476Y-158554095D01*
X187420476Y-158458857D01*
X187468095Y-158363619D01*
X187515714Y-158316000D01*
X187610952Y-158268380D01*
X187849047Y-158268380D01*
X187991904Y-158316000D01*
X188325238Y-158268380D02*
X188563333Y-159268380D01*
X188753809Y-158554095D01*
X188944285Y-159268380D01*
X189182380Y-158268380D01*
X190087142Y-159268380D02*
X189515714Y-159268380D01*
X189801428Y-159268380D02*
X189801428Y-158268380D01*
X189706190Y-158411238D01*
X189610952Y-158506476D01*
X189515714Y-158554095D01*
X190468095Y-158363619D02*
X190515714Y-158316000D01*
X190610952Y-158268380D01*
X190849047Y-158268380D01*
X190944285Y-158316000D01*
X190991904Y-158363619D01*
X191039523Y-158458857D01*
X191039523Y-158554095D01*
X190991904Y-158696952D01*
X190420476Y-159268380D01*
X191039523Y-159268380D01*
X244570476Y-138580761D02*
X244713333Y-138628380D01*
X244951428Y-138628380D01*
X245046666Y-138580761D01*
X245094285Y-138533142D01*
X245141904Y-138437904D01*
X245141904Y-138342666D01*
X245094285Y-138247428D01*
X245046666Y-138199809D01*
X244951428Y-138152190D01*
X244760952Y-138104571D01*
X244665714Y-138056952D01*
X244618095Y-138009333D01*
X244570476Y-137914095D01*
X244570476Y-137818857D01*
X244618095Y-137723619D01*
X244665714Y-137676000D01*
X244760952Y-137628380D01*
X244999047Y-137628380D01*
X245141904Y-137676000D01*
X245475238Y-137628380D02*
X245713333Y-138628380D01*
X245903809Y-137914095D01*
X246094285Y-138628380D01*
X246332380Y-137628380D01*
X247141904Y-137961714D02*
X247141904Y-138628380D01*
X246903809Y-137580761D02*
X246665714Y-138295047D01*
X247284761Y-138295047D01*
X247856190Y-137628380D02*
X247951428Y-137628380D01*
X248046666Y-137676000D01*
X248094285Y-137723619D01*
X248141904Y-137818857D01*
X248189523Y-138009333D01*
X248189523Y-138247428D01*
X248141904Y-138437904D01*
X248094285Y-138533142D01*
X248046666Y-138580761D01*
X247951428Y-138628380D01*
X247856190Y-138628380D01*
X247760952Y-138580761D01*
X247713333Y-138533142D01*
X247665714Y-138437904D01*
X247618095Y-138247428D01*
X247618095Y-138009333D01*
X247665714Y-137818857D01*
X247713333Y-137723619D01*
X247760952Y-137676000D01*
X247856190Y-137628380D01*
X146780476Y-159220761D02*
X146923333Y-159268380D01*
X147161428Y-159268380D01*
X147256666Y-159220761D01*
X147304285Y-159173142D01*
X147351904Y-159077904D01*
X147351904Y-158982666D01*
X147304285Y-158887428D01*
X147256666Y-158839809D01*
X147161428Y-158792190D01*
X146970952Y-158744571D01*
X146875714Y-158696952D01*
X146828095Y-158649333D01*
X146780476Y-158554095D01*
X146780476Y-158458857D01*
X146828095Y-158363619D01*
X146875714Y-158316000D01*
X146970952Y-158268380D01*
X147209047Y-158268380D01*
X147351904Y-158316000D01*
X147685238Y-158268380D02*
X147923333Y-159268380D01*
X148113809Y-158554095D01*
X148304285Y-159268380D01*
X148542380Y-158268380D01*
X149447142Y-159268380D02*
X148875714Y-159268380D01*
X149161428Y-159268380D02*
X149161428Y-158268380D01*
X149066190Y-158411238D01*
X148970952Y-158506476D01*
X148875714Y-158554095D01*
X150066190Y-158268380D02*
X150161428Y-158268380D01*
X150256666Y-158316000D01*
X150304285Y-158363619D01*
X150351904Y-158458857D01*
X150399523Y-158649333D01*
X150399523Y-158887428D01*
X150351904Y-159077904D01*
X150304285Y-159173142D01*
X150256666Y-159220761D01*
X150161428Y-159268380D01*
X150066190Y-159268380D01*
X149970952Y-159220761D01*
X149923333Y-159173142D01*
X149875714Y-159077904D01*
X149828095Y-158887428D01*
X149828095Y-158649333D01*
X149875714Y-158458857D01*
X149923333Y-158363619D01*
X149970952Y-158316000D01*
X150066190Y-158268380D01*
X86296666Y-179610761D02*
X86439523Y-179658380D01*
X86677619Y-179658380D01*
X86772857Y-179610761D01*
X86820476Y-179563142D01*
X86868095Y-179467904D01*
X86868095Y-179372666D01*
X86820476Y-179277428D01*
X86772857Y-179229809D01*
X86677619Y-179182190D01*
X86487142Y-179134571D01*
X86391904Y-179086952D01*
X86344285Y-179039333D01*
X86296666Y-178944095D01*
X86296666Y-178848857D01*
X86344285Y-178753619D01*
X86391904Y-178706000D01*
X86487142Y-178658380D01*
X86725238Y-178658380D01*
X86868095Y-178706000D01*
X87201428Y-178658380D02*
X87439523Y-179658380D01*
X87630000Y-178944095D01*
X87820476Y-179658380D01*
X88058571Y-178658380D01*
X88963333Y-179658380D02*
X88391904Y-179658380D01*
X88677619Y-179658380D02*
X88677619Y-178658380D01*
X88582380Y-178801238D01*
X88487142Y-178896476D01*
X88391904Y-178944095D01*
X289020476Y-159220761D02*
X289163333Y-159268380D01*
X289401428Y-159268380D01*
X289496666Y-159220761D01*
X289544285Y-159173142D01*
X289591904Y-159077904D01*
X289591904Y-158982666D01*
X289544285Y-158887428D01*
X289496666Y-158839809D01*
X289401428Y-158792190D01*
X289210952Y-158744571D01*
X289115714Y-158696952D01*
X289068095Y-158649333D01*
X289020476Y-158554095D01*
X289020476Y-158458857D01*
X289068095Y-158363619D01*
X289115714Y-158316000D01*
X289210952Y-158268380D01*
X289449047Y-158268380D01*
X289591904Y-158316000D01*
X289925238Y-158268380D02*
X290163333Y-159268380D01*
X290353809Y-158554095D01*
X290544285Y-159268380D01*
X290782380Y-158268380D01*
X291068095Y-158268380D02*
X291687142Y-158268380D01*
X291353809Y-158649333D01*
X291496666Y-158649333D01*
X291591904Y-158696952D01*
X291639523Y-158744571D01*
X291687142Y-158839809D01*
X291687142Y-159077904D01*
X291639523Y-159173142D01*
X291591904Y-159220761D01*
X291496666Y-159268380D01*
X291210952Y-159268380D01*
X291115714Y-159220761D01*
X291068095Y-159173142D01*
X292068095Y-158363619D02*
X292115714Y-158316000D01*
X292210952Y-158268380D01*
X292449047Y-158268380D01*
X292544285Y-158316000D01*
X292591904Y-158363619D01*
X292639523Y-158458857D01*
X292639523Y-158554095D01*
X292591904Y-158696952D01*
X292020476Y-159268380D01*
X292639523Y-159268380D01*
X248380476Y-159220761D02*
X248523333Y-159268380D01*
X248761428Y-159268380D01*
X248856666Y-159220761D01*
X248904285Y-159173142D01*
X248951904Y-159077904D01*
X248951904Y-158982666D01*
X248904285Y-158887428D01*
X248856666Y-158839809D01*
X248761428Y-158792190D01*
X248570952Y-158744571D01*
X248475714Y-158696952D01*
X248428095Y-158649333D01*
X248380476Y-158554095D01*
X248380476Y-158458857D01*
X248428095Y-158363619D01*
X248475714Y-158316000D01*
X248570952Y-158268380D01*
X248809047Y-158268380D01*
X248951904Y-158316000D01*
X249285238Y-158268380D02*
X249523333Y-159268380D01*
X249713809Y-158554095D01*
X249904285Y-159268380D01*
X250142380Y-158268380D01*
X250428095Y-158268380D02*
X251047142Y-158268380D01*
X250713809Y-158649333D01*
X250856666Y-158649333D01*
X250951904Y-158696952D01*
X250999523Y-158744571D01*
X251047142Y-158839809D01*
X251047142Y-159077904D01*
X250999523Y-159173142D01*
X250951904Y-159220761D01*
X250856666Y-159268380D01*
X250570952Y-159268380D01*
X250475714Y-159220761D01*
X250428095Y-159173142D01*
X251904285Y-158601714D02*
X251904285Y-159268380D01*
X251666190Y-158220761D02*
X251428095Y-158935047D01*
X252047142Y-158935047D01*
X167100476Y-159220761D02*
X167243333Y-159268380D01*
X167481428Y-159268380D01*
X167576666Y-159220761D01*
X167624285Y-159173142D01*
X167671904Y-159077904D01*
X167671904Y-158982666D01*
X167624285Y-158887428D01*
X167576666Y-158839809D01*
X167481428Y-158792190D01*
X167290952Y-158744571D01*
X167195714Y-158696952D01*
X167148095Y-158649333D01*
X167100476Y-158554095D01*
X167100476Y-158458857D01*
X167148095Y-158363619D01*
X167195714Y-158316000D01*
X167290952Y-158268380D01*
X167529047Y-158268380D01*
X167671904Y-158316000D01*
X168005238Y-158268380D02*
X168243333Y-159268380D01*
X168433809Y-158554095D01*
X168624285Y-159268380D01*
X168862380Y-158268380D01*
X169767142Y-159268380D02*
X169195714Y-159268380D01*
X169481428Y-159268380D02*
X169481428Y-158268380D01*
X169386190Y-158411238D01*
X169290952Y-158506476D01*
X169195714Y-158554095D01*
X170719523Y-159268380D02*
X170148095Y-159268380D01*
X170433809Y-159268380D02*
X170433809Y-158268380D01*
X170338571Y-158411238D01*
X170243333Y-158506476D01*
X170148095Y-158554095D01*
X179006666Y-179610761D02*
X179149523Y-179658380D01*
X179387619Y-179658380D01*
X179482857Y-179610761D01*
X179530476Y-179563142D01*
X179578095Y-179467904D01*
X179578095Y-179372666D01*
X179530476Y-179277428D01*
X179482857Y-179229809D01*
X179387619Y-179182190D01*
X179197142Y-179134571D01*
X179101904Y-179086952D01*
X179054285Y-179039333D01*
X179006666Y-178944095D01*
X179006666Y-178848857D01*
X179054285Y-178753619D01*
X179101904Y-178706000D01*
X179197142Y-178658380D01*
X179435238Y-178658380D01*
X179578095Y-178706000D01*
X179911428Y-178658380D02*
X180149523Y-179658380D01*
X180340000Y-178944095D01*
X180530476Y-179658380D01*
X180768571Y-178658380D01*
X181625714Y-178658380D02*
X181149523Y-178658380D01*
X181101904Y-179134571D01*
X181149523Y-179086952D01*
X181244761Y-179039333D01*
X181482857Y-179039333D01*
X181578095Y-179086952D01*
X181625714Y-179134571D01*
X181673333Y-179229809D01*
X181673333Y-179467904D01*
X181625714Y-179563142D01*
X181578095Y-179610761D01*
X181482857Y-179658380D01*
X181244761Y-179658380D01*
X181149523Y-179610761D01*
X181101904Y-179563142D01*
X102330476Y-138580761D02*
X102473333Y-138628380D01*
X102711428Y-138628380D01*
X102806666Y-138580761D01*
X102854285Y-138533142D01*
X102901904Y-138437904D01*
X102901904Y-138342666D01*
X102854285Y-138247428D01*
X102806666Y-138199809D01*
X102711428Y-138152190D01*
X102520952Y-138104571D01*
X102425714Y-138056952D01*
X102378095Y-138009333D01*
X102330476Y-137914095D01*
X102330476Y-137818857D01*
X102378095Y-137723619D01*
X102425714Y-137676000D01*
X102520952Y-137628380D01*
X102759047Y-137628380D01*
X102901904Y-137676000D01*
X103235238Y-137628380D02*
X103473333Y-138628380D01*
X103663809Y-137914095D01*
X103854285Y-138628380D01*
X104092380Y-137628380D01*
X104997142Y-138628380D02*
X104425714Y-138628380D01*
X104711428Y-138628380D02*
X104711428Y-137628380D01*
X104616190Y-137771238D01*
X104520952Y-137866476D01*
X104425714Y-137914095D01*
X105854285Y-137961714D02*
X105854285Y-138628380D01*
X105616190Y-137580761D02*
X105378095Y-138295047D01*
X105997142Y-138295047D01*
X300450476Y-179610761D02*
X300593333Y-179658380D01*
X300831428Y-179658380D01*
X300926666Y-179610761D01*
X300974285Y-179563142D01*
X301021904Y-179467904D01*
X301021904Y-179372666D01*
X300974285Y-179277428D01*
X300926666Y-179229809D01*
X300831428Y-179182190D01*
X300640952Y-179134571D01*
X300545714Y-179086952D01*
X300498095Y-179039333D01*
X300450476Y-178944095D01*
X300450476Y-178848857D01*
X300498095Y-178753619D01*
X300545714Y-178706000D01*
X300640952Y-178658380D01*
X300879047Y-178658380D01*
X301021904Y-178706000D01*
X301355238Y-178658380D02*
X301593333Y-179658380D01*
X301783809Y-178944095D01*
X301974285Y-179658380D01*
X302212380Y-178658380D01*
X302545714Y-178753619D02*
X302593333Y-178706000D01*
X302688571Y-178658380D01*
X302926666Y-178658380D01*
X303021904Y-178706000D01*
X303069523Y-178753619D01*
X303117142Y-178848857D01*
X303117142Y-178944095D01*
X303069523Y-179086952D01*
X302498095Y-179658380D01*
X303117142Y-179658380D01*
X303974285Y-178658380D02*
X303783809Y-178658380D01*
X303688571Y-178706000D01*
X303640952Y-178753619D01*
X303545714Y-178896476D01*
X303498095Y-179086952D01*
X303498095Y-179467904D01*
X303545714Y-179563142D01*
X303593333Y-179610761D01*
X303688571Y-179658380D01*
X303879047Y-179658380D01*
X303974285Y-179610761D01*
X304021904Y-179563142D01*
X304069523Y-179467904D01*
X304069523Y-179229809D01*
X304021904Y-179134571D01*
X303974285Y-179086952D01*
X303879047Y-179039333D01*
X303688571Y-179039333D01*
X303593333Y-179086952D01*
X303545714Y-179134571D01*
X303498095Y-179229809D01*
X53006666Y-115237380D02*
X53006666Y-115951666D01*
X52959047Y-116094523D01*
X52863809Y-116189761D01*
X52720952Y-116237380D01*
X52625714Y-116237380D01*
X54006666Y-116237380D02*
X53435238Y-116237380D01*
X53720952Y-116237380D02*
X53720952Y-115237380D01*
X53625714Y-115380238D01*
X53530476Y-115475476D01*
X53435238Y-115523095D01*
X199326666Y-179610761D02*
X199469523Y-179658380D01*
X199707619Y-179658380D01*
X199802857Y-179610761D01*
X199850476Y-179563142D01*
X199898095Y-179467904D01*
X199898095Y-179372666D01*
X199850476Y-179277428D01*
X199802857Y-179229809D01*
X199707619Y-179182190D01*
X199517142Y-179134571D01*
X199421904Y-179086952D01*
X199374285Y-179039333D01*
X199326666Y-178944095D01*
X199326666Y-178848857D01*
X199374285Y-178753619D01*
X199421904Y-178706000D01*
X199517142Y-178658380D01*
X199755238Y-178658380D01*
X199898095Y-178706000D01*
X200231428Y-178658380D02*
X200469523Y-179658380D01*
X200660000Y-178944095D01*
X200850476Y-179658380D01*
X201088571Y-178658380D01*
X201898095Y-178658380D02*
X201707619Y-178658380D01*
X201612380Y-178706000D01*
X201564761Y-178753619D01*
X201469523Y-178896476D01*
X201421904Y-179086952D01*
X201421904Y-179467904D01*
X201469523Y-179563142D01*
X201517142Y-179610761D01*
X201612380Y-179658380D01*
X201802857Y-179658380D01*
X201898095Y-179610761D01*
X201945714Y-179563142D01*
X201993333Y-179467904D01*
X201993333Y-179229809D01*
X201945714Y-179134571D01*
X201898095Y-179086952D01*
X201802857Y-179039333D01*
X201612380Y-179039333D01*
X201517142Y-179086952D01*
X201469523Y-179134571D01*
X201421904Y-179229809D01*
D11*
X244475000Y-132715000D02*
X230505000Y-132715000D01*
X230505000Y-118745000D02*
X244475000Y-118745000D01*
X230505000Y-132715000D02*
X230505000Y-118745000D01*
X244475000Y-118745000D02*
X244475000Y-132715000D01*
X325755000Y-132715000D02*
X311785000Y-132715000D01*
X311785000Y-118745000D02*
X325755000Y-118745000D01*
X311785000Y-132715000D02*
X311785000Y-118745000D01*
X325755000Y-118745000D02*
X325755000Y-132715000D01*
X169545000Y-118745000D02*
X183515000Y-118745000D01*
X183515000Y-132715000D02*
X169545000Y-132715000D01*
X169545000Y-132715000D02*
X169545000Y-118745000D01*
X183515000Y-118745000D02*
X183515000Y-132715000D01*
X259715000Y-139065000D02*
X273685000Y-139065000D01*
X273685000Y-139065000D02*
X273685000Y-153035000D01*
X273685000Y-153035000D02*
X259715000Y-153035000D01*
X259715000Y-153035000D02*
X259715000Y-139065000D01*
X234315000Y-194065000D02*
X234315000Y-180095000D01*
X248285000Y-194065000D02*
X234315000Y-194065000D01*
X248285000Y-180095000D02*
X248285000Y-194065000D01*
X234315000Y-180095000D02*
X248285000Y-180095000D01*
X288925000Y-180095000D02*
X288925000Y-194065000D01*
X288925000Y-194065000D02*
X274955000Y-194065000D01*
X274955000Y-180095000D02*
X288925000Y-180095000D01*
X274955000Y-194065000D02*
X274955000Y-180095000D01*
X157480000Y-102810000D02*
X180400000Y-102810000D01*
X180400000Y-105470000D02*
X180400000Y-102810000D01*
X157480000Y-105470000D02*
X180400000Y-105470000D01*
X157480000Y-105470000D02*
X157480000Y-102810000D01*
X156210000Y-105470000D02*
X154880000Y-105470000D01*
X154880000Y-105470000D02*
X154880000Y-104140000D01*
X131445000Y-139065000D02*
X131445000Y-153035000D01*
X117475000Y-139065000D02*
X131445000Y-139065000D01*
X131445000Y-153035000D02*
X117475000Y-153035000D01*
X117475000Y-153035000D02*
X117475000Y-139065000D01*
X330835000Y-173675000D02*
X316865000Y-173675000D01*
X330835000Y-159705000D02*
X330835000Y-173675000D01*
X316865000Y-159705000D02*
X330835000Y-159705000D01*
X316865000Y-173675000D02*
X316865000Y-159705000D01*
X151765000Y-139065000D02*
X151765000Y-153035000D01*
X137795000Y-139065000D02*
X151765000Y-139065000D01*
X151765000Y-153035000D02*
X137795000Y-153035000D01*
X137795000Y-153035000D02*
X137795000Y-139065000D01*
X158115000Y-153035000D02*
X158115000Y-139065000D01*
X158115000Y-139065000D02*
X172085000Y-139065000D01*
X172085000Y-139065000D02*
X172085000Y-153035000D01*
X172085000Y-153035000D02*
X158115000Y-153035000D01*
X233045000Y-139065000D02*
X233045000Y-153035000D01*
X233045000Y-153035000D02*
X219075000Y-153035000D01*
X219075000Y-139065000D02*
X233045000Y-139065000D01*
X219075000Y-153035000D02*
X219075000Y-139065000D01*
X132715000Y-194065000D02*
X132715000Y-180095000D01*
X146685000Y-194065000D02*
X132715000Y-194065000D01*
X146685000Y-180095000D02*
X146685000Y-194065000D01*
X132715000Y-180095000D02*
X146685000Y-180095000D01*
X268605000Y-194065000D02*
X254635000Y-194065000D01*
X268605000Y-180095000D02*
X268605000Y-194065000D01*
X254635000Y-180095000D02*
X268605000Y-180095000D01*
X254635000Y-194065000D02*
X254635000Y-180095000D01*
X126365000Y-194065000D02*
X112395000Y-194065000D01*
X126365000Y-180095000D02*
X126365000Y-194065000D01*
X112395000Y-194065000D02*
X112395000Y-180095000D01*
X112395000Y-180095000D02*
X126365000Y-180095000D01*
X305435000Y-132715000D02*
X291465000Y-132715000D01*
X291465000Y-132715000D02*
X291465000Y-118745000D01*
X305435000Y-118745000D02*
X305435000Y-132715000D01*
X291465000Y-118745000D02*
X305435000Y-118745000D01*
X193675000Y-201295000D02*
X207645000Y-201295000D01*
X207645000Y-201295000D02*
X207645000Y-215265000D01*
X207645000Y-215265000D02*
X193675000Y-215265000D01*
X193675000Y-215265000D02*
X193675000Y-201295000D01*
X285115000Y-118745000D02*
X285115000Y-132715000D01*
X285115000Y-132715000D02*
X271145000Y-132715000D01*
X271145000Y-118745000D02*
X285115000Y-118745000D01*
X271145000Y-132715000D02*
X271145000Y-118745000D01*
X213995000Y-180095000D02*
X227965000Y-180095000D01*
X227965000Y-194065000D02*
X213995000Y-194065000D01*
X213995000Y-194065000D02*
X213995000Y-180095000D01*
X227965000Y-180095000D02*
X227965000Y-194065000D01*
X288925000Y-215265000D02*
X288925000Y-201295000D01*
X302895000Y-201295000D02*
X302895000Y-215265000D01*
X288925000Y-201295000D02*
X302895000Y-201295000D01*
X302895000Y-215265000D02*
X288925000Y-215265000D01*
X222885000Y-173675000D02*
X222885000Y-159705000D01*
X222885000Y-159705000D02*
X236855000Y-159705000D01*
X236855000Y-173675000D02*
X222885000Y-173675000D01*
X236855000Y-159705000D02*
X236855000Y-173675000D01*
X153035000Y-180095000D02*
X167005000Y-180095000D01*
X167005000Y-194065000D02*
X153035000Y-194065000D01*
X153035000Y-194065000D02*
X153035000Y-180095000D01*
X167005000Y-180095000D02*
X167005000Y-194065000D01*
X100965000Y-159705000D02*
X114935000Y-159705000D01*
X114935000Y-173675000D02*
X100965000Y-173675000D01*
X100965000Y-173675000D02*
X100965000Y-159705000D01*
X114935000Y-159705000D02*
X114935000Y-173675000D01*
X95885000Y-215265000D02*
X81915000Y-215265000D01*
X81915000Y-215265000D02*
X81915000Y-201295000D01*
X81915000Y-201295000D02*
X95885000Y-201295000D01*
X95885000Y-201295000D02*
X95885000Y-215265000D01*
X192405000Y-153035000D02*
X178435000Y-153035000D01*
X178435000Y-153035000D02*
X178435000Y-139065000D01*
X192405000Y-139065000D02*
X192405000Y-153035000D01*
X178435000Y-139065000D02*
X192405000Y-139065000D01*
X210185000Y-132715000D02*
X210185000Y-118745000D01*
X210185000Y-118745000D02*
X224155000Y-118745000D01*
X224155000Y-118745000D02*
X224155000Y-132715000D01*
X224155000Y-132715000D02*
X210185000Y-132715000D01*
X102235000Y-132715000D02*
X88265000Y-132715000D01*
X102235000Y-118745000D02*
X102235000Y-132715000D01*
X88265000Y-132715000D02*
X88265000Y-118745000D01*
X88265000Y-118745000D02*
X102235000Y-118745000D01*
X121285000Y-159705000D02*
X135255000Y-159705000D01*
X121285000Y-173675000D02*
X121285000Y-159705000D01*
X135255000Y-173675000D02*
X121285000Y-173675000D01*
X135255000Y-159705000D02*
X135255000Y-173675000D01*
X250825000Y-132715000D02*
X250825000Y-118745000D01*
X264795000Y-132715000D02*
X250825000Y-132715000D01*
X250825000Y-118745000D02*
X264795000Y-118745000D01*
X264795000Y-118745000D02*
X264795000Y-132715000D01*
X263525000Y-173675000D02*
X263525000Y-159705000D01*
X277495000Y-173675000D02*
X263525000Y-173675000D01*
X263525000Y-159705000D02*
X277495000Y-159705000D01*
X277495000Y-159705000D02*
X277495000Y-173675000D01*
X128905000Y-132715000D02*
X128905000Y-118745000D01*
X142875000Y-118745000D02*
X142875000Y-132715000D01*
X142875000Y-132715000D02*
X128905000Y-132715000D01*
X128905000Y-118745000D02*
X142875000Y-118745000D01*
X163195000Y-118745000D02*
X163195000Y-132715000D01*
X149225000Y-118745000D02*
X163195000Y-118745000D01*
X149225000Y-132715000D02*
X149225000Y-118745000D01*
X163195000Y-132715000D02*
X149225000Y-132715000D01*
X356070000Y-119385000D02*
X358730000Y-119385000D01*
X356070000Y-119385000D02*
X356070000Y-142305000D01*
X356070000Y-118115000D02*
X356070000Y-116785000D01*
X356070000Y-142305000D02*
X358730000Y-142305000D01*
X358730000Y-119385000D02*
X358730000Y-142305000D01*
X356070000Y-116785000D02*
X357400000Y-116785000D01*
X280035000Y-139065000D02*
X294005000Y-139065000D01*
X294005000Y-139065000D02*
X294005000Y-153035000D01*
X294005000Y-153035000D02*
X280035000Y-153035000D01*
X280035000Y-153035000D02*
X280035000Y-139065000D01*
X122555000Y-132715000D02*
X108585000Y-132715000D01*
X108585000Y-132715000D02*
X108585000Y-118745000D01*
X122555000Y-118745000D02*
X122555000Y-132715000D01*
X108585000Y-118745000D02*
X122555000Y-118745000D01*
X340995000Y-180095000D02*
X340995000Y-194065000D01*
X327025000Y-180095000D02*
X340995000Y-180095000D01*
X327025000Y-194065000D02*
X327025000Y-180095000D01*
X340995000Y-194065000D02*
X327025000Y-194065000D01*
X198755000Y-153035000D02*
X198755000Y-139065000D01*
X198755000Y-139065000D02*
X212725000Y-139065000D01*
X212725000Y-139065000D02*
X212725000Y-153035000D01*
X212725000Y-153035000D02*
X198755000Y-153035000D01*
X189865000Y-132715000D02*
X189865000Y-118745000D01*
X189865000Y-118745000D02*
X203835000Y-118745000D01*
X203835000Y-132715000D02*
X189865000Y-132715000D01*
X203835000Y-118745000D02*
X203835000Y-132715000D01*
X231140000Y-102810000D02*
X254060000Y-102810000D01*
X254060000Y-105470000D02*
X254060000Y-102810000D01*
X231140000Y-105470000D02*
X254060000Y-105470000D01*
X228540000Y-105470000D02*
X228540000Y-104140000D01*
X229870000Y-105470000D02*
X228540000Y-105470000D01*
X231140000Y-105470000D02*
X231140000Y-102810000D01*
X202565000Y-159705000D02*
X216535000Y-159705000D01*
X202565000Y-173675000D02*
X202565000Y-159705000D01*
X216535000Y-173675000D02*
X202565000Y-173675000D01*
X216535000Y-159705000D02*
X216535000Y-173675000D01*
X268605000Y-201295000D02*
X282575000Y-201295000D01*
X268605000Y-215265000D02*
X268605000Y-201295000D01*
X282575000Y-215265000D02*
X268605000Y-215265000D01*
X282575000Y-201295000D02*
X282575000Y-215265000D01*
X196215000Y-159705000D02*
X196215000Y-173675000D01*
X196215000Y-173675000D02*
X182245000Y-173675000D01*
X182245000Y-159705000D02*
X196215000Y-159705000D01*
X182245000Y-173675000D02*
X182245000Y-159705000D01*
X239395000Y-153035000D02*
X239395000Y-139065000D01*
X253365000Y-139065000D02*
X253365000Y-153035000D01*
X253365000Y-153035000D02*
X239395000Y-153035000D01*
X239395000Y-139065000D02*
X253365000Y-139065000D01*
X141605000Y-173675000D02*
X141605000Y-159705000D01*
X155575000Y-173675000D02*
X141605000Y-173675000D01*
X141605000Y-159705000D02*
X155575000Y-159705000D01*
X155575000Y-159705000D02*
X155575000Y-173675000D01*
X94615000Y-194065000D02*
X80645000Y-194065000D01*
X94615000Y-180095000D02*
X94615000Y-194065000D01*
X80645000Y-180095000D02*
X94615000Y-180095000D01*
X80645000Y-194065000D02*
X80645000Y-180095000D01*
X297815000Y-173675000D02*
X283845000Y-173675000D01*
X283845000Y-173675000D02*
X283845000Y-159705000D01*
X283845000Y-159705000D02*
X297815000Y-159705000D01*
X297815000Y-159705000D02*
X297815000Y-173675000D01*
X257175000Y-159705000D02*
X257175000Y-173675000D01*
X243205000Y-173675000D02*
X243205000Y-159705000D01*
X257175000Y-173675000D02*
X243205000Y-173675000D01*
X243205000Y-159705000D02*
X257175000Y-159705000D01*
X175895000Y-173675000D02*
X161925000Y-173675000D01*
X161925000Y-173675000D02*
X161925000Y-159705000D01*
X175895000Y-159705000D02*
X175895000Y-173675000D01*
X161925000Y-159705000D02*
X175895000Y-159705000D01*
X173355000Y-180095000D02*
X187325000Y-180095000D01*
X187325000Y-180095000D02*
X187325000Y-194065000D01*
X187325000Y-194065000D02*
X173355000Y-194065000D01*
X173355000Y-194065000D02*
X173355000Y-180095000D01*
X97155000Y-139065000D02*
X111125000Y-139065000D01*
X111125000Y-139065000D02*
X111125000Y-153035000D01*
X97155000Y-153035000D02*
X97155000Y-139065000D01*
X111125000Y-153035000D02*
X97155000Y-153035000D01*
X295275000Y-180095000D02*
X309245000Y-180095000D01*
X309245000Y-180095000D02*
X309245000Y-194065000D01*
X309245000Y-194065000D02*
X295275000Y-194065000D01*
X295275000Y-194065000D02*
X295275000Y-180095000D01*
X52010000Y-118115000D02*
X52010000Y-116785000D01*
X52010000Y-142305000D02*
X54670000Y-142305000D01*
X52010000Y-119385000D02*
X52010000Y-142305000D01*
X52010000Y-116785000D02*
X53340000Y-116785000D01*
X54670000Y-119385000D02*
X54670000Y-142305000D01*
X52010000Y-119385000D02*
X54670000Y-119385000D01*
X193675000Y-180095000D02*
X207645000Y-180095000D01*
X193675000Y-194065000D02*
X193675000Y-180095000D01*
X207645000Y-180095000D02*
X207645000Y-194065000D01*
X207645000Y-194065000D02*
X193675000Y-194065000D01*
%LPC*%
D12*
X232410000Y-125730000D03*
X242570000Y-125730000D03*
D13*
X237490000Y-125730000D03*
D14*
X240030000Y-120650000D03*
X233680000Y-123190000D03*
D13*
X318770000Y-125730000D03*
D12*
X313690000Y-125730000D03*
X323850000Y-125730000D03*
D14*
X321310000Y-120650000D03*
X314960000Y-123190000D03*
D15*
X48815000Y-221060000D03*
D12*
X171450000Y-125730000D03*
D13*
X176530000Y-125730000D03*
D12*
X181610000Y-125730000D03*
D14*
X179070000Y-120650000D03*
X172720000Y-123190000D03*
D12*
X271780000Y-146050000D03*
D13*
X266700000Y-146050000D03*
D12*
X261620000Y-146050000D03*
D14*
X269240000Y-140970000D03*
X262890000Y-143510000D03*
D12*
X236220000Y-187080000D03*
X246380000Y-187080000D03*
D13*
X241300000Y-187080000D03*
D14*
X243840000Y-182000000D03*
X237490000Y-184540000D03*
D13*
X281940000Y-187080000D03*
D12*
X287020000Y-187080000D03*
X276860000Y-187080000D03*
D14*
X284480000Y-182000000D03*
X278130000Y-184540000D03*
D16*
X156210000Y-104140000D03*
D17*
X158750000Y-104140000D03*
X161290000Y-104140000D03*
X163830000Y-104140000D03*
X166370000Y-104140000D03*
X168910000Y-104140000D03*
X171450000Y-104140000D03*
X173990000Y-104140000D03*
X176530000Y-104140000D03*
X179070000Y-104140000D03*
D12*
X129540000Y-146050000D03*
D13*
X124460000Y-146050000D03*
D12*
X119380000Y-146050000D03*
D14*
X127000000Y-140970000D03*
X120650000Y-143510000D03*
D13*
X335750000Y-174930000D03*
D12*
X318770000Y-166690000D03*
X328930000Y-166690000D03*
D13*
X323850000Y-166690000D03*
D18*
X311950000Y-159690000D03*
X335750000Y-159690000D03*
D13*
X311950000Y-174930000D03*
D14*
X326390000Y-161610000D03*
X320040000Y-164150000D03*
D13*
X144780000Y-146050000D03*
D12*
X139700000Y-146050000D03*
X149860000Y-146050000D03*
D14*
X147320000Y-140970000D03*
X140970000Y-143510000D03*
D12*
X170180000Y-146050000D03*
D13*
X165100000Y-146050000D03*
D12*
X160020000Y-146050000D03*
D14*
X167640000Y-140970000D03*
X161290000Y-143510000D03*
D12*
X220980000Y-146050000D03*
X231140000Y-146050000D03*
D13*
X226060000Y-146050000D03*
D14*
X228600000Y-140970000D03*
X222250000Y-143510000D03*
D15*
X48815000Y-98345000D03*
D13*
X139700000Y-187080000D03*
D12*
X134620000Y-187080000D03*
X144780000Y-187080000D03*
D14*
X142240000Y-182000000D03*
X135890000Y-184540000D03*
D13*
X261620000Y-187080000D03*
D12*
X266700000Y-187080000D03*
X256540000Y-187080000D03*
D14*
X264160000Y-182000000D03*
X257810000Y-184540000D03*
D12*
X114300000Y-187080000D03*
D13*
X119380000Y-187080000D03*
D12*
X124460000Y-187080000D03*
D14*
X121920000Y-182000000D03*
X115570000Y-184540000D03*
D12*
X303530000Y-125730000D03*
X293370000Y-125730000D03*
D13*
X298450000Y-125730000D03*
D14*
X300990000Y-120650000D03*
X294640000Y-123190000D03*
D13*
X200660000Y-208280000D03*
D12*
X195580000Y-208280000D03*
D18*
X150660000Y-201280000D03*
D13*
X150660000Y-216520000D03*
D12*
X205740000Y-208280000D03*
D13*
X250660000Y-216520000D03*
D18*
X250660000Y-201280000D03*
D14*
X203200000Y-203200000D03*
X196850000Y-205740000D03*
D13*
X278130000Y-125730000D03*
D12*
X273050000Y-125730000D03*
X283210000Y-125730000D03*
D14*
X280670000Y-120650000D03*
X274320000Y-123190000D03*
D12*
X215900000Y-187080000D03*
D13*
X220980000Y-187080000D03*
D12*
X226060000Y-187080000D03*
D14*
X223520000Y-182000000D03*
X217170000Y-184540000D03*
D12*
X300990000Y-208280000D03*
D13*
X295910000Y-208280000D03*
D12*
X290830000Y-208280000D03*
D14*
X298450000Y-203200000D03*
X292100000Y-205740000D03*
D12*
X224790000Y-166690000D03*
D13*
X229870000Y-166690000D03*
D12*
X234950000Y-166690000D03*
D14*
X232410000Y-161610000D03*
X226060000Y-164150000D03*
D13*
X160020000Y-187080000D03*
D12*
X154940000Y-187080000D03*
X165100000Y-187080000D03*
D14*
X162560000Y-182000000D03*
X156210000Y-184540000D03*
D12*
X113030000Y-166690000D03*
D13*
X107950000Y-166690000D03*
D12*
X102870000Y-166690000D03*
D14*
X110490000Y-161610000D03*
X104140000Y-164150000D03*
D12*
X93980000Y-208280000D03*
D13*
X88900000Y-208280000D03*
D12*
X83820000Y-208280000D03*
D14*
X91440000Y-203200000D03*
X85090000Y-205740000D03*
D13*
X185420000Y-146050000D03*
D12*
X180340000Y-146050000D03*
X190500000Y-146050000D03*
D14*
X187960000Y-140970000D03*
X181610000Y-143510000D03*
D13*
X217170000Y-125730000D03*
D12*
X212090000Y-125730000D03*
X222250000Y-125730000D03*
D14*
X219710000Y-120650000D03*
X213360000Y-123190000D03*
D12*
X90170000Y-125730000D03*
X100330000Y-125730000D03*
D13*
X95250000Y-125730000D03*
D14*
X97790000Y-120650000D03*
X91440000Y-123190000D03*
D15*
X362030000Y-221060000D03*
D13*
X128270000Y-166690000D03*
D12*
X123190000Y-166690000D03*
X133350000Y-166690000D03*
D14*
X130810000Y-161610000D03*
X124460000Y-164150000D03*
D12*
X252730000Y-125730000D03*
X262890000Y-125730000D03*
D13*
X257810000Y-125730000D03*
D14*
X260350000Y-120650000D03*
X254000000Y-123190000D03*
D13*
X270510000Y-166690000D03*
D12*
X265430000Y-166690000D03*
X275590000Y-166690000D03*
D14*
X273050000Y-161610000D03*
X266700000Y-164150000D03*
D12*
X130810000Y-125730000D03*
X140970000Y-125730000D03*
D13*
X135890000Y-125730000D03*
D14*
X138430000Y-120650000D03*
X132080000Y-123190000D03*
D12*
X161290000Y-125730000D03*
D13*
X156210000Y-125730000D03*
D12*
X151130000Y-125730000D03*
D14*
X158750000Y-120650000D03*
X152400000Y-123190000D03*
D16*
X357400000Y-118115000D03*
D17*
X357400000Y-120655000D03*
X357400000Y-123195000D03*
X357400000Y-125735000D03*
X357400000Y-128275000D03*
X357400000Y-130815000D03*
X357400000Y-133355000D03*
X357400000Y-135895000D03*
X357400000Y-138435000D03*
X357400000Y-140975000D03*
D12*
X292100000Y-146050000D03*
D13*
X287020000Y-146050000D03*
D12*
X281940000Y-146050000D03*
D14*
X289560000Y-140970000D03*
X283210000Y-143510000D03*
D12*
X110490000Y-125730000D03*
D13*
X115570000Y-125730000D03*
D12*
X120650000Y-125730000D03*
D14*
X118110000Y-120650000D03*
X111760000Y-123190000D03*
D15*
X362030000Y-98345000D03*
D12*
X328930000Y-187080000D03*
D18*
X345910000Y-180080000D03*
D13*
X345910000Y-195320000D03*
D12*
X339090000Y-187080000D03*
D18*
X322110000Y-180080000D03*
D13*
X334010000Y-187080000D03*
X322110000Y-195320000D03*
D14*
X336550000Y-182000000D03*
X330200000Y-184540000D03*
D12*
X200660000Y-146050000D03*
X210820000Y-146050000D03*
D13*
X205740000Y-146050000D03*
D14*
X208280000Y-140970000D03*
X201930000Y-143510000D03*
D12*
X191770000Y-125730000D03*
X201930000Y-125730000D03*
D13*
X196850000Y-125730000D03*
D14*
X199390000Y-120650000D03*
X193040000Y-123190000D03*
D16*
X229870000Y-104140000D03*
D17*
X232410000Y-104140000D03*
X234950000Y-104140000D03*
X237490000Y-104140000D03*
X240030000Y-104140000D03*
X242570000Y-104140000D03*
X245110000Y-104140000D03*
X247650000Y-104140000D03*
X250190000Y-104140000D03*
X252730000Y-104140000D03*
D12*
X204470000Y-166690000D03*
D13*
X209550000Y-166690000D03*
D12*
X214630000Y-166690000D03*
D14*
X212090000Y-161610000D03*
X205740000Y-164150000D03*
D12*
X270510000Y-208280000D03*
X280670000Y-208280000D03*
D13*
X275590000Y-208280000D03*
D14*
X278130000Y-203200000D03*
X271780000Y-205740000D03*
D12*
X194310000Y-166690000D03*
D13*
X189230000Y-166690000D03*
D12*
X184150000Y-166690000D03*
D14*
X191770000Y-161610000D03*
X185420000Y-164150000D03*
D13*
X246380000Y-146050000D03*
D12*
X241300000Y-146050000D03*
X251460000Y-146050000D03*
D14*
X248920000Y-140970000D03*
X242570000Y-143510000D03*
D13*
X148590000Y-166690000D03*
D12*
X143510000Y-166690000D03*
X153670000Y-166690000D03*
D14*
X151130000Y-161610000D03*
X144780000Y-164150000D03*
D12*
X82550000Y-187080000D03*
D18*
X99530000Y-180080000D03*
D12*
X92710000Y-187080000D03*
D13*
X87630000Y-187080000D03*
D18*
X75730000Y-180080000D03*
D13*
X99530000Y-195320000D03*
X75730000Y-195320000D03*
D14*
X90170000Y-182000000D03*
X83820000Y-184540000D03*
D12*
X285750000Y-166690000D03*
D13*
X290830000Y-166690000D03*
D12*
X295910000Y-166690000D03*
D14*
X293370000Y-161610000D03*
X287020000Y-164150000D03*
D12*
X245110000Y-166690000D03*
D13*
X250190000Y-166690000D03*
D12*
X255270000Y-166690000D03*
D14*
X252730000Y-161610000D03*
X246380000Y-164150000D03*
D13*
X168910000Y-166690000D03*
D12*
X163830000Y-166690000D03*
X173990000Y-166690000D03*
D14*
X171450000Y-161610000D03*
X165100000Y-164150000D03*
D13*
X180340000Y-187080000D03*
D12*
X175260000Y-187080000D03*
X185420000Y-187080000D03*
D14*
X182880000Y-182000000D03*
X176530000Y-184540000D03*
D12*
X109220000Y-146050000D03*
X99060000Y-146050000D03*
D13*
X104140000Y-146050000D03*
D14*
X106680000Y-140970000D03*
X100330000Y-143510000D03*
D12*
X297180000Y-187080000D03*
X307340000Y-187080000D03*
D13*
X302260000Y-187080000D03*
D14*
X304800000Y-182000000D03*
X298450000Y-184540000D03*
D16*
X53340000Y-118115000D03*
D17*
X53340000Y-120655000D03*
X53340000Y-123195000D03*
X53340000Y-125735000D03*
X53340000Y-128275000D03*
X53340000Y-130815000D03*
X53340000Y-133355000D03*
X53340000Y-135895000D03*
X53340000Y-138435000D03*
X53340000Y-140975000D03*
D13*
X200660000Y-187080000D03*
D12*
X195580000Y-187080000D03*
X205740000Y-187080000D03*
D14*
X203200000Y-182000000D03*
X196850000Y-184540000D03*
M02*
