%TF.GenerationSoftware,KiCad,Pcbnew,(6.0.1)*%
%TF.CreationDate,2022-07-30T17:19:37+08:00*%
%TF.ProjectId,CrVisionMech,43725669-7369-46f6-9e4d-6563682e6b69,rev?*%
%TF.SameCoordinates,Original*%
%TF.FileFunction,Copper,L2,Bot*%
%TF.FilePolarity,Positive*%
%FSLAX46Y46*%
G04 Gerber Fmt 4.6, Leading zero omitted, Abs format (unit mm)*
G04 Created by KiCad (PCBNEW (6.0.1)) date 2022-07-30 17:19:37*
%MOMM*%
%LPD*%
G01*
G04 APERTURE LIST*
%TA.AperFunction,ComponentPad*%
%ADD10C,2.200000*%
%TD*%
%TA.AperFunction,ComponentPad*%
%ADD11C,5.600000*%
%TD*%
%TA.AperFunction,ComponentPad*%
%ADD12R,1.700000X1.700000*%
%TD*%
%TA.AperFunction,ComponentPad*%
%ADD13O,1.700000X1.700000*%
%TD*%
%TA.AperFunction,SMDPad,CuDef*%
%ADD14R,0.600000X0.700000*%
%TD*%
%TA.AperFunction,ViaPad*%
%ADD15C,0.800000*%
%TD*%
%TA.AperFunction,Conductor*%
%ADD16C,0.750000*%
%TD*%
G04 APERTURE END LIST*
D10*
X240030000Y-120650000D03*
X233680000Y-123190000D03*
X321310000Y-120650000D03*
X314960000Y-123190000D03*
D11*
X48815000Y-221060000D03*
D10*
X179070000Y-120650000D03*
X172720000Y-123190000D03*
X269240000Y-140970000D03*
X262890000Y-143510000D03*
X243840000Y-182000000D03*
X237490000Y-184540000D03*
X284480000Y-182000000D03*
X278130000Y-184540000D03*
D12*
X156210000Y-104140000D03*
D13*
X158750000Y-104140000D03*
X161290000Y-104140000D03*
X163830000Y-104140000D03*
X166370000Y-104140000D03*
X168910000Y-104140000D03*
X171450000Y-104140000D03*
X173990000Y-104140000D03*
X176530000Y-104140000D03*
X179070000Y-104140000D03*
D10*
X127000000Y-140970000D03*
X120650000Y-143510000D03*
X326390000Y-161610000D03*
X320040000Y-164150000D03*
X147320000Y-140970000D03*
X140970000Y-143510000D03*
X167640000Y-140970000D03*
X161290000Y-143510000D03*
X228600000Y-140970000D03*
X222250000Y-143510000D03*
D11*
X48815000Y-98345000D03*
D10*
X142240000Y-182000000D03*
X135890000Y-184540000D03*
X264160000Y-182000000D03*
X257810000Y-184540000D03*
X121920000Y-182000000D03*
X115570000Y-184540000D03*
X300990000Y-120650000D03*
X294640000Y-123190000D03*
X203200000Y-203200000D03*
X196850000Y-205740000D03*
X280670000Y-120650000D03*
X274320000Y-123190000D03*
X223520000Y-182000000D03*
X217170000Y-184540000D03*
X298450000Y-203200000D03*
X292100000Y-205740000D03*
X232410000Y-161610000D03*
X226060000Y-164150000D03*
X162560000Y-182000000D03*
X156210000Y-184540000D03*
X110490000Y-161610000D03*
X104140000Y-164150000D03*
X91440000Y-203200000D03*
X85090000Y-205740000D03*
X187960000Y-140970000D03*
X181610000Y-143510000D03*
X219710000Y-120650000D03*
X213360000Y-123190000D03*
X97790000Y-120650000D03*
X91440000Y-123190000D03*
D11*
X362030000Y-221060000D03*
D10*
X130810000Y-161610000D03*
X124460000Y-164150000D03*
X260350000Y-120650000D03*
X254000000Y-123190000D03*
X273050000Y-161610000D03*
X266700000Y-164150000D03*
X138430000Y-120650000D03*
X132080000Y-123190000D03*
X158750000Y-120650000D03*
X152400000Y-123190000D03*
D12*
X357400000Y-118115000D03*
D13*
X357400000Y-120655000D03*
X357400000Y-123195000D03*
X357400000Y-125735000D03*
X357400000Y-128275000D03*
X357400000Y-130815000D03*
X357400000Y-133355000D03*
X357400000Y-135895000D03*
X357400000Y-138435000D03*
X357400000Y-140975000D03*
D10*
X289560000Y-140970000D03*
X283210000Y-143510000D03*
X118110000Y-120650000D03*
X111760000Y-123190000D03*
D11*
X362030000Y-98345000D03*
D10*
X336550000Y-182000000D03*
X330200000Y-184540000D03*
X208280000Y-140970000D03*
X201930000Y-143510000D03*
X199390000Y-120650000D03*
X193040000Y-123190000D03*
D12*
X229870000Y-104140000D03*
D13*
X232410000Y-104140000D03*
X234950000Y-104140000D03*
X237490000Y-104140000D03*
X240030000Y-104140000D03*
X242570000Y-104140000D03*
X245110000Y-104140000D03*
X247650000Y-104140000D03*
X250190000Y-104140000D03*
X252730000Y-104140000D03*
D10*
X212090000Y-161610000D03*
X205740000Y-164150000D03*
X278130000Y-203200000D03*
X271780000Y-205740000D03*
X191770000Y-161610000D03*
X185420000Y-164150000D03*
X248920000Y-140970000D03*
X242570000Y-143510000D03*
X151130000Y-161610000D03*
X144780000Y-164150000D03*
X90170000Y-182000000D03*
X83820000Y-184540000D03*
X293370000Y-161610000D03*
X287020000Y-164150000D03*
X252730000Y-161610000D03*
X246380000Y-164150000D03*
X171450000Y-161610000D03*
X165100000Y-164150000D03*
X182880000Y-182000000D03*
X176530000Y-184540000D03*
X106680000Y-140970000D03*
X100330000Y-143510000D03*
X304800000Y-182000000D03*
X298450000Y-184540000D03*
D12*
X53340000Y-118115000D03*
D13*
X53340000Y-120655000D03*
X53340000Y-123195000D03*
X53340000Y-125735000D03*
X53340000Y-128275000D03*
X53340000Y-130815000D03*
X53340000Y-133355000D03*
X53340000Y-135895000D03*
X53340000Y-138435000D03*
X53340000Y-140975000D03*
D10*
X203200000Y-182000000D03*
X196850000Y-184540000D03*
D14*
X121702104Y-137795000D03*
X120302104Y-137795000D03*
X284862500Y-198755000D03*
X283462500Y-198755000D03*
X90870000Y-177165000D03*
X89470000Y-177165000D03*
X226292096Y-177165000D03*
X224892096Y-177165000D03*
X198519214Y-157480000D03*
X197119214Y-157480000D03*
X201590520Y-137795000D03*
X200190520Y-137795000D03*
X158458178Y-116205000D03*
X157058178Y-116205000D03*
X158948690Y-157480000D03*
X157548690Y-157480000D03*
X297445535Y-157480000D03*
X296045535Y-157480000D03*
X256471304Y-177165000D03*
X255071304Y-177165000D03*
X306770000Y-177165000D03*
X305370000Y-177165000D03*
X287552893Y-157480000D03*
X286152893Y-157480000D03*
X236351832Y-177165000D03*
X234951832Y-177165000D03*
X186053152Y-177165000D03*
X184653152Y-177165000D03*
X278195000Y-198755000D03*
X276795000Y-198755000D03*
X96650000Y-116205000D03*
X95250000Y-116205000D03*
X115635000Y-177165000D03*
X114235000Y-177165000D03*
X318835000Y-157480000D03*
X317435000Y-157480000D03*
X127554089Y-116205000D03*
X126154089Y-116205000D03*
X168841321Y-157480000D03*
X167441321Y-157480000D03*
X302677260Y-116205000D03*
X301277260Y-116205000D03*
X211576572Y-137795000D03*
X210176572Y-137795000D03*
X199663630Y-116205000D03*
X198263630Y-116205000D03*
X171632364Y-137795000D03*
X170232364Y-137795000D03*
X257875000Y-157480000D03*
X256475000Y-157480000D03*
X251170445Y-116205000D03*
X249770445Y-116205000D03*
X261506832Y-137795000D03*
X260106832Y-137795000D03*
X292375897Y-116205000D03*
X290975897Y-116205000D03*
X281478936Y-137795000D03*
X280078936Y-137795000D03*
X276590776Y-177165000D03*
X275190776Y-177165000D03*
X148156815Y-116205000D03*
X146756815Y-116205000D03*
X119378166Y-157480000D03*
X117978166Y-157480000D03*
X228197107Y-157480000D03*
X226797107Y-157480000D03*
X178733952Y-157480000D03*
X177333952Y-157480000D03*
X261471808Y-116205000D03*
X260071808Y-116205000D03*
X181618416Y-137795000D03*
X180218416Y-137795000D03*
X267767631Y-157480000D03*
X266367631Y-157480000D03*
X161646312Y-137795000D03*
X160246312Y-137795000D03*
X125694736Y-177165000D03*
X124294736Y-177165000D03*
X196112888Y-177165000D03*
X194712888Y-177165000D03*
X165933680Y-177165000D03*
X164533680Y-177165000D03*
X149056059Y-157480000D03*
X147656059Y-157480000D03*
X106951363Y-116205000D03*
X105551363Y-116205000D03*
X266531040Y-177165000D03*
X265131040Y-177165000D03*
X191604468Y-137795000D03*
X190204468Y-137795000D03*
X141674208Y-137795000D03*
X140274208Y-137795000D03*
X101730000Y-137795000D03*
X100330000Y-137795000D03*
X271773171Y-116205000D03*
X270373171Y-116205000D03*
X282074534Y-116205000D03*
X280674534Y-116205000D03*
X151660260Y-137795000D03*
X150260260Y-137795000D03*
X137855452Y-116205000D03*
X136455452Y-116205000D03*
X155873944Y-177165000D03*
X154473944Y-177165000D03*
X286650512Y-177165000D03*
X285250512Y-177165000D03*
X241534728Y-137795000D03*
X240134728Y-137795000D03*
X216232360Y-177165000D03*
X214832360Y-177165000D03*
X291465000Y-137795000D03*
X290065000Y-137795000D03*
X175993416Y-177165000D03*
X174593416Y-177165000D03*
X240869082Y-116205000D03*
X239469082Y-116205000D03*
X208411845Y-157480000D03*
X207011845Y-157480000D03*
X131688156Y-137795000D03*
X130288156Y-137795000D03*
X94680000Y-198755000D03*
X93280000Y-198755000D03*
X291530000Y-198755000D03*
X290130000Y-198755000D03*
X277660262Y-157480000D03*
X276260262Y-157480000D03*
X218304476Y-157480000D03*
X216904476Y-157480000D03*
X189362267Y-116205000D03*
X187962267Y-116205000D03*
X139163428Y-157480000D03*
X137763428Y-157480000D03*
X111716052Y-137795000D03*
X110316052Y-137795000D03*
X168759541Y-116205000D03*
X167359541Y-116205000D03*
X129270797Y-157480000D03*
X127870797Y-157480000D03*
X328995000Y-157480000D03*
X327595000Y-157480000D03*
X209964993Y-116205000D03*
X208564993Y-116205000D03*
X188626583Y-157480000D03*
X187226583Y-157480000D03*
X206172624Y-177165000D03*
X204772624Y-177165000D03*
X230567719Y-116205000D03*
X229167719Y-116205000D03*
X271492884Y-137795000D03*
X270092884Y-137795000D03*
X296710248Y-177165000D03*
X295310248Y-177165000D03*
X207075000Y-198755000D03*
X205675000Y-198755000D03*
X323280000Y-116205000D03*
X321880000Y-116205000D03*
X179060904Y-116205000D03*
X177660904Y-116205000D03*
X231548676Y-137795000D03*
X230148676Y-137795000D03*
X196280000Y-198755000D03*
X194880000Y-198755000D03*
X220266356Y-116205000D03*
X218866356Y-116205000D03*
X312978623Y-116205000D03*
X311578623Y-116205000D03*
X247982369Y-157480000D03*
X246582369Y-157480000D03*
X221562624Y-137795000D03*
X220162624Y-137795000D03*
X117252726Y-116205000D03*
X115852726Y-116205000D03*
X251520780Y-137795000D03*
X250120780Y-137795000D03*
X246411568Y-177165000D03*
X245011568Y-177165000D03*
X135754472Y-177165000D03*
X134354472Y-177165000D03*
X145814208Y-177165000D03*
X144414208Y-177165000D03*
X238089738Y-157480000D03*
X236689738Y-157480000D03*
X109485535Y-157480000D03*
X108085535Y-157480000D03*
D15*
X203200000Y-158750000D03*
X248285000Y-184150000D03*
X253365000Y-190500000D03*
X214630000Y-151130000D03*
X236855000Y-130810000D03*
X235585000Y-144145000D03*
X212725000Y-180975000D03*
X191135000Y-118745000D03*
X171450000Y-130175000D03*
X111760000Y-140970000D03*
X111125000Y-168910000D03*
X124460000Y-125730000D03*
X135890000Y-139700000D03*
X127635000Y-170815000D03*
X133985000Y-130810000D03*
X143279511Y-141835489D03*
X135890000Y-112395000D03*
X173355000Y-179705000D03*
X143510000Y-116205000D03*
X191135000Y-133985000D03*
X157480000Y-167640000D03*
X142240000Y-112395000D03*
X118745000Y-136525000D03*
X105410000Y-121285000D03*
X193675000Y-154940000D03*
X116205000Y-153670000D03*
X168275000Y-154940000D03*
X142875000Y-153670000D03*
X327660000Y-118745000D03*
X291465000Y-153670000D03*
X282575000Y-157480000D03*
X259080000Y-152400000D03*
X221615000Y-104775000D03*
X250190000Y-159385000D03*
X231140000Y-156845000D03*
X269875000Y-123190000D03*
X266065000Y-137795000D03*
X225518674Y-117676826D03*
X217805000Y-136525000D03*
X338409044Y-150969108D03*
X334010000Y-120015000D03*
X217805000Y-140970000D03*
X215900000Y-116205000D03*
D16*
X90870000Y-181300000D02*
X90870000Y-177165000D01*
X90170000Y-182000000D02*
X90870000Y-181300000D01*
X51915489Y-150975489D02*
X51915489Y-124619511D01*
X85005479Y-185992887D02*
X88495489Y-182502877D01*
X88495489Y-178139511D02*
X89470000Y-177165000D01*
X85005479Y-190480479D02*
X85005479Y-185992887D01*
X78105000Y-177165000D02*
X51915489Y-150975489D01*
X93280000Y-198755000D02*
X85005479Y-190480479D01*
X51915489Y-124619511D02*
X53340000Y-123195000D01*
X88495489Y-182502877D02*
X88495489Y-178139511D01*
X89470000Y-177165000D02*
X78105000Y-177165000D01*
X246411568Y-177564022D02*
X246411568Y-177165000D01*
X236351832Y-177165000D02*
X236351832Y-179201832D01*
X236351832Y-183401832D02*
X237490000Y-184540000D01*
X244773758Y-179201832D02*
X246411568Y-177564022D01*
X236351832Y-179201832D02*
X244773758Y-179201832D01*
X236351832Y-179201832D02*
X236351832Y-183401832D01*
X252095000Y-113665000D02*
X251210445Y-113665000D01*
X225520768Y-189704521D02*
X232410000Y-182815289D01*
X240134728Y-139595272D02*
X240134728Y-137795000D01*
X243106568Y-175260000D02*
X245011568Y-177165000D01*
X216439232Y-189704521D02*
X225520768Y-189704521D01*
X213039511Y-117233300D02*
X219864511Y-110408300D01*
X234950000Y-175260000D02*
X243106568Y-175260000D01*
X232410000Y-177800000D02*
X234950000Y-175260000D01*
X248285000Y-175260000D02*
X243106568Y-175260000D01*
X249770445Y-115105000D02*
X249770445Y-116205000D01*
X205105000Y-158750000D02*
X199185479Y-152830479D01*
X275190776Y-180674513D02*
X265365289Y-190500000D01*
X248706269Y-121679020D02*
X248706269Y-120790919D01*
X251210445Y-113665000D02*
X249770445Y-115105000D01*
X265365289Y-190500000D02*
X253365000Y-190500000D01*
X214832360Y-177165000D02*
X214425479Y-177571881D01*
X214425479Y-187690768D02*
X216439232Y-189704521D01*
X226141700Y-110408300D02*
X232410000Y-104140000D01*
X275190776Y-177165000D02*
X275190776Y-180674513D01*
X214425479Y-181179521D02*
X214220958Y-180975000D01*
X214220958Y-180975000D02*
X212725000Y-180975000D01*
X212261845Y-151130000D02*
X214630000Y-151130000D01*
X236855000Y-130810000D02*
X239575289Y-130810000D01*
X219864511Y-110408300D02*
X226141700Y-110408300D01*
X205105000Y-158750000D02*
X205741845Y-158750000D01*
X203200000Y-158750000D02*
X205105000Y-158750000D01*
X214425479Y-181179521D02*
X214425479Y-187690768D01*
X235585000Y-144145000D02*
X240134728Y-139595272D01*
X253963594Y-115533594D02*
X252095000Y-113665000D01*
X213039511Y-118048589D02*
X213039511Y-117233300D01*
X239575289Y-130810000D02*
X248706269Y-121679020D01*
X248706269Y-120790919D02*
X253963594Y-115533594D01*
X199185479Y-131902621D02*
X213039511Y-118048589D01*
X248285000Y-184150000D02*
X248285000Y-175260000D01*
X232410000Y-182815289D02*
X232410000Y-177800000D01*
X199185479Y-152830479D02*
X199185479Y-131902621D01*
X207011845Y-157480000D02*
X207011845Y-156380000D01*
X214425479Y-177571881D02*
X214425479Y-181179521D01*
X207011845Y-156380000D02*
X212261845Y-151130000D01*
X205741845Y-158750000D02*
X207011845Y-157480000D01*
X117085000Y-177165000D02*
X121920000Y-182000000D01*
X125694736Y-178225264D02*
X125694736Y-177165000D01*
X115635000Y-177165000D02*
X117085000Y-177165000D01*
X121920000Y-182000000D02*
X125694736Y-178225264D01*
X217350289Y-198755000D02*
X205599800Y-210505489D01*
X95250000Y-122018366D02*
X98855479Y-125623845D01*
X199173855Y-210505489D02*
X135640200Y-210505489D01*
X276795000Y-198755000D02*
X217350289Y-198755000D01*
X130288156Y-137795000D02*
X130288156Y-137395978D01*
X167359541Y-130455459D02*
X171169541Y-130455459D01*
X110316052Y-137795000D02*
X110316052Y-136695000D01*
X95250000Y-116205000D02*
X65410000Y-116205000D01*
X98855479Y-125623845D02*
X98855479Y-127384427D01*
X127113156Y-134620000D02*
X130288156Y-137795000D01*
X135640200Y-210505489D02*
X112825479Y-187690768D01*
X191135000Y-118745000D02*
X189402267Y-118745000D01*
X202146145Y-210505489D02*
X201747113Y-210904521D01*
X199572887Y-210904521D02*
X199173855Y-210505489D01*
X112391052Y-134620000D02*
X116205000Y-134620000D01*
X171169541Y-130455459D02*
X171450000Y-130175000D01*
X124294736Y-177165000D02*
X124664521Y-176795215D01*
X165100000Y-132715000D02*
X167359541Y-130455459D01*
X116205000Y-144960289D02*
X116205000Y-134620000D01*
X167359541Y-130455459D02*
X167359541Y-116205000D01*
X98855479Y-127384427D02*
X109266052Y-137795000D01*
X201747113Y-210904521D02*
X199572887Y-210904521D01*
X126134511Y-164843606D02*
X126134511Y-154889800D01*
X130288156Y-137395978D02*
X134969134Y-132715000D01*
X112825479Y-187690768D02*
X112825479Y-176775499D01*
X95250000Y-116205000D02*
X95250000Y-122018366D01*
X116205000Y-134620000D02*
X127113156Y-134620000D01*
X134969134Y-132715000D02*
X165100000Y-132715000D01*
X112825479Y-176775499D02*
X115815499Y-173785479D01*
X110316052Y-136695000D02*
X112391052Y-134620000D01*
X124664521Y-173785479D02*
X124664521Y-166313596D01*
X189402267Y-118745000D02*
X187962267Y-117305000D01*
X115815499Y-173785479D02*
X124664521Y-173785479D01*
X126134511Y-154889800D02*
X116205000Y-144960289D01*
X124664521Y-176795215D02*
X124664521Y-173785479D01*
X187962267Y-117305000D02*
X187962267Y-116205000D01*
X124664521Y-166313596D02*
X126134511Y-164843606D01*
X65410000Y-116205000D02*
X53340000Y-128275000D01*
X109266052Y-137795000D02*
X110316052Y-137795000D01*
X205599800Y-210505489D02*
X202146145Y-210505489D01*
X212090000Y-113030000D02*
X201775489Y-102715489D01*
X159883455Y-183674511D02*
X166284883Y-183674511D01*
X196215000Y-133530289D02*
X212090000Y-117655289D01*
X204772624Y-176065000D02*
X206212624Y-174625000D01*
X207122144Y-179420680D02*
X204874511Y-181668313D01*
X166284883Y-183674511D02*
X176173915Y-173785479D01*
X206293812Y-174706188D02*
X208280000Y-176692376D01*
X114235000Y-178265000D02*
X114235000Y-177165000D01*
X179070000Y-154305000D02*
X178435000Y-154305000D01*
X182675479Y-173785479D02*
X182675479Y-172924521D01*
X147964433Y-183674511D02*
X139763983Y-183674511D01*
X154473944Y-177165000D02*
X154473944Y-178265000D01*
X200660000Y-169072376D02*
X200660000Y-156210000D01*
X188962898Y-172924521D02*
X182675479Y-172924521D01*
X200660000Y-156210000D02*
X196215000Y-151765000D01*
X204874511Y-181668313D02*
X204874511Y-182693606D01*
X201775489Y-102715489D02*
X172874511Y-102715489D01*
X177333952Y-155406048D02*
X177333952Y-157480000D01*
X139763983Y-183674511D02*
X134354472Y-178265000D01*
X182675479Y-172924521D02*
X182675479Y-157910479D01*
X196215000Y-151765000D02*
X196215000Y-133530289D01*
X119644511Y-183674511D02*
X114235000Y-178265000D01*
X172874511Y-102715489D02*
X171450000Y-104140000D01*
X199712888Y-183674511D02*
X188962898Y-172924521D01*
X127844961Y-183674511D02*
X119644511Y-183674511D01*
X206212624Y-174625000D02*
X206293812Y-174706188D01*
X204772624Y-177165000D02*
X204772624Y-176065000D01*
X182675479Y-157910479D02*
X179070000Y-154305000D01*
X184653152Y-177165000D02*
X182675479Y-175187327D01*
X134354472Y-178265000D02*
X134354472Y-177165000D01*
X134354472Y-177165000D02*
X127844961Y-183674511D01*
X154473944Y-177165000D02*
X147964433Y-183674511D01*
X154473944Y-178265000D02*
X159883455Y-183674511D01*
X204874511Y-182693606D02*
X203893606Y-183674511D01*
X206293812Y-174706188D02*
X200660000Y-169072376D01*
X208280000Y-176692376D02*
X207122144Y-177850232D01*
X176173915Y-173785479D02*
X182675479Y-173785479D01*
X203893606Y-183674511D02*
X199712888Y-183674511D01*
X178435000Y-154305000D02*
X177333952Y-155406048D01*
X207122144Y-177850232D02*
X207122144Y-179420680D01*
X182675479Y-175187327D02*
X182675479Y-173785479D01*
X212090000Y-117655289D02*
X212090000Y-113030000D01*
X135754472Y-177165000D02*
X137405000Y-177165000D01*
X137405000Y-177165000D02*
X142240000Y-182000000D01*
X145814208Y-178425792D02*
X145814208Y-177165000D01*
X142240000Y-182000000D02*
X145814208Y-178425792D01*
X142911430Y-107950000D02*
X160020000Y-107950000D01*
X111125000Y-168910000D02*
X111125000Y-164613117D01*
X111125000Y-164613117D02*
X108085535Y-161573652D01*
X205105000Y-111125000D02*
X208564993Y-114584993D01*
X108085535Y-157480000D02*
X100534521Y-149928986D01*
X100534521Y-149928986D02*
X100534521Y-145673596D01*
X170815000Y-111125000D02*
X205105000Y-111125000D01*
X126154089Y-118534089D02*
X126154089Y-116205000D01*
X208564993Y-114584993D02*
X208564993Y-116205000D01*
X100534521Y-145673596D02*
X102004511Y-144203606D01*
X132327341Y-118534089D02*
X142911430Y-107950000D01*
X163830000Y-104140000D02*
X170815000Y-111125000D01*
X102004511Y-142644511D02*
X102004511Y-140569511D01*
X124460000Y-125730000D02*
X126154089Y-124035911D01*
X126154089Y-118534089D02*
X132327341Y-118534089D01*
X126154089Y-124035911D02*
X126154089Y-118534089D01*
X102004511Y-140569511D02*
X100330000Y-138895000D01*
X135890000Y-137795000D02*
X135890000Y-139700000D01*
X144414208Y-177165000D02*
X138064208Y-170815000D01*
X102004511Y-144203606D02*
X102004511Y-142644511D01*
X111760000Y-140970000D02*
X110085489Y-142644511D01*
X110085489Y-142644511D02*
X102004511Y-142644511D01*
X160020000Y-107950000D02*
X163830000Y-104140000D01*
X108085535Y-161573652D02*
X108085535Y-157480000D01*
X100330000Y-138895000D02*
X100330000Y-137795000D01*
X138064208Y-170815000D02*
X127635000Y-170815000D01*
X140274208Y-137795000D02*
X135890000Y-137795000D01*
X155873944Y-177165000D02*
X157725000Y-177165000D01*
X162560000Y-182000000D02*
X165933680Y-178626320D01*
X165933680Y-178626320D02*
X165933680Y-177165000D01*
X157725000Y-177165000D02*
X162560000Y-182000000D01*
X131445000Y-130175000D02*
X132080000Y-130810000D01*
X145086145Y-142644511D02*
X155396801Y-142644511D01*
X119175479Y-124083596D02*
X115852726Y-120760843D01*
X126965226Y-125695226D02*
X125455931Y-127204521D01*
X155396801Y-143512090D02*
X155396801Y-142644511D01*
X157058178Y-116205000D02*
X155184156Y-114330978D01*
X115852726Y-116205000D02*
X115852726Y-115105000D01*
X155184156Y-114330978D02*
X137930452Y-114330978D01*
X126817726Y-104140000D02*
X156210000Y-104140000D01*
X115852726Y-115105000D02*
X126817726Y-104140000D01*
X125455931Y-127204521D02*
X120039232Y-127204521D01*
X164533680Y-177165000D02*
X161604511Y-174235831D01*
X134390797Y-147721086D02*
X140276394Y-141835489D01*
X161604511Y-174235831D02*
X161604511Y-149719800D01*
X127870797Y-157480000D02*
X127870797Y-156380000D01*
X120039232Y-127204521D02*
X119175479Y-126340768D01*
X127870797Y-156380000D02*
X134390797Y-149860000D01*
X134390797Y-149860000D02*
X134390797Y-147721086D01*
X140276394Y-141835489D02*
X144277123Y-141835489D01*
X144277123Y-141835489D02*
X145086145Y-142644511D01*
X136455452Y-116205000D02*
X126965226Y-125695226D01*
X126965226Y-125695226D02*
X131445000Y-130175000D01*
X136455452Y-115805978D02*
X136455452Y-116205000D01*
X155396801Y-142644511D02*
X160246312Y-137795000D01*
X115852726Y-120760843D02*
X115852726Y-116205000D01*
X137930452Y-114330978D02*
X136455452Y-115805978D01*
X161604511Y-149719800D02*
X155396801Y-143512090D01*
X119175479Y-126340768D02*
X119175479Y-124083596D01*
X132080000Y-130810000D02*
X133985000Y-130810000D01*
X175993416Y-177165000D02*
X178045000Y-177165000D01*
X186053152Y-178826848D02*
X186053152Y-177165000D01*
X178045000Y-177165000D02*
X182880000Y-182000000D01*
X182880000Y-182000000D02*
X186053152Y-178826848D01*
X142720489Y-105564511D02*
X157325489Y-105564511D01*
X178459926Y-114305978D02*
X177660904Y-115105000D01*
X177395489Y-121152877D02*
X177395489Y-116470415D01*
X178435000Y-133985000D02*
X177421708Y-134998292D01*
X160655000Y-157387288D02*
X158842712Y-155575000D01*
X157548690Y-156869022D02*
X157548690Y-157480000D01*
X177421708Y-134998292D02*
X173905479Y-131482063D01*
X196364608Y-114305978D02*
X178459926Y-114305978D01*
X173905479Y-124642887D02*
X177395489Y-121152877D01*
X158842712Y-155575000D02*
X157548690Y-156869022D01*
X174593416Y-177165000D02*
X174593416Y-178466584D01*
X177660904Y-115105000D02*
X169183563Y-115105000D01*
X157480000Y-167640000D02*
X160655000Y-164465000D01*
X146756815Y-116205000D02*
X143510000Y-116205000D01*
X174593416Y-178466584D02*
X173355000Y-179705000D01*
X177395489Y-116470415D02*
X177660904Y-116205000D01*
X177660904Y-115105000D02*
X177660904Y-116205000D01*
X191135000Y-133985000D02*
X178435000Y-133985000D01*
X180218416Y-137795000D02*
X177421708Y-134998292D01*
X173905479Y-131482063D02*
X173905479Y-124642887D01*
X160655000Y-164465000D02*
X160655000Y-157387288D01*
X166473563Y-112395000D02*
X142240000Y-112395000D01*
X135890000Y-112395000D02*
X142720489Y-105564511D01*
X169183563Y-115105000D02*
X166473563Y-112395000D01*
X198263630Y-116205000D02*
X196364608Y-114305978D01*
X157325489Y-105564511D02*
X158750000Y-104140000D01*
X206172624Y-179027376D02*
X206172624Y-177165000D01*
X196112888Y-177165000D02*
X198365000Y-177165000D01*
X198365000Y-177165000D02*
X203200000Y-182000000D01*
X203200000Y-182000000D02*
X206172624Y-179027376D01*
X125618082Y-143510000D02*
X128832189Y-143510000D01*
X151065260Y-135890000D02*
X150260260Y-136695000D01*
X105576360Y-116230009D02*
X106001843Y-116230009D01*
X191974521Y-152333040D02*
X191974521Y-143714521D01*
X188336404Y-143714521D02*
X191974521Y-143714521D01*
X136452189Y-135890000D02*
X151065260Y-135890000D01*
X150260260Y-136695000D02*
X150260260Y-137795000D01*
X120302104Y-138194022D02*
X125618082Y-143510000D01*
X131445000Y-97790000D02*
X165735000Y-97790000D01*
X191974521Y-139964075D02*
X190204468Y-138194022D01*
X191974521Y-143714521D02*
X191974521Y-139964075D01*
X173355000Y-136525000D02*
X178493606Y-141663606D01*
X105551360Y-116205009D02*
X105576360Y-116230009D01*
X128832189Y-143510000D02*
X136452189Y-135890000D01*
X170402364Y-136525000D02*
X173355000Y-136525000D01*
X170232364Y-137795000D02*
X170232364Y-136695000D01*
X194712888Y-177165000D02*
X191854521Y-174306633D01*
X165735000Y-97790000D02*
X168910000Y-100965000D01*
X105410000Y-118745000D02*
X105410000Y-116346363D01*
X178493606Y-141663606D02*
X186285489Y-141663606D01*
X186285489Y-141663606D02*
X188336404Y-143714521D01*
X106001843Y-116230009D02*
X106001843Y-117054502D01*
X191854521Y-165184521D02*
X187226583Y-160556583D01*
X106101861Y-117154520D02*
X112080480Y-117154520D01*
X187226583Y-157480000D02*
X187226583Y-157080978D01*
X112080480Y-117154520D02*
X131445000Y-97790000D01*
X170232364Y-137795000D02*
X168327364Y-135890000D01*
X187226583Y-160556583D02*
X187226583Y-157480000D01*
X105410000Y-116346363D02*
X105551363Y-116205000D01*
X120302104Y-137795000D02*
X120015000Y-137795000D01*
X168327364Y-135890000D02*
X151065260Y-135890000D01*
X105410000Y-118745000D02*
X105410000Y-116205009D01*
X191854521Y-174306633D02*
X191854521Y-165184521D01*
X105410000Y-121285000D02*
X105410000Y-118745000D01*
X120015000Y-137795000D02*
X118745000Y-136525000D01*
X190204468Y-138194022D02*
X190204468Y-137795000D01*
X106001843Y-117054502D02*
X106101861Y-117154520D01*
X170232364Y-136695000D02*
X170402364Y-136525000D01*
X105410000Y-116205009D02*
X105551360Y-116205009D01*
X187226583Y-157080978D02*
X191974521Y-152333040D01*
X120302104Y-137795000D02*
X120302104Y-138194022D01*
X168910000Y-100965000D02*
X168910000Y-104140000D01*
X284862500Y-199855000D02*
X284862500Y-198755000D01*
X278130000Y-200660000D02*
X278130000Y-198820000D01*
X278130000Y-200660000D02*
X284057500Y-200660000D01*
X278130000Y-198820000D02*
X278195000Y-198755000D01*
X284057500Y-200660000D02*
X284862500Y-199855000D01*
X278130000Y-203200000D02*
X278130000Y-200660000D01*
X167441321Y-157480000D02*
X167441321Y-155773679D01*
X137763428Y-157480000D02*
X137763428Y-156380000D01*
X105325479Y-167777113D02*
X105325479Y-165602887D01*
X120650000Y-154940000D02*
X122555000Y-156845000D01*
X78253117Y-135895000D02*
X53340000Y-135895000D01*
X122555000Y-156845000D02*
X122555000Y-159250289D01*
X283462500Y-197655000D02*
X284267500Y-196850000D01*
X105814511Y-163456394D02*
X101354058Y-158995942D01*
X116205000Y-154940000D02*
X120650000Y-154940000D01*
X197119214Y-157480000D02*
X196215000Y-157480000D01*
X116205000Y-155706834D02*
X117978166Y-157480000D01*
X101036558Y-158678442D02*
X78253117Y-135895000D01*
X142875000Y-155575000D02*
X145751059Y-155575000D01*
X116205000Y-154940000D02*
X116205000Y-155706834D01*
X101036558Y-177244659D02*
X101036558Y-158678442D01*
X101354058Y-158995942D02*
X101036558Y-158678442D01*
X145751059Y-155575000D02*
X147656059Y-157480000D01*
X137763428Y-156380000D02*
X138568428Y-155575000D01*
X122555000Y-159250289D02*
X110990289Y-170815000D01*
X284267500Y-196850000D02*
X287655000Y-196850000D01*
X196215000Y-157480000D02*
X193675000Y-154940000D01*
X105325479Y-165602887D02*
X105814511Y-165113855D01*
X110990289Y-170815000D02*
X108363366Y-170815000D01*
X135881899Y-212090000D02*
X101036558Y-177244659D01*
X167441321Y-155773679D02*
X168275000Y-154940000D01*
X142875000Y-155575000D02*
X142875000Y-153670000D01*
X105814511Y-165113855D02*
X105814511Y-163456394D01*
X138568428Y-155575000D02*
X142875000Y-155575000D01*
X116205000Y-153670000D02*
X116205000Y-154940000D01*
X283462500Y-198755000D02*
X283462500Y-197655000D01*
X108363366Y-170815000D02*
X105325479Y-167777113D01*
X278945289Y-212090000D02*
X135881899Y-212090000D01*
X287655000Y-196850000D02*
X287655000Y-203380289D01*
X287655000Y-203380289D02*
X278945289Y-212090000D01*
X110490000Y-161610000D02*
X116348166Y-161610000D01*
X109485535Y-157480000D02*
X109485535Y-160605535D01*
X109485535Y-160605535D02*
X110490000Y-161610000D01*
X119378166Y-158580000D02*
X119378166Y-157480000D01*
X116348166Y-161610000D02*
X119378166Y-158580000D01*
X139163428Y-158580000D02*
X139163428Y-157480000D01*
X136133428Y-161610000D02*
X139163428Y-158580000D01*
X130810000Y-161610000D02*
X136133428Y-161610000D01*
X129270797Y-157480000D02*
X129270797Y-160070797D01*
X129270797Y-160070797D02*
X130810000Y-161610000D01*
X158948690Y-157879022D02*
X158948690Y-157480000D01*
X155217712Y-161610000D02*
X158948690Y-157879022D01*
X151130000Y-161610000D02*
X155217712Y-161610000D01*
X149056059Y-157480000D02*
X149056059Y-159536059D01*
X149056059Y-159536059D02*
X151130000Y-161610000D01*
X168841321Y-157480000D02*
X168841321Y-159001321D01*
X178733952Y-158580000D02*
X178733952Y-157480000D01*
X168841321Y-159001321D02*
X171450000Y-161610000D01*
X171450000Y-161610000D02*
X175703952Y-161610000D01*
X175703952Y-161610000D02*
X178733952Y-158580000D01*
X191770000Y-161610000D02*
X195489214Y-161610000D01*
X198519214Y-158580000D02*
X198519214Y-157480000D01*
X195489214Y-161610000D02*
X198519214Y-158580000D01*
X188626583Y-158466583D02*
X191770000Y-161610000D01*
X188626583Y-157480000D02*
X188626583Y-158466583D01*
X91440000Y-203200000D02*
X94680000Y-199960000D01*
X94680000Y-199960000D02*
X94680000Y-198755000D01*
X251631394Y-160340489D02*
X252036394Y-159935489D01*
X249215499Y-159788653D02*
X249215499Y-158981347D01*
X327660000Y-118745000D02*
X325324521Y-116409521D01*
X220280289Y-194945000D02*
X208385000Y-194945000D01*
X298120535Y-154305000D02*
X315595000Y-154305000D01*
X221623100Y-194945000D02*
X220280289Y-194945000D01*
X255071304Y-177165000D02*
X255071304Y-180473985D01*
X253423606Y-159935489D02*
X262802638Y-169314521D01*
X280035000Y-164330289D02*
X280035000Y-155575000D01*
X208385000Y-194945000D02*
X205675000Y-197655000D01*
X251139511Y-160340489D02*
X251631394Y-160340489D01*
X255071304Y-180473985D02*
X240600289Y-194945000D01*
X322430498Y-115255480D02*
X325253104Y-115255480D01*
X249215499Y-158981347D02*
X249786347Y-158410499D01*
X325324521Y-115326897D02*
X325324521Y-144575479D01*
X252036394Y-159935489D02*
X253423606Y-159935489D01*
X296045535Y-156380000D02*
X298120535Y-154305000D01*
X251164501Y-159788653D02*
X251139511Y-159813643D01*
X317435000Y-156145000D02*
X317435000Y-157480000D01*
X234951832Y-177165000D02*
X234951832Y-181616268D01*
X276860000Y-155575000D02*
X276260262Y-156174738D01*
X205675000Y-197655000D02*
X205675000Y-198755000D01*
X275050768Y-169314521D02*
X280035000Y-164330289D01*
X315595000Y-154305000D02*
X317435000Y-156145000D01*
X321880000Y-116205000D02*
X321880000Y-115805978D01*
X249240489Y-163927877D02*
X249240489Y-159813643D01*
X251164501Y-158981347D02*
X251164501Y-159788653D01*
X294140535Y-155575000D02*
X280035000Y-155575000D01*
X249240489Y-159813643D02*
X249215499Y-159788653D01*
X249786347Y-158410499D02*
X250593653Y-158410499D01*
X296045535Y-157480000D02*
X294140535Y-155575000D01*
X321880000Y-115805978D02*
X322430498Y-115255480D01*
X276260262Y-156174738D02*
X276260262Y-157480000D01*
X234951832Y-181616268D02*
X221623100Y-194945000D01*
X250593653Y-158410499D02*
X251164501Y-158981347D01*
X251139511Y-159813643D02*
X251139511Y-160340489D01*
X296045535Y-157480000D02*
X296045535Y-156380000D01*
X240600289Y-194945000D02*
X220280289Y-194945000D01*
X247565479Y-165602887D02*
X249240489Y-163927877D01*
X280035000Y-155575000D02*
X276860000Y-155575000D01*
X247565479Y-169659175D02*
X247565479Y-165602887D01*
X325324521Y-144575479D02*
X315595000Y-154305000D01*
X325253104Y-115255480D02*
X325324521Y-115326897D01*
X262802638Y-169314521D02*
X275050768Y-169314521D01*
X325324521Y-116409521D02*
X325324521Y-115326897D01*
X255071304Y-177165000D02*
X247565479Y-169659175D01*
X111716052Y-138194022D02*
X111716052Y-137795000D01*
X104905000Y-140970000D02*
X101730000Y-137795000D01*
X106680000Y-140970000D02*
X108940074Y-140970000D01*
X108940074Y-140970000D02*
X111716052Y-138194022D01*
X106680000Y-140970000D02*
X104905000Y-140970000D01*
X131688156Y-138895000D02*
X129613156Y-140970000D01*
X121702104Y-137795000D02*
X123825000Y-137795000D01*
X123825000Y-137795000D02*
X127000000Y-140970000D01*
X131688156Y-137795000D02*
X131688156Y-138895000D01*
X129613156Y-140970000D02*
X127000000Y-140970000D01*
X151660260Y-138895000D02*
X151660260Y-137795000D01*
X149585260Y-140970000D02*
X151660260Y-138895000D01*
X147320000Y-140970000D02*
X149585260Y-140970000D01*
X144145000Y-137795000D02*
X147320000Y-140970000D01*
X141674208Y-137795000D02*
X144145000Y-137795000D01*
X167640000Y-140970000D02*
X169195634Y-140970000D01*
X169195634Y-140970000D02*
X171632364Y-138533270D01*
X171632364Y-138533270D02*
X171632364Y-137795000D01*
X161646312Y-137795000D02*
X164465000Y-137795000D01*
X164465000Y-137795000D02*
X167640000Y-140970000D01*
X184785000Y-137795000D02*
X187960000Y-140970000D01*
X181618416Y-137795000D02*
X184785000Y-137795000D01*
X191053979Y-136845489D02*
X191604468Y-137395978D01*
X187960000Y-138240446D02*
X189354957Y-136845489D01*
X187960000Y-140970000D02*
X187960000Y-138240446D01*
X191604468Y-137395978D02*
X191604468Y-137795000D01*
X189354957Y-136845489D02*
X191053979Y-136845489D01*
X97790000Y-116205000D02*
X98739511Y-115255489D01*
X106425874Y-115280489D02*
X106951363Y-115805978D01*
X97790000Y-116205000D02*
X97790000Y-120650000D01*
X106951363Y-115805978D02*
X106951363Y-116205000D01*
X105969664Y-115280489D02*
X106425874Y-115280489D01*
X98739511Y-115255489D02*
X105944664Y-115255489D01*
X96650000Y-116205000D02*
X97790000Y-116205000D01*
X105944664Y-115255489D02*
X105969664Y-115280489D01*
X127554089Y-115805978D02*
X127554089Y-116205000D01*
X127003600Y-115255489D02*
X127554089Y-115805978D01*
X118110000Y-120650000D02*
X118110000Y-117062274D01*
X118110000Y-117062274D02*
X117252726Y-116205000D01*
X118202237Y-115255489D02*
X127003600Y-115255489D01*
X117252726Y-116205000D02*
X118202237Y-115255489D01*
X138430000Y-120650000D02*
X146685000Y-120650000D01*
X137855452Y-116205000D02*
X137855452Y-120075452D01*
X148156815Y-119178185D02*
X148156815Y-116205000D01*
X146685000Y-120650000D02*
X148156815Y-119178185D01*
X137855452Y-120075452D02*
X138430000Y-120650000D01*
X158750000Y-120650000D02*
X158750000Y-116496822D01*
X167991241Y-115255489D02*
X168759541Y-116023789D01*
X158458178Y-116205000D02*
X159407689Y-115255489D01*
X159407689Y-115255489D02*
X167991241Y-115255489D01*
X158750000Y-116496822D02*
X158458178Y-116205000D01*
X168759541Y-116023789D02*
X168759541Y-116205000D01*
X179070000Y-120650000D02*
X179070000Y-116214096D01*
X179060904Y-116205000D02*
X180010415Y-115255489D01*
X189362267Y-115805978D02*
X189362267Y-116205000D01*
X188811778Y-115255489D02*
X189362267Y-115805978D01*
X179070000Y-116214096D02*
X179060904Y-116205000D01*
X180010415Y-115255489D02*
X188811778Y-115255489D01*
X201609511Y-118430489D02*
X208839504Y-118430489D01*
X209964993Y-117305000D02*
X209964993Y-116205000D01*
X208839504Y-118430489D02*
X209964993Y-117305000D01*
X199390000Y-120650000D02*
X201609511Y-118430489D01*
X199390000Y-120650000D02*
X199390000Y-116478630D01*
X199390000Y-116478630D02*
X199663630Y-116205000D01*
X216232360Y-180007640D02*
X216232360Y-183602360D01*
X216232360Y-177165000D02*
X216232360Y-180007640D01*
X216232360Y-180007640D02*
X224549456Y-180007640D01*
X226292096Y-178265000D02*
X226292096Y-177165000D01*
X216232360Y-183602360D02*
X217170000Y-184540000D01*
X224549456Y-180007640D02*
X226292096Y-178265000D01*
X295310248Y-177165000D02*
X294139711Y-177165000D01*
X259617828Y-100965000D02*
X240665000Y-100965000D01*
X258445000Y-151765000D02*
X259080000Y-152400000D01*
X246582369Y-156380000D02*
X251197369Y-151765000D01*
X231342369Y-172720000D02*
X228237096Y-172720000D01*
X290665479Y-136094521D02*
X290065000Y-136695000D01*
X292904919Y-114935000D02*
X291145897Y-114935000D01*
X284275479Y-159357414D02*
X286152893Y-157480000D01*
X293574521Y-136094521D02*
X290665479Y-136094521D01*
X290665479Y-136094521D02*
X290665479Y-119714440D01*
X293370000Y-115400081D02*
X292904919Y-114935000D01*
X291465000Y-153670000D02*
X293574521Y-151560479D01*
X240665000Y-100965000D02*
X237490000Y-104140000D01*
X290665479Y-119714440D02*
X293370000Y-117009919D01*
X290975897Y-115105000D02*
X290975897Y-116205000D01*
X284275479Y-167300768D02*
X284275479Y-159357414D01*
X291145897Y-114935000D02*
X290975897Y-115105000D01*
X292904919Y-114935000D02*
X273587828Y-114935000D01*
X290065000Y-136695000D02*
X290065000Y-137795000D01*
X224892096Y-176065000D02*
X224892096Y-177165000D01*
X282575000Y-157480000D02*
X286152893Y-157480000D01*
X246582369Y-157480000D02*
X246582369Y-156380000D01*
X294139711Y-177165000D02*
X284275479Y-167300768D01*
X293370000Y-117009919D02*
X293370000Y-115400081D01*
X246582369Y-157480000D02*
X231342369Y-172720000D01*
X228237096Y-172720000D02*
X224892096Y-176065000D01*
X293574521Y-151560479D02*
X293574521Y-136094521D01*
X273587828Y-114935000D02*
X259617828Y-100965000D01*
X251197369Y-151765000D02*
X258445000Y-151765000D01*
X276590776Y-179339224D02*
X276590776Y-183000776D01*
X276590776Y-179339224D02*
X285576288Y-179339224D01*
X276590776Y-183000776D02*
X278130000Y-184540000D01*
X286650512Y-178265000D02*
X286650512Y-177165000D01*
X276590776Y-177165000D02*
X276590776Y-179339224D01*
X285576288Y-179339224D02*
X286650512Y-178265000D01*
X288925000Y-177640466D02*
X287349534Y-176065000D01*
X285250512Y-176065000D02*
X265832018Y-176065000D01*
X226967107Y-156210000D02*
X226797107Y-156380000D01*
X305370000Y-177165000D02*
X305370000Y-176065000D01*
X305865479Y-186469232D02*
X305865479Y-187186155D01*
X303347113Y-189704521D02*
X297719232Y-189704521D01*
X287349534Y-176065000D02*
X285250512Y-176065000D01*
X269875000Y-123190000D02*
X269875000Y-116703171D01*
X288925000Y-180910289D02*
X288925000Y-177640466D01*
X307299022Y-175895000D02*
X308610000Y-177205978D01*
X265131040Y-176765978D02*
X259950978Y-176765978D01*
X285250512Y-176065000D02*
X285250512Y-177165000D01*
X230505000Y-156210000D02*
X226967107Y-156210000D01*
X297719232Y-189704521D02*
X288925000Y-180910289D01*
X269875000Y-116703171D02*
X270373171Y-116205000D01*
X305865479Y-187186155D02*
X303347113Y-189704521D01*
X305370000Y-176065000D02*
X305540000Y-175895000D01*
X308610000Y-177205978D02*
X308610000Y-183724711D01*
X250190000Y-161438117D02*
X250190000Y-159385000D01*
X252814521Y-164062638D02*
X250190000Y-161438117D01*
X259950978Y-176765978D02*
X252814521Y-169629521D01*
X308610000Y-183724711D02*
X305865479Y-186469232D01*
X222250000Y-104140000D02*
X229870000Y-104140000D01*
X270092884Y-137795000D02*
X266065000Y-137795000D01*
X305540000Y-175895000D02*
X307299022Y-175895000D01*
X265832018Y-176065000D02*
X265131040Y-176765978D01*
X231140000Y-156845000D02*
X230505000Y-156210000D01*
X252814521Y-169629521D02*
X252814521Y-164062638D01*
X226797107Y-156380000D02*
X226797107Y-157480000D01*
X265131040Y-176765978D02*
X265131040Y-177165000D01*
X221615000Y-104775000D02*
X222250000Y-104140000D01*
X256471304Y-177165000D02*
X256471304Y-179001304D01*
X256471304Y-179001304D02*
X256471304Y-183201304D01*
X265794736Y-179001304D02*
X266531040Y-178265000D01*
X256471304Y-179001304D02*
X265794736Y-179001304D01*
X256471304Y-183201304D02*
X257810000Y-184540000D01*
X266531040Y-178265000D02*
X266531040Y-177165000D01*
X207075000Y-199855000D02*
X205635000Y-201295000D01*
X207075000Y-198755000D02*
X207075000Y-199855000D01*
X196850000Y-201295000D02*
X196850000Y-199325000D01*
X196850000Y-199325000D02*
X196280000Y-198755000D01*
X196850000Y-205740000D02*
X196850000Y-201295000D01*
X205635000Y-201295000D02*
X196850000Y-201295000D01*
X203284521Y-189250479D02*
X194880000Y-197655000D01*
X203284521Y-186913817D02*
X203284521Y-189250479D01*
X237560287Y-150790499D02*
X258848653Y-150790499D01*
X260054501Y-152803653D02*
X256648154Y-156210000D01*
X258848653Y-150790499D02*
X260054501Y-151996347D01*
X210176572Y-137795000D02*
X210176572Y-140326572D01*
X256648154Y-156210000D02*
X256645000Y-156210000D01*
X214638428Y-140326572D02*
X217805000Y-137160000D01*
X216904476Y-154570524D02*
X216904476Y-157480000D01*
X210176572Y-143321283D02*
X216904476Y-150049187D01*
X265097631Y-156210000D02*
X266367631Y-157480000D01*
X216904476Y-154570524D02*
X221245524Y-154570524D01*
X260054501Y-151996347D02*
X260054501Y-152803653D01*
X194880000Y-197655000D02*
X194880000Y-198755000D01*
X233780262Y-154570524D02*
X236689738Y-157480000D01*
X233780262Y-154570524D02*
X237560287Y-150790499D01*
X216904476Y-150049187D02*
X216904476Y-154570524D01*
X210176572Y-140326572D02*
X210176572Y-143321283D01*
X226990500Y-116205000D02*
X225518674Y-117676826D01*
X256645000Y-156210000D02*
X265097631Y-156210000D01*
X210176572Y-140326572D02*
X214638428Y-140326572D01*
X221245524Y-168952814D02*
X203284521Y-186913817D01*
X229167719Y-116205000D02*
X226990500Y-116205000D01*
X221245524Y-154570524D02*
X233780262Y-154570524D01*
X217805000Y-137160000D02*
X217805000Y-136525000D01*
X221245524Y-154570524D02*
X221245524Y-168952814D01*
X256475000Y-156380000D02*
X256645000Y-156210000D01*
X256475000Y-157480000D02*
X256475000Y-156380000D01*
X296710248Y-180174752D02*
X296710248Y-182800248D01*
X296710248Y-177165000D02*
X296710248Y-180174752D01*
X296710248Y-180174752D02*
X304860248Y-180174752D01*
X304860248Y-180174752D02*
X306770000Y-178265000D01*
X306770000Y-178265000D02*
X306770000Y-177165000D01*
X296710248Y-182800248D02*
X298450000Y-184540000D01*
X228197107Y-162012893D02*
X228197107Y-159787893D01*
X236180867Y-159787893D02*
X238089738Y-157879022D01*
X238089738Y-157879022D02*
X238089738Y-157480000D01*
X226060000Y-164150000D02*
X228197107Y-162012893D01*
X228197107Y-159787893D02*
X228197107Y-157480000D01*
X228197107Y-159787893D02*
X236180867Y-159787893D01*
X217631321Y-159253155D02*
X218304476Y-158580000D01*
X208411845Y-161478155D02*
X208411845Y-159253155D01*
X208411845Y-159253155D02*
X208411845Y-157480000D01*
X208411845Y-159253155D02*
X217631321Y-159253155D01*
X205740000Y-164150000D02*
X208411845Y-161478155D01*
X218304476Y-158580000D02*
X218304476Y-157480000D01*
X266700000Y-164150000D02*
X267767631Y-163082369D01*
X267767631Y-163082369D02*
X267767631Y-159587369D01*
X267767631Y-159587369D02*
X267767631Y-157480000D01*
X277660262Y-158580000D02*
X277660262Y-157480000D01*
X276652893Y-159587369D02*
X277660262Y-158580000D01*
X267767631Y-159587369D02*
X276652893Y-159587369D01*
X257875000Y-158580000D02*
X257875000Y-157480000D01*
X247982369Y-159082369D02*
X247982369Y-158871666D01*
X252105966Y-158580000D02*
X257875000Y-158580000D01*
X247982369Y-158871666D02*
X249393047Y-157460988D01*
X247982369Y-162547631D02*
X247982369Y-159082369D01*
X250986954Y-157460988D02*
X252105966Y-158580000D01*
X249393047Y-157460988D02*
X250986954Y-157460988D01*
X247982369Y-159082369D02*
X247982369Y-157480000D01*
X246380000Y-164150000D02*
X247982369Y-162547631D01*
X291530000Y-198755000D02*
X291530000Y-205170000D01*
X291530000Y-205170000D02*
X292100000Y-205740000D01*
X334010000Y-120015000D02*
X337190000Y-123195000D01*
X296739446Y-197655000D02*
X304689925Y-189704521D01*
X301277260Y-116205000D02*
X301277260Y-115105000D01*
X308000768Y-189704521D02*
X333079500Y-164625789D01*
X326710489Y-112715489D02*
X334010000Y-120015000D01*
X301277260Y-115105000D02*
X303666771Y-112715489D01*
X333079500Y-156298652D02*
X338409044Y-150969108D01*
X290130000Y-198755000D02*
X290130000Y-197655000D01*
X337190000Y-123195000D02*
X357400000Y-123195000D01*
X290130000Y-197655000D02*
X296739446Y-197655000D01*
X304689925Y-189704521D02*
X308000768Y-189704521D01*
X303666771Y-112715489D02*
X326710489Y-112715489D01*
X333079500Y-164625789D02*
X333079500Y-156298652D01*
X287020000Y-160020000D02*
X287020000Y-158012893D01*
X296090046Y-159935489D02*
X297445535Y-158580000D01*
X287020000Y-158012893D02*
X287552893Y-157480000D01*
X287104511Y-159935489D02*
X296090046Y-159935489D01*
X297445535Y-158580000D02*
X297445535Y-157480000D01*
X287020000Y-164150000D02*
X287020000Y-160020000D01*
X287020000Y-160020000D02*
X287104511Y-159935489D01*
X222250000Y-143510000D02*
X226464511Y-139295489D01*
X231148187Y-139295489D02*
X231548676Y-138895000D01*
X221562624Y-137795000D02*
X221562624Y-142822624D01*
X226464511Y-139295489D02*
X231148187Y-139295489D01*
X231548676Y-138895000D02*
X231548676Y-137795000D01*
X221562624Y-142822624D02*
X222250000Y-143510000D01*
X255905000Y-112395000D02*
X247650000Y-104140000D01*
X260911832Y-135890000D02*
X260106832Y-136695000D01*
X250120780Y-136695000D02*
X250120780Y-137795000D01*
X327595000Y-152392189D02*
X344092189Y-135895000D01*
X250925780Y-135890000D02*
X249655780Y-134620000D01*
X278173936Y-135890000D02*
X260911832Y-135890000D01*
X260106832Y-136695000D02*
X260106832Y-137795000D01*
X200190520Y-136695000D02*
X202265520Y-134620000D01*
X280078936Y-137795000D02*
X278173936Y-135890000D01*
X202265520Y-134620000D02*
X226973676Y-134620000D01*
X250925780Y-135890000D02*
X250120780Y-136695000D01*
X344092189Y-135895000D02*
X357400000Y-135895000D01*
X249655780Y-134620000D02*
X226973676Y-134620000D01*
X255905000Y-114935000D02*
X255905000Y-112395000D01*
X200190520Y-137795000D02*
X200190520Y-136695000D01*
X226973676Y-134620000D02*
X230148676Y-137795000D01*
X249655780Y-121184220D02*
X255905000Y-114935000D01*
X327595000Y-157480000D02*
X327595000Y-152392189D01*
X260911832Y-135890000D02*
X250925780Y-135890000D01*
X249655780Y-134620000D02*
X249655780Y-121184220D01*
X260071808Y-115105000D02*
X260071808Y-116205000D01*
X325646405Y-114305969D02*
X344695436Y-133355000D01*
X280674534Y-116205000D02*
X273515016Y-116205000D01*
X344695436Y-133355000D02*
X357400000Y-133355000D01*
X220162624Y-138612376D02*
X217805000Y-140970000D01*
X313078632Y-114305969D02*
X325646405Y-114305969D01*
X246534511Y-102715489D02*
X245110000Y-104140000D01*
X218866356Y-115105000D02*
X219665378Y-114305978D01*
X260876808Y-114300000D02*
X260071808Y-115105000D01*
X245110000Y-107950000D02*
X245110000Y-104140000D01*
X311578623Y-115805978D02*
X313078632Y-114305969D01*
X218866356Y-116205000D02*
X218866356Y-115105000D01*
X253320053Y-102715489D02*
X246534511Y-102715489D01*
X238162041Y-114897959D02*
X245110000Y-107950000D01*
X273515016Y-116205000D02*
X271610016Y-114300000D01*
X237570060Y-114305978D02*
X238162041Y-114897959D01*
X260876808Y-114300000D02*
X260876808Y-110272244D01*
X219665378Y-114305978D02*
X237570060Y-114305978D01*
X311578623Y-116205000D02*
X311578623Y-115805978D01*
X215900000Y-116205000D02*
X218866356Y-116205000D01*
X220162624Y-137795000D02*
X220162624Y-138612376D01*
X238162041Y-114897959D02*
X239469082Y-116205000D01*
X271610016Y-114300000D02*
X260876808Y-114300000D01*
X260876808Y-110272244D02*
X253320053Y-102715489D01*
X201590520Y-137795000D02*
X201590520Y-143170520D01*
X210820000Y-135890000D02*
X209550000Y-135890000D01*
X211576572Y-136646572D02*
X210820000Y-135890000D01*
X201590520Y-143170520D02*
X201930000Y-143510000D01*
X209550000Y-135890000D02*
X201930000Y-143510000D01*
X211576572Y-137795000D02*
X211576572Y-136646572D01*
X261506832Y-137795000D02*
X261506832Y-142126832D01*
X271492884Y-141085233D02*
X271492884Y-137795000D01*
X269933606Y-142644511D02*
X271492884Y-141085233D01*
X262890000Y-143510000D02*
X263755489Y-142644511D01*
X261506832Y-142126832D02*
X262890000Y-143510000D01*
X263755489Y-142644511D02*
X269933606Y-142644511D01*
X326721699Y-159935489D02*
X328995000Y-157662188D01*
X328995000Y-157662188D02*
X328995000Y-157480000D01*
X320040000Y-160020000D02*
X320040000Y-158685000D01*
X320040000Y-158685000D02*
X318835000Y-157480000D01*
X320040000Y-164150000D02*
X320040000Y-160020000D01*
X320124511Y-159935489D02*
X326721699Y-159935489D01*
X320040000Y-160020000D02*
X320124511Y-159935489D01*
X291465000Y-138194022D02*
X291465000Y-137795000D01*
X281478936Y-137795000D02*
X281478936Y-141778936D01*
X290914511Y-138744511D02*
X291465000Y-138194022D01*
X281478936Y-141778936D02*
X283210000Y-143510000D01*
X287975489Y-138744511D02*
X290914511Y-138744511D01*
X283210000Y-143510000D02*
X287975489Y-138744511D01*
X240869082Y-117305000D02*
X240869082Y-116205000D01*
X250619956Y-117154511D02*
X251170445Y-116604022D01*
X241818593Y-117154511D02*
X250619956Y-117154511D01*
X233680000Y-123190000D02*
X234984082Y-123190000D01*
X240869082Y-116205000D02*
X241818593Y-117154511D01*
X234984082Y-123190000D02*
X240869082Y-117305000D01*
X251170445Y-116604022D02*
X251170445Y-116205000D01*
X220266356Y-116205000D02*
X221215867Y-115255489D01*
X230567719Y-115805978D02*
X230567719Y-116205000D01*
X220266356Y-116283644D02*
X220266356Y-116205000D01*
X213360000Y-123190000D02*
X220266356Y-116283644D01*
X221215867Y-115255489D02*
X230017230Y-115255489D01*
X230017230Y-115255489D02*
X230567719Y-115805978D01*
X292375897Y-116604022D02*
X292375897Y-116205000D01*
X282074534Y-116604022D02*
X282074534Y-116205000D01*
X275488556Y-123190000D02*
X282074534Y-116604022D01*
X291825408Y-117154511D02*
X292375897Y-116604022D01*
X274320000Y-123190000D02*
X275488556Y-123190000D01*
X283024045Y-117154511D02*
X291825408Y-117154511D01*
X282074534Y-116205000D02*
X283024045Y-117154511D01*
X254885830Y-123190000D02*
X261471808Y-116604022D01*
X254000000Y-123190000D02*
X254885830Y-123190000D01*
X261471808Y-116205000D02*
X262421319Y-115255489D01*
X271222682Y-115255489D02*
X271773171Y-115805978D01*
X271773171Y-115805978D02*
X271773171Y-116205000D01*
X261471808Y-116604022D02*
X261471808Y-116205000D01*
X262421319Y-115255489D02*
X271222682Y-115255489D01*
X302677260Y-116314511D02*
X302677260Y-116205000D01*
X295801771Y-123190000D02*
X302677260Y-116314511D01*
X294640000Y-123190000D02*
X295801771Y-123190000D01*
X321840000Y-118745000D02*
X314960000Y-118745000D01*
X314960000Y-118186377D02*
X312978623Y-116205000D01*
X314960000Y-118745000D02*
X314960000Y-118186377D01*
X323280000Y-116205000D02*
X323280000Y-117305000D01*
X323280000Y-117305000D02*
X321840000Y-118745000D01*
X314960000Y-123190000D02*
X314960000Y-118745000D01*
X115289855Y-171764511D02*
X107970065Y-171764511D01*
X122904366Y-164150000D02*
X115289855Y-171764511D01*
X104375968Y-164385968D02*
X104140000Y-164150000D01*
X107970065Y-171764511D02*
X104375968Y-168170413D01*
X124460000Y-164150000D02*
X122904366Y-164150000D01*
X104375968Y-168170413D02*
X104375968Y-164385968D01*
X333375000Y-181610000D02*
X333375000Y-183733117D01*
X317941634Y-203200000D02*
X298450000Y-203200000D01*
X330404521Y-190737113D02*
X317941634Y-203200000D01*
X333375000Y-183733117D02*
X330404521Y-186703596D01*
X357400000Y-138435000D02*
X358824511Y-139859511D01*
X358824511Y-156160489D02*
X333375000Y-181610000D01*
X358824511Y-139859511D02*
X358824511Y-156160489D01*
X330404521Y-186703596D02*
X330404521Y-190737113D01*
X257810000Y-109220000D02*
X252730000Y-104140000D01*
X326390000Y-161610000D02*
X347025000Y-140975000D01*
X260350000Y-120650000D02*
X261415479Y-121715479D01*
X261415479Y-125836155D02*
X258897113Y-128354521D01*
X261415479Y-121715479D02*
X261415479Y-125836155D01*
X251255479Y-126340768D02*
X251255479Y-120927345D01*
X258897113Y-128354521D02*
X253269232Y-128354521D01*
X253269232Y-128354521D02*
X251255479Y-126340768D01*
X347025000Y-140975000D02*
X357400000Y-140975000D01*
X257810000Y-114372824D02*
X257810000Y-109220000D01*
X251255479Y-120927345D02*
X257810000Y-114372824D01*
X242654521Y-143425479D02*
X248832638Y-143425479D01*
X242570000Y-143510000D02*
X242654521Y-143425479D01*
X248832638Y-143425479D02*
X251520780Y-140737337D01*
X242570000Y-143510000D02*
X242570000Y-138830272D01*
X242570000Y-138830272D02*
X241534728Y-137795000D01*
X251520780Y-140737337D02*
X251520780Y-137795000D01*
M02*
