%TF.GenerationSoftware,KiCad,Pcbnew,(6.0.1)*%
%TF.CreationDate,2022-07-30T17:19:38+08:00*%
%TF.ProjectId,CrVisionMech,43725669-7369-46f6-9e4d-6563682e6b69,rev?*%
%TF.SameCoordinates,Original*%
%TF.FileFunction,Paste,Bot*%
%TF.FilePolarity,Positive*%
%FSLAX46Y46*%
G04 Gerber Fmt 4.6, Leading zero omitted, Abs format (unit mm)*
G04 Created by KiCad (PCBNEW (6.0.1)) date 2022-07-30 17:19:38*
%MOMM*%
%LPD*%
G01*
G04 APERTURE LIST*
%ADD10R,0.600000X0.700000*%
G04 APERTURE END LIST*
D10*
X121702104Y-137795000D03*
X120302104Y-137795000D03*
X284862500Y-198755000D03*
X283462500Y-198755000D03*
X90870000Y-177165000D03*
X89470000Y-177165000D03*
X226292096Y-177165000D03*
X224892096Y-177165000D03*
X198519214Y-157480000D03*
X197119214Y-157480000D03*
X201590520Y-137795000D03*
X200190520Y-137795000D03*
X158458178Y-116205000D03*
X157058178Y-116205000D03*
X158948690Y-157480000D03*
X157548690Y-157480000D03*
X297445535Y-157480000D03*
X296045535Y-157480000D03*
X256471304Y-177165000D03*
X255071304Y-177165000D03*
X306770000Y-177165000D03*
X305370000Y-177165000D03*
X287552893Y-157480000D03*
X286152893Y-157480000D03*
X236351832Y-177165000D03*
X234951832Y-177165000D03*
X186053152Y-177165000D03*
X184653152Y-177165000D03*
X278195000Y-198755000D03*
X276795000Y-198755000D03*
X96650000Y-116205000D03*
X95250000Y-116205000D03*
X115635000Y-177165000D03*
X114235000Y-177165000D03*
X318835000Y-157480000D03*
X317435000Y-157480000D03*
X127554089Y-116205000D03*
X126154089Y-116205000D03*
X168841321Y-157480000D03*
X167441321Y-157480000D03*
X302677260Y-116205000D03*
X301277260Y-116205000D03*
X211576572Y-137795000D03*
X210176572Y-137795000D03*
X199663630Y-116205000D03*
X198263630Y-116205000D03*
X171632364Y-137795000D03*
X170232364Y-137795000D03*
X257875000Y-157480000D03*
X256475000Y-157480000D03*
X251170445Y-116205000D03*
X249770445Y-116205000D03*
X261506832Y-137795000D03*
X260106832Y-137795000D03*
X292375897Y-116205000D03*
X290975897Y-116205000D03*
X281478936Y-137795000D03*
X280078936Y-137795000D03*
X276590776Y-177165000D03*
X275190776Y-177165000D03*
X148156815Y-116205000D03*
X146756815Y-116205000D03*
X119378166Y-157480000D03*
X117978166Y-157480000D03*
X228197107Y-157480000D03*
X226797107Y-157480000D03*
X178733952Y-157480000D03*
X177333952Y-157480000D03*
X261471808Y-116205000D03*
X260071808Y-116205000D03*
X181618416Y-137795000D03*
X180218416Y-137795000D03*
X267767631Y-157480000D03*
X266367631Y-157480000D03*
X161646312Y-137795000D03*
X160246312Y-137795000D03*
X125694736Y-177165000D03*
X124294736Y-177165000D03*
X196112888Y-177165000D03*
X194712888Y-177165000D03*
X165933680Y-177165000D03*
X164533680Y-177165000D03*
X149056059Y-157480000D03*
X147656059Y-157480000D03*
X106951363Y-116205000D03*
X105551363Y-116205000D03*
X266531040Y-177165000D03*
X265131040Y-177165000D03*
X191604468Y-137795000D03*
X190204468Y-137795000D03*
X141674208Y-137795000D03*
X140274208Y-137795000D03*
X101730000Y-137795000D03*
X100330000Y-137795000D03*
X271773171Y-116205000D03*
X270373171Y-116205000D03*
X282074534Y-116205000D03*
X280674534Y-116205000D03*
X151660260Y-137795000D03*
X150260260Y-137795000D03*
X137855452Y-116205000D03*
X136455452Y-116205000D03*
X155873944Y-177165000D03*
X154473944Y-177165000D03*
X286650512Y-177165000D03*
X285250512Y-177165000D03*
X241534728Y-137795000D03*
X240134728Y-137795000D03*
X216232360Y-177165000D03*
X214832360Y-177165000D03*
X291465000Y-137795000D03*
X290065000Y-137795000D03*
X175993416Y-177165000D03*
X174593416Y-177165000D03*
X240869082Y-116205000D03*
X239469082Y-116205000D03*
X208411845Y-157480000D03*
X207011845Y-157480000D03*
X131688156Y-137795000D03*
X130288156Y-137795000D03*
X94680000Y-198755000D03*
X93280000Y-198755000D03*
X291530000Y-198755000D03*
X290130000Y-198755000D03*
X277660262Y-157480000D03*
X276260262Y-157480000D03*
X218304476Y-157480000D03*
X216904476Y-157480000D03*
X189362267Y-116205000D03*
X187962267Y-116205000D03*
X139163428Y-157480000D03*
X137763428Y-157480000D03*
X111716052Y-137795000D03*
X110316052Y-137795000D03*
X168759541Y-116205000D03*
X167359541Y-116205000D03*
X129270797Y-157480000D03*
X127870797Y-157480000D03*
X328995000Y-157480000D03*
X327595000Y-157480000D03*
X209964993Y-116205000D03*
X208564993Y-116205000D03*
X188626583Y-157480000D03*
X187226583Y-157480000D03*
X206172624Y-177165000D03*
X204772624Y-177165000D03*
X230567719Y-116205000D03*
X229167719Y-116205000D03*
X271492884Y-137795000D03*
X270092884Y-137795000D03*
X296710248Y-177165000D03*
X295310248Y-177165000D03*
X207075000Y-198755000D03*
X205675000Y-198755000D03*
X323280000Y-116205000D03*
X321880000Y-116205000D03*
X179060904Y-116205000D03*
X177660904Y-116205000D03*
X231548676Y-137795000D03*
X230148676Y-137795000D03*
X196280000Y-198755000D03*
X194880000Y-198755000D03*
X220266356Y-116205000D03*
X218866356Y-116205000D03*
X312978623Y-116205000D03*
X311578623Y-116205000D03*
X247982369Y-157480000D03*
X246582369Y-157480000D03*
X221562624Y-137795000D03*
X220162624Y-137795000D03*
X117252726Y-116205000D03*
X115852726Y-116205000D03*
X251520780Y-137795000D03*
X250120780Y-137795000D03*
X246411568Y-177165000D03*
X245011568Y-177165000D03*
X135754472Y-177165000D03*
X134354472Y-177165000D03*
X145814208Y-177165000D03*
X144414208Y-177165000D03*
X238089738Y-157480000D03*
X236689738Y-157480000D03*
X109485535Y-157480000D03*
X108085535Y-157480000D03*
M02*
