%FSLAX45Y45*%
G04 Gerber Fmt 4.5, Leading zero omitted, Abs format (unit mm)*
G04 Created by KiCad (PCBNEW (6.0.1)) date 2022-07-30 17:19:56*
%MOMM*%
%LPD*%
G01*
G04 APERTURE LIST*
%TA.AperFunction,Profile*%
%ADD10C,0.100000*%
%TD*%
%ADD11C,0.200000*%
%ADD12C,0.170000*%
%ADD13C,0.305000*%
%ADD14C,0.400000*%
G04 APERTURE END LIST*
D10*
X4381500Y-9334500D02*
X36703000Y-9334500D01*
X36703000Y-9334500D02*
X36703000Y-22606000D01*
X36703000Y-22606000D02*
X4381500Y-22606000D01*
X4381500Y-22606000D02*
X4381500Y-9334500D01*
D11*
D12*
X8170000Y-18623000D02*
X8340000Y-18793000D01*
X8340000Y-18623000D02*
X8170000Y-18793000D01*
X8297000Y-20743000D02*
X8467000Y-20913000D01*
X8467000Y-20743000D02*
X8297000Y-20913000D01*
X8932000Y-12488000D02*
X9102000Y-12658000D01*
X9102000Y-12488000D02*
X8932000Y-12658000D01*
X9186000Y-18623000D02*
X9356000Y-18793000D01*
X9356000Y-18623000D02*
X9186000Y-18793000D01*
X9313000Y-20743000D02*
X9483000Y-20913000D01*
X9483000Y-20743000D02*
X9313000Y-20913000D01*
X9821000Y-14520000D02*
X9991000Y-14690000D01*
X9991000Y-14520000D02*
X9821000Y-14690000D01*
X9948000Y-12488000D02*
X10118000Y-12658000D01*
X10118000Y-12488000D02*
X9948000Y-12658000D01*
X10202000Y-16584000D02*
X10372000Y-16754000D01*
X10372000Y-16584000D02*
X10202000Y-16754000D01*
X10837000Y-14520000D02*
X11007000Y-14690000D01*
X11007000Y-14520000D02*
X10837000Y-14690000D01*
X10964000Y-12488000D02*
X11134000Y-12658000D01*
X11134000Y-12488000D02*
X10964000Y-12658000D01*
X11218000Y-16584000D02*
X11388000Y-16754000D01*
X11388000Y-16584000D02*
X11218000Y-16754000D01*
X11345000Y-18623000D02*
X11515000Y-18793000D01*
X11515000Y-18623000D02*
X11345000Y-18793000D01*
X11853000Y-14520000D02*
X12023000Y-14690000D01*
X12023000Y-14520000D02*
X11853000Y-14690000D01*
X11980000Y-12488000D02*
X12150000Y-12658000D01*
X12150000Y-12488000D02*
X11980000Y-12658000D01*
X12234000Y-16584000D02*
X12404000Y-16754000D01*
X12404000Y-16584000D02*
X12234000Y-16754000D01*
X12361000Y-18623000D02*
X12531000Y-18793000D01*
X12531000Y-18623000D02*
X12361000Y-18793000D01*
X12869000Y-14520000D02*
X13039000Y-14690000D01*
X13039000Y-14520000D02*
X12869000Y-14690000D01*
X12996000Y-12488000D02*
X13166000Y-12658000D01*
X13166000Y-12488000D02*
X12996000Y-12658000D01*
X13250000Y-16584000D02*
X13420000Y-16754000D01*
X13420000Y-16584000D02*
X13250000Y-16754000D01*
X13377000Y-18623000D02*
X13547000Y-18793000D01*
X13547000Y-18623000D02*
X13377000Y-18793000D01*
X13885000Y-14520000D02*
X14055000Y-14690000D01*
X14055000Y-14520000D02*
X13885000Y-14690000D01*
X14012000Y-12488000D02*
X14182000Y-12658000D01*
X14182000Y-12488000D02*
X14012000Y-12658000D01*
X14266000Y-16584000D02*
X14436000Y-16754000D01*
X14436000Y-16584000D02*
X14266000Y-16754000D01*
X14393000Y-18623000D02*
X14563000Y-18793000D01*
X14563000Y-18623000D02*
X14393000Y-18793000D01*
X14901000Y-14520000D02*
X15071000Y-14690000D01*
X15071000Y-14520000D02*
X14901000Y-14690000D01*
X15028000Y-12488000D02*
X15198000Y-12658000D01*
X15198000Y-12488000D02*
X15028000Y-12658000D01*
X15282000Y-16584000D02*
X15452000Y-16754000D01*
X15452000Y-16584000D02*
X15282000Y-16754000D01*
X15409000Y-18623000D02*
X15579000Y-18793000D01*
X15579000Y-18623000D02*
X15409000Y-18793000D01*
X15917000Y-14520000D02*
X16087000Y-14690000D01*
X16087000Y-14520000D02*
X15917000Y-14690000D01*
X16044000Y-12488000D02*
X16214000Y-12658000D01*
X16214000Y-12488000D02*
X16044000Y-12658000D01*
X16298000Y-16584000D02*
X16468000Y-16754000D01*
X16468000Y-16584000D02*
X16298000Y-16754000D01*
X16425000Y-18623000D02*
X16595000Y-18793000D01*
X16595000Y-18623000D02*
X16425000Y-18793000D01*
X16933000Y-14520000D02*
X17103000Y-14690000D01*
X17103000Y-14520000D02*
X16933000Y-14690000D01*
X17060000Y-12488000D02*
X17230000Y-12658000D01*
X17230000Y-12488000D02*
X17060000Y-12658000D01*
X17314000Y-16584000D02*
X17484000Y-16754000D01*
X17484000Y-16584000D02*
X17314000Y-16754000D01*
X17441000Y-18623000D02*
X17611000Y-18793000D01*
X17611000Y-18623000D02*
X17441000Y-18793000D01*
X17949000Y-14520000D02*
X18119000Y-14690000D01*
X18119000Y-14520000D02*
X17949000Y-14690000D01*
X18076000Y-12488000D02*
X18246000Y-12658000D01*
X18246000Y-12488000D02*
X18076000Y-12658000D01*
X18330000Y-16584000D02*
X18500000Y-16754000D01*
X18500000Y-16584000D02*
X18330000Y-16754000D01*
X18457000Y-18623000D02*
X18627000Y-18793000D01*
X18627000Y-18623000D02*
X18457000Y-18793000D01*
X18965000Y-14520000D02*
X19135000Y-14690000D01*
X19135000Y-14520000D02*
X18965000Y-14690000D01*
X19092000Y-12488000D02*
X19262000Y-12658000D01*
X19262000Y-12488000D02*
X19092000Y-12658000D01*
X19346000Y-16584000D02*
X19516000Y-16754000D01*
X19516000Y-16584000D02*
X19346000Y-16754000D01*
X19473000Y-18623000D02*
X19643000Y-18793000D01*
X19643000Y-18623000D02*
X19473000Y-18793000D01*
X19473000Y-20743000D02*
X19643000Y-20913000D01*
X19643000Y-20743000D02*
X19473000Y-20913000D01*
X19981000Y-14520000D02*
X20151000Y-14690000D01*
X20151000Y-14520000D02*
X19981000Y-14690000D01*
X20108000Y-12488000D02*
X20278000Y-12658000D01*
X20278000Y-12488000D02*
X20108000Y-12658000D01*
X20362000Y-16584000D02*
X20532000Y-16754000D01*
X20532000Y-16584000D02*
X20362000Y-16754000D01*
X20489000Y-18623000D02*
X20659000Y-18793000D01*
X20659000Y-18623000D02*
X20489000Y-18793000D01*
X20489000Y-20743000D02*
X20659000Y-20913000D01*
X20659000Y-20743000D02*
X20489000Y-20913000D01*
X20997000Y-14520000D02*
X21167000Y-14690000D01*
X21167000Y-14520000D02*
X20997000Y-14690000D01*
X21124000Y-12488000D02*
X21294000Y-12658000D01*
X21294000Y-12488000D02*
X21124000Y-12658000D01*
X21378000Y-16584000D02*
X21548000Y-16754000D01*
X21548000Y-16584000D02*
X21378000Y-16754000D01*
X21505000Y-18623000D02*
X21675000Y-18793000D01*
X21675000Y-18623000D02*
X21505000Y-18793000D01*
X22013000Y-14520000D02*
X22183000Y-14690000D01*
X22183000Y-14520000D02*
X22013000Y-14690000D01*
X22140000Y-12488000D02*
X22310000Y-12658000D01*
X22310000Y-12488000D02*
X22140000Y-12658000D01*
X22394000Y-16584000D02*
X22564000Y-16754000D01*
X22564000Y-16584000D02*
X22394000Y-16754000D01*
X22521000Y-18623000D02*
X22691000Y-18793000D01*
X22691000Y-18623000D02*
X22521000Y-18793000D01*
X23029000Y-14520000D02*
X23199000Y-14690000D01*
X23199000Y-14520000D02*
X23029000Y-14690000D01*
X23156000Y-12488000D02*
X23326000Y-12658000D01*
X23326000Y-12488000D02*
X23156000Y-12658000D01*
X23410000Y-16584000D02*
X23580000Y-16754000D01*
X23580000Y-16584000D02*
X23410000Y-16754000D01*
X23537000Y-18623000D02*
X23707000Y-18793000D01*
X23707000Y-18623000D02*
X23537000Y-18793000D01*
X24045000Y-14520000D02*
X24215000Y-14690000D01*
X24215000Y-14520000D02*
X24045000Y-14690000D01*
X24172000Y-12488000D02*
X24342000Y-12658000D01*
X24342000Y-12488000D02*
X24172000Y-12658000D01*
X24426000Y-16584000D02*
X24596000Y-16754000D01*
X24596000Y-16584000D02*
X24426000Y-16754000D01*
X24553000Y-18623000D02*
X24723000Y-18793000D01*
X24723000Y-18623000D02*
X24553000Y-18793000D01*
X25061000Y-14520000D02*
X25231000Y-14690000D01*
X25231000Y-14520000D02*
X25061000Y-14690000D01*
X25188000Y-12488000D02*
X25358000Y-12658000D01*
X25358000Y-12488000D02*
X25188000Y-12658000D01*
X25442000Y-16584000D02*
X25612000Y-16754000D01*
X25612000Y-16584000D02*
X25442000Y-16754000D01*
X25569000Y-18623000D02*
X25739000Y-18793000D01*
X25739000Y-18623000D02*
X25569000Y-18793000D01*
X26077000Y-14520000D02*
X26247000Y-14690000D01*
X26247000Y-14520000D02*
X26077000Y-14690000D01*
X26204000Y-12488000D02*
X26374000Y-12658000D01*
X26374000Y-12488000D02*
X26204000Y-12658000D01*
X26458000Y-16584000D02*
X26628000Y-16754000D01*
X26628000Y-16584000D02*
X26458000Y-16754000D01*
X26585000Y-18623000D02*
X26755000Y-18793000D01*
X26755000Y-18623000D02*
X26585000Y-18793000D01*
X26966000Y-20743000D02*
X27136000Y-20913000D01*
X27136000Y-20743000D02*
X26966000Y-20913000D01*
X27093000Y-14520000D02*
X27263000Y-14690000D01*
X27263000Y-14520000D02*
X27093000Y-14690000D01*
X27220000Y-12488000D02*
X27390000Y-12658000D01*
X27390000Y-12488000D02*
X27220000Y-12658000D01*
X27474000Y-16584000D02*
X27644000Y-16754000D01*
X27644000Y-16584000D02*
X27474000Y-16754000D01*
X27601000Y-18623000D02*
X27771000Y-18793000D01*
X27771000Y-18623000D02*
X27601000Y-18793000D01*
X27982000Y-20743000D02*
X28152000Y-20913000D01*
X28152000Y-20743000D02*
X27982000Y-20913000D01*
X28109000Y-14520000D02*
X28279000Y-14690000D01*
X28279000Y-14520000D02*
X28109000Y-14690000D01*
X28236000Y-12488000D02*
X28406000Y-12658000D01*
X28406000Y-12488000D02*
X28236000Y-12658000D01*
X28490000Y-16584000D02*
X28660000Y-16754000D01*
X28660000Y-16584000D02*
X28490000Y-16754000D01*
X28617000Y-18623000D02*
X28787000Y-18793000D01*
X28787000Y-18623000D02*
X28617000Y-18793000D01*
X28998000Y-20743000D02*
X29168000Y-20913000D01*
X29168000Y-20743000D02*
X28998000Y-20913000D01*
X29125000Y-14520000D02*
X29295000Y-14690000D01*
X29295000Y-14520000D02*
X29125000Y-14690000D01*
X29252000Y-12488000D02*
X29422000Y-12658000D01*
X29422000Y-12488000D02*
X29252000Y-12658000D01*
X29506000Y-16584000D02*
X29676000Y-16754000D01*
X29676000Y-16584000D02*
X29506000Y-16754000D01*
X29633000Y-18623000D02*
X29803000Y-18793000D01*
X29803000Y-18623000D02*
X29633000Y-18793000D01*
X30014000Y-20743000D02*
X30184000Y-20913000D01*
X30184000Y-20743000D02*
X30014000Y-20913000D01*
X30268000Y-12488000D02*
X30438000Y-12658000D01*
X30438000Y-12488000D02*
X30268000Y-12658000D01*
X30649000Y-18623000D02*
X30819000Y-18793000D01*
X30819000Y-18623000D02*
X30649000Y-18793000D01*
X31284000Y-12488000D02*
X31454000Y-12658000D01*
X31454000Y-12488000D02*
X31284000Y-12658000D01*
X31792000Y-16584000D02*
X31962000Y-16754000D01*
X31962000Y-16584000D02*
X31792000Y-16754000D01*
X32300000Y-12488000D02*
X32470000Y-12658000D01*
X32470000Y-12488000D02*
X32300000Y-12658000D01*
X32808000Y-16584000D02*
X32978000Y-16754000D01*
X32978000Y-16584000D02*
X32808000Y-16754000D01*
X32808000Y-18623000D02*
X32978000Y-18793000D01*
X32978000Y-18623000D02*
X32808000Y-18793000D01*
X33824000Y-18623000D02*
X33994000Y-18793000D01*
X33994000Y-18623000D02*
X33824000Y-18793000D01*
D13*
X7725500Y-18008000D02*
G75*
G03*
X7725500Y-18008000I-152500J0D01*
G01*
X10105500Y-18008000D02*
G75*
G03*
X10105500Y-18008000I-152500J0D01*
G01*
X15218500Y-20128000D02*
G75*
G03*
X15218500Y-20128000I-152500J0D01*
G01*
X25218500Y-20128000D02*
G75*
G03*
X25218500Y-20128000I-152500J0D01*
G01*
X31347500Y-15969000D02*
G75*
G03*
X31347500Y-15969000I-152500J0D01*
G01*
X32363500Y-18008000D02*
G75*
G03*
X32363500Y-18008000I-152500J0D01*
G01*
X33727500Y-15969000D02*
G75*
G03*
X33727500Y-15969000I-152500J0D01*
G01*
X34743500Y-18008000D02*
G75*
G03*
X34743500Y-18008000I-152500J0D01*
G01*
D14*
X7573000Y-19332000D02*
X7573000Y-19732000D01*
X7373000Y-19532000D02*
X7773000Y-19532000D01*
X8763000Y-18508000D02*
X8763000Y-18908000D01*
X8563000Y-18708000D02*
X8963000Y-18708000D01*
X8890000Y-20628000D02*
X8890000Y-21028000D01*
X8690000Y-20828000D02*
X9090000Y-20828000D01*
X9525000Y-12373000D02*
X9525000Y-12773000D01*
X9325000Y-12573000D02*
X9725000Y-12573000D01*
X9953000Y-19332000D02*
X9953000Y-19732000D01*
X9753000Y-19532000D02*
X10153000Y-19532000D01*
X10414000Y-14405000D02*
X10414000Y-14805000D01*
X10214000Y-14605000D02*
X10614000Y-14605000D01*
X10795000Y-16469000D02*
X10795000Y-16869000D01*
X10595000Y-16669000D02*
X10995000Y-16669000D01*
X11557000Y-12373000D02*
X11557000Y-12773000D01*
X11357000Y-12573000D02*
X11757000Y-12573000D01*
X11938000Y-18508000D02*
X11938000Y-18908000D01*
X11738000Y-18708000D02*
X12138000Y-18708000D01*
X12446000Y-14405000D02*
X12446000Y-14805000D01*
X12246000Y-14605000D02*
X12646000Y-14605000D01*
X12827000Y-16469000D02*
X12827000Y-16869000D01*
X12627000Y-16669000D02*
X13027000Y-16669000D01*
X13589000Y-12373000D02*
X13589000Y-12773000D01*
X13389000Y-12573000D02*
X13789000Y-12573000D01*
X13970000Y-18508000D02*
X13970000Y-18908000D01*
X13770000Y-18708000D02*
X14170000Y-18708000D01*
X14478000Y-14405000D02*
X14478000Y-14805000D01*
X14278000Y-14605000D02*
X14678000Y-14605000D01*
X14859000Y-16469000D02*
X14859000Y-16869000D01*
X14659000Y-16669000D02*
X15059000Y-16669000D01*
X15066000Y-21452000D02*
X15066000Y-21852000D01*
X14866000Y-21652000D02*
X15266000Y-21652000D01*
X15621000Y-12373000D02*
X15621000Y-12773000D01*
X15421000Y-12573000D02*
X15821000Y-12573000D01*
X16002000Y-18508000D02*
X16002000Y-18908000D01*
X15802000Y-18708000D02*
X16202000Y-18708000D01*
X16510000Y-14405000D02*
X16510000Y-14805000D01*
X16310000Y-14605000D02*
X16710000Y-14605000D01*
X16891000Y-16469000D02*
X16891000Y-16869000D01*
X16691000Y-16669000D02*
X17091000Y-16669000D01*
X17653000Y-12373000D02*
X17653000Y-12773000D01*
X17453000Y-12573000D02*
X17853000Y-12573000D01*
X18034000Y-18508000D02*
X18034000Y-18908000D01*
X17834000Y-18708000D02*
X18234000Y-18708000D01*
X18542000Y-14405000D02*
X18542000Y-14805000D01*
X18342000Y-14605000D02*
X18742000Y-14605000D01*
X18923000Y-16469000D02*
X18923000Y-16869000D01*
X18723000Y-16669000D02*
X19123000Y-16669000D01*
X19685000Y-12373000D02*
X19685000Y-12773000D01*
X19485000Y-12573000D02*
X19885000Y-12573000D01*
X20066000Y-18508000D02*
X20066000Y-18908000D01*
X19866000Y-18708000D02*
X20266000Y-18708000D01*
X20066000Y-20628000D02*
X20066000Y-21028000D01*
X19866000Y-20828000D02*
X20266000Y-20828000D01*
X20574000Y-14405000D02*
X20574000Y-14805000D01*
X20374000Y-14605000D02*
X20774000Y-14605000D01*
X20955000Y-16469000D02*
X20955000Y-16869000D01*
X20755000Y-16669000D02*
X21155000Y-16669000D01*
X21717000Y-12373000D02*
X21717000Y-12773000D01*
X21517000Y-12573000D02*
X21917000Y-12573000D01*
X22098000Y-18508000D02*
X22098000Y-18908000D01*
X21898000Y-18708000D02*
X22298000Y-18708000D01*
X22606000Y-14405000D02*
X22606000Y-14805000D01*
X22406000Y-14605000D02*
X22806000Y-14605000D01*
X22987000Y-16469000D02*
X22987000Y-16869000D01*
X22787000Y-16669000D02*
X23187000Y-16669000D01*
X23749000Y-12373000D02*
X23749000Y-12773000D01*
X23549000Y-12573000D02*
X23949000Y-12573000D01*
X24130000Y-18508000D02*
X24130000Y-18908000D01*
X23930000Y-18708000D02*
X24330000Y-18708000D01*
X24638000Y-14405000D02*
X24638000Y-14805000D01*
X24438000Y-14605000D02*
X24838000Y-14605000D01*
X25019000Y-16469000D02*
X25019000Y-16869000D01*
X24819000Y-16669000D02*
X25219000Y-16669000D01*
X25066000Y-21452000D02*
X25066000Y-21852000D01*
X24866000Y-21652000D02*
X25266000Y-21652000D01*
X25781000Y-12373000D02*
X25781000Y-12773000D01*
X25581000Y-12573000D02*
X25981000Y-12573000D01*
X26162000Y-18508000D02*
X26162000Y-18908000D01*
X25962000Y-18708000D02*
X26362000Y-18708000D01*
X26670000Y-14405000D02*
X26670000Y-14805000D01*
X26470000Y-14605000D02*
X26870000Y-14605000D01*
X27051000Y-16469000D02*
X27051000Y-16869000D01*
X26851000Y-16669000D02*
X27251000Y-16669000D01*
X27559000Y-20628000D02*
X27559000Y-21028000D01*
X27359000Y-20828000D02*
X27759000Y-20828000D01*
X27813000Y-12373000D02*
X27813000Y-12773000D01*
X27613000Y-12573000D02*
X28013000Y-12573000D01*
X28194000Y-18508000D02*
X28194000Y-18908000D01*
X27994000Y-18708000D02*
X28394000Y-18708000D01*
X28702000Y-14405000D02*
X28702000Y-14805000D01*
X28502000Y-14605000D02*
X28902000Y-14605000D01*
X29083000Y-16469000D02*
X29083000Y-16869000D01*
X28883000Y-16669000D02*
X29283000Y-16669000D01*
X29591000Y-20628000D02*
X29591000Y-21028000D01*
X29391000Y-20828000D02*
X29791000Y-20828000D01*
X29845000Y-12373000D02*
X29845000Y-12773000D01*
X29645000Y-12573000D02*
X30045000Y-12573000D01*
X30226000Y-18508000D02*
X30226000Y-18908000D01*
X30026000Y-18708000D02*
X30426000Y-18708000D01*
X31195000Y-17293000D02*
X31195000Y-17693000D01*
X30995000Y-17493000D02*
X31395000Y-17493000D01*
X31877000Y-12373000D02*
X31877000Y-12773000D01*
X31677000Y-12573000D02*
X32077000Y-12573000D01*
X32211000Y-19332000D02*
X32211000Y-19732000D01*
X32011000Y-19532000D02*
X32411000Y-19532000D01*
X32385000Y-16469000D02*
X32385000Y-16869000D01*
X32185000Y-16669000D02*
X32585000Y-16669000D01*
X33401000Y-18508000D02*
X33401000Y-18908000D01*
X33201000Y-18708000D02*
X33601000Y-18708000D01*
X33575000Y-17293000D02*
X33575000Y-17693000D01*
X33375000Y-17493000D02*
X33775000Y-17493000D01*
X34591000Y-19332000D02*
X34591000Y-19732000D01*
X34391000Y-19532000D02*
X34791000Y-19532000D01*
D11*
X4634119Y-22921476D02*
X4634119Y-22721476D01*
X4681738Y-22721476D01*
X4710310Y-22731000D01*
X4729357Y-22750048D01*
X4738881Y-22769095D01*
X4748405Y-22807190D01*
X4748405Y-22835762D01*
X4738881Y-22873857D01*
X4729357Y-22892905D01*
X4710310Y-22911952D01*
X4681738Y-22921476D01*
X4634119Y-22921476D01*
X4834119Y-22921476D02*
X4834119Y-22788143D01*
X4834119Y-22826238D02*
X4843643Y-22807190D01*
X4853167Y-22797667D01*
X4872214Y-22788143D01*
X4891262Y-22788143D01*
X4957929Y-22921476D02*
X4957929Y-22788143D01*
X4957929Y-22721476D02*
X4948405Y-22731000D01*
X4957929Y-22740524D01*
X4967452Y-22731000D01*
X4957929Y-22721476D01*
X4957929Y-22740524D01*
X5081738Y-22921476D02*
X5062690Y-22911952D01*
X5053167Y-22892905D01*
X5053167Y-22721476D01*
X5186500Y-22921476D02*
X5167452Y-22911952D01*
X5157929Y-22892905D01*
X5157929Y-22721476D01*
X5415071Y-22921476D02*
X5415071Y-22721476D01*
X5481738Y-22864333D01*
X5548405Y-22721476D01*
X5548405Y-22921476D01*
X5729357Y-22921476D02*
X5729357Y-22816714D01*
X5719833Y-22797667D01*
X5700786Y-22788143D01*
X5662690Y-22788143D01*
X5643643Y-22797667D01*
X5729357Y-22911952D02*
X5710309Y-22921476D01*
X5662690Y-22921476D01*
X5643643Y-22911952D01*
X5634119Y-22892905D01*
X5634119Y-22873857D01*
X5643643Y-22854809D01*
X5662690Y-22845286D01*
X5710309Y-22845286D01*
X5729357Y-22835762D01*
X5824595Y-22788143D02*
X5824595Y-22988143D01*
X5824595Y-22797667D02*
X5843643Y-22788143D01*
X5881738Y-22788143D01*
X5900786Y-22797667D01*
X5910309Y-22807190D01*
X5919833Y-22826238D01*
X5919833Y-22883381D01*
X5910309Y-22902428D01*
X5900786Y-22911952D01*
X5881738Y-22921476D01*
X5843643Y-22921476D01*
X5824595Y-22911952D01*
X6005548Y-22902428D02*
X6015071Y-22911952D01*
X6005548Y-22921476D01*
X5996024Y-22911952D01*
X6005548Y-22902428D01*
X6005548Y-22921476D01*
X6005548Y-22797667D02*
X6015071Y-22807190D01*
X6005548Y-22816714D01*
X5996024Y-22807190D01*
X6005548Y-22797667D01*
X6005548Y-22816714D01*
D12*
X4206500Y-23166000D02*
X4376500Y-23336000D01*
X4376500Y-23166000D02*
X4206500Y-23336000D01*
D11*
X4738881Y-23341476D02*
X4624595Y-23341476D01*
X4681738Y-23341476D02*
X4681738Y-23141476D01*
X4662690Y-23170048D01*
X4643643Y-23189095D01*
X4624595Y-23198619D01*
X4824595Y-23322428D02*
X4834119Y-23331952D01*
X4824595Y-23341476D01*
X4815071Y-23331952D01*
X4824595Y-23322428D01*
X4824595Y-23341476D01*
X4900786Y-23141476D02*
X5034119Y-23141476D01*
X4948405Y-23341476D01*
X5148405Y-23141476D02*
X5167452Y-23141476D01*
X5186500Y-23151000D01*
X5196024Y-23160524D01*
X5205548Y-23179571D01*
X5215071Y-23217667D01*
X5215071Y-23265286D01*
X5205548Y-23303381D01*
X5196024Y-23322428D01*
X5186500Y-23331952D01*
X5167452Y-23341476D01*
X5148405Y-23341476D01*
X5129357Y-23331952D01*
X5119833Y-23322428D01*
X5110310Y-23303381D01*
X5100786Y-23265286D01*
X5100786Y-23217667D01*
X5110310Y-23179571D01*
X5119833Y-23160524D01*
X5129357Y-23151000D01*
X5148405Y-23141476D01*
X5338881Y-23141476D02*
X5357929Y-23141476D01*
X5376976Y-23151000D01*
X5386500Y-23160524D01*
X5396024Y-23179571D01*
X5405548Y-23217667D01*
X5405548Y-23265286D01*
X5396024Y-23303381D01*
X5386500Y-23322428D01*
X5376976Y-23331952D01*
X5357929Y-23341476D01*
X5338881Y-23341476D01*
X5319833Y-23331952D01*
X5310310Y-23322428D01*
X5300786Y-23303381D01*
X5291262Y-23265286D01*
X5291262Y-23217667D01*
X5300786Y-23179571D01*
X5310310Y-23160524D01*
X5319833Y-23151000D01*
X5338881Y-23141476D01*
X5491262Y-23341476D02*
X5491262Y-23208143D01*
X5491262Y-23227190D02*
X5500786Y-23217667D01*
X5519833Y-23208143D01*
X5548405Y-23208143D01*
X5567452Y-23217667D01*
X5576976Y-23236714D01*
X5576976Y-23341476D01*
X5576976Y-23236714D02*
X5586500Y-23217667D01*
X5605548Y-23208143D01*
X5634119Y-23208143D01*
X5653167Y-23217667D01*
X5662690Y-23236714D01*
X5662690Y-23341476D01*
X5757928Y-23341476D02*
X5757928Y-23208143D01*
X5757928Y-23227190D02*
X5767452Y-23217667D01*
X5786500Y-23208143D01*
X5815071Y-23208143D01*
X5834119Y-23217667D01*
X5843643Y-23236714D01*
X5843643Y-23341476D01*
X5843643Y-23236714D02*
X5853167Y-23217667D01*
X5872214Y-23208143D01*
X5900786Y-23208143D01*
X5919833Y-23217667D01*
X5929357Y-23236714D01*
X5929357Y-23341476D01*
X6319833Y-23131952D02*
X6148405Y-23389095D01*
X6576976Y-23141476D02*
X6596024Y-23141476D01*
X6615071Y-23151000D01*
X6624595Y-23160524D01*
X6634119Y-23179571D01*
X6643643Y-23217667D01*
X6643643Y-23265286D01*
X6634119Y-23303381D01*
X6624595Y-23322428D01*
X6615071Y-23331952D01*
X6596024Y-23341476D01*
X6576976Y-23341476D01*
X6557928Y-23331952D01*
X6548405Y-23322428D01*
X6538881Y-23303381D01*
X6529357Y-23265286D01*
X6529357Y-23217667D01*
X6538881Y-23179571D01*
X6548405Y-23160524D01*
X6557928Y-23151000D01*
X6576976Y-23141476D01*
X6729357Y-23322428D02*
X6738881Y-23331952D01*
X6729357Y-23341476D01*
X6719833Y-23331952D01*
X6729357Y-23322428D01*
X6729357Y-23341476D01*
X6862690Y-23141476D02*
X6881738Y-23141476D01*
X6900786Y-23151000D01*
X6910309Y-23160524D01*
X6919833Y-23179571D01*
X6929357Y-23217667D01*
X6929357Y-23265286D01*
X6919833Y-23303381D01*
X6910309Y-23322428D01*
X6900786Y-23331952D01*
X6881738Y-23341476D01*
X6862690Y-23341476D01*
X6843643Y-23331952D01*
X6834119Y-23322428D01*
X6824595Y-23303381D01*
X6815071Y-23265286D01*
X6815071Y-23217667D01*
X6824595Y-23179571D01*
X6834119Y-23160524D01*
X6843643Y-23151000D01*
X6862690Y-23141476D01*
X7100786Y-23141476D02*
X7062690Y-23141476D01*
X7043643Y-23151000D01*
X7034119Y-23160524D01*
X7015071Y-23189095D01*
X7005548Y-23227190D01*
X7005548Y-23303381D01*
X7015071Y-23322428D01*
X7024595Y-23331952D01*
X7043643Y-23341476D01*
X7081738Y-23341476D01*
X7100786Y-23331952D01*
X7110309Y-23322428D01*
X7119833Y-23303381D01*
X7119833Y-23255762D01*
X7110309Y-23236714D01*
X7100786Y-23227190D01*
X7081738Y-23217667D01*
X7043643Y-23217667D01*
X7024595Y-23227190D01*
X7015071Y-23236714D01*
X7005548Y-23255762D01*
X7291262Y-23141476D02*
X7253167Y-23141476D01*
X7234119Y-23151000D01*
X7224595Y-23160524D01*
X7205548Y-23189095D01*
X7196024Y-23227190D01*
X7196024Y-23303381D01*
X7205548Y-23322428D01*
X7215071Y-23331952D01*
X7234119Y-23341476D01*
X7272214Y-23341476D01*
X7291262Y-23331952D01*
X7300786Y-23322428D01*
X7310309Y-23303381D01*
X7310309Y-23255762D01*
X7300786Y-23236714D01*
X7291262Y-23227190D01*
X7272214Y-23217667D01*
X7234119Y-23217667D01*
X7215071Y-23227190D01*
X7205548Y-23236714D01*
X7196024Y-23255762D01*
X7405548Y-23341476D02*
X7443643Y-23341476D01*
X7462690Y-23331952D01*
X7472214Y-23322428D01*
X7491262Y-23293857D01*
X7500786Y-23255762D01*
X7500786Y-23179571D01*
X7491262Y-23160524D01*
X7481738Y-23151000D01*
X7462690Y-23141476D01*
X7424595Y-23141476D01*
X7405548Y-23151000D01*
X7396024Y-23160524D01*
X7386500Y-23179571D01*
X7386500Y-23227190D01*
X7396024Y-23246238D01*
X7405548Y-23255762D01*
X7424595Y-23265286D01*
X7462690Y-23265286D01*
X7481738Y-23255762D01*
X7491262Y-23246238D01*
X7500786Y-23227190D01*
X7576976Y-23141476D02*
X7576976Y-23179571D01*
X7653167Y-23141476D02*
X7653167Y-23179571D01*
X7948405Y-23417667D02*
X7938881Y-23408143D01*
X7919833Y-23379571D01*
X7910309Y-23360524D01*
X7900786Y-23331952D01*
X7891262Y-23284333D01*
X7891262Y-23246238D01*
X7900786Y-23198619D01*
X7910309Y-23170048D01*
X7919833Y-23151000D01*
X7938881Y-23122428D01*
X7948405Y-23112905D01*
X8034119Y-23341476D02*
X8072214Y-23341476D01*
X8091262Y-23331952D01*
X8100786Y-23322428D01*
X8119833Y-23293857D01*
X8129357Y-23255762D01*
X8129357Y-23179571D01*
X8119833Y-23160524D01*
X8110309Y-23151000D01*
X8091262Y-23141476D01*
X8053167Y-23141476D01*
X8034119Y-23151000D01*
X8024595Y-23160524D01*
X8015071Y-23179571D01*
X8015071Y-23227190D01*
X8024595Y-23246238D01*
X8034119Y-23255762D01*
X8053167Y-23265286D01*
X8091262Y-23265286D01*
X8110309Y-23255762D01*
X8119833Y-23246238D01*
X8129357Y-23227190D01*
X8243643Y-23227190D02*
X8224595Y-23217667D01*
X8215071Y-23208143D01*
X8205548Y-23189095D01*
X8205548Y-23179571D01*
X8215071Y-23160524D01*
X8224595Y-23151000D01*
X8243643Y-23141476D01*
X8281738Y-23141476D01*
X8300786Y-23151000D01*
X8310309Y-23160524D01*
X8319833Y-23179571D01*
X8319833Y-23189095D01*
X8310309Y-23208143D01*
X8300786Y-23217667D01*
X8281738Y-23227190D01*
X8243643Y-23227190D01*
X8224595Y-23236714D01*
X8215071Y-23246238D01*
X8205548Y-23265286D01*
X8205548Y-23303381D01*
X8215071Y-23322428D01*
X8224595Y-23331952D01*
X8243643Y-23341476D01*
X8281738Y-23341476D01*
X8300786Y-23331952D01*
X8310309Y-23322428D01*
X8319833Y-23303381D01*
X8319833Y-23265286D01*
X8310309Y-23246238D01*
X8300786Y-23236714D01*
X8281738Y-23227190D01*
X8557929Y-23341476D02*
X8557929Y-23141476D01*
X8643643Y-23341476D02*
X8643643Y-23236714D01*
X8634119Y-23217667D01*
X8615071Y-23208143D01*
X8586500Y-23208143D01*
X8567452Y-23217667D01*
X8557929Y-23227190D01*
X8767452Y-23341476D02*
X8748405Y-23331952D01*
X8738881Y-23322428D01*
X8729357Y-23303381D01*
X8729357Y-23246238D01*
X8738881Y-23227190D01*
X8748405Y-23217667D01*
X8767452Y-23208143D01*
X8796024Y-23208143D01*
X8815071Y-23217667D01*
X8824595Y-23227190D01*
X8834119Y-23246238D01*
X8834119Y-23303381D01*
X8824595Y-23322428D01*
X8815071Y-23331952D01*
X8796024Y-23341476D01*
X8767452Y-23341476D01*
X8948405Y-23341476D02*
X8929357Y-23331952D01*
X8919833Y-23312905D01*
X8919833Y-23141476D01*
X9100786Y-23331952D02*
X9081738Y-23341476D01*
X9043643Y-23341476D01*
X9024595Y-23331952D01*
X9015071Y-23312905D01*
X9015071Y-23236714D01*
X9024595Y-23217667D01*
X9043643Y-23208143D01*
X9081738Y-23208143D01*
X9100786Y-23217667D01*
X9110310Y-23236714D01*
X9110310Y-23255762D01*
X9015071Y-23274809D01*
X9186500Y-23331952D02*
X9205548Y-23341476D01*
X9243643Y-23341476D01*
X9262690Y-23331952D01*
X9272214Y-23312905D01*
X9272214Y-23303381D01*
X9262690Y-23284333D01*
X9243643Y-23274809D01*
X9215071Y-23274809D01*
X9196024Y-23265286D01*
X9186500Y-23246238D01*
X9186500Y-23236714D01*
X9196024Y-23217667D01*
X9215071Y-23208143D01*
X9243643Y-23208143D01*
X9262690Y-23217667D01*
X9338881Y-23417667D02*
X9348405Y-23408143D01*
X9367452Y-23379571D01*
X9376976Y-23360524D01*
X9386500Y-23331952D01*
X9396024Y-23284333D01*
X9396024Y-23246238D01*
X9386500Y-23198619D01*
X9376976Y-23170048D01*
X9367452Y-23151000D01*
X9348405Y-23122428D01*
X9338881Y-23112905D01*
X9700786Y-23417667D02*
X9691262Y-23408143D01*
X9672214Y-23379571D01*
X9662690Y-23360524D01*
X9653167Y-23331952D01*
X9643643Y-23284333D01*
X9643643Y-23246238D01*
X9653167Y-23198619D01*
X9662690Y-23170048D01*
X9672214Y-23151000D01*
X9691262Y-23122428D01*
X9700786Y-23112905D01*
X9776976Y-23208143D02*
X9776976Y-23341476D01*
X9776976Y-23227190D02*
X9786500Y-23217667D01*
X9805548Y-23208143D01*
X9834119Y-23208143D01*
X9853167Y-23217667D01*
X9862690Y-23236714D01*
X9862690Y-23341476D01*
X9986500Y-23341476D02*
X9967452Y-23331952D01*
X9957929Y-23322428D01*
X9948405Y-23303381D01*
X9948405Y-23246238D01*
X9957929Y-23227190D01*
X9967452Y-23217667D01*
X9986500Y-23208143D01*
X10015071Y-23208143D01*
X10034119Y-23217667D01*
X10043643Y-23227190D01*
X10053167Y-23246238D01*
X10053167Y-23303381D01*
X10043643Y-23322428D01*
X10034119Y-23331952D01*
X10015071Y-23341476D01*
X9986500Y-23341476D01*
X10110310Y-23208143D02*
X10186500Y-23208143D01*
X10138881Y-23141476D02*
X10138881Y-23312905D01*
X10148405Y-23331952D01*
X10167452Y-23341476D01*
X10186500Y-23341476D01*
X10405548Y-23208143D02*
X10405548Y-23408143D01*
X10405548Y-23217667D02*
X10424595Y-23208143D01*
X10462690Y-23208143D01*
X10481738Y-23217667D01*
X10491262Y-23227190D01*
X10500786Y-23246238D01*
X10500786Y-23303381D01*
X10491262Y-23322428D01*
X10481738Y-23331952D01*
X10462690Y-23341476D01*
X10424595Y-23341476D01*
X10405548Y-23331952D01*
X10615071Y-23341476D02*
X10596024Y-23331952D01*
X10586500Y-23312905D01*
X10586500Y-23141476D01*
X10776976Y-23341476D02*
X10776976Y-23236714D01*
X10767452Y-23217667D01*
X10748405Y-23208143D01*
X10710310Y-23208143D01*
X10691262Y-23217667D01*
X10776976Y-23331952D02*
X10757929Y-23341476D01*
X10710310Y-23341476D01*
X10691262Y-23331952D01*
X10681738Y-23312905D01*
X10681738Y-23293857D01*
X10691262Y-23274809D01*
X10710310Y-23265286D01*
X10757929Y-23265286D01*
X10776976Y-23255762D01*
X10843643Y-23208143D02*
X10919833Y-23208143D01*
X10872214Y-23141476D02*
X10872214Y-23312905D01*
X10881738Y-23331952D01*
X10900786Y-23341476D01*
X10919833Y-23341476D01*
X11062690Y-23331952D02*
X11043643Y-23341476D01*
X11005548Y-23341476D01*
X10986500Y-23331952D01*
X10976976Y-23312905D01*
X10976976Y-23236714D01*
X10986500Y-23217667D01*
X11005548Y-23208143D01*
X11043643Y-23208143D01*
X11062690Y-23217667D01*
X11072214Y-23236714D01*
X11072214Y-23255762D01*
X10976976Y-23274809D01*
X11243643Y-23341476D02*
X11243643Y-23141476D01*
X11243643Y-23331952D02*
X11224595Y-23341476D01*
X11186500Y-23341476D01*
X11167452Y-23331952D01*
X11157929Y-23322428D01*
X11148405Y-23303381D01*
X11148405Y-23246238D01*
X11157929Y-23227190D01*
X11167452Y-23217667D01*
X11186500Y-23208143D01*
X11224595Y-23208143D01*
X11243643Y-23217667D01*
X11319833Y-23417667D02*
X11329357Y-23408143D01*
X11348405Y-23379571D01*
X11357928Y-23360524D01*
X11367452Y-23331952D01*
X11376976Y-23284333D01*
X11376976Y-23246238D01*
X11367452Y-23198619D01*
X11357928Y-23170048D01*
X11348405Y-23151000D01*
X11329357Y-23122428D01*
X11319833Y-23112905D01*
X4376500Y-23541000D02*
G75*
G03*
X4376500Y-23541000I-100000J0D01*
G01*
X4615071Y-23431476D02*
X4738881Y-23431476D01*
X4672214Y-23507667D01*
X4700786Y-23507667D01*
X4719833Y-23517190D01*
X4729357Y-23526714D01*
X4738881Y-23545762D01*
X4738881Y-23593381D01*
X4729357Y-23612428D01*
X4719833Y-23621952D01*
X4700786Y-23631476D01*
X4643643Y-23631476D01*
X4624595Y-23621952D01*
X4615071Y-23612428D01*
X4824595Y-23612428D02*
X4834119Y-23621952D01*
X4824595Y-23631476D01*
X4815071Y-23621952D01*
X4824595Y-23612428D01*
X4824595Y-23631476D01*
X4957929Y-23431476D02*
X4976976Y-23431476D01*
X4996024Y-23441000D01*
X5005548Y-23450524D01*
X5015071Y-23469571D01*
X5024595Y-23507667D01*
X5024595Y-23555286D01*
X5015071Y-23593381D01*
X5005548Y-23612428D01*
X4996024Y-23621952D01*
X4976976Y-23631476D01*
X4957929Y-23631476D01*
X4938881Y-23621952D01*
X4929357Y-23612428D01*
X4919833Y-23593381D01*
X4910310Y-23555286D01*
X4910310Y-23507667D01*
X4919833Y-23469571D01*
X4929357Y-23450524D01*
X4938881Y-23441000D01*
X4957929Y-23431476D01*
X5205548Y-23431476D02*
X5110310Y-23431476D01*
X5100786Y-23526714D01*
X5110310Y-23517190D01*
X5129357Y-23507667D01*
X5176976Y-23507667D01*
X5196024Y-23517190D01*
X5205548Y-23526714D01*
X5215071Y-23545762D01*
X5215071Y-23593381D01*
X5205548Y-23612428D01*
X5196024Y-23621952D01*
X5176976Y-23631476D01*
X5129357Y-23631476D01*
X5110310Y-23621952D01*
X5100786Y-23612428D01*
X5338881Y-23431476D02*
X5357929Y-23431476D01*
X5376976Y-23441000D01*
X5386500Y-23450524D01*
X5396024Y-23469571D01*
X5405548Y-23507667D01*
X5405548Y-23555286D01*
X5396024Y-23593381D01*
X5386500Y-23612428D01*
X5376976Y-23621952D01*
X5357929Y-23631476D01*
X5338881Y-23631476D01*
X5319833Y-23621952D01*
X5310310Y-23612428D01*
X5300786Y-23593381D01*
X5291262Y-23555286D01*
X5291262Y-23507667D01*
X5300786Y-23469571D01*
X5310310Y-23450524D01*
X5319833Y-23441000D01*
X5338881Y-23431476D01*
X5491262Y-23631476D02*
X5491262Y-23498143D01*
X5491262Y-23517190D02*
X5500786Y-23507667D01*
X5519833Y-23498143D01*
X5548405Y-23498143D01*
X5567452Y-23507667D01*
X5576976Y-23526714D01*
X5576976Y-23631476D01*
X5576976Y-23526714D02*
X5586500Y-23507667D01*
X5605548Y-23498143D01*
X5634119Y-23498143D01*
X5653167Y-23507667D01*
X5662690Y-23526714D01*
X5662690Y-23631476D01*
X5757928Y-23631476D02*
X5757928Y-23498143D01*
X5757928Y-23517190D02*
X5767452Y-23507667D01*
X5786500Y-23498143D01*
X5815071Y-23498143D01*
X5834119Y-23507667D01*
X5843643Y-23526714D01*
X5843643Y-23631476D01*
X5843643Y-23526714D02*
X5853167Y-23507667D01*
X5872214Y-23498143D01*
X5900786Y-23498143D01*
X5919833Y-23507667D01*
X5929357Y-23526714D01*
X5929357Y-23631476D01*
X6319833Y-23421952D02*
X6148405Y-23679095D01*
X6576976Y-23431476D02*
X6596024Y-23431476D01*
X6615071Y-23441000D01*
X6624595Y-23450524D01*
X6634119Y-23469571D01*
X6643643Y-23507667D01*
X6643643Y-23555286D01*
X6634119Y-23593381D01*
X6624595Y-23612428D01*
X6615071Y-23621952D01*
X6596024Y-23631476D01*
X6576976Y-23631476D01*
X6557928Y-23621952D01*
X6548405Y-23612428D01*
X6538881Y-23593381D01*
X6529357Y-23555286D01*
X6529357Y-23507667D01*
X6538881Y-23469571D01*
X6548405Y-23450524D01*
X6557928Y-23441000D01*
X6576976Y-23431476D01*
X6729357Y-23612428D02*
X6738881Y-23621952D01*
X6729357Y-23631476D01*
X6719833Y-23621952D01*
X6729357Y-23612428D01*
X6729357Y-23631476D01*
X6929357Y-23631476D02*
X6815071Y-23631476D01*
X6872214Y-23631476D02*
X6872214Y-23431476D01*
X6853167Y-23460048D01*
X6834119Y-23479095D01*
X6815071Y-23488619D01*
X7005548Y-23450524D02*
X7015071Y-23441000D01*
X7034119Y-23431476D01*
X7081738Y-23431476D01*
X7100786Y-23441000D01*
X7110309Y-23450524D01*
X7119833Y-23469571D01*
X7119833Y-23488619D01*
X7110309Y-23517190D01*
X6996024Y-23631476D01*
X7119833Y-23631476D01*
X7243643Y-23431476D02*
X7262690Y-23431476D01*
X7281738Y-23441000D01*
X7291262Y-23450524D01*
X7300786Y-23469571D01*
X7310309Y-23507667D01*
X7310309Y-23555286D01*
X7300786Y-23593381D01*
X7291262Y-23612428D01*
X7281738Y-23621952D01*
X7262690Y-23631476D01*
X7243643Y-23631476D01*
X7224595Y-23621952D01*
X7215071Y-23612428D01*
X7205548Y-23593381D01*
X7196024Y-23555286D01*
X7196024Y-23507667D01*
X7205548Y-23469571D01*
X7215071Y-23450524D01*
X7224595Y-23441000D01*
X7243643Y-23431476D01*
X7500786Y-23631476D02*
X7386500Y-23631476D01*
X7443643Y-23631476D02*
X7443643Y-23431476D01*
X7424595Y-23460048D01*
X7405548Y-23479095D01*
X7386500Y-23488619D01*
X7576976Y-23431476D02*
X7576976Y-23469571D01*
X7653167Y-23431476D02*
X7653167Y-23469571D01*
X7948405Y-23707667D02*
X7938881Y-23698143D01*
X7919833Y-23669571D01*
X7910309Y-23650524D01*
X7900786Y-23621952D01*
X7891262Y-23574333D01*
X7891262Y-23536238D01*
X7900786Y-23488619D01*
X7910309Y-23460048D01*
X7919833Y-23441000D01*
X7938881Y-23412428D01*
X7948405Y-23402905D01*
X8053167Y-23517190D02*
X8034119Y-23507667D01*
X8024595Y-23498143D01*
X8015071Y-23479095D01*
X8015071Y-23469571D01*
X8024595Y-23450524D01*
X8034119Y-23441000D01*
X8053167Y-23431476D01*
X8091262Y-23431476D01*
X8110309Y-23441000D01*
X8119833Y-23450524D01*
X8129357Y-23469571D01*
X8129357Y-23479095D01*
X8119833Y-23498143D01*
X8110309Y-23507667D01*
X8091262Y-23517190D01*
X8053167Y-23517190D01*
X8034119Y-23526714D01*
X8024595Y-23536238D01*
X8015071Y-23555286D01*
X8015071Y-23593381D01*
X8024595Y-23612428D01*
X8034119Y-23621952D01*
X8053167Y-23631476D01*
X8091262Y-23631476D01*
X8110309Y-23621952D01*
X8119833Y-23612428D01*
X8129357Y-23593381D01*
X8129357Y-23555286D01*
X8119833Y-23536238D01*
X8110309Y-23526714D01*
X8091262Y-23517190D01*
X8367452Y-23631476D02*
X8367452Y-23431476D01*
X8453167Y-23631476D02*
X8453167Y-23526714D01*
X8443643Y-23507667D01*
X8424595Y-23498143D01*
X8396024Y-23498143D01*
X8376976Y-23507667D01*
X8367452Y-23517190D01*
X8576976Y-23631476D02*
X8557929Y-23621952D01*
X8548405Y-23612428D01*
X8538881Y-23593381D01*
X8538881Y-23536238D01*
X8548405Y-23517190D01*
X8557929Y-23507667D01*
X8576976Y-23498143D01*
X8605548Y-23498143D01*
X8624595Y-23507667D01*
X8634119Y-23517190D01*
X8643643Y-23536238D01*
X8643643Y-23593381D01*
X8634119Y-23612428D01*
X8624595Y-23621952D01*
X8605548Y-23631476D01*
X8576976Y-23631476D01*
X8757929Y-23631476D02*
X8738881Y-23621952D01*
X8729357Y-23602905D01*
X8729357Y-23431476D01*
X8910310Y-23621952D02*
X8891262Y-23631476D01*
X8853167Y-23631476D01*
X8834119Y-23621952D01*
X8824595Y-23602905D01*
X8824595Y-23526714D01*
X8834119Y-23507667D01*
X8853167Y-23498143D01*
X8891262Y-23498143D01*
X8910310Y-23507667D01*
X8919833Y-23526714D01*
X8919833Y-23545762D01*
X8824595Y-23564809D01*
X8996024Y-23621952D02*
X9015071Y-23631476D01*
X9053167Y-23631476D01*
X9072214Y-23621952D01*
X9081738Y-23602905D01*
X9081738Y-23593381D01*
X9072214Y-23574333D01*
X9053167Y-23564809D01*
X9024595Y-23564809D01*
X9005548Y-23555286D01*
X8996024Y-23536238D01*
X8996024Y-23526714D01*
X9005548Y-23507667D01*
X9024595Y-23498143D01*
X9053167Y-23498143D01*
X9072214Y-23507667D01*
X9148405Y-23707667D02*
X9157929Y-23698143D01*
X9176976Y-23669571D01*
X9186500Y-23650524D01*
X9196024Y-23621952D01*
X9205548Y-23574333D01*
X9205548Y-23536238D01*
X9196024Y-23488619D01*
X9186500Y-23460048D01*
X9176976Y-23441000D01*
X9157929Y-23412428D01*
X9148405Y-23402905D01*
X9510310Y-23707667D02*
X9500786Y-23698143D01*
X9481738Y-23669571D01*
X9472214Y-23650524D01*
X9462690Y-23621952D01*
X9453167Y-23574333D01*
X9453167Y-23536238D01*
X9462690Y-23488619D01*
X9472214Y-23460048D01*
X9481738Y-23441000D01*
X9500786Y-23412428D01*
X9510310Y-23402905D01*
X9586500Y-23498143D02*
X9586500Y-23631476D01*
X9586500Y-23517190D02*
X9596024Y-23507667D01*
X9615071Y-23498143D01*
X9643643Y-23498143D01*
X9662690Y-23507667D01*
X9672214Y-23526714D01*
X9672214Y-23631476D01*
X9796024Y-23631476D02*
X9776976Y-23621952D01*
X9767452Y-23612428D01*
X9757929Y-23593381D01*
X9757929Y-23536238D01*
X9767452Y-23517190D01*
X9776976Y-23507667D01*
X9796024Y-23498143D01*
X9824595Y-23498143D01*
X9843643Y-23507667D01*
X9853167Y-23517190D01*
X9862690Y-23536238D01*
X9862690Y-23593381D01*
X9853167Y-23612428D01*
X9843643Y-23621952D01*
X9824595Y-23631476D01*
X9796024Y-23631476D01*
X9919833Y-23498143D02*
X9996024Y-23498143D01*
X9948405Y-23431476D02*
X9948405Y-23602905D01*
X9957929Y-23621952D01*
X9976976Y-23631476D01*
X9996024Y-23631476D01*
X10215071Y-23498143D02*
X10215071Y-23698143D01*
X10215071Y-23507667D02*
X10234119Y-23498143D01*
X10272214Y-23498143D01*
X10291262Y-23507667D01*
X10300786Y-23517190D01*
X10310310Y-23536238D01*
X10310310Y-23593381D01*
X10300786Y-23612428D01*
X10291262Y-23621952D01*
X10272214Y-23631476D01*
X10234119Y-23631476D01*
X10215071Y-23621952D01*
X10424595Y-23631476D02*
X10405548Y-23621952D01*
X10396024Y-23602905D01*
X10396024Y-23431476D01*
X10586500Y-23631476D02*
X10586500Y-23526714D01*
X10576976Y-23507667D01*
X10557929Y-23498143D01*
X10519833Y-23498143D01*
X10500786Y-23507667D01*
X10586500Y-23621952D02*
X10567452Y-23631476D01*
X10519833Y-23631476D01*
X10500786Y-23621952D01*
X10491262Y-23602905D01*
X10491262Y-23583857D01*
X10500786Y-23564809D01*
X10519833Y-23555286D01*
X10567452Y-23555286D01*
X10586500Y-23545762D01*
X10653167Y-23498143D02*
X10729357Y-23498143D01*
X10681738Y-23431476D02*
X10681738Y-23602905D01*
X10691262Y-23621952D01*
X10710310Y-23631476D01*
X10729357Y-23631476D01*
X10872214Y-23621952D02*
X10853167Y-23631476D01*
X10815071Y-23631476D01*
X10796024Y-23621952D01*
X10786500Y-23602905D01*
X10786500Y-23526714D01*
X10796024Y-23507667D01*
X10815071Y-23498143D01*
X10853167Y-23498143D01*
X10872214Y-23507667D01*
X10881738Y-23526714D01*
X10881738Y-23545762D01*
X10786500Y-23564809D01*
X11053167Y-23631476D02*
X11053167Y-23431476D01*
X11053167Y-23621952D02*
X11034119Y-23631476D01*
X10996024Y-23631476D01*
X10976976Y-23621952D01*
X10967452Y-23612428D01*
X10957929Y-23593381D01*
X10957929Y-23536238D01*
X10967452Y-23517190D01*
X10976976Y-23507667D01*
X10996024Y-23498143D01*
X11034119Y-23498143D01*
X11053167Y-23507667D01*
X11129357Y-23707667D02*
X11138881Y-23698143D01*
X11157929Y-23669571D01*
X11167452Y-23650524D01*
X11176976Y-23621952D01*
X11186500Y-23574333D01*
X11186500Y-23536238D01*
X11176976Y-23488619D01*
X11167452Y-23460048D01*
X11157929Y-23441000D01*
X11138881Y-23412428D01*
X11129357Y-23402905D01*
X4276500Y-23761000D02*
X4276500Y-23961000D01*
X4176500Y-23861000D02*
X4376500Y-23861000D01*
X4719833Y-23818143D02*
X4719833Y-23951476D01*
X4672214Y-23741952D02*
X4624595Y-23884809D01*
X4748405Y-23884809D01*
X4824595Y-23932428D02*
X4834119Y-23941952D01*
X4824595Y-23951476D01*
X4815071Y-23941952D01*
X4824595Y-23932428D01*
X4824595Y-23951476D01*
X4957929Y-23751476D02*
X4976976Y-23751476D01*
X4996024Y-23761000D01*
X5005548Y-23770524D01*
X5015071Y-23789571D01*
X5024595Y-23827667D01*
X5024595Y-23875286D01*
X5015071Y-23913381D01*
X5005548Y-23932428D01*
X4996024Y-23941952D01*
X4976976Y-23951476D01*
X4957929Y-23951476D01*
X4938881Y-23941952D01*
X4929357Y-23932428D01*
X4919833Y-23913381D01*
X4910310Y-23875286D01*
X4910310Y-23827667D01*
X4919833Y-23789571D01*
X4929357Y-23770524D01*
X4938881Y-23761000D01*
X4957929Y-23751476D01*
X5148405Y-23751476D02*
X5167452Y-23751476D01*
X5186500Y-23761000D01*
X5196024Y-23770524D01*
X5205548Y-23789571D01*
X5215071Y-23827667D01*
X5215071Y-23875286D01*
X5205548Y-23913381D01*
X5196024Y-23932428D01*
X5186500Y-23941952D01*
X5167452Y-23951476D01*
X5148405Y-23951476D01*
X5129357Y-23941952D01*
X5119833Y-23932428D01*
X5110310Y-23913381D01*
X5100786Y-23875286D01*
X5100786Y-23827667D01*
X5110310Y-23789571D01*
X5119833Y-23770524D01*
X5129357Y-23761000D01*
X5148405Y-23751476D01*
X5338881Y-23751476D02*
X5357929Y-23751476D01*
X5376976Y-23761000D01*
X5386500Y-23770524D01*
X5396024Y-23789571D01*
X5405548Y-23827667D01*
X5405548Y-23875286D01*
X5396024Y-23913381D01*
X5386500Y-23932428D01*
X5376976Y-23941952D01*
X5357929Y-23951476D01*
X5338881Y-23951476D01*
X5319833Y-23941952D01*
X5310310Y-23932428D01*
X5300786Y-23913381D01*
X5291262Y-23875286D01*
X5291262Y-23827667D01*
X5300786Y-23789571D01*
X5310310Y-23770524D01*
X5319833Y-23761000D01*
X5338881Y-23751476D01*
X5491262Y-23951476D02*
X5491262Y-23818143D01*
X5491262Y-23837190D02*
X5500786Y-23827667D01*
X5519833Y-23818143D01*
X5548405Y-23818143D01*
X5567452Y-23827667D01*
X5576976Y-23846714D01*
X5576976Y-23951476D01*
X5576976Y-23846714D02*
X5586500Y-23827667D01*
X5605548Y-23818143D01*
X5634119Y-23818143D01*
X5653167Y-23827667D01*
X5662690Y-23846714D01*
X5662690Y-23951476D01*
X5757928Y-23951476D02*
X5757928Y-23818143D01*
X5757928Y-23837190D02*
X5767452Y-23827667D01*
X5786500Y-23818143D01*
X5815071Y-23818143D01*
X5834119Y-23827667D01*
X5843643Y-23846714D01*
X5843643Y-23951476D01*
X5843643Y-23846714D02*
X5853167Y-23827667D01*
X5872214Y-23818143D01*
X5900786Y-23818143D01*
X5919833Y-23827667D01*
X5929357Y-23846714D01*
X5929357Y-23951476D01*
X6319833Y-23741952D02*
X6148405Y-23999095D01*
X6576976Y-23751476D02*
X6596024Y-23751476D01*
X6615071Y-23761000D01*
X6624595Y-23770524D01*
X6634119Y-23789571D01*
X6643643Y-23827667D01*
X6643643Y-23875286D01*
X6634119Y-23913381D01*
X6624595Y-23932428D01*
X6615071Y-23941952D01*
X6596024Y-23951476D01*
X6576976Y-23951476D01*
X6557928Y-23941952D01*
X6548405Y-23932428D01*
X6538881Y-23913381D01*
X6529357Y-23875286D01*
X6529357Y-23827667D01*
X6538881Y-23789571D01*
X6548405Y-23770524D01*
X6557928Y-23761000D01*
X6576976Y-23751476D01*
X6729357Y-23932428D02*
X6738881Y-23941952D01*
X6729357Y-23951476D01*
X6719833Y-23941952D01*
X6729357Y-23932428D01*
X6729357Y-23951476D01*
X6929357Y-23951476D02*
X6815071Y-23951476D01*
X6872214Y-23951476D02*
X6872214Y-23751476D01*
X6853167Y-23780048D01*
X6834119Y-23799095D01*
X6815071Y-23808619D01*
X7110309Y-23751476D02*
X7015071Y-23751476D01*
X7005548Y-23846714D01*
X7015071Y-23837190D01*
X7034119Y-23827667D01*
X7081738Y-23827667D01*
X7100786Y-23837190D01*
X7110309Y-23846714D01*
X7119833Y-23865762D01*
X7119833Y-23913381D01*
X7110309Y-23932428D01*
X7100786Y-23941952D01*
X7081738Y-23951476D01*
X7034119Y-23951476D01*
X7015071Y-23941952D01*
X7005548Y-23932428D01*
X7186500Y-23751476D02*
X7319833Y-23751476D01*
X7234119Y-23951476D01*
X7491262Y-23751476D02*
X7396024Y-23751476D01*
X7386500Y-23846714D01*
X7396024Y-23837190D01*
X7415071Y-23827667D01*
X7462690Y-23827667D01*
X7481738Y-23837190D01*
X7491262Y-23846714D01*
X7500786Y-23865762D01*
X7500786Y-23913381D01*
X7491262Y-23932428D01*
X7481738Y-23941952D01*
X7462690Y-23951476D01*
X7415071Y-23951476D01*
X7396024Y-23941952D01*
X7386500Y-23932428D01*
X7576976Y-23751476D02*
X7576976Y-23789571D01*
X7653167Y-23751476D02*
X7653167Y-23789571D01*
X7948405Y-24027667D02*
X7938881Y-24018143D01*
X7919833Y-23989571D01*
X7910309Y-23970524D01*
X7900786Y-23941952D01*
X7891262Y-23894333D01*
X7891262Y-23856238D01*
X7900786Y-23808619D01*
X7910309Y-23780048D01*
X7919833Y-23761000D01*
X7938881Y-23732428D01*
X7948405Y-23722905D01*
X8119833Y-23751476D02*
X8024595Y-23751476D01*
X8015071Y-23846714D01*
X8024595Y-23837190D01*
X8043643Y-23827667D01*
X8091262Y-23827667D01*
X8110309Y-23837190D01*
X8119833Y-23846714D01*
X8129357Y-23865762D01*
X8129357Y-23913381D01*
X8119833Y-23932428D01*
X8110309Y-23941952D01*
X8091262Y-23951476D01*
X8043643Y-23951476D01*
X8024595Y-23941952D01*
X8015071Y-23932428D01*
X8196024Y-23751476D02*
X8329357Y-23751476D01*
X8243643Y-23951476D01*
X8557929Y-23951476D02*
X8557929Y-23751476D01*
X8643643Y-23951476D02*
X8643643Y-23846714D01*
X8634119Y-23827667D01*
X8615071Y-23818143D01*
X8586500Y-23818143D01*
X8567452Y-23827667D01*
X8557929Y-23837190D01*
X8767452Y-23951476D02*
X8748405Y-23941952D01*
X8738881Y-23932428D01*
X8729357Y-23913381D01*
X8729357Y-23856238D01*
X8738881Y-23837190D01*
X8748405Y-23827667D01*
X8767452Y-23818143D01*
X8796024Y-23818143D01*
X8815071Y-23827667D01*
X8824595Y-23837190D01*
X8834119Y-23856238D01*
X8834119Y-23913381D01*
X8824595Y-23932428D01*
X8815071Y-23941952D01*
X8796024Y-23951476D01*
X8767452Y-23951476D01*
X8948405Y-23951476D02*
X8929357Y-23941952D01*
X8919833Y-23922905D01*
X8919833Y-23751476D01*
X9100786Y-23941952D02*
X9081738Y-23951476D01*
X9043643Y-23951476D01*
X9024595Y-23941952D01*
X9015071Y-23922905D01*
X9015071Y-23846714D01*
X9024595Y-23827667D01*
X9043643Y-23818143D01*
X9081738Y-23818143D01*
X9100786Y-23827667D01*
X9110310Y-23846714D01*
X9110310Y-23865762D01*
X9015071Y-23884809D01*
X9186500Y-23941952D02*
X9205548Y-23951476D01*
X9243643Y-23951476D01*
X9262690Y-23941952D01*
X9272214Y-23922905D01*
X9272214Y-23913381D01*
X9262690Y-23894333D01*
X9243643Y-23884809D01*
X9215071Y-23884809D01*
X9196024Y-23875286D01*
X9186500Y-23856238D01*
X9186500Y-23846714D01*
X9196024Y-23827667D01*
X9215071Y-23818143D01*
X9243643Y-23818143D01*
X9262690Y-23827667D01*
X9338881Y-24027667D02*
X9348405Y-24018143D01*
X9367452Y-23989571D01*
X9376976Y-23970524D01*
X9386500Y-23941952D01*
X9396024Y-23894333D01*
X9396024Y-23856238D01*
X9386500Y-23808619D01*
X9376976Y-23780048D01*
X9367452Y-23761000D01*
X9348405Y-23732428D01*
X9338881Y-23722905D01*
X9700786Y-24027667D02*
X9691262Y-24018143D01*
X9672214Y-23989571D01*
X9662690Y-23970524D01*
X9653167Y-23941952D01*
X9643643Y-23894333D01*
X9643643Y-23856238D01*
X9653167Y-23808619D01*
X9662690Y-23780048D01*
X9672214Y-23761000D01*
X9691262Y-23732428D01*
X9700786Y-23722905D01*
X9776976Y-23818143D02*
X9776976Y-23951476D01*
X9776976Y-23837190D02*
X9786500Y-23827667D01*
X9805548Y-23818143D01*
X9834119Y-23818143D01*
X9853167Y-23827667D01*
X9862690Y-23846714D01*
X9862690Y-23951476D01*
X9986500Y-23951476D02*
X9967452Y-23941952D01*
X9957929Y-23932428D01*
X9948405Y-23913381D01*
X9948405Y-23856238D01*
X9957929Y-23837190D01*
X9967452Y-23827667D01*
X9986500Y-23818143D01*
X10015071Y-23818143D01*
X10034119Y-23827667D01*
X10043643Y-23837190D01*
X10053167Y-23856238D01*
X10053167Y-23913381D01*
X10043643Y-23932428D01*
X10034119Y-23941952D01*
X10015071Y-23951476D01*
X9986500Y-23951476D01*
X10110310Y-23818143D02*
X10186500Y-23818143D01*
X10138881Y-23751476D02*
X10138881Y-23922905D01*
X10148405Y-23941952D01*
X10167452Y-23951476D01*
X10186500Y-23951476D01*
X10405548Y-23818143D02*
X10405548Y-24018143D01*
X10405548Y-23827667D02*
X10424595Y-23818143D01*
X10462690Y-23818143D01*
X10481738Y-23827667D01*
X10491262Y-23837190D01*
X10500786Y-23856238D01*
X10500786Y-23913381D01*
X10491262Y-23932428D01*
X10481738Y-23941952D01*
X10462690Y-23951476D01*
X10424595Y-23951476D01*
X10405548Y-23941952D01*
X10615071Y-23951476D02*
X10596024Y-23941952D01*
X10586500Y-23922905D01*
X10586500Y-23751476D01*
X10776976Y-23951476D02*
X10776976Y-23846714D01*
X10767452Y-23827667D01*
X10748405Y-23818143D01*
X10710310Y-23818143D01*
X10691262Y-23827667D01*
X10776976Y-23941952D02*
X10757929Y-23951476D01*
X10710310Y-23951476D01*
X10691262Y-23941952D01*
X10681738Y-23922905D01*
X10681738Y-23903857D01*
X10691262Y-23884809D01*
X10710310Y-23875286D01*
X10757929Y-23875286D01*
X10776976Y-23865762D01*
X10843643Y-23818143D02*
X10919833Y-23818143D01*
X10872214Y-23751476D02*
X10872214Y-23922905D01*
X10881738Y-23941952D01*
X10900786Y-23951476D01*
X10919833Y-23951476D01*
X11062690Y-23941952D02*
X11043643Y-23951476D01*
X11005548Y-23951476D01*
X10986500Y-23941952D01*
X10976976Y-23922905D01*
X10976976Y-23846714D01*
X10986500Y-23827667D01*
X11005548Y-23818143D01*
X11043643Y-23818143D01*
X11062690Y-23827667D01*
X11072214Y-23846714D01*
X11072214Y-23865762D01*
X10976976Y-23884809D01*
X11243643Y-23951476D02*
X11243643Y-23751476D01*
X11243643Y-23941952D02*
X11224595Y-23951476D01*
X11186500Y-23951476D01*
X11167452Y-23941952D01*
X11157929Y-23932428D01*
X11148405Y-23913381D01*
X11148405Y-23856238D01*
X11157929Y-23837190D01*
X11167452Y-23827667D01*
X11186500Y-23818143D01*
X11224595Y-23818143D01*
X11243643Y-23827667D01*
X11319833Y-24027667D02*
X11329357Y-24018143D01*
X11348405Y-23989571D01*
X11357928Y-23970524D01*
X11367452Y-23941952D01*
X11376976Y-23894333D01*
X11376976Y-23856238D01*
X11367452Y-23808619D01*
X11357928Y-23780048D01*
X11348405Y-23761000D01*
X11329357Y-23732428D01*
X11319833Y-23722905D01*
M02*
