%TF.GenerationSoftware,KiCad,Pcbnew,(6.0.1)*%
%TF.CreationDate,2022-07-30T17:19:38+08:00*%
%TF.ProjectId,CrVisionMech,43725669-7369-46f6-9e4d-6563682e6b69,rev?*%
%TF.SameCoordinates,Original*%
%TF.FileFunction,Legend,Bot*%
%TF.FilePolarity,Positive*%
%FSLAX46Y46*%
G04 Gerber Fmt 4.6, Leading zero omitted, Abs format (unit mm)*
G04 Created by KiCad (PCBNEW (6.0.1)) date 2022-07-30 17:19:38*
%MOMM*%
%LPD*%
G01*
G04 APERTURE LIST*
%ADD10C,0.150000*%
%ADD11C,0.120000*%
%ADD12C,1.700000*%
%ADD13C,4.000000*%
%ADD14C,2.200000*%
%ADD15C,5.600000*%
%ADD16R,1.700000X1.700000*%
%ADD17O,1.700000X1.700000*%
%ADD18C,3.050000*%
%ADD19R,0.600000X0.700000*%
G04 APERTURE END LIST*
D10*
X122216389Y-136947380D02*
X122216389Y-135947380D01*
X121978294Y-135947380D01*
X121835437Y-135995000D01*
X121740199Y-136090238D01*
X121692580Y-136185476D01*
X121644961Y-136375952D01*
X121644961Y-136518809D01*
X121692580Y-136709285D01*
X121740199Y-136804523D01*
X121835437Y-136899761D01*
X121978294Y-136947380D01*
X122216389Y-136947380D01*
X121264008Y-136042619D02*
X121216389Y-135995000D01*
X121121151Y-135947380D01*
X120883056Y-135947380D01*
X120787818Y-135995000D01*
X120740199Y-136042619D01*
X120692580Y-136137857D01*
X120692580Y-136233095D01*
X120740199Y-136375952D01*
X121311627Y-136947380D01*
X120692580Y-136947380D01*
X120216389Y-136947380D02*
X120025913Y-136947380D01*
X119930675Y-136899761D01*
X119883056Y-136852142D01*
X119787818Y-136709285D01*
X119740199Y-136518809D01*
X119740199Y-136137857D01*
X119787818Y-136042619D01*
X119835437Y-135995000D01*
X119930675Y-135947380D01*
X120121151Y-135947380D01*
X120216389Y-135995000D01*
X120264008Y-136042619D01*
X120311627Y-136137857D01*
X120311627Y-136375952D01*
X120264008Y-136471190D01*
X120216389Y-136518809D01*
X120121151Y-136566428D01*
X119930675Y-136566428D01*
X119835437Y-136518809D01*
X119787818Y-136471190D01*
X119740199Y-136375952D01*
X285376785Y-197907380D02*
X285376785Y-196907380D01*
X285138690Y-196907380D01*
X284995833Y-196955000D01*
X284900595Y-197050238D01*
X284852976Y-197145476D01*
X284805357Y-197335952D01*
X284805357Y-197478809D01*
X284852976Y-197669285D01*
X284900595Y-197764523D01*
X284995833Y-197859761D01*
X285138690Y-197907380D01*
X285376785Y-197907380D01*
X283852976Y-197907380D02*
X284424404Y-197907380D01*
X284138690Y-197907380D02*
X284138690Y-196907380D01*
X284233928Y-197050238D01*
X284329166Y-197145476D01*
X284424404Y-197193095D01*
X282995833Y-197240714D02*
X282995833Y-197907380D01*
X283233928Y-196859761D02*
X283472023Y-197574047D01*
X282852976Y-197574047D01*
X90908095Y-176317380D02*
X90908095Y-175317380D01*
X90670000Y-175317380D01*
X90527142Y-175365000D01*
X90431904Y-175460238D01*
X90384285Y-175555476D01*
X90336666Y-175745952D01*
X90336666Y-175888809D01*
X90384285Y-176079285D01*
X90431904Y-176174523D01*
X90527142Y-176269761D01*
X90670000Y-176317380D01*
X90908095Y-176317380D01*
X89384285Y-176317380D02*
X89955714Y-176317380D01*
X89670000Y-176317380D02*
X89670000Y-175317380D01*
X89765238Y-175460238D01*
X89860476Y-175555476D01*
X89955714Y-175603095D01*
X226806381Y-176317380D02*
X226806381Y-175317380D01*
X226568286Y-175317380D01*
X226425429Y-175365000D01*
X226330191Y-175460238D01*
X226282572Y-175555476D01*
X226234953Y-175745952D01*
X226234953Y-175888809D01*
X226282572Y-176079285D01*
X226330191Y-176174523D01*
X226425429Y-176269761D01*
X226568286Y-176317380D01*
X226806381Y-176317380D01*
X225330191Y-175317380D02*
X225806381Y-175317380D01*
X225854000Y-175793571D01*
X225806381Y-175745952D01*
X225711143Y-175698333D01*
X225473048Y-175698333D01*
X225377810Y-175745952D01*
X225330191Y-175793571D01*
X225282572Y-175888809D01*
X225282572Y-176126904D01*
X225330191Y-176222142D01*
X225377810Y-176269761D01*
X225473048Y-176317380D01*
X225711143Y-176317380D01*
X225806381Y-176269761D01*
X225854000Y-176222142D01*
X224663524Y-175317380D02*
X224568286Y-175317380D01*
X224473048Y-175365000D01*
X224425429Y-175412619D01*
X224377810Y-175507857D01*
X224330191Y-175698333D01*
X224330191Y-175936428D01*
X224377810Y-176126904D01*
X224425429Y-176222142D01*
X224473048Y-176269761D01*
X224568286Y-176317380D01*
X224663524Y-176317380D01*
X224758762Y-176269761D01*
X224806381Y-176222142D01*
X224854000Y-176126904D01*
X224901619Y-175936428D01*
X224901619Y-175698333D01*
X224854000Y-175507857D01*
X224806381Y-175412619D01*
X224758762Y-175365000D01*
X224663524Y-175317380D01*
X199033499Y-156632380D02*
X199033499Y-155632380D01*
X198795404Y-155632380D01*
X198652547Y-155680000D01*
X198557309Y-155775238D01*
X198509690Y-155870476D01*
X198462071Y-156060952D01*
X198462071Y-156203809D01*
X198509690Y-156394285D01*
X198557309Y-156489523D01*
X198652547Y-156584761D01*
X198795404Y-156632380D01*
X199033499Y-156632380D01*
X198081118Y-155727619D02*
X198033499Y-155680000D01*
X197938261Y-155632380D01*
X197700166Y-155632380D01*
X197604928Y-155680000D01*
X197557309Y-155727619D01*
X197509690Y-155822857D01*
X197509690Y-155918095D01*
X197557309Y-156060952D01*
X198128737Y-156632380D01*
X197509690Y-156632380D01*
X196652547Y-155965714D02*
X196652547Y-156632380D01*
X196890642Y-155584761D02*
X197128737Y-156299047D01*
X196509690Y-156299047D01*
X202104805Y-136947380D02*
X202104805Y-135947380D01*
X201866710Y-135947380D01*
X201723853Y-135995000D01*
X201628615Y-136090238D01*
X201580996Y-136185476D01*
X201533377Y-136375952D01*
X201533377Y-136518809D01*
X201580996Y-136709285D01*
X201628615Y-136804523D01*
X201723853Y-136899761D01*
X201866710Y-136947380D01*
X202104805Y-136947380D01*
X201200043Y-135947380D02*
X200533377Y-135947380D01*
X200961948Y-136947380D01*
X200247662Y-135947380D02*
X199628615Y-135947380D01*
X199961948Y-136328333D01*
X199819091Y-136328333D01*
X199723853Y-136375952D01*
X199676234Y-136423571D01*
X199628615Y-136518809D01*
X199628615Y-136756904D01*
X199676234Y-136852142D01*
X199723853Y-136899761D01*
X199819091Y-136947380D01*
X200104805Y-136947380D01*
X200200043Y-136899761D01*
X200247662Y-136852142D01*
X158972463Y-115357380D02*
X158972463Y-114357380D01*
X158734368Y-114357380D01*
X158591511Y-114405000D01*
X158496273Y-114500238D01*
X158448654Y-114595476D01*
X158401035Y-114785952D01*
X158401035Y-114928809D01*
X158448654Y-115119285D01*
X158496273Y-115214523D01*
X158591511Y-115309761D01*
X158734368Y-115357380D01*
X158972463Y-115357380D01*
X157543892Y-114690714D02*
X157543892Y-115357380D01*
X157781987Y-114309761D02*
X158020082Y-115024047D01*
X157401035Y-115024047D01*
X157115320Y-114357380D02*
X156496273Y-114357380D01*
X156829606Y-114738333D01*
X156686749Y-114738333D01*
X156591511Y-114785952D01*
X156543892Y-114833571D01*
X156496273Y-114928809D01*
X156496273Y-115166904D01*
X156543892Y-115262142D01*
X156591511Y-115309761D01*
X156686749Y-115357380D01*
X156972463Y-115357380D01*
X157067701Y-115309761D01*
X157115320Y-115262142D01*
X159462975Y-156632380D02*
X159462975Y-155632380D01*
X159224880Y-155632380D01*
X159082023Y-155680000D01*
X158986785Y-155775238D01*
X158939166Y-155870476D01*
X158891547Y-156060952D01*
X158891547Y-156203809D01*
X158939166Y-156394285D01*
X158986785Y-156489523D01*
X159082023Y-156584761D01*
X159224880Y-156632380D01*
X159462975Y-156632380D01*
X158510594Y-155727619D02*
X158462975Y-155680000D01*
X158367737Y-155632380D01*
X158129642Y-155632380D01*
X158034404Y-155680000D01*
X157986785Y-155727619D01*
X157939166Y-155822857D01*
X157939166Y-155918095D01*
X157986785Y-156060952D01*
X158558213Y-156632380D01*
X157939166Y-156632380D01*
X157320118Y-155632380D02*
X157224880Y-155632380D01*
X157129642Y-155680000D01*
X157082023Y-155727619D01*
X157034404Y-155822857D01*
X156986785Y-156013333D01*
X156986785Y-156251428D01*
X157034404Y-156441904D01*
X157082023Y-156537142D01*
X157129642Y-156584761D01*
X157224880Y-156632380D01*
X157320118Y-156632380D01*
X157415356Y-156584761D01*
X157462975Y-156537142D01*
X157510594Y-156441904D01*
X157558213Y-156251428D01*
X157558213Y-156013333D01*
X157510594Y-155822857D01*
X157462975Y-155727619D01*
X157415356Y-155680000D01*
X157320118Y-155632380D01*
X297959820Y-156632380D02*
X297959820Y-155632380D01*
X297721725Y-155632380D01*
X297578868Y-155680000D01*
X297483630Y-155775238D01*
X297436011Y-155870476D01*
X297388392Y-156060952D01*
X297388392Y-156203809D01*
X297436011Y-156394285D01*
X297483630Y-156489523D01*
X297578868Y-156584761D01*
X297721725Y-156632380D01*
X297959820Y-156632380D01*
X296531249Y-155632380D02*
X296721725Y-155632380D01*
X296816963Y-155680000D01*
X296864582Y-155727619D01*
X296959820Y-155870476D01*
X297007439Y-156060952D01*
X297007439Y-156441904D01*
X296959820Y-156537142D01*
X296912201Y-156584761D01*
X296816963Y-156632380D01*
X296626487Y-156632380D01*
X296531249Y-156584761D01*
X296483630Y-156537142D01*
X296436011Y-156441904D01*
X296436011Y-156203809D01*
X296483630Y-156108571D01*
X296531249Y-156060952D01*
X296626487Y-156013333D01*
X296816963Y-156013333D01*
X296912201Y-156060952D01*
X296959820Y-156108571D01*
X297007439Y-156203809D01*
X295959820Y-156632380D02*
X295769344Y-156632380D01*
X295674106Y-156584761D01*
X295626487Y-156537142D01*
X295531249Y-156394285D01*
X295483630Y-156203809D01*
X295483630Y-155822857D01*
X295531249Y-155727619D01*
X295578868Y-155680000D01*
X295674106Y-155632380D01*
X295864582Y-155632380D01*
X295959820Y-155680000D01*
X296007439Y-155727619D01*
X296055058Y-155822857D01*
X296055058Y-156060952D01*
X296007439Y-156156190D01*
X295959820Y-156203809D01*
X295864582Y-156251428D01*
X295674106Y-156251428D01*
X295578868Y-156203809D01*
X295531249Y-156156190D01*
X295483630Y-156060952D01*
X256985589Y-176317380D02*
X256985589Y-175317380D01*
X256747494Y-175317380D01*
X256604637Y-175365000D01*
X256509399Y-175460238D01*
X256461780Y-175555476D01*
X256414161Y-175745952D01*
X256414161Y-175888809D01*
X256461780Y-176079285D01*
X256509399Y-176174523D01*
X256604637Y-176269761D01*
X256747494Y-176317380D01*
X256985589Y-176317380D01*
X255509399Y-175317380D02*
X255985589Y-175317380D01*
X256033208Y-175793571D01*
X255985589Y-175745952D01*
X255890351Y-175698333D01*
X255652256Y-175698333D01*
X255557018Y-175745952D01*
X255509399Y-175793571D01*
X255461780Y-175888809D01*
X255461780Y-176126904D01*
X255509399Y-176222142D01*
X255557018Y-176269761D01*
X255652256Y-176317380D01*
X255890351Y-176317380D01*
X255985589Y-176269761D01*
X256033208Y-176222142D01*
X254604637Y-175650714D02*
X254604637Y-176317380D01*
X254842732Y-175269761D02*
X255080827Y-175984047D01*
X254461780Y-175984047D01*
X307284285Y-176317380D02*
X307284285Y-175317380D01*
X307046190Y-175317380D01*
X306903333Y-175365000D01*
X306808095Y-175460238D01*
X306760476Y-175555476D01*
X306712857Y-175745952D01*
X306712857Y-175888809D01*
X306760476Y-176079285D01*
X306808095Y-176174523D01*
X306903333Y-176269761D01*
X307046190Y-176317380D01*
X307284285Y-176317380D01*
X305808095Y-175317380D02*
X306284285Y-175317380D01*
X306331904Y-175793571D01*
X306284285Y-175745952D01*
X306189047Y-175698333D01*
X305950952Y-175698333D01*
X305855714Y-175745952D01*
X305808095Y-175793571D01*
X305760476Y-175888809D01*
X305760476Y-176126904D01*
X305808095Y-176222142D01*
X305855714Y-176269761D01*
X305950952Y-176317380D01*
X306189047Y-176317380D01*
X306284285Y-176269761D01*
X306331904Y-176222142D01*
X305427142Y-175317380D02*
X304760476Y-175317380D01*
X305189047Y-176317380D01*
X288067178Y-156632380D02*
X288067178Y-155632380D01*
X287829083Y-155632380D01*
X287686226Y-155680000D01*
X287590988Y-155775238D01*
X287543369Y-155870476D01*
X287495750Y-156060952D01*
X287495750Y-156203809D01*
X287543369Y-156394285D01*
X287590988Y-156489523D01*
X287686226Y-156584761D01*
X287829083Y-156632380D01*
X288067178Y-156632380D01*
X286638607Y-155632380D02*
X286829083Y-155632380D01*
X286924321Y-155680000D01*
X286971940Y-155727619D01*
X287067178Y-155870476D01*
X287114797Y-156060952D01*
X287114797Y-156441904D01*
X287067178Y-156537142D01*
X287019559Y-156584761D01*
X286924321Y-156632380D01*
X286733845Y-156632380D01*
X286638607Y-156584761D01*
X286590988Y-156537142D01*
X286543369Y-156441904D01*
X286543369Y-156203809D01*
X286590988Y-156108571D01*
X286638607Y-156060952D01*
X286733845Y-156013333D01*
X286924321Y-156013333D01*
X287019559Y-156060952D01*
X287067178Y-156108571D01*
X287114797Y-156203809D01*
X285971940Y-156060952D02*
X286067178Y-156013333D01*
X286114797Y-155965714D01*
X286162416Y-155870476D01*
X286162416Y-155822857D01*
X286114797Y-155727619D01*
X286067178Y-155680000D01*
X285971940Y-155632380D01*
X285781464Y-155632380D01*
X285686226Y-155680000D01*
X285638607Y-155727619D01*
X285590988Y-155822857D01*
X285590988Y-155870476D01*
X285638607Y-155965714D01*
X285686226Y-156013333D01*
X285781464Y-156060952D01*
X285971940Y-156060952D01*
X286067178Y-156108571D01*
X286114797Y-156156190D01*
X286162416Y-156251428D01*
X286162416Y-156441904D01*
X286114797Y-156537142D01*
X286067178Y-156584761D01*
X285971940Y-156632380D01*
X285781464Y-156632380D01*
X285686226Y-156584761D01*
X285638607Y-156537142D01*
X285590988Y-156441904D01*
X285590988Y-156251428D01*
X285638607Y-156156190D01*
X285686226Y-156108571D01*
X285781464Y-156060952D01*
X236866117Y-176317380D02*
X236866117Y-175317380D01*
X236628022Y-175317380D01*
X236485165Y-175365000D01*
X236389927Y-175460238D01*
X236342308Y-175555476D01*
X236294689Y-175745952D01*
X236294689Y-175888809D01*
X236342308Y-176079285D01*
X236389927Y-176174523D01*
X236485165Y-176269761D01*
X236628022Y-176317380D01*
X236866117Y-176317380D01*
X235913736Y-175412619D02*
X235866117Y-175365000D01*
X235770879Y-175317380D01*
X235532784Y-175317380D01*
X235437546Y-175365000D01*
X235389927Y-175412619D01*
X235342308Y-175507857D01*
X235342308Y-175603095D01*
X235389927Y-175745952D01*
X235961355Y-176317380D01*
X235342308Y-176317380D01*
X234485165Y-175317380D02*
X234675641Y-175317380D01*
X234770879Y-175365000D01*
X234818498Y-175412619D01*
X234913736Y-175555476D01*
X234961355Y-175745952D01*
X234961355Y-176126904D01*
X234913736Y-176222142D01*
X234866117Y-176269761D01*
X234770879Y-176317380D01*
X234580403Y-176317380D01*
X234485165Y-176269761D01*
X234437546Y-176222142D01*
X234389927Y-176126904D01*
X234389927Y-175888809D01*
X234437546Y-175793571D01*
X234485165Y-175745952D01*
X234580403Y-175698333D01*
X234770879Y-175698333D01*
X234866117Y-175745952D01*
X234913736Y-175793571D01*
X234961355Y-175888809D01*
X186567437Y-176317380D02*
X186567437Y-175317380D01*
X186329342Y-175317380D01*
X186186485Y-175365000D01*
X186091247Y-175460238D01*
X186043628Y-175555476D01*
X185996009Y-175745952D01*
X185996009Y-175888809D01*
X186043628Y-176079285D01*
X186091247Y-176174523D01*
X186186485Y-176269761D01*
X186329342Y-176317380D01*
X186567437Y-176317380D01*
X185043628Y-176317380D02*
X185615056Y-176317380D01*
X185329342Y-176317380D02*
X185329342Y-175317380D01*
X185424580Y-175460238D01*
X185519818Y-175555476D01*
X185615056Y-175603095D01*
X184424580Y-175317380D02*
X184329342Y-175317380D01*
X184234104Y-175365000D01*
X184186485Y-175412619D01*
X184138866Y-175507857D01*
X184091247Y-175698333D01*
X184091247Y-175936428D01*
X184138866Y-176126904D01*
X184186485Y-176222142D01*
X184234104Y-176269761D01*
X184329342Y-176317380D01*
X184424580Y-176317380D01*
X184519818Y-176269761D01*
X184567437Y-176222142D01*
X184615056Y-176126904D01*
X184662675Y-175936428D01*
X184662675Y-175698333D01*
X184615056Y-175507857D01*
X184567437Y-175412619D01*
X184519818Y-175365000D01*
X184424580Y-175317380D01*
X278709285Y-197907380D02*
X278709285Y-196907380D01*
X278471190Y-196907380D01*
X278328333Y-196955000D01*
X278233095Y-197050238D01*
X278185476Y-197145476D01*
X278137857Y-197335952D01*
X278137857Y-197478809D01*
X278185476Y-197669285D01*
X278233095Y-197764523D01*
X278328333Y-197859761D01*
X278471190Y-197907380D01*
X278709285Y-197907380D01*
X277185476Y-197907380D02*
X277756904Y-197907380D01*
X277471190Y-197907380D02*
X277471190Y-196907380D01*
X277566428Y-197050238D01*
X277661666Y-197145476D01*
X277756904Y-197193095D01*
X276852142Y-196907380D02*
X276233095Y-196907380D01*
X276566428Y-197288333D01*
X276423571Y-197288333D01*
X276328333Y-197335952D01*
X276280714Y-197383571D01*
X276233095Y-197478809D01*
X276233095Y-197716904D01*
X276280714Y-197812142D01*
X276328333Y-197859761D01*
X276423571Y-197907380D01*
X276709285Y-197907380D01*
X276804523Y-197859761D01*
X276852142Y-197812142D01*
X97164285Y-115357380D02*
X97164285Y-114357380D01*
X96926190Y-114357380D01*
X96783333Y-114405000D01*
X96688095Y-114500238D01*
X96640476Y-114595476D01*
X96592857Y-114785952D01*
X96592857Y-114928809D01*
X96640476Y-115119285D01*
X96688095Y-115214523D01*
X96783333Y-115309761D01*
X96926190Y-115357380D01*
X97164285Y-115357380D01*
X96259523Y-114357380D02*
X95640476Y-114357380D01*
X95973809Y-114738333D01*
X95830952Y-114738333D01*
X95735714Y-114785952D01*
X95688095Y-114833571D01*
X95640476Y-114928809D01*
X95640476Y-115166904D01*
X95688095Y-115262142D01*
X95735714Y-115309761D01*
X95830952Y-115357380D01*
X96116666Y-115357380D01*
X96211904Y-115309761D01*
X96259523Y-115262142D01*
X95307142Y-114357380D02*
X94640476Y-114357380D01*
X95069047Y-115357380D01*
X115673095Y-176317380D02*
X115673095Y-175317380D01*
X115435000Y-175317380D01*
X115292142Y-175365000D01*
X115196904Y-175460238D01*
X115149285Y-175555476D01*
X115101666Y-175745952D01*
X115101666Y-175888809D01*
X115149285Y-176079285D01*
X115196904Y-176174523D01*
X115292142Y-176269761D01*
X115435000Y-176317380D01*
X115673095Y-176317380D01*
X114244523Y-175650714D02*
X114244523Y-176317380D01*
X114482619Y-175269761D02*
X114720714Y-175984047D01*
X114101666Y-175984047D01*
X319349285Y-156632380D02*
X319349285Y-155632380D01*
X319111190Y-155632380D01*
X318968333Y-155680000D01*
X318873095Y-155775238D01*
X318825476Y-155870476D01*
X318777857Y-156060952D01*
X318777857Y-156203809D01*
X318825476Y-156394285D01*
X318873095Y-156489523D01*
X318968333Y-156584761D01*
X319111190Y-156632380D01*
X319349285Y-156632380D01*
X318444523Y-155632380D02*
X317777857Y-155632380D01*
X318206428Y-156632380D01*
X317254047Y-156060952D02*
X317349285Y-156013333D01*
X317396904Y-155965714D01*
X317444523Y-155870476D01*
X317444523Y-155822857D01*
X317396904Y-155727619D01*
X317349285Y-155680000D01*
X317254047Y-155632380D01*
X317063571Y-155632380D01*
X316968333Y-155680000D01*
X316920714Y-155727619D01*
X316873095Y-155822857D01*
X316873095Y-155870476D01*
X316920714Y-155965714D01*
X316968333Y-156013333D01*
X317063571Y-156060952D01*
X317254047Y-156060952D01*
X317349285Y-156108571D01*
X317396904Y-156156190D01*
X317444523Y-156251428D01*
X317444523Y-156441904D01*
X317396904Y-156537142D01*
X317349285Y-156584761D01*
X317254047Y-156632380D01*
X317063571Y-156632380D01*
X316968333Y-156584761D01*
X316920714Y-156537142D01*
X316873095Y-156441904D01*
X316873095Y-156251428D01*
X316920714Y-156156190D01*
X316968333Y-156108571D01*
X317063571Y-156060952D01*
X128068374Y-115357380D02*
X128068374Y-114357380D01*
X127830279Y-114357380D01*
X127687422Y-114405000D01*
X127592184Y-114500238D01*
X127544565Y-114595476D01*
X127496946Y-114785952D01*
X127496946Y-114928809D01*
X127544565Y-115119285D01*
X127592184Y-115214523D01*
X127687422Y-115309761D01*
X127830279Y-115357380D01*
X128068374Y-115357380D01*
X126639803Y-114690714D02*
X126639803Y-115357380D01*
X126877898Y-114309761D02*
X127115993Y-115024047D01*
X126496946Y-115024047D01*
X125925517Y-114357380D02*
X125830279Y-114357380D01*
X125735041Y-114405000D01*
X125687422Y-114452619D01*
X125639803Y-114547857D01*
X125592184Y-114738333D01*
X125592184Y-114976428D01*
X125639803Y-115166904D01*
X125687422Y-115262142D01*
X125735041Y-115309761D01*
X125830279Y-115357380D01*
X125925517Y-115357380D01*
X126020755Y-115309761D01*
X126068374Y-115262142D01*
X126115993Y-115166904D01*
X126163612Y-114976428D01*
X126163612Y-114738333D01*
X126115993Y-114547857D01*
X126068374Y-114452619D01*
X126020755Y-114405000D01*
X125925517Y-114357380D01*
X169355606Y-156632380D02*
X169355606Y-155632380D01*
X169117511Y-155632380D01*
X168974654Y-155680000D01*
X168879416Y-155775238D01*
X168831797Y-155870476D01*
X168784178Y-156060952D01*
X168784178Y-156203809D01*
X168831797Y-156394285D01*
X168879416Y-156489523D01*
X168974654Y-156584761D01*
X169117511Y-156632380D01*
X169355606Y-156632380D01*
X168403225Y-155727619D02*
X168355606Y-155680000D01*
X168260368Y-155632380D01*
X168022273Y-155632380D01*
X167927035Y-155680000D01*
X167879416Y-155727619D01*
X167831797Y-155822857D01*
X167831797Y-155918095D01*
X167879416Y-156060952D01*
X168450844Y-156632380D01*
X167831797Y-156632380D01*
X166879416Y-156632380D02*
X167450844Y-156632380D01*
X167165130Y-156632380D02*
X167165130Y-155632380D01*
X167260368Y-155775238D01*
X167355606Y-155870476D01*
X167450844Y-155918095D01*
X303191545Y-115357380D02*
X303191545Y-114357380D01*
X302953450Y-114357380D01*
X302810593Y-114405000D01*
X302715355Y-114500238D01*
X302667736Y-114595476D01*
X302620117Y-114785952D01*
X302620117Y-114928809D01*
X302667736Y-115119285D01*
X302715355Y-115214523D01*
X302810593Y-115309761D01*
X302953450Y-115357380D01*
X303191545Y-115357380D01*
X302143926Y-115357380D02*
X301953450Y-115357380D01*
X301858212Y-115309761D01*
X301810593Y-115262142D01*
X301715355Y-115119285D01*
X301667736Y-114928809D01*
X301667736Y-114547857D01*
X301715355Y-114452619D01*
X301762974Y-114405000D01*
X301858212Y-114357380D01*
X302048688Y-114357380D01*
X302143926Y-114405000D01*
X302191545Y-114452619D01*
X302239164Y-114547857D01*
X302239164Y-114785952D01*
X302191545Y-114881190D01*
X302143926Y-114928809D01*
X302048688Y-114976428D01*
X301858212Y-114976428D01*
X301762974Y-114928809D01*
X301715355Y-114881190D01*
X301667736Y-114785952D01*
X301048688Y-114357380D02*
X300953450Y-114357380D01*
X300858212Y-114405000D01*
X300810593Y-114452619D01*
X300762974Y-114547857D01*
X300715355Y-114738333D01*
X300715355Y-114976428D01*
X300762974Y-115166904D01*
X300810593Y-115262142D01*
X300858212Y-115309761D01*
X300953450Y-115357380D01*
X301048688Y-115357380D01*
X301143926Y-115309761D01*
X301191545Y-115262142D01*
X301239164Y-115166904D01*
X301286783Y-114976428D01*
X301286783Y-114738333D01*
X301239164Y-114547857D01*
X301191545Y-114452619D01*
X301143926Y-114405000D01*
X301048688Y-114357380D01*
X212090857Y-136947380D02*
X212090857Y-135947380D01*
X211852762Y-135947380D01*
X211709905Y-135995000D01*
X211614667Y-136090238D01*
X211567048Y-136185476D01*
X211519429Y-136375952D01*
X211519429Y-136518809D01*
X211567048Y-136709285D01*
X211614667Y-136804523D01*
X211709905Y-136899761D01*
X211852762Y-136947380D01*
X212090857Y-136947380D01*
X211186095Y-135947380D02*
X210519429Y-135947380D01*
X210948000Y-136947380D01*
X210186095Y-136042619D02*
X210138476Y-135995000D01*
X210043238Y-135947380D01*
X209805143Y-135947380D01*
X209709905Y-135995000D01*
X209662286Y-136042619D01*
X209614667Y-136137857D01*
X209614667Y-136233095D01*
X209662286Y-136375952D01*
X210233714Y-136947380D01*
X209614667Y-136947380D01*
X200177915Y-115357380D02*
X200177915Y-114357380D01*
X199939820Y-114357380D01*
X199796963Y-114405000D01*
X199701725Y-114500238D01*
X199654106Y-114595476D01*
X199606487Y-114785952D01*
X199606487Y-114928809D01*
X199654106Y-115119285D01*
X199701725Y-115214523D01*
X199796963Y-115309761D01*
X199939820Y-115357380D01*
X200177915Y-115357380D01*
X198749344Y-114690714D02*
X198749344Y-115357380D01*
X198987439Y-114309761D02*
X199225534Y-115024047D01*
X198606487Y-115024047D01*
X198320772Y-114357380D02*
X197654106Y-114357380D01*
X198082677Y-115357380D01*
X172146649Y-136947380D02*
X172146649Y-135947380D01*
X171908554Y-135947380D01*
X171765697Y-135995000D01*
X171670459Y-136090238D01*
X171622840Y-136185476D01*
X171575221Y-136375952D01*
X171575221Y-136518809D01*
X171622840Y-136709285D01*
X171670459Y-136804523D01*
X171765697Y-136899761D01*
X171908554Y-136947380D01*
X172146649Y-136947380D01*
X171241887Y-135947380D02*
X170622840Y-135947380D01*
X170956173Y-136328333D01*
X170813316Y-136328333D01*
X170718078Y-136375952D01*
X170670459Y-136423571D01*
X170622840Y-136518809D01*
X170622840Y-136756904D01*
X170670459Y-136852142D01*
X170718078Y-136899761D01*
X170813316Y-136947380D01*
X171099030Y-136947380D01*
X171194268Y-136899761D01*
X171241887Y-136852142D01*
X169765697Y-136280714D02*
X169765697Y-136947380D01*
X170003792Y-135899761D02*
X170241887Y-136614047D01*
X169622840Y-136614047D01*
X258389285Y-156632380D02*
X258389285Y-155632380D01*
X258151190Y-155632380D01*
X258008333Y-155680000D01*
X257913095Y-155775238D01*
X257865476Y-155870476D01*
X257817857Y-156060952D01*
X257817857Y-156203809D01*
X257865476Y-156394285D01*
X257913095Y-156489523D01*
X258008333Y-156584761D01*
X258151190Y-156632380D01*
X258389285Y-156632380D01*
X256960714Y-155632380D02*
X257151190Y-155632380D01*
X257246428Y-155680000D01*
X257294047Y-155727619D01*
X257389285Y-155870476D01*
X257436904Y-156060952D01*
X257436904Y-156441904D01*
X257389285Y-156537142D01*
X257341666Y-156584761D01*
X257246428Y-156632380D01*
X257055952Y-156632380D01*
X256960714Y-156584761D01*
X256913095Y-156537142D01*
X256865476Y-156441904D01*
X256865476Y-156203809D01*
X256913095Y-156108571D01*
X256960714Y-156060952D01*
X257055952Y-156013333D01*
X257246428Y-156013333D01*
X257341666Y-156060952D01*
X257389285Y-156108571D01*
X257436904Y-156203809D01*
X256008333Y-155632380D02*
X256198809Y-155632380D01*
X256294047Y-155680000D01*
X256341666Y-155727619D01*
X256436904Y-155870476D01*
X256484523Y-156060952D01*
X256484523Y-156441904D01*
X256436904Y-156537142D01*
X256389285Y-156584761D01*
X256294047Y-156632380D01*
X256103571Y-156632380D01*
X256008333Y-156584761D01*
X255960714Y-156537142D01*
X255913095Y-156441904D01*
X255913095Y-156203809D01*
X255960714Y-156108571D01*
X256008333Y-156060952D01*
X256103571Y-156013333D01*
X256294047Y-156013333D01*
X256389285Y-156060952D01*
X256436904Y-156108571D01*
X256484523Y-156203809D01*
X251684730Y-115357380D02*
X251684730Y-114357380D01*
X251446635Y-114357380D01*
X251303778Y-114405000D01*
X251208540Y-114500238D01*
X251160921Y-114595476D01*
X251113302Y-114785952D01*
X251113302Y-114928809D01*
X251160921Y-115119285D01*
X251208540Y-115214523D01*
X251303778Y-115309761D01*
X251446635Y-115357380D01*
X251684730Y-115357380D01*
X250541873Y-114785952D02*
X250637111Y-114738333D01*
X250684730Y-114690714D01*
X250732349Y-114595476D01*
X250732349Y-114547857D01*
X250684730Y-114452619D01*
X250637111Y-114405000D01*
X250541873Y-114357380D01*
X250351397Y-114357380D01*
X250256159Y-114405000D01*
X250208540Y-114452619D01*
X250160921Y-114547857D01*
X250160921Y-114595476D01*
X250208540Y-114690714D01*
X250256159Y-114738333D01*
X250351397Y-114785952D01*
X250541873Y-114785952D01*
X250637111Y-114833571D01*
X250684730Y-114881190D01*
X250732349Y-114976428D01*
X250732349Y-115166904D01*
X250684730Y-115262142D01*
X250637111Y-115309761D01*
X250541873Y-115357380D01*
X250351397Y-115357380D01*
X250256159Y-115309761D01*
X250208540Y-115262142D01*
X250160921Y-115166904D01*
X250160921Y-114976428D01*
X250208540Y-114881190D01*
X250256159Y-114833571D01*
X250351397Y-114785952D01*
X249779968Y-114452619D02*
X249732349Y-114405000D01*
X249637111Y-114357380D01*
X249399016Y-114357380D01*
X249303778Y-114405000D01*
X249256159Y-114452619D01*
X249208540Y-114547857D01*
X249208540Y-114643095D01*
X249256159Y-114785952D01*
X249827587Y-115357380D01*
X249208540Y-115357380D01*
X262021117Y-136947380D02*
X262021117Y-135947380D01*
X261783022Y-135947380D01*
X261640165Y-135995000D01*
X261544927Y-136090238D01*
X261497308Y-136185476D01*
X261449689Y-136375952D01*
X261449689Y-136518809D01*
X261497308Y-136709285D01*
X261544927Y-136804523D01*
X261640165Y-136899761D01*
X261783022Y-136947380D01*
X262021117Y-136947380D01*
X261116355Y-135947380D02*
X260449689Y-135947380D01*
X260878260Y-136947380D01*
X259592546Y-135947380D02*
X260068736Y-135947380D01*
X260116355Y-136423571D01*
X260068736Y-136375952D01*
X259973498Y-136328333D01*
X259735403Y-136328333D01*
X259640165Y-136375952D01*
X259592546Y-136423571D01*
X259544927Y-136518809D01*
X259544927Y-136756904D01*
X259592546Y-136852142D01*
X259640165Y-136899761D01*
X259735403Y-136947380D01*
X259973498Y-136947380D01*
X260068736Y-136899761D01*
X260116355Y-136852142D01*
X292890182Y-115357380D02*
X292890182Y-114357380D01*
X292652087Y-114357380D01*
X292509230Y-114405000D01*
X292413992Y-114500238D01*
X292366373Y-114595476D01*
X292318754Y-114785952D01*
X292318754Y-114928809D01*
X292366373Y-115119285D01*
X292413992Y-115214523D01*
X292509230Y-115309761D01*
X292652087Y-115357380D01*
X292890182Y-115357380D01*
X291747325Y-114785952D02*
X291842563Y-114738333D01*
X291890182Y-114690714D01*
X291937801Y-114595476D01*
X291937801Y-114547857D01*
X291890182Y-114452619D01*
X291842563Y-114405000D01*
X291747325Y-114357380D01*
X291556849Y-114357380D01*
X291461611Y-114405000D01*
X291413992Y-114452619D01*
X291366373Y-114547857D01*
X291366373Y-114595476D01*
X291413992Y-114690714D01*
X291461611Y-114738333D01*
X291556849Y-114785952D01*
X291747325Y-114785952D01*
X291842563Y-114833571D01*
X291890182Y-114881190D01*
X291937801Y-114976428D01*
X291937801Y-115166904D01*
X291890182Y-115262142D01*
X291842563Y-115309761D01*
X291747325Y-115357380D01*
X291556849Y-115357380D01*
X291461611Y-115309761D01*
X291413992Y-115262142D01*
X291366373Y-115166904D01*
X291366373Y-114976428D01*
X291413992Y-114881190D01*
X291461611Y-114833571D01*
X291556849Y-114785952D01*
X290509230Y-114357380D02*
X290699706Y-114357380D01*
X290794944Y-114405000D01*
X290842563Y-114452619D01*
X290937801Y-114595476D01*
X290985420Y-114785952D01*
X290985420Y-115166904D01*
X290937801Y-115262142D01*
X290890182Y-115309761D01*
X290794944Y-115357380D01*
X290604468Y-115357380D01*
X290509230Y-115309761D01*
X290461611Y-115262142D01*
X290413992Y-115166904D01*
X290413992Y-114928809D01*
X290461611Y-114833571D01*
X290509230Y-114785952D01*
X290604468Y-114738333D01*
X290794944Y-114738333D01*
X290890182Y-114785952D01*
X290937801Y-114833571D01*
X290985420Y-114928809D01*
X281993221Y-136947380D02*
X281993221Y-135947380D01*
X281755126Y-135947380D01*
X281612269Y-135995000D01*
X281517031Y-136090238D01*
X281469412Y-136185476D01*
X281421793Y-136375952D01*
X281421793Y-136518809D01*
X281469412Y-136709285D01*
X281517031Y-136804523D01*
X281612269Y-136899761D01*
X281755126Y-136947380D01*
X281993221Y-136947380D01*
X280850364Y-136375952D02*
X280945602Y-136328333D01*
X280993221Y-136280714D01*
X281040840Y-136185476D01*
X281040840Y-136137857D01*
X280993221Y-136042619D01*
X280945602Y-135995000D01*
X280850364Y-135947380D01*
X280659888Y-135947380D01*
X280564650Y-135995000D01*
X280517031Y-136042619D01*
X280469412Y-136137857D01*
X280469412Y-136185476D01*
X280517031Y-136280714D01*
X280564650Y-136328333D01*
X280659888Y-136375952D01*
X280850364Y-136375952D01*
X280945602Y-136423571D01*
X280993221Y-136471190D01*
X281040840Y-136566428D01*
X281040840Y-136756904D01*
X280993221Y-136852142D01*
X280945602Y-136899761D01*
X280850364Y-136947380D01*
X280659888Y-136947380D01*
X280564650Y-136899761D01*
X280517031Y-136852142D01*
X280469412Y-136756904D01*
X280469412Y-136566428D01*
X280517031Y-136471190D01*
X280564650Y-136423571D01*
X280659888Y-136375952D01*
X279517031Y-136947380D02*
X280088459Y-136947380D01*
X279802745Y-136947380D02*
X279802745Y-135947380D01*
X279897983Y-136090238D01*
X279993221Y-136185476D01*
X280088459Y-136233095D01*
X277105061Y-176317380D02*
X277105061Y-175317380D01*
X276866966Y-175317380D01*
X276724109Y-175365000D01*
X276628871Y-175460238D01*
X276581252Y-175555476D01*
X276533633Y-175745952D01*
X276533633Y-175888809D01*
X276581252Y-176079285D01*
X276628871Y-176174523D01*
X276724109Y-176269761D01*
X276866966Y-176317380D01*
X277105061Y-176317380D01*
X275628871Y-175317380D02*
X276105061Y-175317380D01*
X276152680Y-175793571D01*
X276105061Y-175745952D01*
X276009823Y-175698333D01*
X275771728Y-175698333D01*
X275676490Y-175745952D01*
X275628871Y-175793571D01*
X275581252Y-175888809D01*
X275581252Y-176126904D01*
X275628871Y-176222142D01*
X275676490Y-176269761D01*
X275771728Y-176317380D01*
X276009823Y-176317380D01*
X276105061Y-176269761D01*
X276152680Y-176222142D01*
X275200299Y-175412619D02*
X275152680Y-175365000D01*
X275057442Y-175317380D01*
X274819347Y-175317380D01*
X274724109Y-175365000D01*
X274676490Y-175412619D01*
X274628871Y-175507857D01*
X274628871Y-175603095D01*
X274676490Y-175745952D01*
X275247918Y-176317380D01*
X274628871Y-176317380D01*
X148671100Y-115357380D02*
X148671100Y-114357380D01*
X148433005Y-114357380D01*
X148290148Y-114405000D01*
X148194910Y-114500238D01*
X148147291Y-114595476D01*
X148099672Y-114785952D01*
X148099672Y-114928809D01*
X148147291Y-115119285D01*
X148194910Y-115214523D01*
X148290148Y-115309761D01*
X148433005Y-115357380D01*
X148671100Y-115357380D01*
X147242529Y-114690714D02*
X147242529Y-115357380D01*
X147480624Y-114309761D02*
X147718719Y-115024047D01*
X147099672Y-115024047D01*
X146766338Y-114452619D02*
X146718719Y-114405000D01*
X146623481Y-114357380D01*
X146385386Y-114357380D01*
X146290148Y-114405000D01*
X146242529Y-114452619D01*
X146194910Y-114547857D01*
X146194910Y-114643095D01*
X146242529Y-114785952D01*
X146813957Y-115357380D01*
X146194910Y-115357380D01*
X119892451Y-156632380D02*
X119892451Y-155632380D01*
X119654356Y-155632380D01*
X119511499Y-155680000D01*
X119416261Y-155775238D01*
X119368642Y-155870476D01*
X119321023Y-156060952D01*
X119321023Y-156203809D01*
X119368642Y-156394285D01*
X119416261Y-156489523D01*
X119511499Y-156584761D01*
X119654356Y-156632380D01*
X119892451Y-156632380D01*
X118368642Y-156632380D02*
X118940070Y-156632380D01*
X118654356Y-156632380D02*
X118654356Y-155632380D01*
X118749594Y-155775238D01*
X118844832Y-155870476D01*
X118940070Y-155918095D01*
X117511499Y-155632380D02*
X117701975Y-155632380D01*
X117797213Y-155680000D01*
X117844832Y-155727619D01*
X117940070Y-155870476D01*
X117987689Y-156060952D01*
X117987689Y-156441904D01*
X117940070Y-156537142D01*
X117892451Y-156584761D01*
X117797213Y-156632380D01*
X117606737Y-156632380D01*
X117511499Y-156584761D01*
X117463880Y-156537142D01*
X117416261Y-156441904D01*
X117416261Y-156203809D01*
X117463880Y-156108571D01*
X117511499Y-156060952D01*
X117606737Y-156013333D01*
X117797213Y-156013333D01*
X117892451Y-156060952D01*
X117940070Y-156108571D01*
X117987689Y-156203809D01*
X228711392Y-156632380D02*
X228711392Y-155632380D01*
X228473297Y-155632380D01*
X228330440Y-155680000D01*
X228235202Y-155775238D01*
X228187583Y-155870476D01*
X228139964Y-156060952D01*
X228139964Y-156203809D01*
X228187583Y-156394285D01*
X228235202Y-156489523D01*
X228330440Y-156584761D01*
X228473297Y-156632380D01*
X228711392Y-156632380D01*
X227235202Y-155632380D02*
X227711392Y-155632380D01*
X227759011Y-156108571D01*
X227711392Y-156060952D01*
X227616154Y-156013333D01*
X227378059Y-156013333D01*
X227282821Y-156060952D01*
X227235202Y-156108571D01*
X227187583Y-156203809D01*
X227187583Y-156441904D01*
X227235202Y-156537142D01*
X227282821Y-156584761D01*
X227378059Y-156632380D01*
X227616154Y-156632380D01*
X227711392Y-156584761D01*
X227759011Y-156537142D01*
X226711392Y-156632380D02*
X226520916Y-156632380D01*
X226425678Y-156584761D01*
X226378059Y-156537142D01*
X226282821Y-156394285D01*
X226235202Y-156203809D01*
X226235202Y-155822857D01*
X226282821Y-155727619D01*
X226330440Y-155680000D01*
X226425678Y-155632380D01*
X226616154Y-155632380D01*
X226711392Y-155680000D01*
X226759011Y-155727619D01*
X226806630Y-155822857D01*
X226806630Y-156060952D01*
X226759011Y-156156190D01*
X226711392Y-156203809D01*
X226616154Y-156251428D01*
X226425678Y-156251428D01*
X226330440Y-156203809D01*
X226282821Y-156156190D01*
X226235202Y-156060952D01*
X179248237Y-156632380D02*
X179248237Y-155632380D01*
X179010142Y-155632380D01*
X178867285Y-155680000D01*
X178772047Y-155775238D01*
X178724428Y-155870476D01*
X178676809Y-156060952D01*
X178676809Y-156203809D01*
X178724428Y-156394285D01*
X178772047Y-156489523D01*
X178867285Y-156584761D01*
X179010142Y-156632380D01*
X179248237Y-156632380D01*
X178295856Y-155727619D02*
X178248237Y-155680000D01*
X178152999Y-155632380D01*
X177914904Y-155632380D01*
X177819666Y-155680000D01*
X177772047Y-155727619D01*
X177724428Y-155822857D01*
X177724428Y-155918095D01*
X177772047Y-156060952D01*
X178343475Y-156632380D01*
X177724428Y-156632380D01*
X177343475Y-155727619D02*
X177295856Y-155680000D01*
X177200618Y-155632380D01*
X176962523Y-155632380D01*
X176867285Y-155680000D01*
X176819666Y-155727619D01*
X176772047Y-155822857D01*
X176772047Y-155918095D01*
X176819666Y-156060952D01*
X177391094Y-156632380D01*
X176772047Y-156632380D01*
X261986093Y-115357380D02*
X261986093Y-114357380D01*
X261747998Y-114357380D01*
X261605141Y-114405000D01*
X261509903Y-114500238D01*
X261462284Y-114595476D01*
X261414665Y-114785952D01*
X261414665Y-114928809D01*
X261462284Y-115119285D01*
X261509903Y-115214523D01*
X261605141Y-115309761D01*
X261747998Y-115357380D01*
X261986093Y-115357380D01*
X260843236Y-114785952D02*
X260938474Y-114738333D01*
X260986093Y-114690714D01*
X261033712Y-114595476D01*
X261033712Y-114547857D01*
X260986093Y-114452619D01*
X260938474Y-114405000D01*
X260843236Y-114357380D01*
X260652760Y-114357380D01*
X260557522Y-114405000D01*
X260509903Y-114452619D01*
X260462284Y-114547857D01*
X260462284Y-114595476D01*
X260509903Y-114690714D01*
X260557522Y-114738333D01*
X260652760Y-114785952D01*
X260843236Y-114785952D01*
X260938474Y-114833571D01*
X260986093Y-114881190D01*
X261033712Y-114976428D01*
X261033712Y-115166904D01*
X260986093Y-115262142D01*
X260938474Y-115309761D01*
X260843236Y-115357380D01*
X260652760Y-115357380D01*
X260557522Y-115309761D01*
X260509903Y-115262142D01*
X260462284Y-115166904D01*
X260462284Y-114976428D01*
X260509903Y-114881190D01*
X260557522Y-114833571D01*
X260652760Y-114785952D01*
X259986093Y-115357380D02*
X259795617Y-115357380D01*
X259700379Y-115309761D01*
X259652760Y-115262142D01*
X259557522Y-115119285D01*
X259509903Y-114928809D01*
X259509903Y-114547857D01*
X259557522Y-114452619D01*
X259605141Y-114405000D01*
X259700379Y-114357380D01*
X259890855Y-114357380D01*
X259986093Y-114405000D01*
X260033712Y-114452619D01*
X260081331Y-114547857D01*
X260081331Y-114785952D01*
X260033712Y-114881190D01*
X259986093Y-114928809D01*
X259890855Y-114976428D01*
X259700379Y-114976428D01*
X259605141Y-114928809D01*
X259557522Y-114881190D01*
X259509903Y-114785952D01*
X182132701Y-136947380D02*
X182132701Y-135947380D01*
X181894606Y-135947380D01*
X181751749Y-135995000D01*
X181656511Y-136090238D01*
X181608892Y-136185476D01*
X181561273Y-136375952D01*
X181561273Y-136518809D01*
X181608892Y-136709285D01*
X181656511Y-136804523D01*
X181751749Y-136899761D01*
X181894606Y-136947380D01*
X182132701Y-136947380D01*
X181227939Y-135947380D02*
X180608892Y-135947380D01*
X180942225Y-136328333D01*
X180799368Y-136328333D01*
X180704130Y-136375952D01*
X180656511Y-136423571D01*
X180608892Y-136518809D01*
X180608892Y-136756904D01*
X180656511Y-136852142D01*
X180704130Y-136899761D01*
X180799368Y-136947380D01*
X181085082Y-136947380D01*
X181180320Y-136899761D01*
X181227939Y-136852142D01*
X179704130Y-135947380D02*
X180180320Y-135947380D01*
X180227939Y-136423571D01*
X180180320Y-136375952D01*
X180085082Y-136328333D01*
X179846987Y-136328333D01*
X179751749Y-136375952D01*
X179704130Y-136423571D01*
X179656511Y-136518809D01*
X179656511Y-136756904D01*
X179704130Y-136852142D01*
X179751749Y-136899761D01*
X179846987Y-136947380D01*
X180085082Y-136947380D01*
X180180320Y-136899761D01*
X180227939Y-136852142D01*
X268281916Y-156632380D02*
X268281916Y-155632380D01*
X268043821Y-155632380D01*
X267900964Y-155680000D01*
X267805726Y-155775238D01*
X267758107Y-155870476D01*
X267710488Y-156060952D01*
X267710488Y-156203809D01*
X267758107Y-156394285D01*
X267805726Y-156489523D01*
X267900964Y-156584761D01*
X268043821Y-156632380D01*
X268281916Y-156632380D01*
X266853345Y-155632380D02*
X267043821Y-155632380D01*
X267139059Y-155680000D01*
X267186678Y-155727619D01*
X267281916Y-155870476D01*
X267329535Y-156060952D01*
X267329535Y-156441904D01*
X267281916Y-156537142D01*
X267234297Y-156584761D01*
X267139059Y-156632380D01*
X266948583Y-156632380D01*
X266853345Y-156584761D01*
X266805726Y-156537142D01*
X266758107Y-156441904D01*
X266758107Y-156203809D01*
X266805726Y-156108571D01*
X266853345Y-156060952D01*
X266948583Y-156013333D01*
X267139059Y-156013333D01*
X267234297Y-156060952D01*
X267281916Y-156108571D01*
X267329535Y-156203809D01*
X266424773Y-155632380D02*
X265805726Y-155632380D01*
X266139059Y-156013333D01*
X265996202Y-156013333D01*
X265900964Y-156060952D01*
X265853345Y-156108571D01*
X265805726Y-156203809D01*
X265805726Y-156441904D01*
X265853345Y-156537142D01*
X265900964Y-156584761D01*
X265996202Y-156632380D01*
X266281916Y-156632380D01*
X266377154Y-156584761D01*
X266424773Y-156537142D01*
X162160597Y-136947380D02*
X162160597Y-135947380D01*
X161922502Y-135947380D01*
X161779645Y-135995000D01*
X161684407Y-136090238D01*
X161636788Y-136185476D01*
X161589169Y-136375952D01*
X161589169Y-136518809D01*
X161636788Y-136709285D01*
X161684407Y-136804523D01*
X161779645Y-136899761D01*
X161922502Y-136947380D01*
X162160597Y-136947380D01*
X161255835Y-135947380D02*
X160636788Y-135947380D01*
X160970121Y-136328333D01*
X160827264Y-136328333D01*
X160732026Y-136375952D01*
X160684407Y-136423571D01*
X160636788Y-136518809D01*
X160636788Y-136756904D01*
X160684407Y-136852142D01*
X160732026Y-136899761D01*
X160827264Y-136947380D01*
X161112978Y-136947380D01*
X161208216Y-136899761D01*
X161255835Y-136852142D01*
X160303454Y-135947380D02*
X159684407Y-135947380D01*
X160017740Y-136328333D01*
X159874883Y-136328333D01*
X159779645Y-136375952D01*
X159732026Y-136423571D01*
X159684407Y-136518809D01*
X159684407Y-136756904D01*
X159732026Y-136852142D01*
X159779645Y-136899761D01*
X159874883Y-136947380D01*
X160160597Y-136947380D01*
X160255835Y-136899761D01*
X160303454Y-136852142D01*
X125732831Y-176317380D02*
X125732831Y-175317380D01*
X125494736Y-175317380D01*
X125351878Y-175365000D01*
X125256640Y-175460238D01*
X125209021Y-175555476D01*
X125161402Y-175745952D01*
X125161402Y-175888809D01*
X125209021Y-176079285D01*
X125256640Y-176174523D01*
X125351878Y-176269761D01*
X125494736Y-176317380D01*
X125732831Y-176317380D01*
X124828069Y-175317380D02*
X124209021Y-175317380D01*
X124542355Y-175698333D01*
X124399497Y-175698333D01*
X124304259Y-175745952D01*
X124256640Y-175793571D01*
X124209021Y-175888809D01*
X124209021Y-176126904D01*
X124256640Y-176222142D01*
X124304259Y-176269761D01*
X124399497Y-176317380D01*
X124685212Y-176317380D01*
X124780450Y-176269761D01*
X124828069Y-176222142D01*
X196627173Y-176317380D02*
X196627173Y-175317380D01*
X196389078Y-175317380D01*
X196246221Y-175365000D01*
X196150983Y-175460238D01*
X196103364Y-175555476D01*
X196055745Y-175745952D01*
X196055745Y-175888809D01*
X196103364Y-176079285D01*
X196150983Y-176174523D01*
X196246221Y-176269761D01*
X196389078Y-176317380D01*
X196627173Y-176317380D01*
X195103364Y-176317380D02*
X195674792Y-176317380D01*
X195389078Y-176317380D02*
X195389078Y-175317380D01*
X195484316Y-175460238D01*
X195579554Y-175555476D01*
X195674792Y-175603095D01*
X194150983Y-176317380D02*
X194722411Y-176317380D01*
X194436697Y-176317380D02*
X194436697Y-175317380D01*
X194531935Y-175460238D01*
X194627173Y-175555476D01*
X194722411Y-175603095D01*
X165971775Y-176317380D02*
X165971775Y-175317380D01*
X165733680Y-175317380D01*
X165590822Y-175365000D01*
X165495584Y-175460238D01*
X165447965Y-175555476D01*
X165400346Y-175745952D01*
X165400346Y-175888809D01*
X165447965Y-176079285D01*
X165495584Y-176174523D01*
X165590822Y-176269761D01*
X165733680Y-176317380D01*
X165971775Y-176317380D01*
X165067013Y-175317380D02*
X164400346Y-175317380D01*
X164828918Y-176317380D01*
X149570344Y-156632380D02*
X149570344Y-155632380D01*
X149332249Y-155632380D01*
X149189392Y-155680000D01*
X149094154Y-155775238D01*
X149046535Y-155870476D01*
X148998916Y-156060952D01*
X148998916Y-156203809D01*
X149046535Y-156394285D01*
X149094154Y-156489523D01*
X149189392Y-156584761D01*
X149332249Y-156632380D01*
X149570344Y-156632380D01*
X148046535Y-156632380D02*
X148617963Y-156632380D01*
X148332249Y-156632380D02*
X148332249Y-155632380D01*
X148427487Y-155775238D01*
X148522725Y-155870476D01*
X148617963Y-155918095D01*
X147570344Y-156632380D02*
X147379868Y-156632380D01*
X147284630Y-156584761D01*
X147237011Y-156537142D01*
X147141773Y-156394285D01*
X147094154Y-156203809D01*
X147094154Y-155822857D01*
X147141773Y-155727619D01*
X147189392Y-155680000D01*
X147284630Y-155632380D01*
X147475106Y-155632380D01*
X147570344Y-155680000D01*
X147617963Y-155727619D01*
X147665582Y-155822857D01*
X147665582Y-156060952D01*
X147617963Y-156156190D01*
X147570344Y-156203809D01*
X147475106Y-156251428D01*
X147284630Y-156251428D01*
X147189392Y-156203809D01*
X147141773Y-156156190D01*
X147094154Y-156060952D01*
X107465648Y-115357380D02*
X107465648Y-114357380D01*
X107227553Y-114357380D01*
X107084696Y-114405000D01*
X106989458Y-114500238D01*
X106941839Y-114595476D01*
X106894220Y-114785952D01*
X106894220Y-114928809D01*
X106941839Y-115119285D01*
X106989458Y-115214523D01*
X107084696Y-115309761D01*
X107227553Y-115357380D01*
X107465648Y-115357380D01*
X106560886Y-114357380D02*
X105941839Y-114357380D01*
X106275172Y-114738333D01*
X106132315Y-114738333D01*
X106037077Y-114785952D01*
X105989458Y-114833571D01*
X105941839Y-114928809D01*
X105941839Y-115166904D01*
X105989458Y-115262142D01*
X106037077Y-115309761D01*
X106132315Y-115357380D01*
X106418029Y-115357380D01*
X106513267Y-115309761D01*
X106560886Y-115262142D01*
X105370410Y-114785952D02*
X105465648Y-114738333D01*
X105513267Y-114690714D01*
X105560886Y-114595476D01*
X105560886Y-114547857D01*
X105513267Y-114452619D01*
X105465648Y-114405000D01*
X105370410Y-114357380D01*
X105179934Y-114357380D01*
X105084696Y-114405000D01*
X105037077Y-114452619D01*
X104989458Y-114547857D01*
X104989458Y-114595476D01*
X105037077Y-114690714D01*
X105084696Y-114738333D01*
X105179934Y-114785952D01*
X105370410Y-114785952D01*
X105465648Y-114833571D01*
X105513267Y-114881190D01*
X105560886Y-114976428D01*
X105560886Y-115166904D01*
X105513267Y-115262142D01*
X105465648Y-115309761D01*
X105370410Y-115357380D01*
X105179934Y-115357380D01*
X105084696Y-115309761D01*
X105037077Y-115262142D01*
X104989458Y-115166904D01*
X104989458Y-114976428D01*
X105037077Y-114881190D01*
X105084696Y-114833571D01*
X105179934Y-114785952D01*
X267045325Y-176317380D02*
X267045325Y-175317380D01*
X266807230Y-175317380D01*
X266664373Y-175365000D01*
X266569135Y-175460238D01*
X266521516Y-175555476D01*
X266473897Y-175745952D01*
X266473897Y-175888809D01*
X266521516Y-176079285D01*
X266569135Y-176174523D01*
X266664373Y-176269761D01*
X266807230Y-176317380D01*
X267045325Y-176317380D01*
X265569135Y-175317380D02*
X266045325Y-175317380D01*
X266092944Y-175793571D01*
X266045325Y-175745952D01*
X265950087Y-175698333D01*
X265711992Y-175698333D01*
X265616754Y-175745952D01*
X265569135Y-175793571D01*
X265521516Y-175888809D01*
X265521516Y-176126904D01*
X265569135Y-176222142D01*
X265616754Y-176269761D01*
X265711992Y-176317380D01*
X265950087Y-176317380D01*
X266045325Y-176269761D01*
X266092944Y-176222142D01*
X265188182Y-175317380D02*
X264569135Y-175317380D01*
X264902468Y-175698333D01*
X264759611Y-175698333D01*
X264664373Y-175745952D01*
X264616754Y-175793571D01*
X264569135Y-175888809D01*
X264569135Y-176126904D01*
X264616754Y-176222142D01*
X264664373Y-176269761D01*
X264759611Y-176317380D01*
X265045325Y-176317380D01*
X265140563Y-176269761D01*
X265188182Y-176222142D01*
X192118753Y-136947380D02*
X192118753Y-135947380D01*
X191880658Y-135947380D01*
X191737801Y-135995000D01*
X191642563Y-136090238D01*
X191594944Y-136185476D01*
X191547325Y-136375952D01*
X191547325Y-136518809D01*
X191594944Y-136709285D01*
X191642563Y-136804523D01*
X191737801Y-136899761D01*
X191880658Y-136947380D01*
X192118753Y-136947380D01*
X191213991Y-135947380D02*
X190594944Y-135947380D01*
X190928277Y-136328333D01*
X190785420Y-136328333D01*
X190690182Y-136375952D01*
X190642563Y-136423571D01*
X190594944Y-136518809D01*
X190594944Y-136756904D01*
X190642563Y-136852142D01*
X190690182Y-136899761D01*
X190785420Y-136947380D01*
X191071134Y-136947380D01*
X191166372Y-136899761D01*
X191213991Y-136852142D01*
X189737801Y-135947380D02*
X189928277Y-135947380D01*
X190023515Y-135995000D01*
X190071134Y-136042619D01*
X190166372Y-136185476D01*
X190213991Y-136375952D01*
X190213991Y-136756904D01*
X190166372Y-136852142D01*
X190118753Y-136899761D01*
X190023515Y-136947380D01*
X189833039Y-136947380D01*
X189737801Y-136899761D01*
X189690182Y-136852142D01*
X189642563Y-136756904D01*
X189642563Y-136518809D01*
X189690182Y-136423571D01*
X189737801Y-136375952D01*
X189833039Y-136328333D01*
X190023515Y-136328333D01*
X190118753Y-136375952D01*
X190166372Y-136423571D01*
X190213991Y-136518809D01*
X142188493Y-136947380D02*
X142188493Y-135947380D01*
X141950398Y-135947380D01*
X141807541Y-135995000D01*
X141712303Y-136090238D01*
X141664684Y-136185476D01*
X141617065Y-136375952D01*
X141617065Y-136518809D01*
X141664684Y-136709285D01*
X141712303Y-136804523D01*
X141807541Y-136899761D01*
X141950398Y-136947380D01*
X142188493Y-136947380D01*
X141283731Y-135947380D02*
X140664684Y-135947380D01*
X140998017Y-136328333D01*
X140855160Y-136328333D01*
X140759922Y-136375952D01*
X140712303Y-136423571D01*
X140664684Y-136518809D01*
X140664684Y-136756904D01*
X140712303Y-136852142D01*
X140759922Y-136899761D01*
X140855160Y-136947380D01*
X141140874Y-136947380D01*
X141236112Y-136899761D01*
X141283731Y-136852142D01*
X139712303Y-136947380D02*
X140283731Y-136947380D01*
X139998017Y-136947380D02*
X139998017Y-135947380D01*
X140093255Y-136090238D01*
X140188493Y-136185476D01*
X140283731Y-136233095D01*
X102244285Y-136947380D02*
X102244285Y-135947380D01*
X102006190Y-135947380D01*
X101863333Y-135995000D01*
X101768095Y-136090238D01*
X101720476Y-136185476D01*
X101672857Y-136375952D01*
X101672857Y-136518809D01*
X101720476Y-136709285D01*
X101768095Y-136804523D01*
X101863333Y-136899761D01*
X102006190Y-136947380D01*
X102244285Y-136947380D01*
X101291904Y-136042619D02*
X101244285Y-135995000D01*
X101149047Y-135947380D01*
X100910952Y-135947380D01*
X100815714Y-135995000D01*
X100768095Y-136042619D01*
X100720476Y-136137857D01*
X100720476Y-136233095D01*
X100768095Y-136375952D01*
X101339523Y-136947380D01*
X100720476Y-136947380D01*
X100387142Y-135947380D02*
X99720476Y-135947380D01*
X100149047Y-136947380D01*
X272287456Y-115357380D02*
X272287456Y-114357380D01*
X272049361Y-114357380D01*
X271906504Y-114405000D01*
X271811266Y-114500238D01*
X271763647Y-114595476D01*
X271716028Y-114785952D01*
X271716028Y-114928809D01*
X271763647Y-115119285D01*
X271811266Y-115214523D01*
X271906504Y-115309761D01*
X272049361Y-115357380D01*
X272287456Y-115357380D01*
X271144599Y-114785952D02*
X271239837Y-114738333D01*
X271287456Y-114690714D01*
X271335075Y-114595476D01*
X271335075Y-114547857D01*
X271287456Y-114452619D01*
X271239837Y-114405000D01*
X271144599Y-114357380D01*
X270954123Y-114357380D01*
X270858885Y-114405000D01*
X270811266Y-114452619D01*
X270763647Y-114547857D01*
X270763647Y-114595476D01*
X270811266Y-114690714D01*
X270858885Y-114738333D01*
X270954123Y-114785952D01*
X271144599Y-114785952D01*
X271239837Y-114833571D01*
X271287456Y-114881190D01*
X271335075Y-114976428D01*
X271335075Y-115166904D01*
X271287456Y-115262142D01*
X271239837Y-115309761D01*
X271144599Y-115357380D01*
X270954123Y-115357380D01*
X270858885Y-115309761D01*
X270811266Y-115262142D01*
X270763647Y-115166904D01*
X270763647Y-114976428D01*
X270811266Y-114881190D01*
X270858885Y-114833571D01*
X270954123Y-114785952D01*
X270192218Y-114785952D02*
X270287456Y-114738333D01*
X270335075Y-114690714D01*
X270382694Y-114595476D01*
X270382694Y-114547857D01*
X270335075Y-114452619D01*
X270287456Y-114405000D01*
X270192218Y-114357380D01*
X270001742Y-114357380D01*
X269906504Y-114405000D01*
X269858885Y-114452619D01*
X269811266Y-114547857D01*
X269811266Y-114595476D01*
X269858885Y-114690714D01*
X269906504Y-114738333D01*
X270001742Y-114785952D01*
X270192218Y-114785952D01*
X270287456Y-114833571D01*
X270335075Y-114881190D01*
X270382694Y-114976428D01*
X270382694Y-115166904D01*
X270335075Y-115262142D01*
X270287456Y-115309761D01*
X270192218Y-115357380D01*
X270001742Y-115357380D01*
X269906504Y-115309761D01*
X269858885Y-115262142D01*
X269811266Y-115166904D01*
X269811266Y-114976428D01*
X269858885Y-114881190D01*
X269906504Y-114833571D01*
X270001742Y-114785952D01*
X282588819Y-115357380D02*
X282588819Y-114357380D01*
X282350724Y-114357380D01*
X282207867Y-114405000D01*
X282112629Y-114500238D01*
X282065010Y-114595476D01*
X282017391Y-114785952D01*
X282017391Y-114928809D01*
X282065010Y-115119285D01*
X282112629Y-115214523D01*
X282207867Y-115309761D01*
X282350724Y-115357380D01*
X282588819Y-115357380D01*
X281445962Y-114785952D02*
X281541200Y-114738333D01*
X281588819Y-114690714D01*
X281636438Y-114595476D01*
X281636438Y-114547857D01*
X281588819Y-114452619D01*
X281541200Y-114405000D01*
X281445962Y-114357380D01*
X281255486Y-114357380D01*
X281160248Y-114405000D01*
X281112629Y-114452619D01*
X281065010Y-114547857D01*
X281065010Y-114595476D01*
X281112629Y-114690714D01*
X281160248Y-114738333D01*
X281255486Y-114785952D01*
X281445962Y-114785952D01*
X281541200Y-114833571D01*
X281588819Y-114881190D01*
X281636438Y-114976428D01*
X281636438Y-115166904D01*
X281588819Y-115262142D01*
X281541200Y-115309761D01*
X281445962Y-115357380D01*
X281255486Y-115357380D01*
X281160248Y-115309761D01*
X281112629Y-115262142D01*
X281065010Y-115166904D01*
X281065010Y-114976428D01*
X281112629Y-114881190D01*
X281160248Y-114833571D01*
X281255486Y-114785952D01*
X280731676Y-114357380D02*
X280065010Y-114357380D01*
X280493581Y-115357380D01*
X152174545Y-136947380D02*
X152174545Y-135947380D01*
X151936450Y-135947380D01*
X151793593Y-135995000D01*
X151698355Y-136090238D01*
X151650736Y-136185476D01*
X151603117Y-136375952D01*
X151603117Y-136518809D01*
X151650736Y-136709285D01*
X151698355Y-136804523D01*
X151793593Y-136899761D01*
X151936450Y-136947380D01*
X152174545Y-136947380D01*
X151269783Y-135947380D02*
X150650736Y-135947380D01*
X150984069Y-136328333D01*
X150841212Y-136328333D01*
X150745974Y-136375952D01*
X150698355Y-136423571D01*
X150650736Y-136518809D01*
X150650736Y-136756904D01*
X150698355Y-136852142D01*
X150745974Y-136899761D01*
X150841212Y-136947380D01*
X151126926Y-136947380D01*
X151222164Y-136899761D01*
X151269783Y-136852142D01*
X150269783Y-136042619D02*
X150222164Y-135995000D01*
X150126926Y-135947380D01*
X149888831Y-135947380D01*
X149793593Y-135995000D01*
X149745974Y-136042619D01*
X149698355Y-136137857D01*
X149698355Y-136233095D01*
X149745974Y-136375952D01*
X150317402Y-136947380D01*
X149698355Y-136947380D01*
X138369737Y-115357380D02*
X138369737Y-114357380D01*
X138131642Y-114357380D01*
X137988785Y-114405000D01*
X137893547Y-114500238D01*
X137845928Y-114595476D01*
X137798309Y-114785952D01*
X137798309Y-114928809D01*
X137845928Y-115119285D01*
X137893547Y-115214523D01*
X137988785Y-115309761D01*
X138131642Y-115357380D01*
X138369737Y-115357380D01*
X136941166Y-114690714D02*
X136941166Y-115357380D01*
X137179261Y-114309761D02*
X137417356Y-115024047D01*
X136798309Y-115024047D01*
X135893547Y-115357380D02*
X136464975Y-115357380D01*
X136179261Y-115357380D02*
X136179261Y-114357380D01*
X136274499Y-114500238D01*
X136369737Y-114595476D01*
X136464975Y-114643095D01*
X155912039Y-176317380D02*
X155912039Y-175317380D01*
X155673944Y-175317380D01*
X155531086Y-175365000D01*
X155435848Y-175460238D01*
X155388229Y-175555476D01*
X155340610Y-175745952D01*
X155340610Y-175888809D01*
X155388229Y-176079285D01*
X155435848Y-176174523D01*
X155531086Y-176269761D01*
X155673944Y-176317380D01*
X155912039Y-176317380D01*
X154769182Y-175745952D02*
X154864420Y-175698333D01*
X154912039Y-175650714D01*
X154959658Y-175555476D01*
X154959658Y-175507857D01*
X154912039Y-175412619D01*
X154864420Y-175365000D01*
X154769182Y-175317380D01*
X154578705Y-175317380D01*
X154483467Y-175365000D01*
X154435848Y-175412619D01*
X154388229Y-175507857D01*
X154388229Y-175555476D01*
X154435848Y-175650714D01*
X154483467Y-175698333D01*
X154578705Y-175745952D01*
X154769182Y-175745952D01*
X154864420Y-175793571D01*
X154912039Y-175841190D01*
X154959658Y-175936428D01*
X154959658Y-176126904D01*
X154912039Y-176222142D01*
X154864420Y-176269761D01*
X154769182Y-176317380D01*
X154578705Y-176317380D01*
X154483467Y-176269761D01*
X154435848Y-176222142D01*
X154388229Y-176126904D01*
X154388229Y-175936428D01*
X154435848Y-175841190D01*
X154483467Y-175793571D01*
X154578705Y-175745952D01*
X287164797Y-176317380D02*
X287164797Y-175317380D01*
X286926702Y-175317380D01*
X286783845Y-175365000D01*
X286688607Y-175460238D01*
X286640988Y-175555476D01*
X286593369Y-175745952D01*
X286593369Y-175888809D01*
X286640988Y-176079285D01*
X286688607Y-176174523D01*
X286783845Y-176269761D01*
X286926702Y-176317380D01*
X287164797Y-176317380D01*
X285688607Y-175317380D02*
X286164797Y-175317380D01*
X286212416Y-175793571D01*
X286164797Y-175745952D01*
X286069559Y-175698333D01*
X285831464Y-175698333D01*
X285736226Y-175745952D01*
X285688607Y-175793571D01*
X285640988Y-175888809D01*
X285640988Y-176126904D01*
X285688607Y-176222142D01*
X285736226Y-176269761D01*
X285831464Y-176317380D01*
X286069559Y-176317380D01*
X286164797Y-176269761D01*
X286212416Y-176222142D01*
X284688607Y-176317380D02*
X285260035Y-176317380D01*
X284974321Y-176317380D02*
X284974321Y-175317380D01*
X285069559Y-175460238D01*
X285164797Y-175555476D01*
X285260035Y-175603095D01*
X242049013Y-136947380D02*
X242049013Y-135947380D01*
X241810918Y-135947380D01*
X241668061Y-135995000D01*
X241572823Y-136090238D01*
X241525204Y-136185476D01*
X241477585Y-136375952D01*
X241477585Y-136518809D01*
X241525204Y-136709285D01*
X241572823Y-136804523D01*
X241668061Y-136899761D01*
X241810918Y-136947380D01*
X242049013Y-136947380D01*
X241144251Y-135947380D02*
X240477585Y-135947380D01*
X240906156Y-136947380D01*
X240191870Y-135947380D02*
X239525204Y-135947380D01*
X239953775Y-136947380D01*
X216746645Y-176317380D02*
X216746645Y-175317380D01*
X216508550Y-175317380D01*
X216365693Y-175365000D01*
X216270455Y-175460238D01*
X216222836Y-175555476D01*
X216175217Y-175745952D01*
X216175217Y-175888809D01*
X216222836Y-176079285D01*
X216270455Y-176174523D01*
X216365693Y-176269761D01*
X216508550Y-176317380D01*
X216746645Y-176317380D01*
X215318074Y-175650714D02*
X215318074Y-176317380D01*
X215556169Y-175269761D02*
X215794264Y-175984047D01*
X215175217Y-175984047D01*
X214746645Y-176317380D02*
X214556169Y-176317380D01*
X214460931Y-176269761D01*
X214413312Y-176222142D01*
X214318074Y-176079285D01*
X214270455Y-175888809D01*
X214270455Y-175507857D01*
X214318074Y-175412619D01*
X214365693Y-175365000D01*
X214460931Y-175317380D01*
X214651407Y-175317380D01*
X214746645Y-175365000D01*
X214794264Y-175412619D01*
X214841883Y-175507857D01*
X214841883Y-175745952D01*
X214794264Y-175841190D01*
X214746645Y-175888809D01*
X214651407Y-175936428D01*
X214460931Y-175936428D01*
X214365693Y-175888809D01*
X214318074Y-175841190D01*
X214270455Y-175745952D01*
X291979285Y-136947380D02*
X291979285Y-135947380D01*
X291741190Y-135947380D01*
X291598333Y-135995000D01*
X291503095Y-136090238D01*
X291455476Y-136185476D01*
X291407857Y-136375952D01*
X291407857Y-136518809D01*
X291455476Y-136709285D01*
X291503095Y-136804523D01*
X291598333Y-136899761D01*
X291741190Y-136947380D01*
X291979285Y-136947380D01*
X290836428Y-136375952D02*
X290931666Y-136328333D01*
X290979285Y-136280714D01*
X291026904Y-136185476D01*
X291026904Y-136137857D01*
X290979285Y-136042619D01*
X290931666Y-135995000D01*
X290836428Y-135947380D01*
X290645952Y-135947380D01*
X290550714Y-135995000D01*
X290503095Y-136042619D01*
X290455476Y-136137857D01*
X290455476Y-136185476D01*
X290503095Y-136280714D01*
X290550714Y-136328333D01*
X290645952Y-136375952D01*
X290836428Y-136375952D01*
X290931666Y-136423571D01*
X290979285Y-136471190D01*
X291026904Y-136566428D01*
X291026904Y-136756904D01*
X290979285Y-136852142D01*
X290931666Y-136899761D01*
X290836428Y-136947380D01*
X290645952Y-136947380D01*
X290550714Y-136899761D01*
X290503095Y-136852142D01*
X290455476Y-136756904D01*
X290455476Y-136566428D01*
X290503095Y-136471190D01*
X290550714Y-136423571D01*
X290645952Y-136375952D01*
X289836428Y-135947380D02*
X289741190Y-135947380D01*
X289645952Y-135995000D01*
X289598333Y-136042619D01*
X289550714Y-136137857D01*
X289503095Y-136328333D01*
X289503095Y-136566428D01*
X289550714Y-136756904D01*
X289598333Y-136852142D01*
X289645952Y-136899761D01*
X289741190Y-136947380D01*
X289836428Y-136947380D01*
X289931666Y-136899761D01*
X289979285Y-136852142D01*
X290026904Y-136756904D01*
X290074523Y-136566428D01*
X290074523Y-136328333D01*
X290026904Y-136137857D01*
X289979285Y-136042619D01*
X289931666Y-135995000D01*
X289836428Y-135947380D01*
X176031511Y-176317380D02*
X176031511Y-175317380D01*
X175793416Y-175317380D01*
X175650558Y-175365000D01*
X175555320Y-175460238D01*
X175507701Y-175555476D01*
X175460082Y-175745952D01*
X175460082Y-175888809D01*
X175507701Y-176079285D01*
X175555320Y-176174523D01*
X175650558Y-176269761D01*
X175793416Y-176317380D01*
X176031511Y-176317380D01*
X174983892Y-176317380D02*
X174793416Y-176317380D01*
X174698177Y-176269761D01*
X174650558Y-176222142D01*
X174555320Y-176079285D01*
X174507701Y-175888809D01*
X174507701Y-175507857D01*
X174555320Y-175412619D01*
X174602939Y-175365000D01*
X174698177Y-175317380D01*
X174888654Y-175317380D01*
X174983892Y-175365000D01*
X175031511Y-175412619D01*
X175079130Y-175507857D01*
X175079130Y-175745952D01*
X175031511Y-175841190D01*
X174983892Y-175888809D01*
X174888654Y-175936428D01*
X174698177Y-175936428D01*
X174602939Y-175888809D01*
X174555320Y-175841190D01*
X174507701Y-175745952D01*
X241383367Y-115357380D02*
X241383367Y-114357380D01*
X241145272Y-114357380D01*
X241002415Y-114405000D01*
X240907177Y-114500238D01*
X240859558Y-114595476D01*
X240811939Y-114785952D01*
X240811939Y-114928809D01*
X240859558Y-115119285D01*
X240907177Y-115214523D01*
X241002415Y-115309761D01*
X241145272Y-115357380D01*
X241383367Y-115357380D01*
X240240510Y-114785952D02*
X240335748Y-114738333D01*
X240383367Y-114690714D01*
X240430986Y-114595476D01*
X240430986Y-114547857D01*
X240383367Y-114452619D01*
X240335748Y-114405000D01*
X240240510Y-114357380D01*
X240050034Y-114357380D01*
X239954796Y-114405000D01*
X239907177Y-114452619D01*
X239859558Y-114547857D01*
X239859558Y-114595476D01*
X239907177Y-114690714D01*
X239954796Y-114738333D01*
X240050034Y-114785952D01*
X240240510Y-114785952D01*
X240335748Y-114833571D01*
X240383367Y-114881190D01*
X240430986Y-114976428D01*
X240430986Y-115166904D01*
X240383367Y-115262142D01*
X240335748Y-115309761D01*
X240240510Y-115357380D01*
X240050034Y-115357380D01*
X239954796Y-115309761D01*
X239907177Y-115262142D01*
X239859558Y-115166904D01*
X239859558Y-114976428D01*
X239907177Y-114881190D01*
X239954796Y-114833571D01*
X240050034Y-114785952D01*
X239526224Y-114357380D02*
X238907177Y-114357380D01*
X239240510Y-114738333D01*
X239097653Y-114738333D01*
X239002415Y-114785952D01*
X238954796Y-114833571D01*
X238907177Y-114928809D01*
X238907177Y-115166904D01*
X238954796Y-115262142D01*
X239002415Y-115309761D01*
X239097653Y-115357380D01*
X239383367Y-115357380D01*
X239478605Y-115309761D01*
X239526224Y-115262142D01*
X208926130Y-156632380D02*
X208926130Y-155632380D01*
X208688035Y-155632380D01*
X208545178Y-155680000D01*
X208449940Y-155775238D01*
X208402321Y-155870476D01*
X208354702Y-156060952D01*
X208354702Y-156203809D01*
X208402321Y-156394285D01*
X208449940Y-156489523D01*
X208545178Y-156584761D01*
X208688035Y-156632380D01*
X208926130Y-156632380D01*
X207497559Y-155632380D02*
X207688035Y-155632380D01*
X207783273Y-155680000D01*
X207830892Y-155727619D01*
X207926130Y-155870476D01*
X207973749Y-156060952D01*
X207973749Y-156441904D01*
X207926130Y-156537142D01*
X207878511Y-156584761D01*
X207783273Y-156632380D01*
X207592797Y-156632380D01*
X207497559Y-156584761D01*
X207449940Y-156537142D01*
X207402321Y-156441904D01*
X207402321Y-156203809D01*
X207449940Y-156108571D01*
X207497559Y-156060952D01*
X207592797Y-156013333D01*
X207783273Y-156013333D01*
X207878511Y-156060952D01*
X207926130Y-156108571D01*
X207973749Y-156203809D01*
X206449940Y-156632380D02*
X207021368Y-156632380D01*
X206735654Y-156632380D02*
X206735654Y-155632380D01*
X206830892Y-155775238D01*
X206926130Y-155870476D01*
X207021368Y-155918095D01*
X132202441Y-136947380D02*
X132202441Y-135947380D01*
X131964346Y-135947380D01*
X131821489Y-135995000D01*
X131726251Y-136090238D01*
X131678632Y-136185476D01*
X131631013Y-136375952D01*
X131631013Y-136518809D01*
X131678632Y-136709285D01*
X131726251Y-136804523D01*
X131821489Y-136899761D01*
X131964346Y-136947380D01*
X132202441Y-136947380D01*
X131297679Y-135947380D02*
X130678632Y-135947380D01*
X131011965Y-136328333D01*
X130869108Y-136328333D01*
X130773870Y-136375952D01*
X130726251Y-136423571D01*
X130678632Y-136518809D01*
X130678632Y-136756904D01*
X130726251Y-136852142D01*
X130773870Y-136899761D01*
X130869108Y-136947380D01*
X131154822Y-136947380D01*
X131250060Y-136899761D01*
X131297679Y-136852142D01*
X130059584Y-135947380D02*
X129964346Y-135947380D01*
X129869108Y-135995000D01*
X129821489Y-136042619D01*
X129773870Y-136137857D01*
X129726251Y-136328333D01*
X129726251Y-136566428D01*
X129773870Y-136756904D01*
X129821489Y-136852142D01*
X129869108Y-136899761D01*
X129964346Y-136947380D01*
X130059584Y-136947380D01*
X130154822Y-136899761D01*
X130202441Y-136852142D01*
X130250060Y-136756904D01*
X130297679Y-136566428D01*
X130297679Y-136328333D01*
X130250060Y-136137857D01*
X130202441Y-136042619D01*
X130154822Y-135995000D01*
X130059584Y-135947380D01*
X95194285Y-197907380D02*
X95194285Y-196907380D01*
X94956190Y-196907380D01*
X94813333Y-196955000D01*
X94718095Y-197050238D01*
X94670476Y-197145476D01*
X94622857Y-197335952D01*
X94622857Y-197478809D01*
X94670476Y-197669285D01*
X94718095Y-197764523D01*
X94813333Y-197859761D01*
X94956190Y-197907380D01*
X95194285Y-197907380D01*
X94241904Y-197002619D02*
X94194285Y-196955000D01*
X94099047Y-196907380D01*
X93860952Y-196907380D01*
X93765714Y-196955000D01*
X93718095Y-197002619D01*
X93670476Y-197097857D01*
X93670476Y-197193095D01*
X93718095Y-197335952D01*
X94289523Y-197907380D01*
X93670476Y-197907380D01*
X92765714Y-196907380D02*
X93241904Y-196907380D01*
X93289523Y-197383571D01*
X93241904Y-197335952D01*
X93146666Y-197288333D01*
X92908571Y-197288333D01*
X92813333Y-197335952D01*
X92765714Y-197383571D01*
X92718095Y-197478809D01*
X92718095Y-197716904D01*
X92765714Y-197812142D01*
X92813333Y-197859761D01*
X92908571Y-197907380D01*
X93146666Y-197907380D01*
X93241904Y-197859761D01*
X93289523Y-197812142D01*
X292044285Y-197907380D02*
X292044285Y-196907380D01*
X291806190Y-196907380D01*
X291663333Y-196955000D01*
X291568095Y-197050238D01*
X291520476Y-197145476D01*
X291472857Y-197335952D01*
X291472857Y-197478809D01*
X291520476Y-197669285D01*
X291568095Y-197764523D01*
X291663333Y-197859761D01*
X291806190Y-197907380D01*
X292044285Y-197907380D01*
X290615714Y-196907380D02*
X290806190Y-196907380D01*
X290901428Y-196955000D01*
X290949047Y-197002619D01*
X291044285Y-197145476D01*
X291091904Y-197335952D01*
X291091904Y-197716904D01*
X291044285Y-197812142D01*
X290996666Y-197859761D01*
X290901428Y-197907380D01*
X290710952Y-197907380D01*
X290615714Y-197859761D01*
X290568095Y-197812142D01*
X290520476Y-197716904D01*
X290520476Y-197478809D01*
X290568095Y-197383571D01*
X290615714Y-197335952D01*
X290710952Y-197288333D01*
X290901428Y-197288333D01*
X290996666Y-197335952D01*
X291044285Y-197383571D01*
X291091904Y-197478809D01*
X290187142Y-196907380D02*
X289520476Y-196907380D01*
X289949047Y-197907380D01*
X278174547Y-156632380D02*
X278174547Y-155632380D01*
X277936452Y-155632380D01*
X277793595Y-155680000D01*
X277698357Y-155775238D01*
X277650738Y-155870476D01*
X277603119Y-156060952D01*
X277603119Y-156203809D01*
X277650738Y-156394285D01*
X277698357Y-156489523D01*
X277793595Y-156584761D01*
X277936452Y-156632380D01*
X278174547Y-156632380D01*
X276745976Y-155632380D02*
X276936452Y-155632380D01*
X277031690Y-155680000D01*
X277079309Y-155727619D01*
X277174547Y-155870476D01*
X277222166Y-156060952D01*
X277222166Y-156441904D01*
X277174547Y-156537142D01*
X277126928Y-156584761D01*
X277031690Y-156632380D01*
X276841214Y-156632380D01*
X276745976Y-156584761D01*
X276698357Y-156537142D01*
X276650738Y-156441904D01*
X276650738Y-156203809D01*
X276698357Y-156108571D01*
X276745976Y-156060952D01*
X276841214Y-156013333D01*
X277031690Y-156013333D01*
X277126928Y-156060952D01*
X277174547Y-156108571D01*
X277222166Y-156203809D01*
X275793595Y-155965714D02*
X275793595Y-156632380D01*
X276031690Y-155584761D02*
X276269785Y-156299047D01*
X275650738Y-156299047D01*
X218818761Y-156632380D02*
X218818761Y-155632380D01*
X218580666Y-155632380D01*
X218437809Y-155680000D01*
X218342571Y-155775238D01*
X218294952Y-155870476D01*
X218247333Y-156060952D01*
X218247333Y-156203809D01*
X218294952Y-156394285D01*
X218342571Y-156489523D01*
X218437809Y-156584761D01*
X218580666Y-156632380D01*
X218818761Y-156632380D01*
X217390190Y-155632380D02*
X217580666Y-155632380D01*
X217675904Y-155680000D01*
X217723523Y-155727619D01*
X217818761Y-155870476D01*
X217866380Y-156060952D01*
X217866380Y-156441904D01*
X217818761Y-156537142D01*
X217771142Y-156584761D01*
X217675904Y-156632380D01*
X217485428Y-156632380D01*
X217390190Y-156584761D01*
X217342571Y-156537142D01*
X217294952Y-156441904D01*
X217294952Y-156203809D01*
X217342571Y-156108571D01*
X217390190Y-156060952D01*
X217485428Y-156013333D01*
X217675904Y-156013333D01*
X217771142Y-156060952D01*
X217818761Y-156108571D01*
X217866380Y-156203809D01*
X216913999Y-155727619D02*
X216866380Y-155680000D01*
X216771142Y-155632380D01*
X216533047Y-155632380D01*
X216437809Y-155680000D01*
X216390190Y-155727619D01*
X216342571Y-155822857D01*
X216342571Y-155918095D01*
X216390190Y-156060952D01*
X216961618Y-156632380D01*
X216342571Y-156632380D01*
X189876552Y-115357380D02*
X189876552Y-114357380D01*
X189638457Y-114357380D01*
X189495600Y-114405000D01*
X189400362Y-114500238D01*
X189352743Y-114595476D01*
X189305124Y-114785952D01*
X189305124Y-114928809D01*
X189352743Y-115119285D01*
X189400362Y-115214523D01*
X189495600Y-115309761D01*
X189638457Y-115357380D01*
X189876552Y-115357380D01*
X188447981Y-114690714D02*
X188447981Y-115357380D01*
X188686076Y-114309761D02*
X188924171Y-115024047D01*
X188305124Y-115024047D01*
X187495600Y-114357380D02*
X187686076Y-114357380D01*
X187781314Y-114405000D01*
X187828933Y-114452619D01*
X187924171Y-114595476D01*
X187971790Y-114785952D01*
X187971790Y-115166904D01*
X187924171Y-115262142D01*
X187876552Y-115309761D01*
X187781314Y-115357380D01*
X187590838Y-115357380D01*
X187495600Y-115309761D01*
X187447981Y-115262142D01*
X187400362Y-115166904D01*
X187400362Y-114928809D01*
X187447981Y-114833571D01*
X187495600Y-114785952D01*
X187590838Y-114738333D01*
X187781314Y-114738333D01*
X187876552Y-114785952D01*
X187924171Y-114833571D01*
X187971790Y-114928809D01*
X139677713Y-156632380D02*
X139677713Y-155632380D01*
X139439618Y-155632380D01*
X139296761Y-155680000D01*
X139201523Y-155775238D01*
X139153904Y-155870476D01*
X139106285Y-156060952D01*
X139106285Y-156203809D01*
X139153904Y-156394285D01*
X139201523Y-156489523D01*
X139296761Y-156584761D01*
X139439618Y-156632380D01*
X139677713Y-156632380D01*
X138153904Y-156632380D02*
X138725332Y-156632380D01*
X138439618Y-156632380D02*
X138439618Y-155632380D01*
X138534856Y-155775238D01*
X138630094Y-155870476D01*
X138725332Y-155918095D01*
X137582475Y-156060952D02*
X137677713Y-156013333D01*
X137725332Y-155965714D01*
X137772951Y-155870476D01*
X137772951Y-155822857D01*
X137725332Y-155727619D01*
X137677713Y-155680000D01*
X137582475Y-155632380D01*
X137391999Y-155632380D01*
X137296761Y-155680000D01*
X137249142Y-155727619D01*
X137201523Y-155822857D01*
X137201523Y-155870476D01*
X137249142Y-155965714D01*
X137296761Y-156013333D01*
X137391999Y-156060952D01*
X137582475Y-156060952D01*
X137677713Y-156108571D01*
X137725332Y-156156190D01*
X137772951Y-156251428D01*
X137772951Y-156441904D01*
X137725332Y-156537142D01*
X137677713Y-156584761D01*
X137582475Y-156632380D01*
X137391999Y-156632380D01*
X137296761Y-156584761D01*
X137249142Y-156537142D01*
X137201523Y-156441904D01*
X137201523Y-156251428D01*
X137249142Y-156156190D01*
X137296761Y-156108571D01*
X137391999Y-156060952D01*
X112230337Y-136947380D02*
X112230337Y-135947380D01*
X111992242Y-135947380D01*
X111849385Y-135995000D01*
X111754147Y-136090238D01*
X111706528Y-136185476D01*
X111658909Y-136375952D01*
X111658909Y-136518809D01*
X111706528Y-136709285D01*
X111754147Y-136804523D01*
X111849385Y-136899761D01*
X111992242Y-136947380D01*
X112230337Y-136947380D01*
X111277956Y-136042619D02*
X111230337Y-135995000D01*
X111135099Y-135947380D01*
X110897004Y-135947380D01*
X110801766Y-135995000D01*
X110754147Y-136042619D01*
X110706528Y-136137857D01*
X110706528Y-136233095D01*
X110754147Y-136375952D01*
X111325575Y-136947380D01*
X110706528Y-136947380D01*
X110135099Y-136375952D02*
X110230337Y-136328333D01*
X110277956Y-136280714D01*
X110325575Y-136185476D01*
X110325575Y-136137857D01*
X110277956Y-136042619D01*
X110230337Y-135995000D01*
X110135099Y-135947380D01*
X109944623Y-135947380D01*
X109849385Y-135995000D01*
X109801766Y-136042619D01*
X109754147Y-136137857D01*
X109754147Y-136185476D01*
X109801766Y-136280714D01*
X109849385Y-136328333D01*
X109944623Y-136375952D01*
X110135099Y-136375952D01*
X110230337Y-136423571D01*
X110277956Y-136471190D01*
X110325575Y-136566428D01*
X110325575Y-136756904D01*
X110277956Y-136852142D01*
X110230337Y-136899761D01*
X110135099Y-136947380D01*
X109944623Y-136947380D01*
X109849385Y-136899761D01*
X109801766Y-136852142D01*
X109754147Y-136756904D01*
X109754147Y-136566428D01*
X109801766Y-136471190D01*
X109849385Y-136423571D01*
X109944623Y-136375952D01*
X169273826Y-115357380D02*
X169273826Y-114357380D01*
X169035731Y-114357380D01*
X168892874Y-114405000D01*
X168797636Y-114500238D01*
X168750017Y-114595476D01*
X168702398Y-114785952D01*
X168702398Y-114928809D01*
X168750017Y-115119285D01*
X168797636Y-115214523D01*
X168892874Y-115309761D01*
X169035731Y-115357380D01*
X169273826Y-115357380D01*
X167845255Y-114690714D02*
X167845255Y-115357380D01*
X168083350Y-114309761D02*
X168321445Y-115024047D01*
X167702398Y-115024047D01*
X166892874Y-114690714D02*
X166892874Y-115357380D01*
X167130969Y-114309761D02*
X167369064Y-115024047D01*
X166750017Y-115024047D01*
X129785082Y-156632380D02*
X129785082Y-155632380D01*
X129546987Y-155632380D01*
X129404130Y-155680000D01*
X129308892Y-155775238D01*
X129261273Y-155870476D01*
X129213654Y-156060952D01*
X129213654Y-156203809D01*
X129261273Y-156394285D01*
X129308892Y-156489523D01*
X129404130Y-156584761D01*
X129546987Y-156632380D01*
X129785082Y-156632380D01*
X128261273Y-156632380D02*
X128832701Y-156632380D01*
X128546987Y-156632380D02*
X128546987Y-155632380D01*
X128642225Y-155775238D01*
X128737463Y-155870476D01*
X128832701Y-155918095D01*
X127927939Y-155632380D02*
X127261273Y-155632380D01*
X127689844Y-156632380D01*
X329509285Y-156632380D02*
X329509285Y-155632380D01*
X329271190Y-155632380D01*
X329128333Y-155680000D01*
X329033095Y-155775238D01*
X328985476Y-155870476D01*
X328937857Y-156060952D01*
X328937857Y-156203809D01*
X328985476Y-156394285D01*
X329033095Y-156489523D01*
X329128333Y-156584761D01*
X329271190Y-156632380D01*
X329509285Y-156632380D01*
X328604523Y-155632380D02*
X327937857Y-155632380D01*
X328366428Y-156632380D01*
X327509285Y-156632380D02*
X327318809Y-156632380D01*
X327223571Y-156584761D01*
X327175952Y-156537142D01*
X327080714Y-156394285D01*
X327033095Y-156203809D01*
X327033095Y-155822857D01*
X327080714Y-155727619D01*
X327128333Y-155680000D01*
X327223571Y-155632380D01*
X327414047Y-155632380D01*
X327509285Y-155680000D01*
X327556904Y-155727619D01*
X327604523Y-155822857D01*
X327604523Y-156060952D01*
X327556904Y-156156190D01*
X327509285Y-156203809D01*
X327414047Y-156251428D01*
X327223571Y-156251428D01*
X327128333Y-156203809D01*
X327080714Y-156156190D01*
X327033095Y-156060952D01*
X210479278Y-115357380D02*
X210479278Y-114357380D01*
X210241183Y-114357380D01*
X210098326Y-114405000D01*
X210003088Y-114500238D01*
X209955469Y-114595476D01*
X209907850Y-114785952D01*
X209907850Y-114928809D01*
X209955469Y-115119285D01*
X210003088Y-115214523D01*
X210098326Y-115309761D01*
X210241183Y-115357380D01*
X210479278Y-115357380D01*
X209050707Y-114690714D02*
X209050707Y-115357380D01*
X209288802Y-114309761D02*
X209526897Y-115024047D01*
X208907850Y-115024047D01*
X208384040Y-114785952D02*
X208479278Y-114738333D01*
X208526897Y-114690714D01*
X208574516Y-114595476D01*
X208574516Y-114547857D01*
X208526897Y-114452619D01*
X208479278Y-114405000D01*
X208384040Y-114357380D01*
X208193564Y-114357380D01*
X208098326Y-114405000D01*
X208050707Y-114452619D01*
X208003088Y-114547857D01*
X208003088Y-114595476D01*
X208050707Y-114690714D01*
X208098326Y-114738333D01*
X208193564Y-114785952D01*
X208384040Y-114785952D01*
X208479278Y-114833571D01*
X208526897Y-114881190D01*
X208574516Y-114976428D01*
X208574516Y-115166904D01*
X208526897Y-115262142D01*
X208479278Y-115309761D01*
X208384040Y-115357380D01*
X208193564Y-115357380D01*
X208098326Y-115309761D01*
X208050707Y-115262142D01*
X208003088Y-115166904D01*
X208003088Y-114976428D01*
X208050707Y-114881190D01*
X208098326Y-114833571D01*
X208193564Y-114785952D01*
X189140868Y-156632380D02*
X189140868Y-155632380D01*
X188902773Y-155632380D01*
X188759916Y-155680000D01*
X188664678Y-155775238D01*
X188617059Y-155870476D01*
X188569440Y-156060952D01*
X188569440Y-156203809D01*
X188617059Y-156394285D01*
X188664678Y-156489523D01*
X188759916Y-156584761D01*
X188902773Y-156632380D01*
X189140868Y-156632380D01*
X188188487Y-155727619D02*
X188140868Y-155680000D01*
X188045630Y-155632380D01*
X187807535Y-155632380D01*
X187712297Y-155680000D01*
X187664678Y-155727619D01*
X187617059Y-155822857D01*
X187617059Y-155918095D01*
X187664678Y-156060952D01*
X188236106Y-156632380D01*
X187617059Y-156632380D01*
X187283725Y-155632380D02*
X186664678Y-155632380D01*
X186998011Y-156013333D01*
X186855154Y-156013333D01*
X186759916Y-156060952D01*
X186712297Y-156108571D01*
X186664678Y-156203809D01*
X186664678Y-156441904D01*
X186712297Y-156537142D01*
X186759916Y-156584761D01*
X186855154Y-156632380D01*
X187140868Y-156632380D01*
X187236106Y-156584761D01*
X187283725Y-156537142D01*
X206686909Y-176317380D02*
X206686909Y-175317380D01*
X206448814Y-175317380D01*
X206305957Y-175365000D01*
X206210719Y-175460238D01*
X206163100Y-175555476D01*
X206115481Y-175745952D01*
X206115481Y-175888809D01*
X206163100Y-176079285D01*
X206210719Y-176174523D01*
X206305957Y-176269761D01*
X206448814Y-176317380D01*
X206686909Y-176317380D01*
X205163100Y-176317380D02*
X205734528Y-176317380D01*
X205448814Y-176317380D02*
X205448814Y-175317380D01*
X205544052Y-175460238D01*
X205639290Y-175555476D01*
X205734528Y-175603095D01*
X204782147Y-175412619D02*
X204734528Y-175365000D01*
X204639290Y-175317380D01*
X204401195Y-175317380D01*
X204305957Y-175365000D01*
X204258338Y-175412619D01*
X204210719Y-175507857D01*
X204210719Y-175603095D01*
X204258338Y-175745952D01*
X204829766Y-176317380D01*
X204210719Y-176317380D01*
X231082004Y-115357380D02*
X231082004Y-114357380D01*
X230843909Y-114357380D01*
X230701052Y-114405000D01*
X230605814Y-114500238D01*
X230558195Y-114595476D01*
X230510576Y-114785952D01*
X230510576Y-114928809D01*
X230558195Y-115119285D01*
X230605814Y-115214523D01*
X230701052Y-115309761D01*
X230843909Y-115357380D01*
X231082004Y-115357380D01*
X229939147Y-114785952D02*
X230034385Y-114738333D01*
X230082004Y-114690714D01*
X230129623Y-114595476D01*
X230129623Y-114547857D01*
X230082004Y-114452619D01*
X230034385Y-114405000D01*
X229939147Y-114357380D01*
X229748671Y-114357380D01*
X229653433Y-114405000D01*
X229605814Y-114452619D01*
X229558195Y-114547857D01*
X229558195Y-114595476D01*
X229605814Y-114690714D01*
X229653433Y-114738333D01*
X229748671Y-114785952D01*
X229939147Y-114785952D01*
X230034385Y-114833571D01*
X230082004Y-114881190D01*
X230129623Y-114976428D01*
X230129623Y-115166904D01*
X230082004Y-115262142D01*
X230034385Y-115309761D01*
X229939147Y-115357380D01*
X229748671Y-115357380D01*
X229653433Y-115309761D01*
X229605814Y-115262142D01*
X229558195Y-115166904D01*
X229558195Y-114976428D01*
X229605814Y-114881190D01*
X229653433Y-114833571D01*
X229748671Y-114785952D01*
X228701052Y-114690714D02*
X228701052Y-115357380D01*
X228939147Y-114309761D02*
X229177242Y-115024047D01*
X228558195Y-115024047D01*
X272007169Y-136947380D02*
X272007169Y-135947380D01*
X271769074Y-135947380D01*
X271626217Y-135995000D01*
X271530979Y-136090238D01*
X271483360Y-136185476D01*
X271435741Y-136375952D01*
X271435741Y-136518809D01*
X271483360Y-136709285D01*
X271530979Y-136804523D01*
X271626217Y-136899761D01*
X271769074Y-136947380D01*
X272007169Y-136947380D01*
X271102407Y-135947380D02*
X270435741Y-135947380D01*
X270864312Y-136947380D01*
X269626217Y-136280714D02*
X269626217Y-136947380D01*
X269864312Y-135899761D02*
X270102407Y-136614047D01*
X269483360Y-136614047D01*
X297224533Y-176317380D02*
X297224533Y-175317380D01*
X296986438Y-175317380D01*
X296843581Y-175365000D01*
X296748343Y-175460238D01*
X296700724Y-175555476D01*
X296653105Y-175745952D01*
X296653105Y-175888809D01*
X296700724Y-176079285D01*
X296748343Y-176174523D01*
X296843581Y-176269761D01*
X296986438Y-176317380D01*
X297224533Y-176317380D01*
X295748343Y-175317380D02*
X296224533Y-175317380D01*
X296272152Y-175793571D01*
X296224533Y-175745952D01*
X296129295Y-175698333D01*
X295891200Y-175698333D01*
X295795962Y-175745952D01*
X295748343Y-175793571D01*
X295700724Y-175888809D01*
X295700724Y-176126904D01*
X295748343Y-176222142D01*
X295795962Y-176269761D01*
X295891200Y-176317380D01*
X296129295Y-176317380D01*
X296224533Y-176269761D01*
X296272152Y-176222142D01*
X295129295Y-175745952D02*
X295224533Y-175698333D01*
X295272152Y-175650714D01*
X295319771Y-175555476D01*
X295319771Y-175507857D01*
X295272152Y-175412619D01*
X295224533Y-175365000D01*
X295129295Y-175317380D01*
X294938819Y-175317380D01*
X294843581Y-175365000D01*
X294795962Y-175412619D01*
X294748343Y-175507857D01*
X294748343Y-175555476D01*
X294795962Y-175650714D01*
X294843581Y-175698333D01*
X294938819Y-175745952D01*
X295129295Y-175745952D01*
X295224533Y-175793571D01*
X295272152Y-175841190D01*
X295319771Y-175936428D01*
X295319771Y-176126904D01*
X295272152Y-176222142D01*
X295224533Y-176269761D01*
X295129295Y-176317380D01*
X294938819Y-176317380D01*
X294843581Y-176269761D01*
X294795962Y-176222142D01*
X294748343Y-176126904D01*
X294748343Y-175936428D01*
X294795962Y-175841190D01*
X294843581Y-175793571D01*
X294938819Y-175745952D01*
X207589285Y-197907380D02*
X207589285Y-196907380D01*
X207351190Y-196907380D01*
X207208333Y-196955000D01*
X207113095Y-197050238D01*
X207065476Y-197145476D01*
X207017857Y-197335952D01*
X207017857Y-197478809D01*
X207065476Y-197669285D01*
X207113095Y-197764523D01*
X207208333Y-197859761D01*
X207351190Y-197907380D01*
X207589285Y-197907380D01*
X206113095Y-196907380D02*
X206589285Y-196907380D01*
X206636904Y-197383571D01*
X206589285Y-197335952D01*
X206494047Y-197288333D01*
X206255952Y-197288333D01*
X206160714Y-197335952D01*
X206113095Y-197383571D01*
X206065476Y-197478809D01*
X206065476Y-197716904D01*
X206113095Y-197812142D01*
X206160714Y-197859761D01*
X206255952Y-197907380D01*
X206494047Y-197907380D01*
X206589285Y-197859761D01*
X206636904Y-197812142D01*
X205160714Y-196907380D02*
X205636904Y-196907380D01*
X205684523Y-197383571D01*
X205636904Y-197335952D01*
X205541666Y-197288333D01*
X205303571Y-197288333D01*
X205208333Y-197335952D01*
X205160714Y-197383571D01*
X205113095Y-197478809D01*
X205113095Y-197716904D01*
X205160714Y-197812142D01*
X205208333Y-197859761D01*
X205303571Y-197907380D01*
X205541666Y-197907380D01*
X205636904Y-197859761D01*
X205684523Y-197812142D01*
X323794285Y-115357380D02*
X323794285Y-114357380D01*
X323556190Y-114357380D01*
X323413333Y-114405000D01*
X323318095Y-114500238D01*
X323270476Y-114595476D01*
X323222857Y-114785952D01*
X323222857Y-114928809D01*
X323270476Y-115119285D01*
X323318095Y-115214523D01*
X323413333Y-115309761D01*
X323556190Y-115357380D01*
X323794285Y-115357380D01*
X322746666Y-115357380D02*
X322556190Y-115357380D01*
X322460952Y-115309761D01*
X322413333Y-115262142D01*
X322318095Y-115119285D01*
X322270476Y-114928809D01*
X322270476Y-114547857D01*
X322318095Y-114452619D01*
X322365714Y-114405000D01*
X322460952Y-114357380D01*
X322651428Y-114357380D01*
X322746666Y-114405000D01*
X322794285Y-114452619D01*
X322841904Y-114547857D01*
X322841904Y-114785952D01*
X322794285Y-114881190D01*
X322746666Y-114928809D01*
X322651428Y-114976428D01*
X322460952Y-114976428D01*
X322365714Y-114928809D01*
X322318095Y-114881190D01*
X322270476Y-114785952D01*
X321318095Y-115357380D02*
X321889523Y-115357380D01*
X321603809Y-115357380D02*
X321603809Y-114357380D01*
X321699047Y-114500238D01*
X321794285Y-114595476D01*
X321889523Y-114643095D01*
X179575189Y-115357380D02*
X179575189Y-114357380D01*
X179337094Y-114357380D01*
X179194237Y-114405000D01*
X179098999Y-114500238D01*
X179051380Y-114595476D01*
X179003761Y-114785952D01*
X179003761Y-114928809D01*
X179051380Y-115119285D01*
X179098999Y-115214523D01*
X179194237Y-115309761D01*
X179337094Y-115357380D01*
X179575189Y-115357380D01*
X178146618Y-114690714D02*
X178146618Y-115357380D01*
X178384713Y-114309761D02*
X178622808Y-115024047D01*
X178003761Y-115024047D01*
X177146618Y-114357380D02*
X177622808Y-114357380D01*
X177670427Y-114833571D01*
X177622808Y-114785952D01*
X177527570Y-114738333D01*
X177289475Y-114738333D01*
X177194237Y-114785952D01*
X177146618Y-114833571D01*
X177098999Y-114928809D01*
X177098999Y-115166904D01*
X177146618Y-115262142D01*
X177194237Y-115309761D01*
X177289475Y-115357380D01*
X177527570Y-115357380D01*
X177622808Y-115309761D01*
X177670427Y-115262142D01*
X232062961Y-136947380D02*
X232062961Y-135947380D01*
X231824866Y-135947380D01*
X231682009Y-135995000D01*
X231586771Y-136090238D01*
X231539152Y-136185476D01*
X231491533Y-136375952D01*
X231491533Y-136518809D01*
X231539152Y-136709285D01*
X231586771Y-136804523D01*
X231682009Y-136899761D01*
X231824866Y-136947380D01*
X232062961Y-136947380D01*
X231158199Y-135947380D02*
X230491533Y-135947380D01*
X230920104Y-136947380D01*
X229920104Y-135947380D02*
X229824866Y-135947380D01*
X229729628Y-135995000D01*
X229682009Y-136042619D01*
X229634390Y-136137857D01*
X229586771Y-136328333D01*
X229586771Y-136566428D01*
X229634390Y-136756904D01*
X229682009Y-136852142D01*
X229729628Y-136899761D01*
X229824866Y-136947380D01*
X229920104Y-136947380D01*
X230015342Y-136899761D01*
X230062961Y-136852142D01*
X230110580Y-136756904D01*
X230158199Y-136566428D01*
X230158199Y-136328333D01*
X230110580Y-136137857D01*
X230062961Y-136042619D01*
X230015342Y-135995000D01*
X229920104Y-135947380D01*
X196794285Y-197907380D02*
X196794285Y-196907380D01*
X196556190Y-196907380D01*
X196413333Y-196955000D01*
X196318095Y-197050238D01*
X196270476Y-197145476D01*
X196222857Y-197335952D01*
X196222857Y-197478809D01*
X196270476Y-197669285D01*
X196318095Y-197764523D01*
X196413333Y-197859761D01*
X196556190Y-197907380D01*
X196794285Y-197907380D01*
X195318095Y-196907380D02*
X195794285Y-196907380D01*
X195841904Y-197383571D01*
X195794285Y-197335952D01*
X195699047Y-197288333D01*
X195460952Y-197288333D01*
X195365714Y-197335952D01*
X195318095Y-197383571D01*
X195270476Y-197478809D01*
X195270476Y-197716904D01*
X195318095Y-197812142D01*
X195365714Y-197859761D01*
X195460952Y-197907380D01*
X195699047Y-197907380D01*
X195794285Y-197859761D01*
X195841904Y-197812142D01*
X194413333Y-196907380D02*
X194603809Y-196907380D01*
X194699047Y-196955000D01*
X194746666Y-197002619D01*
X194841904Y-197145476D01*
X194889523Y-197335952D01*
X194889523Y-197716904D01*
X194841904Y-197812142D01*
X194794285Y-197859761D01*
X194699047Y-197907380D01*
X194508571Y-197907380D01*
X194413333Y-197859761D01*
X194365714Y-197812142D01*
X194318095Y-197716904D01*
X194318095Y-197478809D01*
X194365714Y-197383571D01*
X194413333Y-197335952D01*
X194508571Y-197288333D01*
X194699047Y-197288333D01*
X194794285Y-197335952D01*
X194841904Y-197383571D01*
X194889523Y-197478809D01*
X220780641Y-115357380D02*
X220780641Y-114357380D01*
X220542546Y-114357380D01*
X220399689Y-114405000D01*
X220304451Y-114500238D01*
X220256832Y-114595476D01*
X220209213Y-114785952D01*
X220209213Y-114928809D01*
X220256832Y-115119285D01*
X220304451Y-115214523D01*
X220399689Y-115309761D01*
X220542546Y-115357380D01*
X220780641Y-115357380D01*
X219637784Y-114785952D02*
X219733022Y-114738333D01*
X219780641Y-114690714D01*
X219828260Y-114595476D01*
X219828260Y-114547857D01*
X219780641Y-114452619D01*
X219733022Y-114405000D01*
X219637784Y-114357380D01*
X219447308Y-114357380D01*
X219352070Y-114405000D01*
X219304451Y-114452619D01*
X219256832Y-114547857D01*
X219256832Y-114595476D01*
X219304451Y-114690714D01*
X219352070Y-114738333D01*
X219447308Y-114785952D01*
X219637784Y-114785952D01*
X219733022Y-114833571D01*
X219780641Y-114881190D01*
X219828260Y-114976428D01*
X219828260Y-115166904D01*
X219780641Y-115262142D01*
X219733022Y-115309761D01*
X219637784Y-115357380D01*
X219447308Y-115357380D01*
X219352070Y-115309761D01*
X219304451Y-115262142D01*
X219256832Y-115166904D01*
X219256832Y-114976428D01*
X219304451Y-114881190D01*
X219352070Y-114833571D01*
X219447308Y-114785952D01*
X218352070Y-114357380D02*
X218828260Y-114357380D01*
X218875879Y-114833571D01*
X218828260Y-114785952D01*
X218733022Y-114738333D01*
X218494927Y-114738333D01*
X218399689Y-114785952D01*
X218352070Y-114833571D01*
X218304451Y-114928809D01*
X218304451Y-115166904D01*
X218352070Y-115262142D01*
X218399689Y-115309761D01*
X218494927Y-115357380D01*
X218733022Y-115357380D01*
X218828260Y-115309761D01*
X218875879Y-115262142D01*
X313492908Y-115357380D02*
X313492908Y-114357380D01*
X313254813Y-114357380D01*
X313111956Y-114405000D01*
X313016718Y-114500238D01*
X312969099Y-114595476D01*
X312921480Y-114785952D01*
X312921480Y-114928809D01*
X312969099Y-115119285D01*
X313016718Y-115214523D01*
X313111956Y-115309761D01*
X313254813Y-115357380D01*
X313492908Y-115357380D01*
X312445289Y-115357380D02*
X312254813Y-115357380D01*
X312159575Y-115309761D01*
X312111956Y-115262142D01*
X312016718Y-115119285D01*
X311969099Y-114928809D01*
X311969099Y-114547857D01*
X312016718Y-114452619D01*
X312064337Y-114405000D01*
X312159575Y-114357380D01*
X312350051Y-114357380D01*
X312445289Y-114405000D01*
X312492908Y-114452619D01*
X312540527Y-114547857D01*
X312540527Y-114785952D01*
X312492908Y-114881190D01*
X312445289Y-114928809D01*
X312350051Y-114976428D01*
X312159575Y-114976428D01*
X312064337Y-114928809D01*
X312016718Y-114881190D01*
X311969099Y-114785952D01*
X311588146Y-114452619D02*
X311540527Y-114405000D01*
X311445289Y-114357380D01*
X311207194Y-114357380D01*
X311111956Y-114405000D01*
X311064337Y-114452619D01*
X311016718Y-114547857D01*
X311016718Y-114643095D01*
X311064337Y-114785952D01*
X311635765Y-115357380D01*
X311016718Y-115357380D01*
X248496654Y-156632380D02*
X248496654Y-155632380D01*
X248258559Y-155632380D01*
X248115702Y-155680000D01*
X248020464Y-155775238D01*
X247972845Y-155870476D01*
X247925226Y-156060952D01*
X247925226Y-156203809D01*
X247972845Y-156394285D01*
X248020464Y-156489523D01*
X248115702Y-156584761D01*
X248258559Y-156632380D01*
X248496654Y-156632380D01*
X247068083Y-155632380D02*
X247258559Y-155632380D01*
X247353797Y-155680000D01*
X247401416Y-155727619D01*
X247496654Y-155870476D01*
X247544273Y-156060952D01*
X247544273Y-156441904D01*
X247496654Y-156537142D01*
X247449035Y-156584761D01*
X247353797Y-156632380D01*
X247163321Y-156632380D01*
X247068083Y-156584761D01*
X247020464Y-156537142D01*
X246972845Y-156441904D01*
X246972845Y-156203809D01*
X247020464Y-156108571D01*
X247068083Y-156060952D01*
X247163321Y-156013333D01*
X247353797Y-156013333D01*
X247449035Y-156060952D01*
X247496654Y-156108571D01*
X247544273Y-156203809D01*
X246068083Y-155632380D02*
X246544273Y-155632380D01*
X246591892Y-156108571D01*
X246544273Y-156060952D01*
X246449035Y-156013333D01*
X246210940Y-156013333D01*
X246115702Y-156060952D01*
X246068083Y-156108571D01*
X246020464Y-156203809D01*
X246020464Y-156441904D01*
X246068083Y-156537142D01*
X246115702Y-156584761D01*
X246210940Y-156632380D01*
X246449035Y-156632380D01*
X246544273Y-156584761D01*
X246591892Y-156537142D01*
X222076909Y-136947380D02*
X222076909Y-135947380D01*
X221838814Y-135947380D01*
X221695957Y-135995000D01*
X221600719Y-136090238D01*
X221553100Y-136185476D01*
X221505481Y-136375952D01*
X221505481Y-136518809D01*
X221553100Y-136709285D01*
X221600719Y-136804523D01*
X221695957Y-136899761D01*
X221838814Y-136947380D01*
X222076909Y-136947380D01*
X221172147Y-135947380D02*
X220505481Y-135947380D01*
X220934052Y-136947380D01*
X219600719Y-136947380D02*
X220172147Y-136947380D01*
X219886433Y-136947380D02*
X219886433Y-135947380D01*
X219981671Y-136090238D01*
X220076909Y-136185476D01*
X220172147Y-136233095D01*
X117767011Y-115357380D02*
X117767011Y-114357380D01*
X117528916Y-114357380D01*
X117386059Y-114405000D01*
X117290821Y-114500238D01*
X117243202Y-114595476D01*
X117195583Y-114785952D01*
X117195583Y-114928809D01*
X117243202Y-115119285D01*
X117290821Y-115214523D01*
X117386059Y-115309761D01*
X117528916Y-115357380D01*
X117767011Y-115357380D01*
X116862249Y-114357380D02*
X116243202Y-114357380D01*
X116576535Y-114738333D01*
X116433678Y-114738333D01*
X116338440Y-114785952D01*
X116290821Y-114833571D01*
X116243202Y-114928809D01*
X116243202Y-115166904D01*
X116290821Y-115262142D01*
X116338440Y-115309761D01*
X116433678Y-115357380D01*
X116719392Y-115357380D01*
X116814630Y-115309761D01*
X116862249Y-115262142D01*
X115767011Y-115357380D02*
X115576535Y-115357380D01*
X115481297Y-115309761D01*
X115433678Y-115262142D01*
X115338440Y-115119285D01*
X115290821Y-114928809D01*
X115290821Y-114547857D01*
X115338440Y-114452619D01*
X115386059Y-114405000D01*
X115481297Y-114357380D01*
X115671773Y-114357380D01*
X115767011Y-114405000D01*
X115814630Y-114452619D01*
X115862249Y-114547857D01*
X115862249Y-114785952D01*
X115814630Y-114881190D01*
X115767011Y-114928809D01*
X115671773Y-114976428D01*
X115481297Y-114976428D01*
X115386059Y-114928809D01*
X115338440Y-114881190D01*
X115290821Y-114785952D01*
X252035065Y-136947380D02*
X252035065Y-135947380D01*
X251796970Y-135947380D01*
X251654113Y-135995000D01*
X251558875Y-136090238D01*
X251511256Y-136185476D01*
X251463637Y-136375952D01*
X251463637Y-136518809D01*
X251511256Y-136709285D01*
X251558875Y-136804523D01*
X251654113Y-136899761D01*
X251796970Y-136947380D01*
X252035065Y-136947380D01*
X251130303Y-135947380D02*
X250463637Y-135947380D01*
X250892208Y-136947380D01*
X249654113Y-135947380D02*
X249844589Y-135947380D01*
X249939827Y-135995000D01*
X249987446Y-136042619D01*
X250082684Y-136185476D01*
X250130303Y-136375952D01*
X250130303Y-136756904D01*
X250082684Y-136852142D01*
X250035065Y-136899761D01*
X249939827Y-136947380D01*
X249749351Y-136947380D01*
X249654113Y-136899761D01*
X249606494Y-136852142D01*
X249558875Y-136756904D01*
X249558875Y-136518809D01*
X249606494Y-136423571D01*
X249654113Y-136375952D01*
X249749351Y-136328333D01*
X249939827Y-136328333D01*
X250035065Y-136375952D01*
X250082684Y-136423571D01*
X250130303Y-136518809D01*
X246449663Y-176317380D02*
X246449663Y-175317380D01*
X246211568Y-175317380D01*
X246068710Y-175365000D01*
X245973472Y-175460238D01*
X245925853Y-175555476D01*
X245878234Y-175745952D01*
X245878234Y-175888809D01*
X245925853Y-176079285D01*
X245973472Y-176174523D01*
X246068710Y-176269761D01*
X246211568Y-176317380D01*
X246449663Y-176317380D01*
X245497282Y-175412619D02*
X245449663Y-175365000D01*
X245354425Y-175317380D01*
X245116329Y-175317380D01*
X245021091Y-175365000D01*
X244973472Y-175412619D01*
X244925853Y-175507857D01*
X244925853Y-175603095D01*
X244973472Y-175745952D01*
X245544901Y-176317380D01*
X244925853Y-176317380D01*
X135792567Y-176317380D02*
X135792567Y-175317380D01*
X135554472Y-175317380D01*
X135411614Y-175365000D01*
X135316376Y-175460238D01*
X135268757Y-175555476D01*
X135221138Y-175745952D01*
X135221138Y-175888809D01*
X135268757Y-176079285D01*
X135316376Y-176174523D01*
X135411614Y-176269761D01*
X135554472Y-176317380D01*
X135792567Y-176317380D01*
X134363995Y-175317380D02*
X134554472Y-175317380D01*
X134649710Y-175365000D01*
X134697329Y-175412619D01*
X134792567Y-175555476D01*
X134840186Y-175745952D01*
X134840186Y-176126904D01*
X134792567Y-176222142D01*
X134744948Y-176269761D01*
X134649710Y-176317380D01*
X134459233Y-176317380D01*
X134363995Y-176269761D01*
X134316376Y-176222142D01*
X134268757Y-176126904D01*
X134268757Y-175888809D01*
X134316376Y-175793571D01*
X134363995Y-175745952D01*
X134459233Y-175698333D01*
X134649710Y-175698333D01*
X134744948Y-175745952D01*
X134792567Y-175793571D01*
X134840186Y-175888809D01*
X145852303Y-176317380D02*
X145852303Y-175317380D01*
X145614208Y-175317380D01*
X145471350Y-175365000D01*
X145376112Y-175460238D01*
X145328493Y-175555476D01*
X145280874Y-175745952D01*
X145280874Y-175888809D01*
X145328493Y-176079285D01*
X145376112Y-176174523D01*
X145471350Y-176269761D01*
X145614208Y-176317380D01*
X145852303Y-176317380D01*
X144376112Y-175317380D02*
X144852303Y-175317380D01*
X144899922Y-175793571D01*
X144852303Y-175745952D01*
X144757065Y-175698333D01*
X144518969Y-175698333D01*
X144423731Y-175745952D01*
X144376112Y-175793571D01*
X144328493Y-175888809D01*
X144328493Y-176126904D01*
X144376112Y-176222142D01*
X144423731Y-176269761D01*
X144518969Y-176317380D01*
X144757065Y-176317380D01*
X144852303Y-176269761D01*
X144899922Y-176222142D01*
X238604023Y-156632380D02*
X238604023Y-155632380D01*
X238365928Y-155632380D01*
X238223071Y-155680000D01*
X238127833Y-155775238D01*
X238080214Y-155870476D01*
X238032595Y-156060952D01*
X238032595Y-156203809D01*
X238080214Y-156394285D01*
X238127833Y-156489523D01*
X238223071Y-156584761D01*
X238365928Y-156632380D01*
X238604023Y-156632380D01*
X237175452Y-155632380D02*
X237365928Y-155632380D01*
X237461166Y-155680000D01*
X237508785Y-155727619D01*
X237604023Y-155870476D01*
X237651642Y-156060952D01*
X237651642Y-156441904D01*
X237604023Y-156537142D01*
X237556404Y-156584761D01*
X237461166Y-156632380D01*
X237270690Y-156632380D01*
X237175452Y-156584761D01*
X237127833Y-156537142D01*
X237080214Y-156441904D01*
X237080214Y-156203809D01*
X237127833Y-156108571D01*
X237175452Y-156060952D01*
X237270690Y-156013333D01*
X237461166Y-156013333D01*
X237556404Y-156060952D01*
X237604023Y-156108571D01*
X237651642Y-156203809D01*
X236461166Y-155632380D02*
X236365928Y-155632380D01*
X236270690Y-155680000D01*
X236223071Y-155727619D01*
X236175452Y-155822857D01*
X236127833Y-156013333D01*
X236127833Y-156251428D01*
X236175452Y-156441904D01*
X236223071Y-156537142D01*
X236270690Y-156584761D01*
X236365928Y-156632380D01*
X236461166Y-156632380D01*
X236556404Y-156584761D01*
X236604023Y-156537142D01*
X236651642Y-156441904D01*
X236699261Y-156251428D01*
X236699261Y-156013333D01*
X236651642Y-155822857D01*
X236604023Y-155727619D01*
X236556404Y-155680000D01*
X236461166Y-155632380D01*
X109999820Y-156632380D02*
X109999820Y-155632380D01*
X109761725Y-155632380D01*
X109618868Y-155680000D01*
X109523630Y-155775238D01*
X109476011Y-155870476D01*
X109428392Y-156060952D01*
X109428392Y-156203809D01*
X109476011Y-156394285D01*
X109523630Y-156489523D01*
X109618868Y-156584761D01*
X109761725Y-156632380D01*
X109999820Y-156632380D01*
X108476011Y-156632380D02*
X109047439Y-156632380D01*
X108761725Y-156632380D02*
X108761725Y-155632380D01*
X108856963Y-155775238D01*
X108952201Y-155870476D01*
X109047439Y-155918095D01*
X107571249Y-155632380D02*
X108047439Y-155632380D01*
X108095058Y-156108571D01*
X108047439Y-156060952D01*
X107952201Y-156013333D01*
X107714106Y-156013333D01*
X107618868Y-156060952D01*
X107571249Y-156108571D01*
X107523630Y-156203809D01*
X107523630Y-156441904D01*
X107571249Y-156537142D01*
X107618868Y-156584761D01*
X107714106Y-156632380D01*
X107952201Y-156632380D01*
X108047439Y-156584761D01*
X108095058Y-156537142D01*
D11*
X122152104Y-137195000D02*
X122152104Y-138395000D01*
X120302104Y-137195000D02*
X122152104Y-137195000D01*
X120302104Y-138395000D02*
X122152104Y-138395000D01*
X283462500Y-198155000D02*
X285312500Y-198155000D01*
X283462500Y-199355000D02*
X285312500Y-199355000D01*
X285312500Y-198155000D02*
X285312500Y-199355000D01*
X89470000Y-176565000D02*
X91320000Y-176565000D01*
X89470000Y-177765000D02*
X91320000Y-177765000D01*
X91320000Y-176565000D02*
X91320000Y-177765000D01*
X226742096Y-176565000D02*
X226742096Y-177765000D01*
X224892096Y-176565000D02*
X226742096Y-176565000D01*
X224892096Y-177765000D02*
X226742096Y-177765000D01*
X197119214Y-156880000D02*
X198969214Y-156880000D01*
X198969214Y-156880000D02*
X198969214Y-158080000D01*
X197119214Y-158080000D02*
X198969214Y-158080000D01*
X202040520Y-137195000D02*
X202040520Y-138395000D01*
X200190520Y-138395000D02*
X202040520Y-138395000D01*
X200190520Y-137195000D02*
X202040520Y-137195000D01*
X158908178Y-115605000D02*
X158908178Y-116805000D01*
X157058178Y-115605000D02*
X158908178Y-115605000D01*
X157058178Y-116805000D02*
X158908178Y-116805000D01*
X157548690Y-158080000D02*
X159398690Y-158080000D01*
X159398690Y-156880000D02*
X159398690Y-158080000D01*
X157548690Y-156880000D02*
X159398690Y-156880000D01*
X296045535Y-158080000D02*
X297895535Y-158080000D01*
X296045535Y-156880000D02*
X297895535Y-156880000D01*
X297895535Y-156880000D02*
X297895535Y-158080000D01*
X255071304Y-176565000D02*
X256921304Y-176565000D01*
X256921304Y-176565000D02*
X256921304Y-177765000D01*
X255071304Y-177765000D02*
X256921304Y-177765000D01*
X305370000Y-176565000D02*
X307220000Y-176565000D01*
X305370000Y-177765000D02*
X307220000Y-177765000D01*
X307220000Y-176565000D02*
X307220000Y-177765000D01*
X286152893Y-156880000D02*
X288002893Y-156880000D01*
X288002893Y-156880000D02*
X288002893Y-158080000D01*
X286152893Y-158080000D02*
X288002893Y-158080000D01*
X236801832Y-176565000D02*
X236801832Y-177765000D01*
X234951832Y-176565000D02*
X236801832Y-176565000D01*
X234951832Y-177765000D02*
X236801832Y-177765000D01*
X186503152Y-176565000D02*
X186503152Y-177765000D01*
X184653152Y-177765000D02*
X186503152Y-177765000D01*
X184653152Y-176565000D02*
X186503152Y-176565000D01*
X278645000Y-198155000D02*
X278645000Y-199355000D01*
X276795000Y-198155000D02*
X278645000Y-198155000D01*
X276795000Y-199355000D02*
X278645000Y-199355000D01*
X95250000Y-115605000D02*
X97100000Y-115605000D01*
X97100000Y-115605000D02*
X97100000Y-116805000D01*
X95250000Y-116805000D02*
X97100000Y-116805000D01*
X114235000Y-177765000D02*
X116085000Y-177765000D01*
X116085000Y-176565000D02*
X116085000Y-177765000D01*
X114235000Y-176565000D02*
X116085000Y-176565000D01*
X317435000Y-156880000D02*
X319285000Y-156880000D01*
X319285000Y-156880000D02*
X319285000Y-158080000D01*
X317435000Y-158080000D02*
X319285000Y-158080000D01*
X128004089Y-115605000D02*
X128004089Y-116805000D01*
X126154089Y-115605000D02*
X128004089Y-115605000D01*
X126154089Y-116805000D02*
X128004089Y-116805000D01*
X169291321Y-156880000D02*
X169291321Y-158080000D01*
X167441321Y-156880000D02*
X169291321Y-156880000D01*
X167441321Y-158080000D02*
X169291321Y-158080000D01*
X301277260Y-116805000D02*
X303127260Y-116805000D01*
X301277260Y-115605000D02*
X303127260Y-115605000D01*
X303127260Y-115605000D02*
X303127260Y-116805000D01*
X210176572Y-138395000D02*
X212026572Y-138395000D01*
X212026572Y-137195000D02*
X212026572Y-138395000D01*
X210176572Y-137195000D02*
X212026572Y-137195000D01*
X198263630Y-116805000D02*
X200113630Y-116805000D01*
X198263630Y-115605000D02*
X200113630Y-115605000D01*
X200113630Y-115605000D02*
X200113630Y-116805000D01*
X172082364Y-137195000D02*
X172082364Y-138395000D01*
X170232364Y-138395000D02*
X172082364Y-138395000D01*
X170232364Y-137195000D02*
X172082364Y-137195000D01*
X258325000Y-156880000D02*
X258325000Y-158080000D01*
X256475000Y-156880000D02*
X258325000Y-156880000D01*
X256475000Y-158080000D02*
X258325000Y-158080000D01*
X251620445Y-115605000D02*
X251620445Y-116805000D01*
X249770445Y-116805000D02*
X251620445Y-116805000D01*
X249770445Y-115605000D02*
X251620445Y-115605000D01*
X261956832Y-137195000D02*
X261956832Y-138395000D01*
X260106832Y-138395000D02*
X261956832Y-138395000D01*
X260106832Y-137195000D02*
X261956832Y-137195000D01*
X290975897Y-116805000D02*
X292825897Y-116805000D01*
X292825897Y-115605000D02*
X292825897Y-116805000D01*
X290975897Y-115605000D02*
X292825897Y-115605000D01*
X281928936Y-137195000D02*
X281928936Y-138395000D01*
X280078936Y-137195000D02*
X281928936Y-137195000D01*
X280078936Y-138395000D02*
X281928936Y-138395000D01*
X277040776Y-176565000D02*
X277040776Y-177765000D01*
X275190776Y-176565000D02*
X277040776Y-176565000D01*
X275190776Y-177765000D02*
X277040776Y-177765000D01*
X146756815Y-115605000D02*
X148606815Y-115605000D01*
X148606815Y-115605000D02*
X148606815Y-116805000D01*
X146756815Y-116805000D02*
X148606815Y-116805000D01*
X117978166Y-158080000D02*
X119828166Y-158080000D01*
X117978166Y-156880000D02*
X119828166Y-156880000D01*
X119828166Y-156880000D02*
X119828166Y-158080000D01*
X226797107Y-158080000D02*
X228647107Y-158080000D01*
X226797107Y-156880000D02*
X228647107Y-156880000D01*
X228647107Y-156880000D02*
X228647107Y-158080000D01*
X177333952Y-158080000D02*
X179183952Y-158080000D01*
X179183952Y-156880000D02*
X179183952Y-158080000D01*
X177333952Y-156880000D02*
X179183952Y-156880000D01*
X260071808Y-115605000D02*
X261921808Y-115605000D01*
X260071808Y-116805000D02*
X261921808Y-116805000D01*
X261921808Y-115605000D02*
X261921808Y-116805000D01*
X180218416Y-138395000D02*
X182068416Y-138395000D01*
X182068416Y-137195000D02*
X182068416Y-138395000D01*
X180218416Y-137195000D02*
X182068416Y-137195000D01*
X268217631Y-156880000D02*
X268217631Y-158080000D01*
X266367631Y-156880000D02*
X268217631Y-156880000D01*
X266367631Y-158080000D02*
X268217631Y-158080000D01*
X162096312Y-137195000D02*
X162096312Y-138395000D01*
X160246312Y-137195000D02*
X162096312Y-137195000D01*
X160246312Y-138395000D02*
X162096312Y-138395000D01*
X126144736Y-176565000D02*
X126144736Y-177765000D01*
X124294736Y-177765000D02*
X126144736Y-177765000D01*
X124294736Y-176565000D02*
X126144736Y-176565000D01*
X196562888Y-176565000D02*
X196562888Y-177765000D01*
X194712888Y-177765000D02*
X196562888Y-177765000D01*
X194712888Y-176565000D02*
X196562888Y-176565000D01*
X164533680Y-176565000D02*
X166383680Y-176565000D01*
X166383680Y-176565000D02*
X166383680Y-177765000D01*
X164533680Y-177765000D02*
X166383680Y-177765000D01*
X147656059Y-156880000D02*
X149506059Y-156880000D01*
X149506059Y-156880000D02*
X149506059Y-158080000D01*
X147656059Y-158080000D02*
X149506059Y-158080000D01*
X105551363Y-116805000D02*
X107401363Y-116805000D01*
X105551363Y-115605000D02*
X107401363Y-115605000D01*
X107401363Y-115605000D02*
X107401363Y-116805000D01*
X265131040Y-177765000D02*
X266981040Y-177765000D01*
X265131040Y-176565000D02*
X266981040Y-176565000D01*
X266981040Y-176565000D02*
X266981040Y-177765000D01*
X190204468Y-137195000D02*
X192054468Y-137195000D01*
X190204468Y-138395000D02*
X192054468Y-138395000D01*
X192054468Y-137195000D02*
X192054468Y-138395000D01*
X140274208Y-137195000D02*
X142124208Y-137195000D01*
X142124208Y-137195000D02*
X142124208Y-138395000D01*
X140274208Y-138395000D02*
X142124208Y-138395000D01*
X100330000Y-137195000D02*
X102180000Y-137195000D01*
X100330000Y-138395000D02*
X102180000Y-138395000D01*
X102180000Y-137195000D02*
X102180000Y-138395000D01*
X270373171Y-115605000D02*
X272223171Y-115605000D01*
X272223171Y-115605000D02*
X272223171Y-116805000D01*
X270373171Y-116805000D02*
X272223171Y-116805000D01*
X280674534Y-115605000D02*
X282524534Y-115605000D01*
X282524534Y-115605000D02*
X282524534Y-116805000D01*
X280674534Y-116805000D02*
X282524534Y-116805000D01*
X152110260Y-137195000D02*
X152110260Y-138395000D01*
X150260260Y-137195000D02*
X152110260Y-137195000D01*
X150260260Y-138395000D02*
X152110260Y-138395000D01*
X136455452Y-115605000D02*
X138305452Y-115605000D01*
X136455452Y-116805000D02*
X138305452Y-116805000D01*
X138305452Y-115605000D02*
X138305452Y-116805000D01*
X156323944Y-176565000D02*
X156323944Y-177765000D01*
X154473944Y-177765000D02*
X156323944Y-177765000D01*
X154473944Y-176565000D02*
X156323944Y-176565000D01*
X287100512Y-176565000D02*
X287100512Y-177765000D01*
X285250512Y-176565000D02*
X287100512Y-176565000D01*
X285250512Y-177765000D02*
X287100512Y-177765000D01*
X240134728Y-138395000D02*
X241984728Y-138395000D01*
X241984728Y-137195000D02*
X241984728Y-138395000D01*
X240134728Y-137195000D02*
X241984728Y-137195000D01*
X214832360Y-176565000D02*
X216682360Y-176565000D01*
X214832360Y-177765000D02*
X216682360Y-177765000D01*
X216682360Y-176565000D02*
X216682360Y-177765000D01*
X291915000Y-137195000D02*
X291915000Y-138395000D01*
X290065000Y-138395000D02*
X291915000Y-138395000D01*
X290065000Y-137195000D02*
X291915000Y-137195000D01*
X174593416Y-176565000D02*
X176443416Y-176565000D01*
X176443416Y-176565000D02*
X176443416Y-177765000D01*
X174593416Y-177765000D02*
X176443416Y-177765000D01*
X241319082Y-115605000D02*
X241319082Y-116805000D01*
X239469082Y-116805000D02*
X241319082Y-116805000D01*
X239469082Y-115605000D02*
X241319082Y-115605000D01*
X208861845Y-156880000D02*
X208861845Y-158080000D01*
X207011845Y-156880000D02*
X208861845Y-156880000D01*
X207011845Y-158080000D02*
X208861845Y-158080000D01*
X130288156Y-138395000D02*
X132138156Y-138395000D01*
X130288156Y-137195000D02*
X132138156Y-137195000D01*
X132138156Y-137195000D02*
X132138156Y-138395000D01*
X93280000Y-198155000D02*
X95130000Y-198155000D01*
X93280000Y-199355000D02*
X95130000Y-199355000D01*
X95130000Y-198155000D02*
X95130000Y-199355000D01*
X290130000Y-199355000D02*
X291980000Y-199355000D01*
X291980000Y-198155000D02*
X291980000Y-199355000D01*
X290130000Y-198155000D02*
X291980000Y-198155000D01*
X276260262Y-158080000D02*
X278110262Y-158080000D01*
X278110262Y-156880000D02*
X278110262Y-158080000D01*
X276260262Y-156880000D02*
X278110262Y-156880000D01*
X216904476Y-158080000D02*
X218754476Y-158080000D01*
X216904476Y-156880000D02*
X218754476Y-156880000D01*
X218754476Y-156880000D02*
X218754476Y-158080000D01*
X187962267Y-116805000D02*
X189812267Y-116805000D01*
X187962267Y-115605000D02*
X189812267Y-115605000D01*
X189812267Y-115605000D02*
X189812267Y-116805000D01*
X139613428Y-156880000D02*
X139613428Y-158080000D01*
X137763428Y-156880000D02*
X139613428Y-156880000D01*
X137763428Y-158080000D02*
X139613428Y-158080000D01*
X110316052Y-138395000D02*
X112166052Y-138395000D01*
X110316052Y-137195000D02*
X112166052Y-137195000D01*
X112166052Y-137195000D02*
X112166052Y-138395000D01*
X167359541Y-116805000D02*
X169209541Y-116805000D01*
X167359541Y-115605000D02*
X169209541Y-115605000D01*
X169209541Y-115605000D02*
X169209541Y-116805000D01*
X127870797Y-156880000D02*
X129720797Y-156880000D01*
X129720797Y-156880000D02*
X129720797Y-158080000D01*
X127870797Y-158080000D02*
X129720797Y-158080000D01*
X329445000Y-156880000D02*
X329445000Y-158080000D01*
X327595000Y-158080000D02*
X329445000Y-158080000D01*
X327595000Y-156880000D02*
X329445000Y-156880000D01*
X210414993Y-115605000D02*
X210414993Y-116805000D01*
X208564993Y-116805000D02*
X210414993Y-116805000D01*
X208564993Y-115605000D02*
X210414993Y-115605000D01*
X189076583Y-156880000D02*
X189076583Y-158080000D01*
X187226583Y-156880000D02*
X189076583Y-156880000D01*
X187226583Y-158080000D02*
X189076583Y-158080000D01*
X204772624Y-176565000D02*
X206622624Y-176565000D01*
X204772624Y-177765000D02*
X206622624Y-177765000D01*
X206622624Y-176565000D02*
X206622624Y-177765000D01*
X231017719Y-115605000D02*
X231017719Y-116805000D01*
X229167719Y-115605000D02*
X231017719Y-115605000D01*
X229167719Y-116805000D02*
X231017719Y-116805000D01*
X270092884Y-138395000D02*
X271942884Y-138395000D01*
X270092884Y-137195000D02*
X271942884Y-137195000D01*
X271942884Y-137195000D02*
X271942884Y-138395000D01*
X295310248Y-176565000D02*
X297160248Y-176565000D01*
X295310248Y-177765000D02*
X297160248Y-177765000D01*
X297160248Y-176565000D02*
X297160248Y-177765000D01*
X205675000Y-199355000D02*
X207525000Y-199355000D01*
X207525000Y-198155000D02*
X207525000Y-199355000D01*
X205675000Y-198155000D02*
X207525000Y-198155000D01*
X321880000Y-115605000D02*
X323730000Y-115605000D01*
X321880000Y-116805000D02*
X323730000Y-116805000D01*
X323730000Y-115605000D02*
X323730000Y-116805000D01*
X179510904Y-115605000D02*
X179510904Y-116805000D01*
X177660904Y-115605000D02*
X179510904Y-115605000D01*
X177660904Y-116805000D02*
X179510904Y-116805000D01*
X230148676Y-137195000D02*
X231998676Y-137195000D01*
X230148676Y-138395000D02*
X231998676Y-138395000D01*
X231998676Y-137195000D02*
X231998676Y-138395000D01*
X194880000Y-199355000D02*
X196730000Y-199355000D01*
X194880000Y-198155000D02*
X196730000Y-198155000D01*
X196730000Y-198155000D02*
X196730000Y-199355000D01*
X218866356Y-116805000D02*
X220716356Y-116805000D01*
X218866356Y-115605000D02*
X220716356Y-115605000D01*
X220716356Y-115605000D02*
X220716356Y-116805000D01*
X311578623Y-115605000D02*
X313428623Y-115605000D01*
X311578623Y-116805000D02*
X313428623Y-116805000D01*
X313428623Y-115605000D02*
X313428623Y-116805000D01*
X246582369Y-158080000D02*
X248432369Y-158080000D01*
X246582369Y-156880000D02*
X248432369Y-156880000D01*
X248432369Y-156880000D02*
X248432369Y-158080000D01*
X220162624Y-138395000D02*
X222012624Y-138395000D01*
X220162624Y-137195000D02*
X222012624Y-137195000D01*
X222012624Y-137195000D02*
X222012624Y-138395000D01*
X117702726Y-115605000D02*
X117702726Y-116805000D01*
X115852726Y-116805000D02*
X117702726Y-116805000D01*
X115852726Y-115605000D02*
X117702726Y-115605000D01*
X250120780Y-137195000D02*
X251970780Y-137195000D01*
X250120780Y-138395000D02*
X251970780Y-138395000D01*
X251970780Y-137195000D02*
X251970780Y-138395000D01*
X246861568Y-176565000D02*
X246861568Y-177765000D01*
X245011568Y-177765000D02*
X246861568Y-177765000D01*
X245011568Y-176565000D02*
X246861568Y-176565000D01*
X136204472Y-176565000D02*
X136204472Y-177765000D01*
X134354472Y-176565000D02*
X136204472Y-176565000D01*
X134354472Y-177765000D02*
X136204472Y-177765000D01*
X144414208Y-177765000D02*
X146264208Y-177765000D01*
X144414208Y-176565000D02*
X146264208Y-176565000D01*
X146264208Y-176565000D02*
X146264208Y-177765000D01*
X236689738Y-158080000D02*
X238539738Y-158080000D01*
X236689738Y-156880000D02*
X238539738Y-156880000D01*
X238539738Y-156880000D02*
X238539738Y-158080000D01*
X108085535Y-158080000D02*
X109935535Y-158080000D01*
X109935535Y-156880000D02*
X109935535Y-158080000D01*
X108085535Y-156880000D02*
X109935535Y-156880000D01*
%LPC*%
D12*
X232410000Y-125730000D03*
X242570000Y-125730000D03*
D13*
X237490000Y-125730000D03*
D14*
X240030000Y-120650000D03*
X233680000Y-123190000D03*
D13*
X318770000Y-125730000D03*
D12*
X313690000Y-125730000D03*
X323850000Y-125730000D03*
D14*
X321310000Y-120650000D03*
X314960000Y-123190000D03*
D15*
X48815000Y-221060000D03*
D12*
X171450000Y-125730000D03*
D13*
X176530000Y-125730000D03*
D12*
X181610000Y-125730000D03*
D14*
X179070000Y-120650000D03*
X172720000Y-123190000D03*
D12*
X271780000Y-146050000D03*
D13*
X266700000Y-146050000D03*
D12*
X261620000Y-146050000D03*
D14*
X269240000Y-140970000D03*
X262890000Y-143510000D03*
D12*
X236220000Y-187080000D03*
X246380000Y-187080000D03*
D13*
X241300000Y-187080000D03*
D14*
X243840000Y-182000000D03*
X237490000Y-184540000D03*
D13*
X281940000Y-187080000D03*
D12*
X287020000Y-187080000D03*
X276860000Y-187080000D03*
D14*
X284480000Y-182000000D03*
X278130000Y-184540000D03*
D16*
X156210000Y-104140000D03*
D17*
X158750000Y-104140000D03*
X161290000Y-104140000D03*
X163830000Y-104140000D03*
X166370000Y-104140000D03*
X168910000Y-104140000D03*
X171450000Y-104140000D03*
X173990000Y-104140000D03*
X176530000Y-104140000D03*
X179070000Y-104140000D03*
D12*
X129540000Y-146050000D03*
D13*
X124460000Y-146050000D03*
D12*
X119380000Y-146050000D03*
D14*
X127000000Y-140970000D03*
X120650000Y-143510000D03*
D13*
X335750000Y-174930000D03*
D12*
X318770000Y-166690000D03*
X328930000Y-166690000D03*
D13*
X323850000Y-166690000D03*
D18*
X311950000Y-159690000D03*
X335750000Y-159690000D03*
D13*
X311950000Y-174930000D03*
D14*
X326390000Y-161610000D03*
X320040000Y-164150000D03*
D13*
X144780000Y-146050000D03*
D12*
X139700000Y-146050000D03*
X149860000Y-146050000D03*
D14*
X147320000Y-140970000D03*
X140970000Y-143510000D03*
D12*
X170180000Y-146050000D03*
D13*
X165100000Y-146050000D03*
D12*
X160020000Y-146050000D03*
D14*
X167640000Y-140970000D03*
X161290000Y-143510000D03*
D12*
X220980000Y-146050000D03*
X231140000Y-146050000D03*
D13*
X226060000Y-146050000D03*
D14*
X228600000Y-140970000D03*
X222250000Y-143510000D03*
D15*
X48815000Y-98345000D03*
D13*
X139700000Y-187080000D03*
D12*
X134620000Y-187080000D03*
X144780000Y-187080000D03*
D14*
X142240000Y-182000000D03*
X135890000Y-184540000D03*
D13*
X261620000Y-187080000D03*
D12*
X266700000Y-187080000D03*
X256540000Y-187080000D03*
D14*
X264160000Y-182000000D03*
X257810000Y-184540000D03*
D12*
X114300000Y-187080000D03*
D13*
X119380000Y-187080000D03*
D12*
X124460000Y-187080000D03*
D14*
X121920000Y-182000000D03*
X115570000Y-184540000D03*
D12*
X303530000Y-125730000D03*
X293370000Y-125730000D03*
D13*
X298450000Y-125730000D03*
D14*
X300990000Y-120650000D03*
X294640000Y-123190000D03*
D13*
X200660000Y-208280000D03*
D12*
X195580000Y-208280000D03*
D18*
X150660000Y-201280000D03*
D13*
X150660000Y-216520000D03*
D12*
X205740000Y-208280000D03*
D13*
X250660000Y-216520000D03*
D18*
X250660000Y-201280000D03*
D14*
X203200000Y-203200000D03*
X196850000Y-205740000D03*
D13*
X278130000Y-125730000D03*
D12*
X273050000Y-125730000D03*
X283210000Y-125730000D03*
D14*
X280670000Y-120650000D03*
X274320000Y-123190000D03*
D12*
X215900000Y-187080000D03*
D13*
X220980000Y-187080000D03*
D12*
X226060000Y-187080000D03*
D14*
X223520000Y-182000000D03*
X217170000Y-184540000D03*
D12*
X300990000Y-208280000D03*
D13*
X295910000Y-208280000D03*
D12*
X290830000Y-208280000D03*
D14*
X298450000Y-203200000D03*
X292100000Y-205740000D03*
D12*
X224790000Y-166690000D03*
D13*
X229870000Y-166690000D03*
D12*
X234950000Y-166690000D03*
D14*
X232410000Y-161610000D03*
X226060000Y-164150000D03*
D13*
X160020000Y-187080000D03*
D12*
X154940000Y-187080000D03*
X165100000Y-187080000D03*
D14*
X162560000Y-182000000D03*
X156210000Y-184540000D03*
D12*
X113030000Y-166690000D03*
D13*
X107950000Y-166690000D03*
D12*
X102870000Y-166690000D03*
D14*
X110490000Y-161610000D03*
X104140000Y-164150000D03*
D12*
X93980000Y-208280000D03*
D13*
X88900000Y-208280000D03*
D12*
X83820000Y-208280000D03*
D14*
X91440000Y-203200000D03*
X85090000Y-205740000D03*
D13*
X185420000Y-146050000D03*
D12*
X180340000Y-146050000D03*
X190500000Y-146050000D03*
D14*
X187960000Y-140970000D03*
X181610000Y-143510000D03*
D13*
X217170000Y-125730000D03*
D12*
X212090000Y-125730000D03*
X222250000Y-125730000D03*
D14*
X219710000Y-120650000D03*
X213360000Y-123190000D03*
D12*
X90170000Y-125730000D03*
X100330000Y-125730000D03*
D13*
X95250000Y-125730000D03*
D14*
X97790000Y-120650000D03*
X91440000Y-123190000D03*
D15*
X362030000Y-221060000D03*
D13*
X128270000Y-166690000D03*
D12*
X123190000Y-166690000D03*
X133350000Y-166690000D03*
D14*
X130810000Y-161610000D03*
X124460000Y-164150000D03*
D12*
X252730000Y-125730000D03*
X262890000Y-125730000D03*
D13*
X257810000Y-125730000D03*
D14*
X260350000Y-120650000D03*
X254000000Y-123190000D03*
D13*
X270510000Y-166690000D03*
D12*
X265430000Y-166690000D03*
X275590000Y-166690000D03*
D14*
X273050000Y-161610000D03*
X266700000Y-164150000D03*
D12*
X130810000Y-125730000D03*
X140970000Y-125730000D03*
D13*
X135890000Y-125730000D03*
D14*
X138430000Y-120650000D03*
X132080000Y-123190000D03*
D12*
X161290000Y-125730000D03*
D13*
X156210000Y-125730000D03*
D12*
X151130000Y-125730000D03*
D14*
X158750000Y-120650000D03*
X152400000Y-123190000D03*
D16*
X357400000Y-118115000D03*
D17*
X357400000Y-120655000D03*
X357400000Y-123195000D03*
X357400000Y-125735000D03*
X357400000Y-128275000D03*
X357400000Y-130815000D03*
X357400000Y-133355000D03*
X357400000Y-135895000D03*
X357400000Y-138435000D03*
X357400000Y-140975000D03*
D12*
X292100000Y-146050000D03*
D13*
X287020000Y-146050000D03*
D12*
X281940000Y-146050000D03*
D14*
X289560000Y-140970000D03*
X283210000Y-143510000D03*
D12*
X110490000Y-125730000D03*
D13*
X115570000Y-125730000D03*
D12*
X120650000Y-125730000D03*
D14*
X118110000Y-120650000D03*
X111760000Y-123190000D03*
D15*
X362030000Y-98345000D03*
D12*
X328930000Y-187080000D03*
D18*
X345910000Y-180080000D03*
D13*
X345910000Y-195320000D03*
D12*
X339090000Y-187080000D03*
D18*
X322110000Y-180080000D03*
D13*
X334010000Y-187080000D03*
X322110000Y-195320000D03*
D14*
X336550000Y-182000000D03*
X330200000Y-184540000D03*
D12*
X200660000Y-146050000D03*
X210820000Y-146050000D03*
D13*
X205740000Y-146050000D03*
D14*
X208280000Y-140970000D03*
X201930000Y-143510000D03*
D12*
X191770000Y-125730000D03*
X201930000Y-125730000D03*
D13*
X196850000Y-125730000D03*
D14*
X199390000Y-120650000D03*
X193040000Y-123190000D03*
D16*
X229870000Y-104140000D03*
D17*
X232410000Y-104140000D03*
X234950000Y-104140000D03*
X237490000Y-104140000D03*
X240030000Y-104140000D03*
X242570000Y-104140000D03*
X245110000Y-104140000D03*
X247650000Y-104140000D03*
X250190000Y-104140000D03*
X252730000Y-104140000D03*
D12*
X204470000Y-166690000D03*
D13*
X209550000Y-166690000D03*
D12*
X214630000Y-166690000D03*
D14*
X212090000Y-161610000D03*
X205740000Y-164150000D03*
D12*
X270510000Y-208280000D03*
X280670000Y-208280000D03*
D13*
X275590000Y-208280000D03*
D14*
X278130000Y-203200000D03*
X271780000Y-205740000D03*
D12*
X194310000Y-166690000D03*
D13*
X189230000Y-166690000D03*
D12*
X184150000Y-166690000D03*
D14*
X191770000Y-161610000D03*
X185420000Y-164150000D03*
D13*
X246380000Y-146050000D03*
D12*
X241300000Y-146050000D03*
X251460000Y-146050000D03*
D14*
X248920000Y-140970000D03*
X242570000Y-143510000D03*
D13*
X148590000Y-166690000D03*
D12*
X143510000Y-166690000D03*
X153670000Y-166690000D03*
D14*
X151130000Y-161610000D03*
X144780000Y-164150000D03*
D12*
X82550000Y-187080000D03*
D18*
X99530000Y-180080000D03*
D12*
X92710000Y-187080000D03*
D13*
X87630000Y-187080000D03*
D18*
X75730000Y-180080000D03*
D13*
X99530000Y-195320000D03*
X75730000Y-195320000D03*
D14*
X90170000Y-182000000D03*
X83820000Y-184540000D03*
D12*
X285750000Y-166690000D03*
D13*
X290830000Y-166690000D03*
D12*
X295910000Y-166690000D03*
D14*
X293370000Y-161610000D03*
X287020000Y-164150000D03*
D12*
X245110000Y-166690000D03*
D13*
X250190000Y-166690000D03*
D12*
X255270000Y-166690000D03*
D14*
X252730000Y-161610000D03*
X246380000Y-164150000D03*
D13*
X168910000Y-166690000D03*
D12*
X163830000Y-166690000D03*
X173990000Y-166690000D03*
D14*
X171450000Y-161610000D03*
X165100000Y-164150000D03*
D13*
X180340000Y-187080000D03*
D12*
X175260000Y-187080000D03*
X185420000Y-187080000D03*
D14*
X182880000Y-182000000D03*
X176530000Y-184540000D03*
D12*
X109220000Y-146050000D03*
X99060000Y-146050000D03*
D13*
X104140000Y-146050000D03*
D14*
X106680000Y-140970000D03*
X100330000Y-143510000D03*
D12*
X297180000Y-187080000D03*
X307340000Y-187080000D03*
D13*
X302260000Y-187080000D03*
D14*
X304800000Y-182000000D03*
X298450000Y-184540000D03*
D16*
X53340000Y-118115000D03*
D17*
X53340000Y-120655000D03*
X53340000Y-123195000D03*
X53340000Y-125735000D03*
X53340000Y-128275000D03*
X53340000Y-130815000D03*
X53340000Y-133355000D03*
X53340000Y-135895000D03*
X53340000Y-138435000D03*
X53340000Y-140975000D03*
D13*
X200660000Y-187080000D03*
D12*
X195580000Y-187080000D03*
X205740000Y-187080000D03*
D14*
X203200000Y-182000000D03*
X196850000Y-184540000D03*
D19*
X121702104Y-137795000D03*
X120302104Y-137795000D03*
X284862500Y-198755000D03*
X283462500Y-198755000D03*
X90870000Y-177165000D03*
X89470000Y-177165000D03*
X226292096Y-177165000D03*
X224892096Y-177165000D03*
X198519214Y-157480000D03*
X197119214Y-157480000D03*
X201590520Y-137795000D03*
X200190520Y-137795000D03*
X158458178Y-116205000D03*
X157058178Y-116205000D03*
X158948690Y-157480000D03*
X157548690Y-157480000D03*
X297445535Y-157480000D03*
X296045535Y-157480000D03*
X256471304Y-177165000D03*
X255071304Y-177165000D03*
X306770000Y-177165000D03*
X305370000Y-177165000D03*
X287552893Y-157480000D03*
X286152893Y-157480000D03*
X236351832Y-177165000D03*
X234951832Y-177165000D03*
X186053152Y-177165000D03*
X184653152Y-177165000D03*
X278195000Y-198755000D03*
X276795000Y-198755000D03*
X96650000Y-116205000D03*
X95250000Y-116205000D03*
X115635000Y-177165000D03*
X114235000Y-177165000D03*
X318835000Y-157480000D03*
X317435000Y-157480000D03*
X127554089Y-116205000D03*
X126154089Y-116205000D03*
X168841321Y-157480000D03*
X167441321Y-157480000D03*
X302677260Y-116205000D03*
X301277260Y-116205000D03*
X211576572Y-137795000D03*
X210176572Y-137795000D03*
X199663630Y-116205000D03*
X198263630Y-116205000D03*
X171632364Y-137795000D03*
X170232364Y-137795000D03*
X257875000Y-157480000D03*
X256475000Y-157480000D03*
X251170445Y-116205000D03*
X249770445Y-116205000D03*
X261506832Y-137795000D03*
X260106832Y-137795000D03*
X292375897Y-116205000D03*
X290975897Y-116205000D03*
X281478936Y-137795000D03*
X280078936Y-137795000D03*
X276590776Y-177165000D03*
X275190776Y-177165000D03*
X148156815Y-116205000D03*
X146756815Y-116205000D03*
X119378166Y-157480000D03*
X117978166Y-157480000D03*
X228197107Y-157480000D03*
X226797107Y-157480000D03*
X178733952Y-157480000D03*
X177333952Y-157480000D03*
X261471808Y-116205000D03*
X260071808Y-116205000D03*
X181618416Y-137795000D03*
X180218416Y-137795000D03*
X267767631Y-157480000D03*
X266367631Y-157480000D03*
X161646312Y-137795000D03*
X160246312Y-137795000D03*
X125694736Y-177165000D03*
X124294736Y-177165000D03*
X196112888Y-177165000D03*
X194712888Y-177165000D03*
X165933680Y-177165000D03*
X164533680Y-177165000D03*
X149056059Y-157480000D03*
X147656059Y-157480000D03*
X106951363Y-116205000D03*
X105551363Y-116205000D03*
X266531040Y-177165000D03*
X265131040Y-177165000D03*
X191604468Y-137795000D03*
X190204468Y-137795000D03*
X141674208Y-137795000D03*
X140274208Y-137795000D03*
X101730000Y-137795000D03*
X100330000Y-137795000D03*
X271773171Y-116205000D03*
X270373171Y-116205000D03*
X282074534Y-116205000D03*
X280674534Y-116205000D03*
X151660260Y-137795000D03*
X150260260Y-137795000D03*
X137855452Y-116205000D03*
X136455452Y-116205000D03*
X155873944Y-177165000D03*
X154473944Y-177165000D03*
X286650512Y-177165000D03*
X285250512Y-177165000D03*
X241534728Y-137795000D03*
X240134728Y-137795000D03*
X216232360Y-177165000D03*
X214832360Y-177165000D03*
X291465000Y-137795000D03*
X290065000Y-137795000D03*
X175993416Y-177165000D03*
X174593416Y-177165000D03*
X240869082Y-116205000D03*
X239469082Y-116205000D03*
X208411845Y-157480000D03*
X207011845Y-157480000D03*
X131688156Y-137795000D03*
X130288156Y-137795000D03*
X94680000Y-198755000D03*
X93280000Y-198755000D03*
X291530000Y-198755000D03*
X290130000Y-198755000D03*
X277660262Y-157480000D03*
X276260262Y-157480000D03*
X218304476Y-157480000D03*
X216904476Y-157480000D03*
X189362267Y-116205000D03*
X187962267Y-116205000D03*
X139163428Y-157480000D03*
X137763428Y-157480000D03*
X111716052Y-137795000D03*
X110316052Y-137795000D03*
X168759541Y-116205000D03*
X167359541Y-116205000D03*
X129270797Y-157480000D03*
X127870797Y-157480000D03*
X328995000Y-157480000D03*
X327595000Y-157480000D03*
X209964993Y-116205000D03*
X208564993Y-116205000D03*
X188626583Y-157480000D03*
X187226583Y-157480000D03*
X206172624Y-177165000D03*
X204772624Y-177165000D03*
X230567719Y-116205000D03*
X229167719Y-116205000D03*
X271492884Y-137795000D03*
X270092884Y-137795000D03*
X296710248Y-177165000D03*
X295310248Y-177165000D03*
X207075000Y-198755000D03*
X205675000Y-198755000D03*
X323280000Y-116205000D03*
X321880000Y-116205000D03*
X179060904Y-116205000D03*
X177660904Y-116205000D03*
X231548676Y-137795000D03*
X230148676Y-137795000D03*
X196280000Y-198755000D03*
X194880000Y-198755000D03*
X220266356Y-116205000D03*
X218866356Y-116205000D03*
X312978623Y-116205000D03*
X311578623Y-116205000D03*
X247982369Y-157480000D03*
X246582369Y-157480000D03*
X221562624Y-137795000D03*
X220162624Y-137795000D03*
X117252726Y-116205000D03*
X115852726Y-116205000D03*
X251520780Y-137795000D03*
X250120780Y-137795000D03*
X246411568Y-177165000D03*
X245011568Y-177165000D03*
X135754472Y-177165000D03*
X134354472Y-177165000D03*
X145814208Y-177165000D03*
X144414208Y-177165000D03*
X238089738Y-157480000D03*
X236689738Y-157480000D03*
X109485535Y-157480000D03*
X108085535Y-157480000D03*
M02*
